G04 #@! TF.GenerationSoftware,KiCad,Pcbnew,(2017-06-11 revision 44b118f8c)-makepkg*
G04 #@! TF.CreationDate,2017-06-12T04:02:47+02:00*
G04 #@! TF.ProjectId,GRBL_Stepcraft,4752424C5F5374657063726166742E6B,rev?*
G04 #@! TF.FileFunction,Copper,L2,Bot,Signal*
G04 #@! TF.FilePolarity,Positive*
%FSLAX46Y46*%
G04 Gerber Fmt 4.6, Leading zero omitted, Abs format (unit mm)*
G04 Created by KiCad (PCBNEW (2017-06-11 revision 44b118f8c)-makepkg) date 06/12/17 04:02:47*
%MOMM*%
%LPD*%
G01*
G04 APERTURE LIST*
%ADD10C,0.100000*%
%ADD11O,1.700000X1.700000*%
%ADD12R,1.700000X1.700000*%
%ADD13O,1.727200X2.032000*%
%ADD14C,4.064000*%
%ADD15C,1.520000*%
%ADD16R,1.520000X1.520000*%
%ADD17C,3.810000*%
%ADD18C,1.500000*%
%ADD19C,0.381000*%
G04 APERTURE END LIST*
D10*
D11*
X97028000Y-52705000D03*
D12*
X97028000Y-50165000D03*
D13*
X68453000Y-74295000D03*
X70993000Y-74295000D03*
X73533000Y-74295000D03*
X76073000Y-74295000D03*
X78613000Y-74295000D03*
X81153000Y-74295000D03*
X83693000Y-74295000D03*
X86233000Y-74295000D03*
X91313000Y-74295000D03*
X93853000Y-74295000D03*
X96393000Y-74295000D03*
X98933000Y-74295000D03*
X101473000Y-74295000D03*
X104013000Y-74295000D03*
X59309000Y-26035000D03*
X61849000Y-26035000D03*
X64389000Y-26035000D03*
X66929000Y-26035000D03*
X69469000Y-26035000D03*
X72009000Y-26035000D03*
X74549000Y-26035000D03*
X77089000Y-26035000D03*
X79629000Y-26035000D03*
X82169000Y-26035000D03*
X86233000Y-26035000D03*
X88773000Y-26035000D03*
X91313000Y-26035000D03*
X93853000Y-26035000D03*
X96393000Y-26035000D03*
X98933000Y-26035000D03*
X101473000Y-26035000D03*
X104013000Y-26035000D03*
D14*
X54483000Y-74295000D03*
X106553000Y-69215000D03*
X55753000Y-26035000D03*
X106553000Y-41275000D03*
D15*
X48768000Y-65400000D03*
X48768000Y-62610000D03*
X48768000Y-59860000D03*
X48768000Y-57170000D03*
X48768000Y-54330000D03*
X48768000Y-51580000D03*
X48768000Y-48840000D03*
X48768000Y-46050000D03*
X48768000Y-43300000D03*
X48768000Y-40560000D03*
X48768000Y-37760000D03*
X48768000Y-35220000D03*
X51308000Y-66800000D03*
X51308000Y-64000000D03*
X51308000Y-61210000D03*
X51308000Y-58540000D03*
X51308000Y-55750000D03*
X51308000Y-52950000D03*
X51308000Y-50160000D03*
X51308000Y-47490000D03*
X51308000Y-44700000D03*
X51308000Y-41910000D03*
X51308000Y-39110000D03*
X51308000Y-36440000D03*
D16*
X51308000Y-33650000D03*
D17*
X48768000Y-26670000D03*
X48768000Y-73660000D03*
D18*
X74549000Y-30353000D03*
X74549000Y-43180000D03*
X72009000Y-64008000D03*
X72009000Y-34163000D03*
X93853000Y-43434000D03*
X93853000Y-33909000D03*
X86106000Y-47498000D03*
X86233000Y-34671000D03*
X96393000Y-29845000D03*
X96393000Y-36195000D03*
X88773000Y-41275000D03*
X88773000Y-34544000D03*
D19*
X74549000Y-43180000D02*
X74549000Y-30353000D01*
X72009000Y-34163000D02*
X72009000Y-64008000D01*
X93853000Y-33909000D02*
X93853000Y-43434000D01*
X86233000Y-34671000D02*
X86233000Y-47371000D01*
X86233000Y-47371000D02*
X86106000Y-47498000D01*
X96393000Y-36195000D02*
X96393000Y-29845000D01*
X88773000Y-34544000D02*
X88773000Y-41275000D01*
M02*
