G04 #@! TF.GenerationSoftware,KiCad,Pcbnew,(2017-06-11 revision 44b118f8c)-makepkg*
G04 #@! TF.CreationDate,2017-06-12T04:02:47+02:00*
G04 #@! TF.ProjectId,GRBL_Stepcraft,4752424C5F5374657063726166742E6B,rev?*
G04 #@! TF.FileFunction,Legend,Top*
G04 #@! TF.FilePolarity,Positive*
%FSLAX46Y46*%
G04 Gerber Fmt 4.6, Leading zero omitted, Abs format (unit mm)*
G04 Created by KiCad (PCBNEW (2017-06-11 revision 44b118f8c)-makepkg) date 06/12/17 04:02:47*
%MOMM*%
%LPD*%
G01*
G04 APERTURE LIST*
%ADD10C,0.100000*%
%ADD11C,0.150000*%
%ADD12C,0.120000*%
G04 APERTURE END LIST*
D10*
D11*
X68905380Y-71469285D02*
X68905380Y-72040714D01*
X68905380Y-71755000D02*
X67905380Y-71755000D01*
X68048238Y-71850238D01*
X68143476Y-71945476D01*
X68191095Y-72040714D01*
D12*
X95698000Y-48835000D02*
X97028000Y-48835000D01*
X95698000Y-50165000D02*
X95698000Y-48835000D01*
X98358000Y-51435000D02*
X95698000Y-51435000D01*
X98358000Y-54035000D02*
X98358000Y-51435000D01*
X95698000Y-54035000D02*
X98358000Y-54035000D01*
X95698000Y-51435000D02*
X95698000Y-54035000D01*
D11*
X69723000Y-75565000D02*
X87503000Y-75565000D01*
X87503000Y-75565000D02*
X87503000Y-73025000D01*
X87503000Y-73025000D02*
X69723000Y-73025000D01*
X66903000Y-75845000D02*
X68453000Y-75845000D01*
X69723000Y-75565000D02*
X69723000Y-73025000D01*
X68453000Y-72745000D02*
X66903000Y-72745000D01*
X66903000Y-72745000D02*
X66903000Y-75845000D01*
X92583000Y-75565000D02*
X105283000Y-75565000D01*
X105283000Y-75565000D02*
X105283000Y-73025000D01*
X105283000Y-73025000D02*
X92583000Y-73025000D01*
X89763000Y-75845000D02*
X91313000Y-75845000D01*
X92583000Y-75565000D02*
X92583000Y-73025000D01*
X91313000Y-72745000D02*
X89763000Y-72745000D01*
X89763000Y-72745000D02*
X89763000Y-75845000D01*
X60579000Y-27305000D02*
X83439000Y-27305000D01*
X83439000Y-27305000D02*
X83439000Y-24765000D01*
X83439000Y-24765000D02*
X60579000Y-24765000D01*
X57759000Y-27585000D02*
X59309000Y-27585000D01*
X60579000Y-27305000D02*
X60579000Y-24765000D01*
X59309000Y-24485000D02*
X57759000Y-24485000D01*
X57759000Y-24485000D02*
X57759000Y-27585000D01*
X87503000Y-27305000D02*
X105283000Y-27305000D01*
X105283000Y-27305000D02*
X105283000Y-24765000D01*
X105283000Y-24765000D02*
X87503000Y-24765000D01*
X84683000Y-27585000D02*
X86233000Y-27585000D01*
X87503000Y-27305000D02*
X87503000Y-24765000D01*
X86233000Y-24485000D02*
X84683000Y-24485000D01*
X84683000Y-24485000D02*
X84683000Y-27585000D01*
X56769000Y-74295000D02*
G75*
G03X56769000Y-74295000I-2286000J0D01*
G01*
X108839000Y-69215000D02*
G75*
G03X108839000Y-69215000I-2286000J0D01*
G01*
X58039000Y-26035000D02*
G75*
G03X58039000Y-26035000I-2286000J0D01*
G01*
X108839000Y-41275000D02*
G75*
G03X108839000Y-41275000I-2286000J0D01*
G01*
X96694666Y-47287380D02*
X96694666Y-48001666D01*
X96647047Y-48144523D01*
X96551809Y-48239761D01*
X96408952Y-48287380D01*
X96313714Y-48287380D01*
X97123238Y-47382619D02*
X97170857Y-47335000D01*
X97266095Y-47287380D01*
X97504190Y-47287380D01*
X97599428Y-47335000D01*
X97647047Y-47382619D01*
X97694666Y-47477857D01*
X97694666Y-47573095D01*
X97647047Y-47715952D01*
X97075619Y-48287380D01*
X97694666Y-48287380D01*
X71778904Y-71953380D02*
X71778904Y-70953380D01*
X72159857Y-70953380D01*
X72255095Y-71001000D01*
X72302714Y-71048619D01*
X72350333Y-71143857D01*
X72350333Y-71286714D01*
X72302714Y-71381952D01*
X72255095Y-71429571D01*
X72159857Y-71477190D01*
X71778904Y-71477190D01*
X73302714Y-71953380D02*
X72731285Y-71953380D01*
X73017000Y-71953380D02*
X73017000Y-70953380D01*
X72921761Y-71096238D01*
X72826523Y-71191476D01*
X72731285Y-71239095D01*
X97178904Y-72207380D02*
X97178904Y-71207380D01*
X97559857Y-71207380D01*
X97655095Y-71255000D01*
X97702714Y-71302619D01*
X97750333Y-71397857D01*
X97750333Y-71540714D01*
X97702714Y-71635952D01*
X97655095Y-71683571D01*
X97559857Y-71731190D01*
X97178904Y-71731190D01*
X98131285Y-71302619D02*
X98178904Y-71255000D01*
X98274142Y-71207380D01*
X98512238Y-71207380D01*
X98607476Y-71255000D01*
X98655095Y-71302619D01*
X98702714Y-71397857D01*
X98702714Y-71493095D01*
X98655095Y-71635952D01*
X98083666Y-72207380D01*
X98702714Y-72207380D01*
X69111904Y-29408380D02*
X69111904Y-28408380D01*
X69492857Y-28408380D01*
X69588095Y-28456000D01*
X69635714Y-28503619D01*
X69683333Y-28598857D01*
X69683333Y-28741714D01*
X69635714Y-28836952D01*
X69588095Y-28884571D01*
X69492857Y-28932190D01*
X69111904Y-28932190D01*
X70016666Y-28408380D02*
X70635714Y-28408380D01*
X70302380Y-28789333D01*
X70445238Y-28789333D01*
X70540476Y-28836952D01*
X70588095Y-28884571D01*
X70635714Y-28979809D01*
X70635714Y-29217904D01*
X70588095Y-29313142D01*
X70540476Y-29360761D01*
X70445238Y-29408380D01*
X70159523Y-29408380D01*
X70064285Y-29360761D01*
X70016666Y-29313142D01*
X101369904Y-29027380D02*
X101369904Y-28027380D01*
X101750857Y-28027380D01*
X101846095Y-28075000D01*
X101893714Y-28122619D01*
X101941333Y-28217857D01*
X101941333Y-28360714D01*
X101893714Y-28455952D01*
X101846095Y-28503571D01*
X101750857Y-28551190D01*
X101369904Y-28551190D01*
X102798476Y-28360714D02*
X102798476Y-29027380D01*
X102560380Y-27979761D02*
X102322285Y-28694047D01*
X102941333Y-28694047D01*
M02*
