M48
;DRILL file {KiCad (2017-06-10 revision eadfff8ac)-master} date Mon Jun 12 02:29:43 2017
;FORMAT={-:-/ absolute / inch / decimal}
FMAT,2
INCH,TZ
T1C0.039
T2C0.040
T3C0.040
T4C0.120
T5C0.120
%
G90
G05
M72
T1
X2.835Y-1.345
X2.835Y-2.52
X2.935Y-1.195
X2.935Y-1.7
X3.39Y-1.87
X3.395Y-1.365
X3.495Y-1.36
X3.495Y-1.625
X3.695Y-1.335
X3.695Y-1.71
X3.795Y-1.175
X3.795Y-1.425
X3.57Y-1.95
X3.57Y-2.05
T2
X2.695Y-2.925
X2.795Y-2.925
X2.895Y-2.925
X2.995Y-2.925
X3.095Y-2.925
X3.195Y-2.925
X3.295Y-2.925
X3.395Y-2.925
X3.395Y-1.025
X3.495Y-1.025
X3.595Y-1.025
X3.695Y-1.025
X3.795Y-1.025
X3.895Y-1.025
X3.995Y-1.025
X4.095Y-1.025
X3.595Y-2.925
X3.695Y-2.925
X3.795Y-2.925
X3.895Y-2.925
X3.995Y-2.925
X4.095Y-2.925
X2.335Y-1.025
X2.435Y-1.025
X2.535Y-1.025
X2.635Y-1.025
X2.735Y-1.025
X2.835Y-1.025
X2.935Y-1.025
X3.035Y-1.025
X3.135Y-1.025
X3.235Y-1.025
T3
X1.92Y-1.3866
X1.92Y-1.4866
X1.92Y-1.5969
X1.92Y-1.7047
X1.92Y-1.813
X1.92Y-1.9228
X1.92Y-2.0307
X1.92Y-2.139
X1.92Y-2.2508
X1.92Y-2.3567
X1.92Y-2.465
X1.92Y-2.5748
X2.02Y-1.3248
X2.02Y-1.4346
X2.02Y-1.5398
X2.02Y-1.65
X2.02Y-1.7598
X2.02Y-1.8697
X2.02Y-1.9748
X2.02Y-2.0846
X2.02Y-2.1949
X2.02Y-2.3047
X2.02Y-2.4098
X2.02Y-2.5197
X2.02Y-2.6299
T4
X4.195Y-1.625
X2.145Y-2.925
X2.195Y-1.025
X4.195Y-2.725
T5
X1.92Y-1.05
X1.92Y-2.9
T0
M30
