G04 #@! TF.FileFunction,Copper,L2,Bot,Signal*
%FSLAX46Y46*%
G04 Gerber Fmt 4.6, Leading zero omitted, Abs format (unit mm)*
G04 Created by KiCad (PCBNEW 4.0.6) date Mon Jun 12 14:06:39 2017*
%MOMM*%
%LPD*%
G01*
G04 APERTURE LIST*
%ADD10C,0.100000*%
%ADD11C,1.520000*%
%ADD12R,1.520000X1.520000*%
%ADD13C,3.810000*%
%ADD14O,1.700000X1.700000*%
%ADD15R,1.700000X1.700000*%
%ADD16O,1.727200X2.032000*%
%ADD17C,4.064000*%
%ADD18C,1.500000*%
%ADD19C,0.381000*%
G04 APERTURE END LIST*
D10*
D11*
X47625000Y-34971000D03*
X47625000Y-37761000D03*
X47625000Y-40511000D03*
X47625000Y-43201000D03*
X47625000Y-46041000D03*
X47625000Y-48791000D03*
X47625000Y-51531000D03*
X47625000Y-54321000D03*
X47625000Y-57071000D03*
X47625000Y-59811000D03*
X47625000Y-62611000D03*
X47625000Y-65151000D03*
X50165000Y-33571000D03*
X50165000Y-36371000D03*
X50165000Y-39161000D03*
X50165000Y-41831000D03*
X50165000Y-44621000D03*
X50165000Y-47421000D03*
X50165000Y-50211000D03*
X50165000Y-52881000D03*
X50165000Y-55671000D03*
X50165000Y-58461000D03*
X50165000Y-61261000D03*
X50165000Y-63931000D03*
D12*
X50165000Y-66721000D03*
D13*
X47625000Y-73701000D03*
X47625000Y-26711000D03*
D14*
X97028000Y-52705000D03*
D15*
X97028000Y-50165000D03*
D16*
X68453000Y-74295000D03*
X70993000Y-74295000D03*
X73533000Y-74295000D03*
X76073000Y-74295000D03*
X78613000Y-74295000D03*
X81153000Y-74295000D03*
X83693000Y-74295000D03*
X86233000Y-74295000D03*
X91313000Y-74295000D03*
X93853000Y-74295000D03*
X96393000Y-74295000D03*
X98933000Y-74295000D03*
X101473000Y-74295000D03*
X104013000Y-74295000D03*
X59309000Y-26035000D03*
X61849000Y-26035000D03*
X64389000Y-26035000D03*
X66929000Y-26035000D03*
X69469000Y-26035000D03*
X72009000Y-26035000D03*
X74549000Y-26035000D03*
X77089000Y-26035000D03*
X79629000Y-26035000D03*
X82169000Y-26035000D03*
X86233000Y-26035000D03*
X88773000Y-26035000D03*
X91313000Y-26035000D03*
X93853000Y-26035000D03*
X96393000Y-26035000D03*
X98933000Y-26035000D03*
X101473000Y-26035000D03*
X104013000Y-26035000D03*
D17*
X54483000Y-74295000D03*
X106553000Y-69215000D03*
X55753000Y-26035000D03*
X106553000Y-41275000D03*
D18*
X74549000Y-30861000D03*
X74549000Y-57023000D03*
X57658000Y-69215000D03*
X57658000Y-42545000D03*
X61468000Y-38735000D03*
X61468000Y-52832000D03*
X63881000Y-41275000D03*
X63881000Y-58420000D03*
X66548000Y-43815000D03*
X66548000Y-63881000D03*
X69469000Y-66675000D03*
X69469000Y-30353000D03*
D19*
X106553000Y-69215000D02*
X104521001Y-71246999D01*
X104521001Y-71246999D02*
X104521001Y-72621049D01*
X104521001Y-72621049D02*
X105448110Y-73548158D01*
X105448110Y-73548158D02*
X105448110Y-75041842D01*
X105448110Y-75041842D02*
X104607442Y-75882510D01*
X104607442Y-75882510D02*
X85128110Y-75882510D01*
X85128110Y-75882510D02*
X83693000Y-74447400D01*
X83693000Y-74447400D02*
X83693000Y-74295000D01*
X66929000Y-26035000D02*
X66929000Y-25882600D01*
X66929000Y-25882600D02*
X68364110Y-24447490D01*
X68364110Y-24447490D02*
X104607442Y-24447490D01*
X106553000Y-38354000D02*
X106553000Y-41275000D01*
X104607442Y-24447490D02*
X105537000Y-25377048D01*
X105537000Y-25377048D02*
X105537000Y-37338000D01*
X105537000Y-37338000D02*
X106553000Y-38354000D01*
X55753000Y-26035000D02*
X57784999Y-28066999D01*
X57784999Y-28066999D02*
X65049401Y-28066999D01*
X65049401Y-28066999D02*
X66929000Y-26187400D01*
X66929000Y-26187400D02*
X66929000Y-26035000D01*
X47625000Y-26711000D02*
X55077000Y-26711000D01*
X55077000Y-26711000D02*
X55753000Y-26035000D01*
X47625000Y-34971000D02*
X47625000Y-33896198D01*
X47625000Y-33896198D02*
X47625000Y-26711000D01*
X47625000Y-54321000D02*
X47625000Y-34971000D01*
X47625000Y-73701000D02*
X47625000Y-71006924D01*
X47625000Y-71006924D02*
X46293499Y-69675423D01*
X46293499Y-69675423D02*
X46293499Y-55652501D01*
X46293499Y-55652501D02*
X46865001Y-55080999D01*
X46865001Y-55080999D02*
X47625000Y-54321000D01*
X54483000Y-74295000D02*
X48219000Y-74295000D01*
X48219000Y-74295000D02*
X47625000Y-73701000D01*
X81153000Y-74295000D02*
X81153000Y-75692000D01*
X81153000Y-75692000D02*
X80518001Y-76326999D01*
X80518001Y-76326999D02*
X56514999Y-76326999D01*
X56514999Y-76326999D02*
X54483000Y-74295000D01*
X83693000Y-74295000D02*
X81153000Y-74295000D01*
X106553000Y-69215000D02*
X106553000Y-58459000D01*
X106553000Y-58459000D02*
X106553000Y-41275000D01*
X106553000Y-41275000D02*
X97663000Y-50165000D01*
X97663000Y-50165000D02*
X97028000Y-50165000D01*
X74549000Y-30861000D02*
X74549000Y-26035000D01*
X47625000Y-57071000D02*
X74501000Y-57071000D01*
X74501000Y-57071000D02*
X74549000Y-57023000D01*
X72009000Y-26035000D02*
X72009000Y-30276822D01*
X72009000Y-30276822D02*
X73914679Y-32182501D01*
X73914679Y-32182501D02*
X75183321Y-32182501D01*
X75183321Y-32182501D02*
X77089000Y-30276822D01*
X77089000Y-27432000D02*
X77089000Y-26035000D01*
X77089000Y-30276822D02*
X77089000Y-27432000D01*
X72009000Y-26035000D02*
X72009000Y-29210000D01*
X72009000Y-29210000D02*
X72009000Y-29464000D01*
X72009000Y-29464000D02*
X72009000Y-29768822D01*
X72009000Y-29768822D02*
X65406822Y-36371000D01*
X65406822Y-36371000D02*
X51239802Y-36371000D01*
X51239802Y-36371000D02*
X50165000Y-36371000D01*
X77089000Y-26035000D02*
X79629000Y-26035000D01*
X57658000Y-69215000D02*
X86385400Y-69215000D01*
X86385400Y-69215000D02*
X91313000Y-74142600D01*
X91313000Y-74142600D02*
X91313000Y-74295000D01*
X50165000Y-39161000D02*
X54274000Y-39161000D01*
X54274000Y-39161000D02*
X57658000Y-42545000D01*
X93853000Y-26035000D02*
X93853000Y-26187400D01*
X69829400Y-50211000D02*
X51239802Y-50211000D01*
X93853000Y-26187400D02*
X69829400Y-50211000D01*
X51239802Y-50211000D02*
X50165000Y-50211000D01*
X61468000Y-38735000D02*
X73685400Y-38735000D01*
X73685400Y-38735000D02*
X86233000Y-26187400D01*
X86233000Y-26187400D02*
X86233000Y-26035000D01*
X50165000Y-52881000D02*
X61419000Y-52881000D01*
X61419000Y-52881000D02*
X61468000Y-52832000D01*
X50165000Y-55671000D02*
X66909400Y-55671000D01*
X66909400Y-55671000D02*
X96393000Y-26187400D01*
X96393000Y-26187400D02*
X96393000Y-26035000D01*
X63881000Y-41275000D02*
X73685400Y-41275000D01*
X73685400Y-41275000D02*
X88773000Y-26187400D01*
X88773000Y-26187400D02*
X88773000Y-26035000D01*
X50165000Y-58461000D02*
X63840000Y-58461000D01*
X63840000Y-58461000D02*
X63881000Y-58420000D01*
X50165000Y-61261000D02*
X72266824Y-61261000D01*
X72266824Y-61261000D02*
X75183322Y-58344502D01*
X98933000Y-34594824D02*
X75183322Y-58344502D01*
X98933000Y-26035000D02*
X98933000Y-34594824D01*
X66548000Y-43815000D02*
X73685400Y-43815000D01*
X73685400Y-43815000D02*
X91313000Y-26187400D01*
X91313000Y-26187400D02*
X91313000Y-26035000D01*
X50165000Y-63931000D02*
X66498000Y-63931000D01*
X66498000Y-63931000D02*
X66548000Y-63881000D01*
X50215000Y-63881000D02*
X50165000Y-63931000D01*
X69469000Y-66675000D02*
X50211000Y-66675000D01*
X50211000Y-66675000D02*
X50165000Y-66721000D01*
X69469000Y-30353000D02*
X69469000Y-26035000D01*
X97028000Y-52705000D02*
X97028000Y-67310000D01*
X97028000Y-67310000D02*
X102616000Y-72898000D01*
X102616000Y-72898000D02*
X102768400Y-72898000D01*
X102768400Y-72898000D02*
X104013000Y-74142600D01*
X104013000Y-74142600D02*
X104013000Y-74295000D01*
M02*
