M48
;DRILL file {KiCad 4.0.6} date Mon Jun 12 14:10:53 2017
;FORMAT={-:-/ absolute / inch / decimal}
FMAT,2
INCH,TZ
T1C0.039
T2C0.040
T3C0.040
T4C0.120
T5C0.120
%
G90
G05
M72
T1
X2.27Y-1.675
X2.27Y-2.725
X2.42Y-1.525
X2.42Y-2.08
X2.515Y-1.625
X2.515Y-2.3
X2.62Y-1.725
X2.62Y-2.515
X2.735Y-1.195
X2.735Y-2.625
X2.935Y-1.215
X2.935Y-2.245
X3.82Y-1.975
X3.82Y-2.075
T2
X2.335Y-1.025
X2.435Y-1.025
X2.535Y-1.025
X2.635Y-1.025
X2.695Y-2.925
X2.735Y-1.025
X2.795Y-2.925
X2.835Y-1.025
X2.895Y-2.925
X2.935Y-1.025
X2.995Y-2.925
X3.035Y-1.025
X3.095Y-2.925
X3.135Y-1.025
X3.195Y-2.925
X3.235Y-1.025
X3.295Y-2.925
X3.395Y-1.025
X3.395Y-2.925
X3.495Y-1.025
X3.595Y-1.025
X3.595Y-2.925
X3.695Y-1.025
X3.695Y-2.925
X3.795Y-1.025
X3.795Y-2.925
X3.895Y-1.025
X3.895Y-2.925
X3.995Y-1.025
X3.995Y-2.925
X4.095Y-1.025
X4.095Y-2.925
T3
X1.875Y-1.3768
X1.875Y-1.4867
X1.875Y-1.5949
X1.875Y-1.7008
X1.875Y-1.8126
X1.875Y-1.9209
X1.875Y-2.0288
X1.875Y-2.1386
X1.875Y-2.2469
X1.875Y-2.3548
X1.875Y-2.465
X1.875Y-2.565
X1.975Y-1.3217
X1.975Y-1.4319
X1.975Y-1.5418
X1.975Y-1.6469
X1.975Y-1.7567
X1.975Y-1.867
X1.975Y-1.9768
X1.975Y-2.0819
X1.975Y-2.1918
X1.975Y-2.3016
X1.975Y-2.4119
X1.975Y-2.517
X1.975Y-2.6268
T4
X2.145Y-2.925
X2.195Y-1.025
X4.195Y-1.625
X4.195Y-2.725
T5
X1.875Y-1.0516
X1.875Y-2.9016
T0
M30
