G04 #@! TF.GenerationSoftware,KiCad,Pcbnew,(2017-06-10 revision eadfff8ac)-master*
G04 #@! TF.CreationDate,2017-06-12T02:29:33+02:00*
G04 #@! TF.ProjectId,GRBL_Stepcraft,4752424C5F5374657063726166742E6B,rev?*
G04 #@! TF.FileFunction,Legend,Top*
G04 #@! TF.FilePolarity,Positive*
%FSLAX46Y46*%
G04 Gerber Fmt 4.6, Leading zero omitted, Abs format (unit mm)*
G04 Created by KiCad (PCBNEW (2017-06-10 revision eadfff8ac)-master) date Mon Jun 12 02:29:33 2017*
%MOMM*%
%LPD*%
G01*
G04 APERTURE LIST*
%ADD10C,0.100000*%
%ADD11C,0.150000*%
G04 APERTURE END LIST*
D10*
D11*
X68905380Y-71469285D02*
X68905380Y-72040714D01*
X68905380Y-71755000D02*
X67905380Y-71755000D01*
X68048238Y-71850238D01*
X68143476Y-71945476D01*
X68191095Y-72040714D01*
X69723000Y-75565000D02*
X87503000Y-75565000D01*
X87503000Y-75565000D02*
X87503000Y-73025000D01*
X87503000Y-73025000D02*
X69723000Y-73025000D01*
X66903000Y-75845000D02*
X68453000Y-75845000D01*
X69723000Y-75565000D02*
X69723000Y-73025000D01*
X68453000Y-72745000D02*
X66903000Y-72745000D01*
X66903000Y-72745000D02*
X66903000Y-75845000D01*
X92583000Y-75565000D02*
X105283000Y-75565000D01*
X105283000Y-75565000D02*
X105283000Y-73025000D01*
X105283000Y-73025000D02*
X92583000Y-73025000D01*
X89763000Y-75845000D02*
X91313000Y-75845000D01*
X92583000Y-75565000D02*
X92583000Y-73025000D01*
X91313000Y-72745000D02*
X89763000Y-72745000D01*
X89763000Y-72745000D02*
X89763000Y-75845000D01*
X60579000Y-27305000D02*
X83439000Y-27305000D01*
X83439000Y-27305000D02*
X83439000Y-24765000D01*
X83439000Y-24765000D02*
X60579000Y-24765000D01*
X57759000Y-27585000D02*
X59309000Y-27585000D01*
X60579000Y-27305000D02*
X60579000Y-24765000D01*
X59309000Y-24485000D02*
X57759000Y-24485000D01*
X57759000Y-24485000D02*
X57759000Y-27585000D01*
X87503000Y-27305000D02*
X105283000Y-27305000D01*
X105283000Y-27305000D02*
X105283000Y-24765000D01*
X105283000Y-24765000D02*
X87503000Y-24765000D01*
X84683000Y-27585000D02*
X86233000Y-27585000D01*
X87503000Y-27305000D02*
X87503000Y-24765000D01*
X86233000Y-24485000D02*
X84683000Y-24485000D01*
X84683000Y-24485000D02*
X84683000Y-27585000D01*
X56769000Y-74295000D02*
G75*
G03X56769000Y-74295000I-2286000J0D01*
G01*
X108839000Y-69215000D02*
G75*
G03X108839000Y-69215000I-2286000J0D01*
G01*
X58039000Y-26035000D02*
G75*
G03X58039000Y-26035000I-2286000J0D01*
G01*
X108839000Y-41275000D02*
G75*
G03X108839000Y-41275000I-2286000J0D01*
G01*
X76604904Y-72207380D02*
X76604904Y-71207380D01*
X76985857Y-71207380D01*
X77081095Y-71255000D01*
X77128714Y-71302619D01*
X77176333Y-71397857D01*
X77176333Y-71540714D01*
X77128714Y-71635952D01*
X77081095Y-71683571D01*
X76985857Y-71731190D01*
X76604904Y-71731190D01*
X78128714Y-72207380D02*
X77557285Y-72207380D01*
X77843000Y-72207380D02*
X77843000Y-71207380D01*
X77747761Y-71350238D01*
X77652523Y-71445476D01*
X77557285Y-71493095D01*
X97178904Y-72207380D02*
X97178904Y-71207380D01*
X97559857Y-71207380D01*
X97655095Y-71255000D01*
X97702714Y-71302619D01*
X97750333Y-71397857D01*
X97750333Y-71540714D01*
X97702714Y-71635952D01*
X97655095Y-71683571D01*
X97559857Y-71731190D01*
X97178904Y-71731190D01*
X98131285Y-71302619D02*
X98178904Y-71255000D01*
X98274142Y-71207380D01*
X98512238Y-71207380D01*
X98607476Y-71255000D01*
X98655095Y-71302619D01*
X98702714Y-71397857D01*
X98702714Y-71493095D01*
X98655095Y-71635952D01*
X98083666Y-72207380D01*
X98702714Y-72207380D01*
X70000904Y-29281380D02*
X70000904Y-28281380D01*
X70381857Y-28281380D01*
X70477095Y-28329000D01*
X70524714Y-28376619D01*
X70572333Y-28471857D01*
X70572333Y-28614714D01*
X70524714Y-28709952D01*
X70477095Y-28757571D01*
X70381857Y-28805190D01*
X70000904Y-28805190D01*
X70905666Y-28281380D02*
X71524714Y-28281380D01*
X71191380Y-28662333D01*
X71334238Y-28662333D01*
X71429476Y-28709952D01*
X71477095Y-28757571D01*
X71524714Y-28852809D01*
X71524714Y-29090904D01*
X71477095Y-29186142D01*
X71429476Y-29233761D01*
X71334238Y-29281380D01*
X71048523Y-29281380D01*
X70953285Y-29233761D01*
X70905666Y-29186142D01*
X94384904Y-29281380D02*
X94384904Y-28281380D01*
X94765857Y-28281380D01*
X94861095Y-28329000D01*
X94908714Y-28376619D01*
X94956333Y-28471857D01*
X94956333Y-28614714D01*
X94908714Y-28709952D01*
X94861095Y-28757571D01*
X94765857Y-28805190D01*
X94384904Y-28805190D01*
X95813476Y-28614714D02*
X95813476Y-29281380D01*
X95575380Y-28233761D02*
X95337285Y-28948047D01*
X95956333Y-28948047D01*
M02*
