<?xml version="1.0" standalone="no"?>
<!DOCTYPE svg PUBLIC "-//W3C//DTD SVG 1.1//EN"
"http://www.w3.org/Graphics/SVG/1.1/DTD/svg11.dtd">
<svg width="5498.55" height="4298.55" viewBox="0 0 5498.55 4298.55" version="1.1"
xmlns="http://www.w3.org/2000/svg"
xmlns:xlink="http://www.w3.org/1999/xlink">
<circle cx="2529" cy="3238" r="39" style=""/>
<circle cx="2729" cy="1599" r="39" style=""/>
<circle cx="2529" cy="889" r="39" style=""/>
<circle cx="2729" cy="589" r="39" style=""/>
<circle cx="3648" cy="929" r="39" style=""/>
<circle cx="3848" cy="919" r="39" style=""/>
<circle cx="4248" cy="869" r="39" style=""/>
<circle cx="4448" cy="1049" r="39" style=""/>
<circle cx="4448" cy="549" r="39" style=""/>
<circle cx="4248" cy="1619" r="39" style=""/>
<circle cx="3848" cy="1449" r="39" style=""/>
<circle cx="3638" cy="1939" r="39" style=""/>
<circle cx="4498" cy="2149" r="39" style=""/>
<circle cx="4498" cy="2348" r="39" style=""/>
<circle cx="2249" cy="4048" r="40" style=""/>
<circle cx="2449" cy="4048" r="40" style=""/>
<circle cx="2649" cy="4048" r="40" style=""/>
<circle cx="2848" cy="4048" r="40" style=""/>
<circle cx="3048" cy="4048" r="40" style=""/>
<circle cx="3248" cy="4048" r="40" style=""/>
<circle cx="3448" cy="4048" r="40" style=""/>
<circle cx="3648" cy="4048" r="40" style=""/>
<circle cx="4048" cy="4048" r="40" style=""/>
<circle cx="4248" cy="4048" r="40" style=""/>
<circle cx="4448" cy="4048" r="40" style=""/>
<circle cx="4648" cy="4048" r="40" style=""/>
<circle cx="4848" cy="4048" r="40" style=""/>
<circle cx="5048" cy="4048" r="40" style=""/>
<circle cx="5048" cy="249" r="40" style=""/>
<circle cx="4848" cy="249" r="40" style=""/>
<circle cx="4648" cy="249" r="40" style=""/>
<circle cx="4448" cy="249" r="40" style=""/>
<circle cx="4248" cy="249" r="40" style=""/>
<circle cx="4048" cy="249" r="40" style=""/>
<circle cx="3848" cy="249" r="40" style=""/>
<circle cx="3648" cy="249" r="40" style=""/>
<circle cx="3328" cy="249" r="40" style=""/>
<circle cx="3128" cy="249" r="40" style=""/>
<circle cx="2928" cy="249" r="40" style=""/>
<circle cx="2729" cy="249" r="40" style=""/>
<circle cx="2529" cy="249" r="40" style=""/>
<circle cx="2329" cy="249" r="40" style=""/>
<circle cx="2129" cy="249" r="40" style=""/>
<circle cx="1929" cy="249" r="40" style=""/>
<circle cx="1729" cy="249" r="40" style=""/>
<circle cx="1529" cy="249" r="40" style=""/>
<circle cx="699" cy="3348" r="40" style=""/>
<circle cx="899" cy="3458" r="40" style=""/>
<circle cx="899" cy="3238" r="40" style=""/>
<circle cx="899" cy="3018" r="40" style=""/>
<circle cx="899" cy="2808" r="40" style=""/>
<circle cx="899" cy="2588" r="40" style=""/>
<circle cx="899" cy="2368" r="40" style=""/>
<circle cx="899" cy="2148" r="40" style=""/>
<circle cx="899" cy="1938" r="40" style=""/>
<circle cx="899" cy="1718" r="40" style=""/>
<circle cx="899" cy="1499" r="40" style=""/>
<circle cx="899" cy="1278" r="40" style=""/>
<circle cx="899" cy="1068" r="40" style=""/>
<circle cx="899" cy="848" r="40" style=""/>
<circle cx="699" cy="972" r="40" style=""/>
<circle cx="699" cy="1172" r="40" style=""/>
<circle cx="699" cy="1392" r="40" style=""/>
<circle cx="699" cy="1608" r="40" style=""/>
<circle cx="699" cy="1825" r="40" style=""/>
<circle cx="699" cy="2044" r="40" style=""/>
<circle cx="699" cy="2260" r="40" style=""/>
<circle cx="699" cy="2476" r="40" style=""/>
<circle cx="699" cy="2700" r="40" style=""/>
<circle cx="699" cy="2912" r="40" style=""/>
<circle cx="699" cy="3128" r="40" style=""/>
<circle cx="1149" cy="4048" r="120" style=""/>
<circle cx="1249" cy="249" r="120" style=""/>
<circle cx="5248" cy="1449" r="120" style=""/>
<circle cx="5248" cy="3648" r="120" style=""/>
<circle cx="699" cy="3998" r="120" style=""/>
<circle cx="699" cy="299" r="120" style=""/>
</svg>
