<?xml version="1.0" standalone="no"?>
<!DOCTYPE svg PUBLIC "-//W3C//DTD SVG 1.1//EN"
"http://www.w3.org/Graphics/SVG/1.1/DTD/svg11.dtd">
<svg width="5498.55" height="4298.55" viewBox="0 0 5498.55 4298.55" version="1.1"
xmlns="http://www.w3.org/2000/svg"
xmlns:xlink="http://www.w3.org/1999/xlink">
<circle cx="4499.28" cy="2349.28" r="39" style=""/>
<circle cx="4499.28" cy="2149.28" r="39" style=""/>
<circle cx="2729.28" cy="2689.28" r="39" style=""/>
<circle cx="2099.28" cy="3229.28" r="39" style=""/>
<circle cx="2329.28" cy="3449.28" r="39" style=""/>
<circle cx="1889.28" cy="2799.28" r="39" style=""/>
<circle cx="1699.28" cy="2359.28" r="39" style=""/>
<circle cx="2099.28" cy="1649.28" r="39" style=""/>
<circle cx="1889.28" cy="1449.28" r="39" style=""/>
<circle cx="1699.28" cy="1249.28" r="39" style=""/>
<circle cx="1399.28" cy="1549.28" r="39" style=""/>
<circle cx="2329.28" cy="589.276" r="39" style=""/>
<circle cx="2729.28" cy="629.276" r="39" style=""/>
<circle cx="1399.28" cy="3649.28" r="39" style=""/>
<circle cx="5049.28" cy="4049.28" r="40" style=""/>
<circle cx="4849.28" cy="4049.28" r="40" style=""/>
<circle cx="4649.28" cy="4049.28" r="40" style=""/>
<circle cx="4449.28" cy="4049.28" r="40" style=""/>
<circle cx="4249.28" cy="4049.28" r="40" style=""/>
<circle cx="4049.28" cy="4049.28" r="40" style=""/>
<circle cx="3649.28" cy="4049.28" r="40" style=""/>
<circle cx="3449.28" cy="4049.28" r="40" style=""/>
<circle cx="3249.28" cy="4049.28" r="40" style=""/>
<circle cx="3049.28" cy="4049.28" r="40" style=""/>
<circle cx="2849.28" cy="4049.28" r="40" style=""/>
<circle cx="2649.28" cy="4049.28" r="40" style=""/>
<circle cx="2449.28" cy="4049.28" r="40" style=""/>
<circle cx="2249.28" cy="4049.28" r="40" style=""/>
<circle cx="2329.28" cy="249.276" r="40" style=""/>
<circle cx="2529.28" cy="249.276" r="40" style=""/>
<circle cx="2729.28" cy="249.276" r="40" style=""/>
<circle cx="2929.28" cy="249.276" r="40" style=""/>
<circle cx="3129.28" cy="249.276" r="40" style=""/>
<circle cx="3329.28" cy="249.276" r="40" style=""/>
<circle cx="3649.28" cy="249.276" r="40" style=""/>
<circle cx="3849.28" cy="249.276" r="40" style=""/>
<circle cx="4049.28" cy="249.276" r="40" style=""/>
<circle cx="4249.28" cy="249.276" r="40" style=""/>
<circle cx="4449.28" cy="249.276" r="40" style=""/>
<circle cx="4649.28" cy="249.276" r="40" style=""/>
<circle cx="4849.28" cy="249.276" r="40" style=""/>
<circle cx="5049.28" cy="249.276" r="40" style=""/>
<circle cx="2129.28" cy="249.276" r="40" style=""/>
<circle cx="1929.28" cy="249.276" r="40" style=""/>
<circle cx="1729.28" cy="249.276" r="40" style=""/>
<circle cx="1529.28" cy="249.276" r="40" style=""/>
<circle cx="809.276" cy="3452.88" r="40" style=""/>
<circle cx="809.276" cy="3233.28" r="40" style=""/>
<circle cx="809.276" cy="3023.08" r="40" style=""/>
<circle cx="809.276" cy="2802.48" r="40" style=""/>
<circle cx="809.276" cy="2582.88" r="40" style=""/>
<circle cx="809.276" cy="2363.08" r="40" style=""/>
<circle cx="809.276" cy="2152.88" r="40" style=""/>
<circle cx="809.276" cy="1933.28" r="40" style=""/>
<circle cx="809.276" cy="1712.68" r="40" style=""/>
<circle cx="809.276" cy="1493.08" r="40" style=""/>
<circle cx="809.276" cy="1282.88" r="40" style=""/>
<circle cx="809.276" cy="1063.08" r="40" style=""/>
<circle cx="809.276" cy="842.676" r="40" style=""/>
<circle cx="609.276" cy="952.876" r="40" style=""/>
<circle cx="609.276" cy="1172.68" r="40" style=""/>
<circle cx="609.276" cy="1389.08" r="40" style=""/>
<circle cx="609.276" cy="1600.88" r="40" style=""/>
<circle cx="609.276" cy="1824.48" r="40" style=""/>
<circle cx="609.276" cy="2041.08" r="40" style=""/>
<circle cx="609.276" cy="2256.88" r="40" style=""/>
<circle cx="609.276" cy="2476.48" r="40" style=""/>
<circle cx="609.276" cy="2693.08" r="40" style=""/>
<circle cx="609.276" cy="2908.88" r="40" style=""/>
<circle cx="609.276" cy="3129.28" r="40" style=""/>
<circle cx="609.276" cy="3329.28" r="40" style=""/>
<circle cx="5249.28" cy="3649.28" r="120" style=""/>
<circle cx="5249.28" cy="1449.28" r="120" style=""/>
<circle cx="1249.28" cy="249.276" r="120" style=""/>
<circle cx="1149.28" cy="4049.28" r="120" style=""/>
<circle cx="609.276" cy="4002.48" r="120" style=""/>
<circle cx="609.276" cy="302.476" r="120" style=""/>
</svg>
