<?xml version="1.0" standalone="no"?>
<!DOCTYPE svg PUBLIC "-//W3C//DTD SVG 1.1//EN"
"http://www.w3.org/Graphics/SVG/1.1/DTD/svg11.dtd">
<svg width="5498.55" height="4298.55" viewBox="0 0 5498.55 4298.55" version="1.1"
xmlns="http://www.w3.org/2000/svg"
xmlns:xlink="http://www.w3.org/1999/xlink">
<circle cx="2529.28" cy="3239.28" r="39" style=""/>
<circle cx="2729.28" cy="1599.28" r="39" style=""/>
<circle cx="2529.28" cy="889.276" r="39" style=""/>
<circle cx="2729.28" cy="589.276" r="39" style=""/>
<circle cx="3649.28" cy="929.276" r="39" style=""/>
<circle cx="3849.28" cy="919.276" r="39" style=""/>
<circle cx="4249.28" cy="869.276" r="39" style=""/>
<circle cx="4449.28" cy="1049.28" r="39" style=""/>
<circle cx="4449.28" cy="549.276" r="39" style=""/>
<circle cx="4249.28" cy="1619.28" r="39" style=""/>
<circle cx="3849.28" cy="1449.28" r="39" style=""/>
<circle cx="3639.28" cy="1939.28" r="39" style=""/>
<circle cx="3999.28" cy="2099.28" r="39" style=""/>
<circle cx="3999.28" cy="2299.28" r="39" style=""/>
<circle cx="2249.28" cy="4049.28" r="40" style=""/>
<circle cx="2449.28" cy="4049.28" r="40" style=""/>
<circle cx="2649.28" cy="4049.28" r="40" style=""/>
<circle cx="2849.28" cy="4049.28" r="40" style=""/>
<circle cx="3049.28" cy="4049.28" r="40" style=""/>
<circle cx="3249.28" cy="4049.28" r="40" style=""/>
<circle cx="3449.28" cy="4049.28" r="40" style=""/>
<circle cx="3649.28" cy="4049.28" r="40" style=""/>
<circle cx="4049.28" cy="4049.28" r="40" style=""/>
<circle cx="4249.28" cy="4049.28" r="40" style=""/>
<circle cx="4449.28" cy="4049.28" r="40" style=""/>
<circle cx="4649.28" cy="4049.28" r="40" style=""/>
<circle cx="4849.28" cy="4049.28" r="40" style=""/>
<circle cx="5049.28" cy="4049.28" r="40" style=""/>
<circle cx="5049.28" cy="249.276" r="40" style=""/>
<circle cx="4849.28" cy="249.276" r="40" style=""/>
<circle cx="4649.28" cy="249.276" r="40" style=""/>
<circle cx="4449.28" cy="249.276" r="40" style=""/>
<circle cx="4249.28" cy="249.276" r="40" style=""/>
<circle cx="4049.28" cy="249.276" r="40" style=""/>
<circle cx="3849.28" cy="249.276" r="40" style=""/>
<circle cx="3649.28" cy="249.276" r="40" style=""/>
<circle cx="3329.28" cy="249.276" r="40" style=""/>
<circle cx="3129.28" cy="249.276" r="40" style=""/>
<circle cx="2929.28" cy="249.276" r="40" style=""/>
<circle cx="2729.28" cy="249.276" r="40" style=""/>
<circle cx="2529.28" cy="249.276" r="40" style=""/>
<circle cx="2329.28" cy="249.276" r="40" style=""/>
<circle cx="2129.28" cy="249.276" r="40" style=""/>
<circle cx="1929.28" cy="249.276" r="40" style=""/>
<circle cx="1729.28" cy="249.276" r="40" style=""/>
<circle cx="1529.28" cy="249.276" r="40" style=""/>
<circle cx="699.276" cy="3348.88" r="40" style=""/>
<circle cx="899.276" cy="3459.08" r="40" style=""/>
<circle cx="899.276" cy="3238.68" r="40" style=""/>
<circle cx="899.276" cy="3018.88" r="40" style=""/>
<circle cx="899.276" cy="2808.68" r="40" style=""/>
<circle cx="899.276" cy="2589.08" r="40" style=""/>
<circle cx="899.276" cy="2368.48" r="40" style=""/>
<circle cx="899.276" cy="2148.88" r="40" style=""/>
<circle cx="899.276" cy="1938.68" r="40" style=""/>
<circle cx="899.276" cy="1718.88" r="40" style=""/>
<circle cx="899.276" cy="1499.28" r="40" style=""/>
<circle cx="899.276" cy="1278.88" r="40" style=""/>
<circle cx="899.276" cy="1068.48" r="40" style=""/>
<circle cx="899.276" cy="848.876" r="40" style=""/>
<circle cx="699.276" cy="972.476" r="40" style=""/>
<circle cx="699.276" cy="1172.48" r="40" style=""/>
<circle cx="699.276" cy="1393.08" r="40" style=""/>
<circle cx="699.276" cy="1608.68" r="40" style=""/>
<circle cx="699.276" cy="1825.28" r="40" style=""/>
<circle cx="699.276" cy="2044.88" r="40" style=""/>
<circle cx="699.276" cy="2260.68" r="40" style=""/>
<circle cx="699.276" cy="2477.28" r="40" style=""/>
<circle cx="699.276" cy="2700.88" r="40" style=""/>
<circle cx="699.276" cy="2912.68" r="40" style=""/>
<circle cx="699.276" cy="3129.28" r="40" style=""/>
<circle cx="1149.28" cy="4049.28" r="120" style=""/>
<circle cx="1249.28" cy="249.276" r="120" style=""/>
<circle cx="5249.28" cy="1449.28" r="120" style=""/>
<circle cx="5249.28" cy="3649.28" r="120" style=""/>
<circle cx="699.276" cy="3999.28" r="120" style=""/>
<circle cx="699.276" cy="299.276" r="120" style=""/>
</svg>
