<?xml version="1.0" standalone="no"?>
<!DOCTYPE svg PUBLIC "-//W3C//DTD SVG 1.1//EN"
"http://www.w3.org/Graphics/SVG/1.1/DTD/svg11.dtd">
<svg width="5400" height="4200" viewBox="0 0 5400 4200" version="1.1"
xmlns="http://www.w3.org/2000/svg"
xmlns:xlink="http://www.w3.org/1999/xlink">
<g fill-rule="evenodd"><path d="M 2268,4012 L 2266.61,4025.69 L 2262.49,4038.82 L 2255.81,4050.85 L 2246.85,4061.28 L 2235.97,4069.71 L 2223.62,4075.77 L 2210.3,4079.21 L 2196.56,4079.91 L 2182.96,4077.83 L 2170.05,4073.05 L 2158.38,4065.77 L 2148.41,4056.29 L 2140.55,4045 L 2135.12,4032.36 L 2132.35,4018.88 L 2132,3988 L 2133.39,3974.31 L 2137.51,3961.18 L 2144.19,3949.15 L 2153.15,3938.72 L 2164.03,3930.29 L 2176.38,3924.23 L 2189.7,3920.79 L 2203.44,3920.09 L 2217.04,3922.17 L 2229.95,3926.95 L 2241.62,3934.23 L 2251.59,3943.71 L 2259.45,3955 L 2264.88,3967.64 L 2267.65,3981.12 L 2268,4012 z " style="fill-opacity:1.000000;fill:rgb(103,198,105);stroke:rgb(0,0,0);stroke-width:2"/></g>
<g fill-rule="evenodd"><path d="M 2468,4012 L 2466.61,4025.69 L 2462.49,4038.82 L 2455.81,4050.85 L 2446.85,4061.28 L 2435.97,4069.71 L 2423.62,4075.77 L 2410.3,4079.21 L 2396.56,4079.91 L 2382.96,4077.83 L 2370.05,4073.05 L 2358.38,4065.77 L 2348.41,4056.29 L 2340.55,4045 L 2335.12,4032.36 L 2332.35,4018.88 L 2332,3988 L 2333.39,3974.31 L 2337.51,3961.18 L 2344.19,3949.15 L 2353.15,3938.72 L 2364.03,3930.29 L 2376.38,3924.23 L 2389.7,3920.79 L 2403.44,3920.09 L 2417.04,3922.17 L 2429.95,3926.95 L 2441.62,3934.23 L 2451.59,3943.71 L 2459.45,3955 L 2464.88,3967.64 L 2467.65,3981.12 L 2468,4012 z " style="fill-opacity:1.000000;fill:rgb(115,81,255);stroke:rgb(0,0,0);stroke-width:2"/></g>
<g fill-rule="evenodd"><path d="M 2668,4012 L 2666.61,4025.69 L 2662.49,4038.82 L 2655.81,4050.85 L 2646.85,4061.28 L 2635.97,4069.71 L 2623.62,4075.77 L 2610.3,4079.21 L 2596.56,4079.91 L 2582.96,4077.83 L 2570.05,4073.05 L 2558.38,4065.77 L 2548.41,4056.29 L 2540.55,4045 L 2535.12,4032.36 L 2532.35,4018.88 L 2532,3988 L 2533.39,3974.31 L 2537.51,3961.18 L 2544.19,3949.15 L 2553.15,3938.72 L 2564.03,3930.29 L 2576.38,3924.23 L 2589.7,3920.79 L 2603.44,3920.09 L 2617.04,3922.17 L 2629.95,3926.95 L 2641.62,3934.23 L 2651.59,3943.71 L 2659.45,3955 L 2664.88,3967.64 L 2667.65,3981.12 L 2668,4012 z " style="fill-opacity:1.000000;fill:rgb(74,236,41);stroke:rgb(0,0,0);stroke-width:2"/></g>
<g fill-rule="evenodd"><path d="M 2868,4012 L 2866.61,4025.69 L 2862.49,4038.82 L 2855.81,4050.85 L 2846.85,4061.28 L 2835.97,4069.71 L 2823.62,4075.77 L 2810.3,4079.21 L 2796.56,4079.91 L 2782.96,4077.83 L 2770.05,4073.05 L 2758.38,4065.77 L 2748.41,4056.29 L 2740.55,4045 L 2735.12,4032.36 L 2732.35,4018.88 L 2732,3988 L 2733.39,3974.31 L 2737.51,3961.18 L 2744.19,3949.15 L 2753.15,3938.72 L 2764.03,3930.29 L 2776.38,3924.23 L 2789.7,3920.79 L 2803.44,3920.09 L 2817.04,3922.17 L 2829.95,3926.95 L 2841.62,3934.23 L 2851.59,3943.71 L 2859.45,3955 L 2864.88,3967.64 L 2867.65,3981.12 L 2868,4012 z " style="fill-opacity:1.000000;fill:rgb(205,186,171);stroke:rgb(0,0,0);stroke-width:2"/></g>
<g fill-rule="evenodd"><path d="M 3068,4012 L 3066.61,4025.69 L 3062.49,4038.82 L 3055.81,4050.85 L 3046.85,4061.28 L 3035.97,4069.71 L 3023.62,4075.77 L 3010.3,4079.21 L 2996.56,4079.91 L 2982.96,4077.83 L 2970.05,4073.05 L 2958.38,4065.77 L 2948.41,4056.29 L 2940.55,4045 L 2935.12,4032.36 L 2932.35,4018.88 L 2932,3988 L 2933.39,3974.31 L 2937.51,3961.18 L 2944.19,3949.15 L 2953.15,3938.72 L 2964.03,3930.29 L 2976.38,3924.23 L 2989.7,3920.79 L 3003.44,3920.09 L 3017.04,3922.17 L 3029.95,3926.95 L 3041.62,3934.23 L 3051.59,3943.71 L 3059.45,3955 L 3064.88,3967.64 L 3067.65,3981.12 L 3068,4012 z " style="fill-opacity:1.000000;fill:rgb(242,251,227);stroke:rgb(0,0,0);stroke-width:2"/></g>
<g fill-rule="evenodd"><path d="M 3668,4012 L 3666.61,4025.69 L 3662.49,4038.82 L 3655.81,4050.85 L 3646.85,4061.28 L 3635.97,4069.71 L 3623.62,4075.77 L 3610.3,4079.21 L 3596.56,4079.91 L 3582.96,4077.83 L 3570.05,4073.05 L 3558.38,4065.77 L 3548.41,4056.29 L 3540.55,4045 L 3535.12,4032.36 L 3532.35,4018.88 L 3532,3988 L 3533.39,3974.31 L 3537.51,3961.18 L 3544.19,3949.15 L 3553.15,3938.72 L 3564.03,3930.29 L 3576.38,3924.23 L 3589.7,3920.79 L 3603.44,3920.09 L 3617.04,3922.17 L 3629.95,3926.95 L 3641.62,3934.23 L 3651.59,3943.71 L 3659.45,3955 L 3664.88,3967.64 L 3667.65,3981.12 L 3668,4012 z " style="fill-opacity:1.000000;fill:rgb(70,124,194);stroke:rgb(0,0,0);stroke-width:2"/></g>
<g fill-rule="evenodd"><path d="M 4268,4012 L 4266.61,4025.69 L 4262.49,4038.82 L 4255.81,4050.85 L 4246.85,4061.28 L 4235.97,4069.71 L 4223.62,4075.77 L 4210.3,4079.21 L 4196.56,4079.91 L 4182.96,4077.83 L 4170.05,4073.05 L 4158.38,4065.77 L 4148.41,4056.29 L 4140.55,4045 L 4135.12,4032.36 L 4132.35,4018.88 L 4132,3988 L 4133.39,3974.31 L 4137.51,3961.18 L 4144.19,3949.15 L 4153.15,3938.72 L 4164.03,3930.29 L 4176.38,3924.23 L 4189.7,3920.79 L 4203.44,3920.09 L 4217.04,3922.17 L 4229.95,3926.95 L 4241.62,3934.23 L 4251.59,3943.71 L 4259.45,3955 L 4264.88,3967.64 L 4267.65,3981.12 L 4268,4012 z " style="fill-opacity:1.000000;fill:rgb(84,248,27);stroke:rgb(0,0,0);stroke-width:2"/></g>
<g fill-rule="evenodd"><path d="M 4468,4012 L 4466.61,4025.69 L 4462.49,4038.82 L 4455.81,4050.85 L 4446.85,4061.28 L 4435.97,4069.71 L 4423.62,4075.77 L 4410.3,4079.21 L 4396.56,4079.91 L 4382.96,4077.83 L 4370.05,4073.05 L 4358.38,4065.77 L 4348.41,4056.29 L 4340.55,4045 L 4335.12,4032.36 L 4332.35,4018.88 L 4332,3988 L 4333.39,3974.31 L 4337.51,3961.18 L 4344.19,3949.15 L 4353.15,3938.72 L 4364.03,3930.29 L 4376.38,3924.23 L 4389.7,3920.79 L 4403.44,3920.09 L 4417.04,3922.17 L 4429.95,3926.95 L 4441.62,3934.23 L 4451.59,3943.71 L 4459.45,3955 L 4464.88,3967.64 L 4467.65,3981.12 L 4468,4012 z " style="fill-opacity:1.000000;fill:rgb(232,231,141);stroke:rgb(0,0,0);stroke-width:2"/></g>
<g fill-rule="evenodd"><path d="M 4668,4012 L 4666.61,4025.69 L 4662.49,4038.82 L 4655.81,4050.85 L 4646.85,4061.28 L 4635.97,4069.71 L 4623.62,4075.77 L 4610.3,4079.21 L 4596.56,4079.91 L 4582.96,4077.83 L 4570.05,4073.05 L 4558.38,4065.77 L 4548.41,4056.29 L 4540.55,4045 L 4535.12,4032.36 L 4532.35,4018.88 L 4532,3988 L 4533.39,3974.31 L 4537.51,3961.18 L 4544.19,3949.15 L 4553.15,3938.72 L 4564.03,3930.29 L 4576.38,3924.23 L 4589.7,3920.79 L 4603.44,3920.09 L 4617.04,3922.17 L 4629.95,3926.95 L 4641.62,3934.23 L 4651.59,3943.71 L 4659.45,3955 L 4664.88,3967.64 L 4667.65,3981.12 L 4668,4012 z " style="fill-opacity:1.000000;fill:rgb(118,90,46);stroke:rgb(0,0,0);stroke-width:2"/></g>
<g fill-rule="evenodd"><path d="M 4868,4012 L 4866.61,4025.69 L 4862.49,4038.82 L 4855.81,4050.85 L 4846.85,4061.28 L 4835.97,4069.71 L 4823.62,4075.77 L 4810.3,4079.21 L 4796.56,4079.91 L 4782.96,4077.83 L 4770.05,4073.05 L 4758.38,4065.77 L 4748.41,4056.29 L 4740.55,4045 L 4735.12,4032.36 L 4732.35,4018.88 L 4732,3988 L 4733.39,3974.31 L 4737.51,3961.18 L 4744.19,3949.15 L 4753.15,3938.72 L 4764.03,3930.29 L 4776.38,3924.23 L 4789.7,3920.79 L 4803.44,3920.09 L 4817.04,3922.17 L 4829.95,3926.95 L 4841.62,3934.23 L 4851.59,3943.71 L 4859.45,3955 L 4864.88,3967.64 L 4867.65,3981.12 L 4868,4012 z " style="fill-opacity:1.000000;fill:rgb(99,51,159);stroke:rgb(0,0,0);stroke-width:2"/></g>
<g fill-rule="evenodd"><path d="M 1548,211.998 L 1546.61,225.686 L 1542.49,238.814 L 1535.81,250.844 L 1526.85,261.282 L 1515.97,269.704 L 1503.62,275.764 L 1490.3,279.212 L 1476.56,279.91 L 1462.96,277.826 L 1450.05,273.048 L 1438.38,265.77 L 1428.41,256.29 L 1420.55,244.998 L 1415.12,232.354 L 1412.35,218.876 L 1412,187.998 L 1413.39,174.31 L 1417.51,161.182 L 1424.19,149.152 L 1433.15,138.714 L 1444.03,130.292 L 1456.38,124.232 L 1469.7,120.784 L 1483.44,120.086 L 1497.04,122.17 L 1509.95,126.948 L 1521.62,134.226 L 1531.59,143.706 L 1539.45,154.998 L 1544.88,167.642 L 1547.65,181.12 L 1548,211.998 z " style="fill-opacity:1.000000;fill:rgb(201,154,102);stroke:rgb(0,0,0);stroke-width:2"/></g>
<g fill-rule="evenodd"><path d="M 1748,211.998 L 1746.61,225.686 L 1742.49,238.814 L 1735.81,250.844 L 1726.85,261.282 L 1715.97,269.704 L 1703.62,275.764 L 1690.3,279.212 L 1676.56,279.91 L 1662.96,277.826 L 1650.05,273.048 L 1638.38,265.77 L 1628.41,256.29 L 1620.55,244.998 L 1615.12,232.354 L 1612.35,218.876 L 1612,187.998 L 1613.39,174.31 L 1617.51,161.182 L 1624.19,149.152 L 1633.15,138.714 L 1644.03,130.292 L 1656.38,124.232 L 1669.7,120.784 L 1683.44,120.086 L 1697.04,122.17 L 1709.95,126.948 L 1721.62,134.226 L 1731.59,143.706 L 1739.45,154.998 L 1744.88,167.642 L 1747.65,181.12 L 1748,211.998 z " style="fill-opacity:1.000000;fill:rgb(50,13,183);stroke:rgb(0,0,0);stroke-width:2"/></g>
<g fill-rule="evenodd"><path d="M 1948,211.998 L 1946.61,225.686 L 1942.49,238.814 L 1935.81,250.844 L 1926.85,261.282 L 1915.97,269.704 L 1903.62,275.764 L 1890.3,279.212 L 1876.56,279.91 L 1862.96,277.826 L 1850.05,273.048 L 1838.38,265.77 L 1828.41,256.29 L 1820.55,244.998 L 1815.12,232.354 L 1812.35,218.876 L 1812,187.998 L 1813.39,174.31 L 1817.51,161.182 L 1824.19,149.152 L 1833.15,138.714 L 1844.03,130.292 L 1856.38,124.232 L 1869.7,120.784 L 1883.44,120.086 L 1897.04,122.17 L 1909.95,126.948 L 1921.62,134.226 L 1931.59,143.706 L 1939.45,154.998 L 1944.88,167.642 L 1947.65,181.12 L 1948,211.998 z " style="fill-opacity:1.000000;fill:rgb(49,88,163);stroke:rgb(0,0,0);stroke-width:2"/></g>
<g fill-rule="evenodd"><path d="M 3348,211.998 L 3346.61,225.686 L 3342.49,238.814 L 3335.81,250.844 L 3326.85,261.282 L 3315.97,269.704 L 3303.62,275.764 L 3290.3,279.212 L 3276.56,279.91 L 3262.96,277.826 L 3250.05,273.048 L 3238.38,265.77 L 3228.41,256.29 L 3220.55,244.998 L 3215.12,232.354 L 3212.35,218.876 L 3212,187.998 L 3213.39,174.31 L 3217.51,161.182 L 3224.19,149.152 L 3233.15,138.714 L 3244.03,130.292 L 3256.38,124.232 L 3269.7,120.784 L 3283.44,120.086 L 3297.04,122.17 L 3309.95,126.948 L 3321.62,134.226 L 3331.59,143.706 L 3339.45,154.998 L 3344.88,167.642 L 3347.65,181.12 L 3348,211.998 z " style="fill-opacity:1.000000;fill:rgb(90,37,93);stroke:rgb(0,0,0);stroke-width:2"/></g>
<g fill-rule="evenodd"><path d="M 4868,211.998 L 4866.61,225.686 L 4862.49,238.814 L 4855.81,250.844 L 4846.85,261.282 L 4835.97,269.704 L 4823.62,275.764 L 4810.3,279.212 L 4796.56,279.91 L 4782.96,277.826 L 4770.05,273.048 L 4758.38,265.77 L 4748.41,256.29 L 4740.55,244.998 L 4735.12,232.354 L 4732.35,218.876 L 4732,187.998 L 4733.39,174.31 L 4737.51,161.182 L 4744.19,149.152 L 4753.15,138.714 L 4764.03,130.292 L 4776.38,124.232 L 4789.7,120.784 L 4803.44,120.086 L 4817.04,122.17 L 4829.95,126.948 L 4841.62,134.226 L 4851.59,143.706 L 4859.45,154.998 L 4864.88,167.642 L 4867.65,181.12 L 4868,211.998 z " style="fill-opacity:1.000000;fill:rgb(5,23,88);stroke:rgb(0,0,0);stroke-width:2"/></g>
<g fill-rule="evenodd"><path d="M 5068,211.998 L 5066.61,225.686 L 5062.49,238.814 L 5055.81,250.844 L 5046.85,261.282 L 5035.97,269.704 L 5023.61,275.764 L 5010.29,279.212 L 4996.55,279.91 L 4982.95,277.826 L 4970.05,273.048 L 4958.38,265.77 L 4948.4,256.29 L 4940.54,244.998 L 4935.12,232.354 L 4932.35,218.876 L 4932,187.998 L 4933.39,174.31 L 4937.51,161.182 L 4944.19,149.152 L 4953.15,138.714 L 4964.03,130.292 L 4976.38,124.232 L 4989.7,120.784 L 5003.44,120.086 L 5017.04,122.17 L 5029.94,126.948 L 5041.62,134.226 L 5051.59,143.706 L 5059.45,154.998 L 5064.88,167.642 L 5067.65,181.12 L 5068,211.998 z " style="fill-opacity:1.000000;fill:rgb(233,94,212);stroke:rgb(0,0,0);stroke-width:2"/></g>
<g fill-rule="evenodd"><path d="M 1260,4000 L 1256.5,4033.26 L 1246.17,4065.08 L 1229.44,4094.04 L 1207.06,4118.9 L 1180,4138.56 L 1149.44,4152.17 L 1116.72,4159.12 L 1083.28,4159.12 L 1050.56,4152.17 L 1020,4138.56 L 992.94,4118.9 L 970.558,4094.04 L 953.834,4065.08 L 943.498,4033.26 L 940,4000 L 943.498,3966.74 L 953.834,3934.92 L 970.558,3905.96 L 992.94,3881.1 L 1020,3861.44 L 1050.56,3847.83 L 1083.28,3840.88 L 1116.72,3840.88 L 1149.44,3847.83 L 1180,3861.44 L 1207.06,3881.1 L 1229.44,3905.96 L 1246.17,3934.92 L 1256.5,3966.74 L 1260,4000 z " style="fill-opacity:1.000000;fill:rgb(171,178,205);stroke:rgb(0,0,0);stroke-width:2"/></g>
<g fill-rule="evenodd"><path d="M 5360,3600 L 5356.5,3633.26 L 5346.17,3665.08 L 5329.44,3694.04 L 5307.06,3718.9 L 5280,3738.56 L 5249.44,3752.17 L 5216.72,3759.12 L 5183.28,3759.12 L 5150.56,3752.17 L 5120,3738.56 L 5092.94,3718.9 L 5070.56,3694.04 L 5053.83,3665.08 L 5043.5,3633.26 L 5040,3600 L 5043.5,3566.74 L 5053.83,3534.92 L 5070.56,3505.96 L 5092.94,3481.1 L 5120,3461.44 L 5150.56,3447.83 L 5183.28,3440.88 L 5216.72,3440.88 L 5249.44,3447.83 L 5280,3461.44 L 5307.06,3481.1 L 5329.44,3505.96 L 5346.17,3534.92 L 5356.5,3566.74 L 5360,3600 z " style="fill-opacity:1.000000;fill:rgb(198,155,180);stroke:rgb(0,0,0);stroke-width:2"/></g>
<g fill-rule="evenodd"><path d="M 1360,199.998 L 1356.5,233.262 L 1346.17,265.074 L 1329.44,294.042 L 1307.06,318.9 L 1280,338.562 L 1249.44,352.166 L 1216.72,359.12 L 1183.28,359.12 L 1150.56,352.166 L 1120,338.562 L 1092.94,318.9 L 1070.56,294.042 L 1053.83,265.074 L 1043.5,233.262 L 1040,199.998 L 1043.5,166.734 L 1053.83,134.922 L 1070.56,105.954 L 1092.94,81.096 L 1120,61.434 L 1150.56,47.83 L 1183.28,40.876 L 1216.72,40.876 L 1249.44,47.83 L 1280,61.434 L 1307.06,81.096 L 1329.44,105.954 L 1346.17,134.922 L 1356.5,166.734 L 1360,199.998 z " style="fill-opacity:1.000000;fill:rgb(84,17,14);stroke:rgb(0,0,0);stroke-width:2"/></g>
<g fill-rule="evenodd"><path d="M 5360,1400 L 5356.5,1433.26 L 5346.17,1465.08 L 5329.44,1494.04 L 5307.06,1518.9 L 5280,1538.56 L 5249.44,1552.17 L 5216.72,1559.12 L 5183.28,1559.12 L 5150.56,1552.17 L 5120,1538.56 L 5092.94,1518.9 L 5070.56,1494.04 L 5053.83,1465.08 L 5043.5,1433.26 L 5040,1400 L 5043.5,1366.74 L 5053.83,1334.92 L 5070.56,1305.96 L 5092.94,1281.1 L 5120,1261.44 L 5150.56,1247.83 L 5183.28,1240.88 L 5216.72,1240.88 L 5249.44,1247.83 L 5280,1261.44 L 5307.06,1281.1 L 5329.44,1305.96 L 5346.17,1334.92 L 5356.5,1366.74 L 5360,1400 z " style="fill-opacity:1.000000;fill:rgb(130,116,65);stroke:rgb(0,0,0);stroke-width:2"/></g>
<g fill-rule="evenodd"><path d="M 709.842,1343.7 L 708.534,1356.14 L 704.668,1368.04 L 698.412,1378.87 L 690.042,1388.17 L 679.92,1395.52 L 668.492,1400.61 L 656.254,1403.21 L 643.746,1403.21 L 631.508,1400.61 L 620.08,1395.52 L 609.958,1388.17 L 601.588,1378.87 L 595.332,1368.04 L 591.466,1356.14 L 590.158,1343.7 L 591.466,1331.26 L 595.332,1319.36 L 601.588,1308.53 L 609.958,1299.23 L 620.08,1291.88 L 631.508,1286.79 L 643.746,1284.19 L 656.254,1284.19 L 668.492,1286.79 L 679.92,1291.88 L 690.042,1299.23 L 698.412,1308.53 L 704.668,1319.36 L 708.534,1331.26 L 709.842,1343.7 z " style="fill-opacity:1.000000;fill:rgb(33,61,220);stroke:rgb(0,0,0);stroke-width:2"/></g>
<g fill-rule="evenodd"><path d="M 709.842,1123.23 L 708.534,1135.67 L 704.668,1147.57 L 698.412,1158.4 L 690.042,1167.7 L 679.92,1175.05 L 668.492,1180.14 L 656.254,1182.74 L 643.746,1182.74 L 631.508,1180.14 L 620.08,1175.05 L 609.958,1167.7 L 601.588,1158.4 L 595.332,1147.57 L 591.466,1135.67 L 590.158,1123.23 L 591.466,1110.79 L 595.332,1098.89 L 601.588,1088.05 L 609.958,1078.76 L 620.08,1071.4 L 631.508,1066.32 L 643.746,1063.71 L 656.254,1063.71 L 668.492,1066.32 L 679.92,1071.4 L 690.042,1078.76 L 698.412,1088.05 L 704.668,1098.89 L 708.534,1110.79 L 709.842,1123.23 z " style="fill-opacity:1.000000;fill:rgb(135,112,233);stroke:rgb(0,0,0);stroke-width:2"/></g>
<g fill-rule="evenodd"><path d="M 709.842,923.228 L 708.534,935.668 L 704.668,947.566 L 698.412,958.402 L 690.042,967.698 L 679.92,975.052 L 668.492,980.14 L 656.254,982.742 L 643.746,982.742 L 631.508,980.14 L 620.08,975.052 L 609.958,967.698 L 601.588,958.402 L 595.332,947.566 L 591.466,935.668 L 590.158,923.228 L 591.466,910.788 L 595.332,898.89 L 601.588,888.054 L 609.958,878.758 L 620.08,871.404 L 631.508,866.316 L 643.746,863.714 L 656.254,863.714 L 668.492,866.316 L 679.92,871.404 L 690.042,878.758 L 698.412,888.054 L 704.668,898.89 L 708.534,910.788 L 709.842,923.228 z " style="fill-opacity:1.000000;fill:rgb(62,161,65);stroke:rgb(0,0,0);stroke-width:2"/></g>
<g fill-rule="evenodd"><path d="M 909.842,3409.84 L 908.534,3422.28 L 904.668,3434.18 L 898.412,3445.02 L 890.042,3454.31 L 879.92,3461.67 L 868.492,3466.75 L 856.254,3469.36 L 843.746,3469.36 L 831.508,3466.75 L 820.08,3461.67 L 809.958,3454.31 L 801.588,3445.02 L 795.332,3434.18 L 791.466,3422.28 L 790.158,3409.84 L 791.466,3397.4 L 795.332,3385.5 L 801.588,3374.67 L 809.958,3365.37 L 820.08,3358.02 L 831.508,3352.93 L 843.746,3350.33 L 856.254,3350.33 L 868.492,3352.93 L 879.92,3358.02 L 890.042,3365.37 L 898.412,3374.67 L 904.668,3385.5 L 908.534,3397.4 L 909.842,3409.84 z " style="fill-opacity:1.000000;fill:rgb(225,252,103);stroke:rgb(0,0,0);stroke-width:2"/></g>
<g fill-rule="evenodd"><path d="M 909.842,2759.45 L 908.534,2771.89 L 904.668,2783.79 L 898.412,2794.62 L 890.042,2803.92 L 879.92,2811.27 L 868.492,2816.36 L 856.254,2818.96 L 843.746,2818.96 L 831.508,2816.36 L 820.08,2811.27 L 809.958,2803.92 L 801.588,2794.62 L 795.332,2783.79 L 791.466,2771.89 L 790.158,2759.45 L 791.466,2747.01 L 795.332,2735.11 L 801.588,2724.27 L 809.958,2714.98 L 820.08,2707.62 L 831.508,2702.54 L 843.746,2699.93 L 856.254,2699.93 L 868.492,2702.54 L 879.92,2707.62 L 890.042,2714.98 L 898.412,2724.27 L 904.668,2735.11 L 908.534,2747.01 L 909.842,2759.45 z " style="fill-opacity:1.000000;fill:rgb(62,1,126);stroke:rgb(0,0,0);stroke-width:2"/></g>
<g fill-rule="evenodd"><path d="M 909.842,2539.76 L 908.534,2552.2 L 904.668,2564.1 L 898.412,2574.94 L 890.042,2584.23 L 879.92,2591.59 L 868.492,2596.67 L 856.254,2599.28 L 843.746,2599.28 L 831.508,2596.67 L 820.08,2591.59 L 809.958,2584.23 L 801.588,2574.94 L 795.332,2564.1 L 791.466,2552.2 L 790.158,2539.76 L 791.466,2527.32 L 795.332,2515.42 L 801.588,2504.59 L 809.958,2495.29 L 820.08,2487.94 L 831.508,2482.85 L 843.746,2480.25 L 856.254,2480.25 L 868.492,2482.85 L 879.92,2487.94 L 890.042,2495.29 L 898.412,2504.59 L 904.668,2515.42 L 908.534,2527.32 L 909.842,2539.76 z " style="fill-opacity:1.000000;fill:rgb(151,234,220);stroke:rgb(0,0,0);stroke-width:2"/></g>
<g fill-rule="evenodd"><path d="M 909.842,2319.29 L 908.534,2331.73 L 904.668,2343.63 L 898.412,2354.46 L 890.042,2363.76 L 879.92,2371.11 L 868.492,2376.2 L 856.254,2378.8 L 843.746,2378.8 L 831.508,2376.2 L 820.08,2371.11 L 809.958,2363.76 L 801.588,2354.46 L 795.332,2343.63 L 791.466,2331.73 L 790.158,2319.29 L 791.466,2306.85 L 795.332,2294.95 L 801.588,2284.12 L 809.958,2274.82 L 820.08,2267.47 L 831.508,2262.38 L 843.746,2259.78 L 856.254,2259.78 L 868.492,2262.38 L 879.92,2267.47 L 890.042,2274.82 L 898.412,2284.12 L 904.668,2294.95 L 908.534,2306.85 L 909.842,2319.29 z " style="fill-opacity:1.000000;fill:rgb(107,150,143);stroke:rgb(0,0,0);stroke-width:2"/></g>
<g fill-rule="evenodd"><path d="M 800,250 L 796.722,281.186 L 787.03,311.01 L 771.352,338.166 L 750.368,361.47 L 725,379.902 L 696.352,392.658 L 665.678,399.178 L 634.322,399.178 L 603.648,392.658 L 575.002,379.902 L 549.632,361.47 L 528.648,338.166 L 512.97,311.01 L 503.278,281.186 L 500,250 L 503.278,218.814 L 512.97,188.99 L 528.648,161.834 L 549.632,138.53 L 575,120.098 L 603.648,107.342 L 634.322,100.822 L 665.678,100.822 L 696.352,107.342 L 724.998,120.098 L 750.368,138.53 L 771.352,161.834 L 787.03,188.99 L 796.722,218.814 L 800,250 z " style="fill-opacity:1.000000;fill:rgb(56,92,42);stroke:rgb(0,0,0);stroke-width:2"/></g>
<g fill-rule="evenodd"><path d="M 800,3950 L 796.722,3981.19 L 787.03,4011.01 L 771.352,4038.17 L 750.368,4061.47 L 725,4079.9 L 696.352,4092.66 L 665.678,4099.18 L 634.322,4099.18 L 603.648,4092.66 L 575.002,4079.9 L 549.632,4061.47 L 528.648,4038.17 L 512.97,4011.01 L 503.278,3981.19 L 500,3950 L 503.278,3918.81 L 512.97,3888.99 L 528.648,3861.83 L 549.632,3838.53 L 575,3820.1 L 603.648,3807.34 L 634.322,3800.82 L 665.678,3800.82 L 696.352,3807.34 L 724.998,3820.1 L 750.368,3838.53 L 771.352,3861.83 L 787.03,3888.99 L 796.722,3918.81 L 800,3950 z " style="fill-opacity:1.000000;fill:rgb(236,176,59);stroke:rgb(0,0,0);stroke-width:2"/></g>
<g fill-rule="evenodd"><path d="M 2947.69,184.998 L 3012.3,184.998 L 3013.39,174.31 L 3017.51,161.182 L 3024.19,149.152 L 3033.15,138.714 L 3044.03,130.292 L 3056.38,124.232 L 3069.7,120.784 L 3083.44,120.086 L 3097.04,122.17 L 3109.95,126.948 L 3121.62,134.226 L 3131.59,143.706 L 3139.45,154.998 L 3144.88,167.642 L 3147.65,181.12 L 3148,211.998 L 3146.61,225.686 L 3142.49,238.814 L 3135.81,250.844 L 3126.85,261.282 L 3115.97,269.704 L 3103.62,275.764 L 3090.3,279.212 L 3076.56,279.91 L 3062.96,277.826 L 3050.05,273.048 L 3038.38,265.77 L 3028.41,256.29 L 3020.55,244.998 L 3015.12,232.354 L 3012.35,218.876 L 3012.31,214.998 L 2947.7,214.998 L 2946.61,225.686 L 2942.49,238.814 L 2935.81,250.844 L 2926.85,261.282 L 2915.97,269.704 L 2903.62,275.764 L 2895,277.994 L 2895,494 L 2894.71,496.926 L 2893.86,499.74 L 2892.47,502.332 L 2890.61,504.606 L 2740.55,654.66 L 2738.28,656.526 L 2735.69,657.912 L 2732.87,658.764 L 2729.95,659.054 L 2630.05,659.054 L 2627.12,658.764 L 2624.31,657.91 L 2621.72,656.524 L 2619.44,654.66 L 2495,530.216 L 2495,783.144 L 2498.25,783.836 L 2509.53,788.858 L 2519.51,796.114 L 2527.78,805.29 L 2533.95,815.982 L 2537.76,827.722 L 2539.05,840 L 2537.76,852.278 L 2533.95,864.018 L 2527.78,874.71 L 2519.51,883.886 L 2509.53,891.142 L 2498.25,896.164 L 2486.17,898.73 L 2473.83,898.73 L 2461.75,896.164 L 2450.47,891.142 L 2440.49,883.886 L 2432.22,874.71 L 2426.05,864.018 L 2422.24,852.278 L 2420.95,840 L 2422.24,827.722 L 2426.05,815.982 L 2432.22,805.29 L 2440.49,796.114 L 2450.47,788.858 L 2461.75,783.836 L 2465,783.146 L 2465,278.14 L 2462.96,277.826 L 2450.05,273.048 L 2438.38,265.77 L 2428.41,256.29 L 2420.55,244.998 L 2415.12,232.354 L 2412.35,218.876 L 2412,187.998 L 2413.39,174.31 L 2417.51,161.182 L 2424.19,149.152 L 2433.15,138.714 L 2444.03,130.292 L 2456.38,124.232 L 2469.7,120.784 L 2483.44,120.086 L 2497.04,122.17 L 2509.95,126.948 L 2521.62,134.226 L 2531.59,143.706 L 2539.45,154.998 L 2544.88,167.642 L 2547.65,181.12 L 2548,211.998 L 2546.61,225.686 L 2542.49,238.814 L 2535.81,250.844 L 2526.85,261.282 L 2515.97,269.704 L 2503.62,275.764 L 2495,277.994 L 2495,487.786 L 2636.27,629.054 L 2723.73,629.054 L 2865,487.784 L 2865,278.14 L 2862.96,277.826 L 2850.05,273.048 L 2838.38,265.77 L 2828.41,256.29 L 2820.55,244.998 L 2815.12,232.354 L 2812.35,218.876 L 2812,187.998 L 2813.39,174.31 L 2817.51,161.182 L 2824.19,149.152 L 2833.15,138.714 L 2844.03,130.292 L 2856.38,124.232 L 2869.7,120.784 L 2883.44,120.086 L 2897.04,122.17 L 2909.95,126.948 L 2921.62,134.226 L 2931.59,143.706 L 2939.45,154.998 L 2944.88,167.642 L 2947.65,181.12 L 2947.69,184.998 z " style="fill-opacity:1.000000;fill:rgb(251,50,175);stroke:rgb(0,0,0);stroke-width:2"/></g>
<g fill-rule="evenodd"><path d="M 907.704,2114.61 L 904.668,2123.94 L 898.412,2134.78 L 890.042,2144.08 L 879.92,2151.43 L 868.492,2156.52 L 856.254,2159.12 L 843.746,2159.12 L 831.508,2156.52 L 820.08,2151.43 L 809.958,2144.08 L 801.588,2134.78 L 795.332,2123.94 L 791.466,2112.05 L 790.158,2099.61 L 791.466,2087.17 L 795.332,2075.27 L 801.588,2064.43 L 809.958,2055.14 L 820.08,2047.78 L 831.508,2042.69 L 843.746,2040.09 L 856.254,2040.09 L 868.492,2042.69 L 879.92,2047.78 L 890.042,2055.14 L 898.412,2064.43 L 904.668,2075.27 L 907.702,2084.61 L 3580.66,2084.61 L 4105.87,1559.39 L 4108.15,1557.53 L 4110.74,1556.14 L 4113.55,1555.29 L 4116.48,1555 L 4143.12,1555 L 4146.05,1545.98 L 4152.22,1535.29 L 4160.49,1526.11 L 4170.47,1518.86 L 4181.75,1513.84 L 4193.83,1511.27 L 4206.17,1511.27 L 4218.25,1513.84 L 4229.53,1518.86 L 4239.51,1526.11 L 4247.78,1535.29 L 4253.95,1545.98 L 4257.76,1557.72 L 4259.05,1570 L 4257.76,1582.28 L 4253.95,1594.02 L 4247.78,1604.71 L 4239.51,1613.89 L 4229.53,1621.14 L 4218.25,1626.16 L 4206.17,1628.73 L 4193.83,1628.73 L 4181.75,1626.16 L 4170.47,1621.14 L 4160.49,1613.89 L 4152.22,1604.71 L 4146.05,1594.02 L 4143.12,1585 L 4122.69,1585 L 3597.48,2110.21 L 3595.21,2112.08 L 3592.62,2113.46 L 3589.8,2114.32 L 3586.88,2114.61 L 907.704,2114.61 z " style="fill-opacity:1.000000;fill:rgb(60,84,236);stroke:rgb(0,0,0);stroke-width:2"/></g>
<g fill-rule="evenodd"><path d="M 907.906,1875 L 3533.12,1875 L 3536.05,1865.98 L 3542.22,1855.29 L 3550.49,1846.11 L 3560.47,1838.86 L 3571.75,1833.84 L 3583.83,1831.27 L 3596.17,1831.27 L 3608.25,1833.84 L 3619.53,1838.86 L 3629.51,1846.11 L 3637.78,1855.29 L 3643.95,1865.98 L 3647.76,1877.72 L 3649.05,1890 L 3647.76,1902.28 L 3643.95,1914.02 L 3637.78,1924.71 L 3629.51,1933.89 L 3619.53,1941.14 L 3608.25,1946.16 L 3596.17,1948.73 L 3583.83,1948.73 L 3571.75,1946.16 L 3560.47,1941.14 L 3550.49,1933.89 L 3542.22,1924.71 L 3536.05,1914.02 L 3533.12,1905 L 907.498,1905 L 904.668,1913.71 L 898.412,1924.54 L 890.042,1933.84 L 879.92,1941.19 L 868.492,1946.28 L 856.254,1948.88 L 843.746,1948.88 L 831.508,1946.28 L 820.08,1941.19 L 809.958,1933.84 L 801.588,1924.54 L 795.332,1913.71 L 791.466,1901.81 L 790.158,1889.37 L 791.466,1876.93 L 795.332,1865.03 L 801.588,1854.2 L 809.958,1844.9 L 820.08,1837.55 L 831.508,1832.46 L 843.746,1829.86 L 856.254,1829.86 L 868.492,1832.46 L 879.92,1837.55 L 890.042,1844.9 L 898.412,1854.2 L 904.668,1865.03 L 907.906,1875 z " style="fill-opacity:1.000000;fill:rgb(24,219,92);stroke:rgb(0,0,0);stroke-width:2"/></g>
<g fill-rule="evenodd"><path d="M 907.704,1684.68 L 904.668,1694.02 L 898.412,1704.86 L 890.042,1714.15 L 879.92,1721.51 L 868.492,1726.6 L 856.254,1729.2 L 843.746,1729.2 L 831.508,1726.6 L 820.08,1721.51 L 809.958,1714.15 L 801.588,1704.86 L 795.332,1694.02 L 791.466,1682.12 L 790.158,1669.68 L 791.466,1657.24 L 795.332,1645.35 L 801.588,1634.51 L 809.958,1625.21 L 820.08,1617.86 L 831.508,1612.77 L 843.746,1610.17 L 856.254,1610.17 L 868.492,1612.77 L 879.92,1617.86 L 890.042,1625.21 L 898.412,1634.51 L 904.668,1645.35 L 907.702,1654.68 L 3724.1,1654.68 L 4349.24,1029.54 L 4346.05,1024.02 L 4342.24,1012.28 L 4340.95,1000 L 4342.24,987.722 L 4346.05,975.982 L 4352.22,965.29 L 4360.49,956.114 L 4370.47,948.858 L 4381.75,943.836 L 4393.83,941.27 L 4406.17,941.27 L 4418.25,943.836 L 4429.53,948.858 L 4439.51,956.114 L 4447.78,965.29 L 4453.95,975.982 L 4457.76,987.722 L 4459.05,1000 L 4457.76,1012.28 L 4453.95,1024.02 L 4447.78,1034.71 L 4439.51,1043.89 L 4429.53,1051.14 L 4418.25,1056.16 L 4406.17,1058.73 L 4393.83,1058.73 L 4381.75,1056.16 L 4370.24,1050.97 L 3740.92,1680.29 L 3738.65,1682.16 L 3736.05,1683.54 L 3733.24,1684.39 L 3730.31,1684.68 L 907.704,1684.68 z " style="fill-opacity:1.000000;fill:rgb(2,26,254);stroke:rgb(0,0,0);stroke-width:2"/></g>
<g fill-rule="evenodd"><path d="M 3163.74,3930.52 L 3176.38,3924.23 L 3189.7,3920.79 L 3203.44,3920.09 L 3217.04,3922.17 L 3229.95,3926.95 L 3241.62,3934.23 L 3251.59,3943.71 L 3259.45,3955 L 3264.88,3967.64 L 3267.65,3981.12 L 3267.69,3985 L 3332.3,3985 L 3333.39,3974.31 L 3337.51,3961.18 L 3344.19,3949.15 L 3353.15,3938.72 L 3364.03,3930.29 L 3376.38,3924.23 L 3389.7,3920.79 L 3403.44,3920.09 L 3417.04,3922.17 L 3429.95,3926.95 L 3441.62,3934.23 L 3451.59,3943.71 L 3459.45,3955 L 3464.88,3967.64 L 3467.65,3981.12 L 3468,4012 L 3466.61,4025.69 L 3462.49,4038.82 L 3455.81,4050.85 L 3446.85,4061.28 L 3435.97,4069.71 L 3423.62,4075.77 L 3410.3,4079.21 L 3396.56,4079.91 L 3382.96,4077.83 L 3370.05,4073.05 L 3358.38,4065.77 L 3348.41,4056.29 L 3340.55,4045 L 3335.12,4032.36 L 3332.35,4018.88 L 3332.31,4015 L 3267.7,4015 L 3266.61,4025.69 L 3262.49,4038.82 L 3255.81,4050.85 L 3246.85,4061.28 L 3235.97,4069.71 L 3223.62,4075.77 L 3210.3,4079.21 L 3196.56,4079.91 L 3182.96,4077.83 L 3170.05,4073.05 L 3158.38,4065.77 L 3148.41,4056.29 L 3140.55,4045 L 3135.12,4032.36 L 3132.35,4018.88 L 3132,3988 L 3133.39,3974.31 L 3137.51,3961.18 L 3142.67,3951.89 L 2505.39,3314.61 L 707.704,3314.61 L 704.668,3323.94 L 698.412,3334.78 L 690.042,3344.08 L 679.92,3351.43 L 668.492,3356.52 L 656.254,3359.12 L 643.746,3359.12 L 631.508,3356.52 L 620.08,3351.43 L 609.958,3344.08 L 601.588,3334.78 L 595.332,3323.94 L 591.466,3312.05 L 590.158,3299.61 L 591.466,3287.17 L 595.332,3275.27 L 601.588,3264.43 L 609.958,3255.14 L 620.08,3247.78 L 631.508,3242.69 L 635,3241.95 L 635,3137.58 L 631.508,3136.83 L 620.08,3131.74 L 609.958,3124.39 L 601.588,3115.09 L 595.332,3104.26 L 591.466,3092.36 L 590.158,3079.92 L 591.466,3067.48 L 595.332,3055.58 L 601.588,3044.75 L 609.958,3035.45 L 620.08,3028.1 L 631.508,3023.01 L 635,3022.27 L 635,2921.04 L 631.508,2920.3 L 620.08,2915.21 L 609.958,2907.85 L 601.588,2898.56 L 595.332,2887.72 L 591.466,2875.82 L 590.158,2863.38 L 591.466,2850.94 L 595.332,2839.05 L 601.588,2828.21 L 609.958,2818.91 L 620.08,2811.56 L 631.508,2806.47 L 635,2805.73 L 635,2709.23 L 631.508,2708.49 L 620.08,2703.4 L 609.958,2696.04 L 601.588,2686.75 L 595.332,2675.91 L 591.466,2664.01 L 590.158,2651.57 L 591.466,2639.13 L 595.332,2627.24 L 601.588,2616.4 L 609.958,2607.1 L 620.08,2599.75 L 631.508,2594.66 L 635,2593.92 L 635,2485.61 L 631.508,2484.86 L 620.08,2479.78 L 609.958,2472.42 L 601.588,2463.13 L 595.332,2452.29 L 591.466,2440.39 L 590.158,2427.95 L 591.466,2415.51 L 595.332,2403.61 L 601.588,2392.78 L 609.958,2383.48 L 620.08,2376.13 L 631.508,2371.04 L 635,2370.3 L 635,2269.07 L 631.508,2268.33 L 620.08,2263.24 L 609.958,2255.89 L 601.588,2246.59 L 595.332,2235.75 L 591.466,2223.86 L 590.158,2211.42 L 591.466,2198.98 L 595.332,2187.08 L 601.588,2176.24 L 609.958,2166.95 L 620.08,2159.59 L 631.508,2154.5 L 635,2153.76 L 635,2053.32 L 631.508,2052.58 L 620.08,2047.49 L 609.958,2040.14 L 601.588,2030.84 L 595.332,2020.01 L 591.466,2008.11 L 590.158,1995.67 L 591.466,1983.23 L 595.332,1971.33 L 601.588,1960.49 L 609.958,1951.2 L 620.08,1943.84 L 631.508,1938.76 L 635,1938.01 L 635,1833.64 L 631.508,1832.9 L 620.08,1827.81 L 609.958,1820.45 L 601.588,1811.16 L 595.332,1800.32 L 591.466,1788.42 L 590.158,1775.98 L 591.466,1763.54 L 595.332,1751.65 L 598.668,1745.87 L 534.548,1681.75 L 532.682,1679.47 L 531.296,1676.88 L 530.444,1674.07 L 530.156,1671.14 L 530.156,872.902 L 530.444,869.974 L 531.296,867.16 L 532.682,864.568 L 534.548,862.294 L 712.688,684.154 L 714.962,682.288 L 717.554,680.902 L 720.368,680.05 L 723.296,679.762 L 1591.02,679.762 L 2022.7,248.088 L 2020.55,244.998 L 2015.12,232.354 L 2012.35,218.876 L 2012,187.998 L 2013.39,174.31 L 2017.51,161.182 L 2024.19,149.152 L 2033.15,138.714 L 2044.03,130.292 L 2056.38,124.232 L 2069.7,120.784 L 2083.44,120.086 L 2097.04,122.17 L 2109.95,126.948 L 2116.04,130.744 L 2182.39,64.39 L 2184.67,62.524 L 2187.26,61.138 L 2190.07,60.286 L 2193,59.998 L 5046.81,59.998 L 5049.73,60.286 L 5052.54,61.138 L 5055.14,62.524 L 5057.41,64.39 L 5123.61,130.584 L 5125.47,132.856 L 5126.86,135.45 L 5127.71,138.264 L 5128,141.192 L 5128,1183.93 L 5127.71,1186.85 L 5126.86,1189.67 L 5125.47,1192.26 L 5123.61,1194.53 L 4057.53,2260.6 L 4055.26,2262.47 L 4052.67,2263.86 L 4049.85,2264.71 L 4046.93,2265 L 4016.93,2265 L 4016.93,2316.93 L 3883.07,2316.93 L 3883.07,2183.07 L 4016.93,2183.07 L 4016.93,2235 L 4040.71,2235 L 5098,1177.71 L 5098,147.406 L 5040.59,89.998 L 2199.21,89.998 L 2137.3,151.906 L 2139.45,154.998 L 2144.88,167.642 L 2147.65,181.12 L 2148,211.998 L 2146.61,225.686 L 2142.49,238.814 L 2135.81,250.844 L 2126.85,261.282 L 2115.97,269.704 L 2103.62,275.764 L 2090.3,279.212 L 2076.56,279.91 L 2062.96,277.826 L 2050.05,273.048 L 2043.96,269.25 L 1607.84,705.368 L 1605.57,707.234 L 1602.98,708.62 L 1600.16,709.472 L 1597.24,709.762 L 729.508,709.762 L 560.156,879.114 L 560.156,1664.93 L 619.68,1724.45 L 631.508,1719.07 L 643.746,1716.47 L 656.254,1716.47 L 668.492,1719.07 L 679.92,1724.16 L 690.042,1731.51 L 698.412,1740.81 L 704.668,1751.65 L 708.534,1763.54 L 709.842,1775.98 L 708.534,1788.42 L 704.668,1800.32 L 698.412,1811.16 L 690.042,1820.45 L 679.92,1827.81 L 668.492,1832.9 L 665,1833.64 L 665,1938.01 L 668.492,1938.76 L 679.92,1943.84 L 690.042,1951.2 L 698.412,1960.49 L 704.668,1971.33 L 708.534,1983.23 L 709.842,1995.67 L 708.534,2008.11 L 704.668,2020.01 L 698.412,2030.84 L 690.042,2040.14 L 679.92,2047.49 L 668.492,2052.58 L 665,2053.32 L 665,2153.76 L 668.492,2154.5 L 679.92,2159.59 L 690.042,2166.95 L 698.412,2176.24 L 704.668,2187.08 L 708.534,2198.98 L 709.842,2211.42 L 708.534,2223.86 L 704.668,2235.75 L 698.412,2246.59 L 690.042,2255.89 L 679.92,2263.24 L 668.492,2268.33 L 665,2269.07 L 665,2370.3 L 668.492,2371.04 L 679.92,2376.13 L 690.042,2383.48 L 698.412,2392.78 L 704.668,2403.61 L 708.534,2415.51 L 709.842,2427.95 L 708.534,2440.39 L 704.668,2452.29 L 698.412,2463.13 L 690.042,2472.42 L 679.92,2479.78 L 668.492,2484.86 L 665,2485.61 L 665,2593.92 L 668.492,2594.66 L 679.92,2599.75 L 690.042,2607.1 L 698.412,2616.4 L 704.668,2627.24 L 708.534,2639.13 L 709.842,2651.57 L 708.534,2664.01 L 704.668,2675.91 L 698.412,2686.75 L 690.042,2696.04 L 679.92,2703.4 L 668.492,2708.49 L 665,2709.23 L 665,2805.73 L 668.492,2806.47 L 679.92,2811.56 L 690.042,2818.91 L 698.412,2828.21 L 704.668,2839.05 L 708.534,2850.94 L 709.842,2863.38 L 708.534,2875.82 L 704.668,2887.72 L 698.412,2898.56 L 690.042,2907.85 L 679.92,2915.21 L 668.492,2920.3 L 665,2921.04 L 665,3022.26 L 668.492,3023.01 L 679.92,3028.1 L 690.042,3035.45 L 698.412,3044.75 L 704.668,3055.58 L 708.534,3067.48 L 709.842,3079.92 L 708.534,3092.36 L 704.668,3104.26 L 698.412,3115.09 L 690.042,3124.39 L 679.92,3131.74 L 668.492,3136.83 L 665,3137.57 L 665,3241.95 L 668.492,3242.69 L 679.92,3247.78 L 690.042,3255.14 L 698.412,3264.43 L 704.668,3275.27 L 707.702,3284.61 L 2511.61,3284.61 L 2514.53,3284.89 L 2517.34,3285.75 L 2519.94,3287.13 L 2522.21,3289 L 3163.74,3930.52 z " style="fill-opacity:1.000000;fill:rgb(67,251,250);stroke:rgb(0,0,0);stroke-width:2"/></g>
<g fill-rule="evenodd"><path d="M 3743.12,1385 L 3746.05,1375.98 L 3752.22,1365.29 L 3760.49,1356.11 L 3770.47,1348.86 L 3781.75,1343.84 L 3793.83,1341.27 L 3806.17,1341.27 L 3818.25,1343.84 L 3829.53,1348.86 L 3839.51,1356.11 L 3847.78,1365.29 L 3853.95,1375.98 L 3857.76,1387.72 L 3859.05,1400 L 3857.76,1412.28 L 3853.95,1424.02 L 3847.78,1434.71 L 3839.51,1443.89 L 3829.53,1451.14 L 3818.25,1456.16 L 3806.17,1458.73 L 3793.83,1458.73 L 3781.75,1456.16 L 3770.47,1451.14 L 3760.49,1443.89 L 3752.22,1434.71 L 3746.05,1424.02 L 3743.12,1415 L 990.842,1415 L 945.236,1460.61 L 942.962,1462.47 L 940.37,1463.86 L 937.556,1464.71 L 934.63,1465 L 907.704,1465 L 904.668,1474.34 L 898.412,1485.17 L 890.042,1494.47 L 879.92,1501.82 L 868.492,1506.91 L 856.254,1509.51 L 843.746,1509.51 L 831.508,1506.91 L 820.08,1501.82 L 809.958,1494.47 L 801.588,1485.17 L 795.332,1474.34 L 791.466,1462.44 L 790.158,1450 L 791.466,1437.56 L 795.332,1425.66 L 801.588,1414.83 L 809.958,1405.53 L 820.08,1398.18 L 831.508,1393.09 L 843.746,1390.49 L 856.254,1390.49 L 868.492,1393.09 L 879.92,1398.18 L 890.042,1405.53 L 898.412,1414.83 L 904.668,1425.66 L 907.702,1435 L 928.414,1435 L 974.022,1389.39 L 976.296,1387.53 L 978.888,1386.14 L 981.702,1385.29 L 984.63,1385 L 3743.12,1385 z " style="fill-opacity:1.000000;fill:rgb(170,58,251);stroke:rgb(0,0,0);stroke-width:2"/></g>
<g fill-rule="evenodd"><path d="M 907.906,3175 L 2423.12,3175 L 2426.05,3165.98 L 2432.22,3155.29 L 2440.49,3146.11 L 2450.47,3138.86 L 2461.75,3133.84 L 2473.83,3131.27 L 2486.17,3131.27 L 2498.25,3133.84 L 2509.53,3138.86 L 2519.51,3146.11 L 2527.78,3155.29 L 2533.95,3165.98 L 2537.76,3177.72 L 2539.05,3190 L 2537.76,3202.28 L 2533.95,3214.02 L 2527.78,3224.71 L 2519.51,3233.89 L 2509.53,3241.14 L 2498.25,3246.16 L 2486.17,3248.73 L 2473.83,3248.73 L 2461.75,3246.16 L 2450.47,3241.14 L 2440.49,3233.89 L 2432.22,3224.71 L 2426.05,3214.02 L 2423.12,3205 L 907.498,3205 L 904.668,3213.71 L 898.412,3224.54 L 890.042,3233.84 L 879.92,3241.19 L 868.492,3246.28 L 856.254,3248.88 L 843.746,3248.88 L 831.508,3246.28 L 820.08,3241.19 L 809.958,3233.84 L 801.588,3224.54 L 795.332,3213.71 L 791.466,3201.81 L 790.158,3189.37 L 791.466,3176.93 L 795.332,3165.03 L 801.588,3154.2 L 809.958,3144.9 L 820.08,3137.55 L 831.508,3132.46 L 843.746,3129.86 L 856.254,3129.86 L 868.492,3132.46 L 879.92,3137.55 L 890.042,3144.9 L 898.412,3154.2 L 904.668,3165.03 L 907.906,3175 z " style="fill-opacity:1.000000;fill:rgb(41,209,230);stroke:rgb(0,0,0);stroke-width:2"/></g>
<g fill-rule="evenodd"><path d="M 880.32,3021.22 L 868.492,3026.6 L 856.254,3029.2 L 843.746,3029.2 L 831.508,3026.6 L 820.08,3021.51 L 809.958,3014.15 L 801.588,3004.86 L 795.332,2994.02 L 791.466,2982.12 L 790.158,2969.68 L 791.466,2957.24 L 795.332,2945.35 L 801.588,2934.51 L 809.958,2925.21 L 820.08,2917.86 L 831.508,2912.77 L 843.746,2910.17 L 856.254,2910.17 L 868.492,2912.77 L 879.92,2917.86 L 890.042,2925.21 L 898.412,2934.51 L 904.668,2945.35 L 908.534,2957.24 L 909.842,2969.68 L 908.534,2982.12 L 904.668,2994.02 L 901.332,2999.8 L 916.056,3014.53 L 2931.53,3014.53 L 2934.45,3014.81 L 2937.26,3015.67 L 2939.86,3017.05 L 2942.13,3018.92 L 3908.21,3985 L 3932.3,3985 L 3933.39,3974.31 L 3937.51,3961.18 L 3944.19,3949.15 L 3953.15,3938.72 L 3964.03,3930.29 L 3976.38,3924.23 L 3989.7,3920.79 L 4003.44,3920.09 L 4017.04,3922.17 L 4029.95,3926.95 L 4041.62,3934.23 L 4051.59,3943.71 L 4059.45,3955 L 4064.88,3967.64 L 4067.65,3981.12 L 4068,4012 L 4066.61,4025.69 L 4062.49,4038.82 L 4055.81,4050.85 L 4046.85,4061.28 L 4035.97,4069.71 L 4023.62,4075.77 L 4010.3,4079.21 L 3996.56,4079.91 L 3982.96,4077.83 L 3970.05,4073.05 L 3958.38,4065.77 L 3948.41,4056.29 L 3940.55,4045 L 3935.12,4032.36 L 3932.35,4018.88 L 3932.31,4015 L 3902,4015 L 3899.07,4014.71 L 3896.26,4013.86 L 3893.66,4012.47 L 3891.39,4010.61 L 2925.31,3044.53 L 909.842,3044.53 L 906.914,3044.24 L 904.1,3043.38 L 901.506,3042 L 899.234,3040.13 L 880.32,3021.22 z " style="fill-opacity:1.000000;fill:rgb(5,60,124);stroke:rgb(0,0,0);stroke-width:2"/></g>
<g fill-rule="evenodd"><path d="M 707.704,1574.45 L 704.668,1583.79 L 698.412,1594.62 L 690.042,1603.92 L 679.92,1611.27 L 668.492,1616.36 L 656.254,1618.96 L 643.746,1618.96 L 631.508,1616.36 L 620.08,1611.27 L 609.958,1603.92 L 601.588,1594.62 L 595.332,1583.79 L 591.466,1571.89 L 590.158,1559.45 L 591.466,1547.01 L 595.332,1535.11 L 601.588,1524.27 L 609.958,1514.98 L 620.08,1507.62 L 631.508,1502.54 L 643.746,1499.93 L 656.254,1499.93 L 668.492,1502.54 L 679.92,1507.62 L 690.042,1514.98 L 698.412,1524.27 L 704.668,1535.11 L 707.702,1544.45 L 2621.53,1544.45 L 2622.24,1537.72 L 2626.05,1525.98 L 2632.22,1515.29 L 2640.49,1506.11 L 2650.47,1498.86 L 2661.75,1493.84 L 2673.83,1491.27 L 2686.17,1491.27 L 2698.25,1493.84 L 2709.53,1498.86 L 2719.51,1506.11 L 2727.78,1515.29 L 2733.95,1525.98 L 2737.76,1537.72 L 2739.05,1550 L 2737.76,1562.28 L 2733.95,1574.02 L 2727.78,1584.71 L 2719.51,1593.89 L 2709.53,1601.14 L 2698.25,1606.16 L 2686.17,1608.73 L 2673.83,1608.73 L 2661.75,1606.16 L 2650.47,1601.14 L 2640.49,1593.89 L 2632.22,1584.71 L 2626.3,1574.45 L 707.704,1574.45 z " style="fill-opacity:1.000000;fill:rgb(148,117,216);stroke:rgb(0,0,0);stroke-width:2"/></g>
<g fill-rule="evenodd"><path d="M 2222.7,248.088 L 2220.55,244.998 L 2215.12,232.354 L 2212.35,218.876 L 2212,187.998 L 2213.39,174.31 L 2217.51,161.182 L 2224.19,149.152 L 2233.15,138.714 L 2244.03,130.292 L 2256.38,124.232 L 2269.7,120.784 L 2283.44,120.086 L 2297.04,122.17 L 2309.95,126.948 L 2321.62,134.226 L 2331.59,143.706 L 2339.45,154.998 L 2344.88,167.642 L 2347.65,181.12 L 2348,211.998 L 2346.61,225.686 L 2342.49,238.814 L 2335.81,250.844 L 2326.85,261.282 L 2315.97,269.704 L 2303.62,275.764 L 2290.3,279.212 L 2276.56,279.91 L 2262.96,277.826 L 2250.05,273.048 L 2243.96,269.25 L 1703,810.212 L 1700.72,812.078 L 1698.13,813.464 L 1695.32,814.316 L 1692.39,814.606 L 909.842,814.606 L 909.842,859.448 L 790.158,859.448 L 790.158,739.764 L 909.842,739.764 L 909.842,784.606 L 1686.18,784.606 L 2222.7,248.088 z " style="fill-opacity:1.000000;fill:rgb(190,97,137);stroke:rgb(0,0,0);stroke-width:2"/></g>
<g fill-rule="evenodd"><path d="M 880.32,1070.82 L 868.492,1076.2 L 856.254,1078.8 L 843.746,1078.8 L 831.508,1076.2 L 820.08,1071.11 L 809.958,1063.76 L 801.588,1054.46 L 795.332,1043.63 L 791.466,1031.73 L 790.158,1019.29 L 791.466,1006.85 L 795.332,994.952 L 801.588,984.116 L 809.958,974.82 L 820.08,967.466 L 831.508,962.378 L 843.746,959.776 L 856.254,959.776 L 868.492,962.378 L 879.92,967.466 L 890.042,974.82 L 898.412,984.116 L 904.668,994.952 L 908.534,1006.85 L 909.842,1019.29 L 908.534,1031.73 L 904.668,1043.63 L 901.332,1049.41 L 916.056,1064.13 L 3944.65,1064.13 L 3985,1023.78 L 3985,278.14 L 3982.96,277.826 L 3970.05,273.048 L 3958.38,265.77 L 3948.41,256.29 L 3940.55,244.998 L 3935.12,232.354 L 3932.35,218.876 L 3932,187.998 L 3933.39,174.31 L 3937.51,161.182 L 3944.19,149.152 L 3953.15,138.714 L 3964.03,130.292 L 3976.38,124.232 L 3989.7,120.784 L 4003.44,120.086 L 4017.04,122.17 L 4029.95,126.948 L 4041.62,134.226 L 4051.59,143.706 L 4059.45,154.998 L 4064.88,167.642 L 4067.65,181.12 L 4068,211.998 L 4066.61,225.686 L 4062.49,238.814 L 4055.81,250.844 L 4046.85,261.282 L 4035.97,269.704 L 4023.62,275.764 L 4015,277.994 L 4015,1030 L 4014.71,1032.93 L 4013.86,1035.74 L 4012.47,1038.33 L 4010.61,1040.61 L 3961.47,1089.74 L 3959.2,1091.6 L 3956.61,1092.99 L 3953.79,1093.84 L 3950.87,1094.13 L 909.842,1094.13 L 906.914,1093.84 L 904.1,1092.99 L 901.506,1091.6 L 899.234,1089.74 L 880.32,1070.82 z " style="fill-opacity:1.000000;fill:rgb(249,92,187);stroke:rgb(0,0,0);stroke-width:2"/></g>
<g fill-rule="evenodd"><path d="M 880.32,1281.06 L 868.492,1286.44 L 856.254,1289.04 L 843.746,1289.04 L 831.508,1286.44 L 820.08,1281.35 L 809.958,1274 L 801.588,1264.7 L 795.332,1253.86 L 791.466,1241.97 L 790.158,1229.53 L 791.466,1217.09 L 795.332,1205.19 L 801.588,1194.35 L 809.958,1185.06 L 820.08,1177.7 L 831.508,1172.61 L 843.746,1170.01 L 856.254,1170.01 L 868.492,1172.61 L 879.92,1177.7 L 890.042,1185.06 L 898.412,1194.35 L 904.668,1205.19 L 908.534,1217.09 L 909.842,1229.53 L 908.534,1241.97 L 904.668,1253.86 L 901.332,1259.64 L 916.056,1274.37 L 3924.41,1274.37 L 4585,613.784 L 4585,278.14 L 4582.96,277.826 L 4570.05,273.048 L 4558.38,265.77 L 4548.41,256.29 L 4540.55,244.998 L 4535.12,232.354 L 4532.35,218.876 L 4532,187.998 L 4533.39,174.31 L 4537.51,161.182 L 4544.19,149.152 L 4553.15,138.714 L 4564.03,130.292 L 4576.38,124.232 L 4589.7,120.784 L 4603.44,120.086 L 4617.04,122.17 L 4629.95,126.948 L 4641.62,134.226 L 4651.59,143.706 L 4659.45,154.998 L 4664.88,167.642 L 4667.65,181.12 L 4668,211.998 L 4666.61,225.686 L 4662.49,238.814 L 4655.81,250.844 L 4646.85,261.282 L 4635.97,269.704 L 4623.62,275.764 L 4615,277.994 L 4615,620 L 4614.71,622.926 L 4613.86,625.74 L 4612.47,628.332 L 4610.61,630.606 L 3941.24,1299.98 L 3938.96,1301.84 L 3936.37,1303.23 L 3933.56,1304.08 L 3930.63,1304.37 L 909.842,1304.37 L 906.914,1304.08 L 904.1,1303.23 L 901.506,1301.84 L 899.234,1299.98 L 880.32,1281.06 z " style="fill-opacity:1.000000;fill:rgb(168,153,15);stroke:rgb(0,0,0);stroke-width:2"/></g>
<g fill-rule="evenodd"><path d="M 2665,278.14 L 2662.96,277.826 L 2650.05,273.048 L 2638.38,265.77 L 2628.41,256.29 L 2620.55,244.998 L 2615.12,232.354 L 2612.35,218.876 L 2612,187.998 L 2613.39,174.31 L 2617.51,161.182 L 2624.19,149.152 L 2633.15,138.714 L 2644.03,130.292 L 2656.38,124.232 L 2669.7,120.784 L 2683.44,120.086 L 2697.04,122.17 L 2709.95,126.948 L 2721.62,134.226 L 2731.59,143.706 L 2739.45,154.998 L 2744.88,167.642 L 2747.65,181.12 L 2748,211.998 L 2746.61,225.686 L 2742.49,238.814 L 2735.81,250.844 L 2726.85,261.282 L 2715.97,269.704 L 2703.62,275.764 L 2695,277.994 L 2695,483.144 L 2698.25,483.836 L 2709.53,488.858 L 2719.51,496.114 L 2727.78,505.29 L 2733.95,515.982 L 2737.76,527.722 L 2739.05,540 L 2737.76,552.278 L 2733.95,564.018 L 2727.78,574.71 L 2719.51,583.886 L 2709.53,591.142 L 2698.25,596.164 L 2686.17,598.73 L 2673.83,598.73 L 2661.75,596.164 L 2650.47,591.142 L 2640.49,583.886 L 2632.22,574.71 L 2626.05,564.018 L 2622.24,552.278 L 2620.95,540 L 2622.24,527.722 L 2626.05,515.982 L 2632.22,505.29 L 2640.49,496.114 L 2650.47,488.858 L 2661.75,483.836 L 2665,483.146 L 2665,278.14 z " style="fill-opacity:1.000000;fill:rgb(149,177,235);stroke:rgb(0,0,0);stroke-width:2"/></g>
<g fill-rule="evenodd"><path d="M 3893.28,2085.5 L 3887.24,2073.24 L 3883.84,2060.13 L 3883.16,2046.61 L 3885.21,2033.23 L 3889.91,2020.53 L 3897.08,2009.03 L 3906.41,1999.22 L 3917.52,1991.48 L 3929.97,1986.14 L 3943.23,1983.42 L 3950,1983.07 L 3963.47,1984.44 L 3976.39,1988.5 L 3988.23,1995.07 L 3998.51,2003.89 L 4006.8,2014.6 L 4012.76,2026.76 L 4016.16,2039.87 L 4016.84,2053.39 L 4014.79,2066.77 L 4010.09,2079.47 L 4002.92,2090.97 L 3993.59,2100.78 L 3982.48,2108.52 L 3970.03,2113.86 L 3956.77,2116.58 L 3950,2116.93 L 3936.53,2115.56 L 3923.61,2111.5 L 3914.67,2106.54 L 3853.07,2168.14 L 3853.07,2819.86 L 4963.73,3930.52 L 4976.38,3924.23 L 4989.7,3920.79 L 5003.44,3920.09 L 5017.04,3922.17 L 5029.94,3926.95 L 5041.62,3934.23 L 5051.59,3943.71 L 5059.45,3955 L 5064.88,3967.64 L 5067.65,3981.12 L 5068,4012 L 5066.61,4025.69 L 5062.49,4038.82 L 5055.81,4050.85 L 5046.85,4061.28 L 5035.97,4069.71 L 5023.61,4075.77 L 5010.29,4079.21 L 4996.55,4079.91 L 4982.95,4077.83 L 4970.05,4073.05 L 4958.38,4065.77 L 4948.4,4056.29 L 4940.54,4045 L 4935.12,4032.36 L 4932.35,4018.88 L 4932,3988 L 4933.39,3974.31 L 4937.51,3961.18 L 4942.67,3951.89 L 3827.46,2836.68 L 3825.6,2834.4 L 3824.21,2831.81 L 3823.36,2829 L 3823.07,2826.07 L 3823.07,2161.93 L 3823.36,2159 L 3824.21,2156.19 L 3825.6,2153.59 L 3827.46,2151.32 L 3893.28,2085.5 z " style="fill-opacity:1.000000;fill:rgb(241,179,5);stroke:rgb(0,0,0);stroke-width:2"/></g>
<g fill-rule="evenodd"><path d="M 4185,278.14 L 4182.96,277.826 L 4170.05,273.048 L 4158.38,265.77 L 4148.41,256.29 L 4140.55,244.998 L 4135.12,232.354 L 4132.35,218.876 L 4132,187.998 L 4133.39,174.31 L 4137.51,161.182 L 4144.19,149.152 L 4153.15,138.714 L 4164.03,130.292 L 4176.38,124.232 L 4189.7,120.784 L 4203.44,120.086 L 4217.04,122.17 L 4229.95,126.948 L 4241.62,134.226 L 4251.59,143.706 L 4259.45,154.998 L 4264.88,167.642 L 4267.65,181.12 L 4268,211.998 L 4266.61,225.686 L 4262.49,238.814 L 4255.81,250.844 L 4246.85,261.282 L 4235.97,269.704 L 4223.62,275.764 L 4215,277.994 L 4215,763.144 L 4218.25,763.836 L 4229.53,768.858 L 4239.51,776.114 L 4247.78,785.29 L 4253.95,795.982 L 4257.76,807.722 L 4259.05,820 L 4257.76,832.278 L 4253.95,844.018 L 4247.78,854.71 L 4239.51,863.886 L 4229.53,871.142 L 4218.25,876.164 L 4206.17,878.73 L 4193.83,878.73 L 4181.75,876.164 L 4170.47,871.142 L 4160.49,863.886 L 4152.22,854.71 L 4146.05,844.018 L 4142.24,832.278 L 4140.95,820 L 4142.24,807.722 L 4146.05,795.982 L 4152.22,785.29 L 4160.49,776.114 L 4170.47,768.858 L 4181.75,763.836 L 4185,763.146 L 4185,278.14 z " style="fill-opacity:1.000000;fill:rgb(239,247,0);stroke:rgb(0,0,0);stroke-width:2"/></g>
<g fill-rule="evenodd"><path d="M 3585,278.14 L 3582.96,277.826 L 3570.05,273.048 L 3558.38,265.77 L 3548.41,256.29 L 3540.55,244.998 L 3535.12,232.354 L 3532.35,218.876 L 3532,187.998 L 3533.39,174.31 L 3537.51,161.182 L 3544.19,149.152 L 3553.15,138.714 L 3564.03,130.292 L 3576.38,124.232 L 3589.7,120.784 L 3603.44,120.086 L 3617.04,122.17 L 3629.95,126.948 L 3641.62,134.226 L 3651.59,143.706 L 3659.45,154.998 L 3664.88,167.642 L 3667.65,181.12 L 3668,211.998 L 3666.61,225.686 L 3662.49,238.814 L 3655.81,250.844 L 3646.85,261.282 L 3635.97,269.704 L 3623.62,275.764 L 3615,277.994 L 3615,823.144 L 3618.25,823.836 L 3629.53,828.858 L 3639.51,836.114 L 3647.78,845.29 L 3653.95,855.982 L 3657.76,867.722 L 3659.05,880 L 3657.76,892.278 L 3653.95,904.018 L 3647.78,914.71 L 3639.51,923.886 L 3629.53,931.142 L 3618.25,936.164 L 3606.17,938.73 L 3593.83,938.73 L 3581.75,936.164 L 3570.47,931.142 L 3560.49,923.886 L 3552.22,914.71 L 3546.05,904.018 L 3542.24,892.278 L 3540.95,880 L 3542.24,867.722 L 3546.05,855.982 L 3552.22,845.29 L 3560.49,836.114 L 3570.47,828.858 L 3581.75,823.836 L 3585,823.146 L 3585,278.14 z " style="fill-opacity:1.000000;fill:rgb(233,161,58);stroke:rgb(0,0,0);stroke-width:2"/></g>
<g fill-rule="evenodd"><path d="M 3815,813.144 L 3818.25,813.836 L 3829.53,818.858 L 3839.51,826.114 L 3847.78,835.29 L 3853.95,845.982 L 3857.76,857.722 L 3859.05,870 L 3857.76,882.278 L 3853.95,894.018 L 3847.78,904.71 L 3839.51,913.886 L 3829.53,921.142 L 3818.25,926.164 L 3806.17,928.73 L 3793.83,928.73 L 3781.75,926.164 L 3770.47,921.142 L 3760.49,913.886 L 3752.22,904.71 L 3746.05,894.018 L 3742.24,882.278 L 3740.95,870 L 3742.24,857.722 L 3746.05,845.982 L 3752.22,835.29 L 3760.49,826.114 L 3770.47,818.858 L 3781.75,813.836 L 3785,813.146 L 3785,278.14 L 3782.96,277.826 L 3770.05,273.048 L 3758.38,265.77 L 3748.41,256.29 L 3740.55,244.998 L 3735.12,232.354 L 3732.35,218.876 L 3732,187.998 L 3733.39,174.31 L 3737.51,161.182 L 3744.19,149.152 L 3753.15,138.714 L 3764.03,130.292 L 3776.38,124.232 L 3789.7,120.784 L 3803.44,120.086 L 3817.04,122.17 L 3829.95,126.948 L 3841.62,134.226 L 3851.59,143.706 L 3859.45,154.998 L 3864.88,167.642 L 3867.65,181.12 L 3868,211.998 L 3866.61,225.686 L 3862.49,238.814 L 3855.81,250.844 L 3846.85,261.282 L 3835.97,269.704 L 3823.62,275.764 L 3815,277.994 L 3815,813.144 z " style="fill-opacity:1.000000;fill:rgb(229,202,11);stroke:rgb(0,0,0);stroke-width:2"/></g>
<g fill-rule="evenodd"><path d="M 4385,278.14 L 4382.96,277.826 L 4370.05,273.048 L 4358.38,265.77 L 4348.41,256.29 L 4340.55,244.998 L 4335.12,232.354 L 4332.35,218.876 L 4332,187.998 L 4333.39,174.31 L 4337.51,161.182 L 4344.19,149.152 L 4353.15,138.714 L 4364.03,130.292 L 4376.38,124.232 L 4389.7,120.784 L 4403.44,120.086 L 4417.04,122.17 L 4429.95,126.948 L 4441.62,134.226 L 4451.59,143.706 L 4459.45,154.998 L 4464.88,167.642 L 4467.65,181.12 L 4468,211.998 L 4466.61,225.686 L 4462.49,238.814 L 4455.81,250.844 L 4446.85,261.282 L 4435.97,269.704 L 4423.62,275.764 L 4415,277.994 L 4415,443.144 L 4418.25,443.836 L 4429.53,448.858 L 4439.51,456.114 L 4447.78,465.29 L 4453.95,475.982 L 4457.76,487.722 L 4459.05,500 L 4457.76,512.278 L 4453.95,524.018 L 4447.78,534.71 L 4439.51,543.886 L 4429.53,551.142 L 4418.25,556.164 L 4406.17,558.73 L 4393.83,558.73 L 4381.75,556.164 L 4370.47,551.142 L 4360.49,543.886 L 4352.22,534.71 L 4346.05,524.018 L 4342.24,512.278 L 4340.95,500 L 4342.24,487.722 L 4346.05,475.982 L 4352.22,465.29 L 4360.49,456.114 L 4370.47,448.858 L 4381.75,443.836 L 4385,443.146 L 4385,278.14 z " style="fill-opacity:1.000000;fill:rgb(203,208,72);stroke:rgb(0,0,0);stroke-width:2"/></g>
</svg>
