<?xml version="1.0" standalone="no"?>
<!DOCTYPE svg PUBLIC "-//W3C//DTD SVG 1.1//EN"
"http://www.w3.org/Graphics/SVG/1.1/DTD/svg11.dtd">
<svg width="4860" height="4118" viewBox="0 0 4860 4118" version="1.1"
xmlns="http://www.w3.org/2000/svg"
xmlns:xlink="http://www.w3.org/1999/xlink">
<g fill-rule="evenodd"><path d="M 3241,1983 L 3243,1978 L 3246,1971 L 3255,1951 L 3258,1945 L 3260,1940 L 3263,1932 L 3271,1914 L 3274,1907 L 3277,1903 L 3280,1895 L 3288,1876 L 3292,1868 L 3294,1864 L 3298,1855 L 3307,1832 L 3312,1822 L 3313,1819 L 3318,1808 L 3331,1776 L 3337,1764 L 3338,1761 L 3344,1747 L 3360,1709 L 3377,1688 L 3385,1677 L 3388,1676 L 3402,1673 L 3420,1683 L 3430,1688 L 3433,1690 L 3437,1692 L 3473,1711 L 3482,1716 L 3486,1718 L 3494,1722 L 3527,1739 L 3535,1744 L 3539,1746 L 3547,1749 L 3577,1765 L 3585,1770 L 3589,1771 L 3596,1775 L 3627,1791 L 3636,1796 L 3639,1798 L 3648,1802 L 3682,1820 L 3693,1825 L 3695,1827 L 3706,1832 L 3749,1854 L 3764,1862 L 3764,1862 L 3778,1869 L 3840,1900 L 3858,1910 L 3863,1912 L 3881,1921 L 3986,1974 L 4011,1987 L 4032,1997 L 4056,2009 L 4188,2076 L 3937,2076 L 3853,2077 L 3664,2081 L 3629,2082 L 3585,2085 L 3563,2087 L 3545,2090 L 3529,2094 L 3519,2096 L 3516,2097 L 3505,2101 L 3497,2103 L 3484,2106 L 3477,2107 L 3463,2108 L 3458,2108 L 3451,2108 L 3446,2108 L 3433,2108 L 3426,2107 L 3412,2105 L 3405,2103 L 3391,2100 L 3383,2097 L 3382,2097 L 3368,2093 L 3355,2090 L 3336,2087 L 3310,2085 L 3283,2083 L 3202,2080 L 3197,2080 L 3198,2077 L 3203,2065 L 3217,2035 L 3221,2027 L 3223,2022 L 3227,2013 L 3237,1990 L 3241,1983 z " style="fill-opacity:1.000000;fill:rgb(41,35,190);stroke:rgb(0,0,0);stroke-width:2"/></g>
<g fill-rule="evenodd"><path d="M 3300,3086 L 3240,3076 L 3226,3074 L 3061,3045 L 3047,3043 L 2999,3034 L 2901,3005 L 2822,2881 L 2818,2874 L 2783,2787 L 2753,2700 L 2729,2613 L 2711,2526 L 2825,2428 L 2846,2409 L 2989,2289 L 3005,2277 L 3006,2275 L 3047,2241 L 3083,2206 L 3096,2194 L 3121,2168 L 3143,2142 L 3145,2140 L 3155,2128 L 3189,2088 L 3197,2080 L 3202,2080 L 3283,2083 L 3310,2085 L 3336,2087 L 3355,2090 L 3368,2093 L 3382,2097 L 3383,2097 L 3391,2100 L 3405,2103 L 3412,2105 L 3426,2107 L 3433,2108 L 3446,2108 L 3451,2108 L 3458,2108 L 3463,2108 L 3477,2107 L 3484,2106 L 3497,2103 L 3505,2101 L 3516,2097 L 3519,2096 L 3529,2094 L 3545,2090 L 3563,2087 L 3585,2085 L 3629,2082 L 3664,2081 L 3853,2077 L 3937,2076 L 4188,2076 L 4227,2091 L 4256,2142 L 4300,2213 L 4322,2247 L 4341,2275 L 4452,2440 L 4464,2458 L 4451,2472 L 4301,2622 L 4276,2647 L 4148,2771 L 4123,2794 L 4001,2907 L 3976,2929 L 3847,3044 L 3847,3044 L 3799,3055 L 3662,3071 L 3648,3072 L 3599,3078 L 3516,3077 L 3462,3077 L 3448,3078 L 3383,3081 L 3300,3086 z " style="fill-opacity:1.000000;fill:rgb(132,225,108);stroke:rgb(0,0,0);stroke-width:2"/></g>
<g fill-rule="evenodd"><path d="M 1196,4118 L 1195,4081 L 1195,4067 L 1195,4038 L 1195,4004 L 1195,3982 L 1196,3951 L 1195,3913 L 1195,3902 L 1195,3888 L 1195,3879 L 1196,3795 L 1196,3782 L 1196,3781 L 1196,3747 L 1198,3676 L 1199,3660 L 1199,3632 L 1200,3592 L 1203,3529 L 1204,3512 L 1207,3434 L 1209,3387 L 1213,3329 L 1213,3319 L 1226,3324 L 1319,3357 L 1338,3363 L 1421,3394 L 1439,3401 L 1496,3420 L 1511,3426 L 1563,3445 L 1578,3450 L 1619,3465 L 1632,3469 L 1669,3483 L 1683,3488 L 1717,3499 L 1729,3504 L 1759,3514 L 1772,3519 L 1800,3529 L 1800,3535 L 1800,3589 L 1799,3658 L 1799,3697 L 1800,3727 L 1800,3759 L 1799,3773 L 1799,3799 L 1800,3806 L 1800,3829 L 1799,3831 L 1800,3851 L 1800,3851 L 1800,3868 L 1800,3870 L 1799,3883 L 1800,3885 L 1800,3896 L 1799,3899 L 1799,3908 L 1800,3911 L 1800,3919 L 1799,3922 L 1799,3929 L 1800,3933 L 1800,3939 L 1799,3943 L 1799,3947 L 1800,3970 L 1800,3974 L 1799,3978 L 1799,3984 L 1800,3987 L 1800,3995 L 1799,3998 L 1799,4006 L 1800,4009 L 1800,4018 L 1799,4021 L 1799,4032 L 1800,4034 L 1800,4047 L 1800,4048 L 1800,4065 L 1800,4066 L 1800,4086 L 1799,4088 L 1799,4111 L 1800,4118 L 1196,4118 z " style="fill-opacity:1.000000;fill:rgb(214,174,82);stroke:rgb(0,0,0);stroke-width:2"/></g>
<g fill-rule="evenodd"><path d="M 1800,4118 L 1799,4111 L 1799,4088 L 1800,4086 L 1800,4066 L 1800,4065 L 1800,4048 L 1800,4047 L 1800,4034 L 1799,4032 L 1799,4021 L 1800,4018 L 1800,4009 L 1799,4006 L 1799,3998 L 1800,3995 L 1800,3987 L 1799,3984 L 1799,3978 L 1800,3974 L 1800,3970 L 1799,3947 L 1799,3943 L 1800,3939 L 1800,3933 L 1799,3929 L 1799,3922 L 1800,3919 L 1800,3911 L 1799,3908 L 1799,3899 L 1800,3896 L 1800,3885 L 1799,3883 L 1800,3870 L 1800,3868 L 1800,3851 L 1800,3851 L 1799,3831 L 1800,3829 L 1800,3806 L 1799,3799 L 1799,3773 L 1800,3759 L 1800,3727 L 1799,3697 L 1799,3658 L 1800,3589 L 1800,3535 L 1800,3529 L 1803,3529 L 1816,3530 L 1872,3536 L 1886,3538 L 1890,3538 L 1903,3539 L 1954,3544 L 1968,3546 L 1973,3546 L 1986,3547 L 2000,3549 L 2000,3589 L 1999,3658 L 1999,3697 L 2000,3727 L 2000,3759 L 1999,3773 L 1999,3799 L 2000,3806 L 2000,3829 L 1999,3831 L 2000,3851 L 2000,3851 L 2000,3868 L 1999,3870 L 1999,3883 L 2000,3885 L 2000,3896 L 1999,3899 L 1999,3908 L 2000,3911 L 2000,3919 L 1999,3922 L 1999,3929 L 2000,3933 L 2000,3939 L 1999,3943 L 1999,3947 L 2000,3970 L 2000,3974 L 1999,3978 L 1999,3984 L 2000,3987 L 2000,3995 L 1999,3998 L 1999,4006 L 2000,4009 L 2000,4018 L 1999,4021 L 1999,4032 L 2000,4034 L 2000,4047 L 1999,4048 L 2000,4065 L 2000,4066 L 2000,4086 L 1999,4088 L 1999,4111 L 2000,4118 L 1800,4118 z " style="fill-opacity:1.000000;fill:rgb(144,73,241);stroke:rgb(0,0,0);stroke-width:2"/></g>
<g fill-rule="evenodd"><path d="M 2000,4118 L 1999,4111 L 1999,4088 L 2000,4086 L 2000,4066 L 2000,4065 L 1999,4048 L 2000,4047 L 2000,4034 L 1999,4032 L 1999,4021 L 2000,4018 L 2000,4009 L 1999,4006 L 1999,3998 L 2000,3995 L 2000,3987 L 1999,3984 L 1999,3978 L 2000,3974 L 2000,3970 L 1999,3947 L 1999,3943 L 2000,3939 L 2000,3933 L 1999,3929 L 1999,3922 L 2000,3919 L 2000,3911 L 1999,3908 L 1999,3899 L 2000,3896 L 2000,3885 L 1999,3883 L 1999,3870 L 2000,3868 L 2000,3851 L 2000,3851 L 1999,3831 L 2000,3829 L 2000,3806 L 1999,3799 L 1999,3773 L 2000,3759 L 2000,3727 L 1999,3697 L 1999,3658 L 2000,3589 L 2000,3549 L 2004,3548 L 2056,3540 L 2069,3538 L 2072,3538 L 2086,3536 L 2141,3527 L 2154,3525 L 2157,3525 L 2171,3523 L 2200,3518 L 2200,3535 L 2200,3589 L 2199,3658 L 2199,3697 L 2200,3727 L 2200,3759 L 2199,3773 L 2199,3799 L 2200,3806 L 2200,3829 L 2199,3831 L 2200,3851 L 2200,3851 L 2200,3868 L 2199,3870 L 2199,3883 L 2200,3885 L 2200,3896 L 2199,3899 L 2199,3908 L 2200,3911 L 2200,3919 L 2199,3922 L 2199,3929 L 2200,3933 L 2200,3939 L 2199,3943 L 2199,3947 L 2200,3970 L 2200,3974 L 2199,3978 L 2199,3984 L 2200,3987 L 2200,3995 L 2199,3998 L 2199,4006 L 2200,4009 L 2200,4018 L 2199,4021 L 2199,4032 L 2200,4034 L 2200,4047 L 2199,4048 L 2200,4065 L 2200,4066 L 2200,4086 L 2199,4088 L 2199,4111 L 2200,4118 L 2000,4118 z " style="fill-opacity:1.000000;fill:rgb(241,187,233);stroke:rgb(0,0,0);stroke-width:2"/></g>
<g fill-rule="evenodd"><path d="M 2200,4118 L 2199,4111 L 2199,4088 L 2200,4086 L 2200,4066 L 2200,4065 L 2199,4048 L 2200,4047 L 2200,4034 L 2199,4032 L 2199,4021 L 2200,4018 L 2200,4009 L 2199,4006 L 2199,3998 L 2200,3995 L 2200,3987 L 2199,3984 L 2199,3978 L 2200,3974 L 2200,3970 L 2199,3947 L 2199,3943 L 2200,3939 L 2200,3933 L 2199,3929 L 2199,3922 L 2200,3919 L 2200,3911 L 2199,3908 L 2199,3899 L 2200,3896 L 2200,3885 L 2199,3883 L 2199,3870 L 2200,3868 L 2200,3851 L 2200,3851 L 2199,3831 L 2200,3829 L 2200,3806 L 2199,3799 L 2199,3773 L 2200,3759 L 2200,3727 L 2199,3697 L 2199,3658 L 2200,3589 L 2200,3535 L 2200,3518 L 2231,3506 L 2243,3501 L 2269,3490 L 2283,3485 L 2325,3468 L 2338,3462 L 2369,3450 L 2383,3444 L 2399,3438 L 2400,3535 L 2400,3589 L 2399,3658 L 2399,3697 L 2400,3727 L 2400,3759 L 2399,3773 L 2399,3799 L 2400,3806 L 2400,3829 L 2399,3831 L 2399,3851 L 2400,3851 L 2400,3868 L 2399,3870 L 2399,3883 L 2400,3885 L 2400,3896 L 2399,3899 L 2399,3908 L 2400,3911 L 2400,3919 L 2399,3922 L 2399,3929 L 2400,3933 L 2400,3939 L 2399,3943 L 2399,3947 L 2400,3970 L 2400,3974 L 2399,3978 L 2399,3984 L 2400,3987 L 2400,3995 L 2399,3998 L 2399,4006 L 2400,4009 L 2400,4018 L 2399,4021 L 2399,4032 L 2400,4034 L 2400,4047 L 2399,4048 L 2399,4065 L 2400,4066 L 2400,4086 L 2399,4088 L 2399,4111 L 2400,4118 L 2200,4118 z " style="fill-opacity:1.000000;fill:rgb(235,179,166);stroke:rgb(0,0,0);stroke-width:2"/></g>
<g fill-rule="evenodd"><path d="M 2400,4118 L 2399,4111 L 2399,4088 L 2400,4086 L 2400,4066 L 2399,4065 L 2399,4048 L 2400,4047 L 2400,4034 L 2399,4032 L 2399,4021 L 2400,4018 L 2400,4009 L 2399,4006 L 2399,3998 L 2400,3995 L 2400,3987 L 2399,3984 L 2399,3978 L 2400,3974 L 2400,3970 L 2399,3947 L 2399,3943 L 2400,3939 L 2400,3933 L 2399,3929 L 2399,3922 L 2400,3919 L 2400,3911 L 2399,3908 L 2399,3899 L 2400,3896 L 2400,3885 L 2399,3883 L 2399,3870 L 2400,3868 L 2400,3851 L 2399,3851 L 2399,3831 L 2400,3829 L 2400,3806 L 2399,3799 L 2399,3773 L 2400,3759 L 2400,3727 L 2399,3697 L 2399,3658 L 2400,3589 L 2400,3535 L 2399,3438 L 2431,3416 L 2443,3409 L 2465,3395 L 2478,3386 L 2548,3340 L 2561,3331 L 2590,3312 L 2598,3307 L 2599,3345 L 2600,3535 L 2600,3589 L 2599,3658 L 2599,3697 L 2600,3727 L 2600,3759 L 2599,3773 L 2599,3799 L 2600,3806 L 2600,3829 L 2599,3831 L 2599,3851 L 2599,3851 L 2600,3868 L 2599,3870 L 2599,3883 L 2600,3885 L 2600,3896 L 2599,3899 L 2599,3908 L 2600,3911 L 2600,3919 L 2599,3922 L 2599,3929 L 2600,3933 L 2600,3939 L 2599,3943 L 2599,3947 L 2600,3970 L 2600,3974 L 2599,3978 L 2599,3984 L 2600,3987 L 2600,3995 L 2599,3998 L 2599,4006 L 2600,4009 L 2600,4018 L 2599,4021 L 2599,4032 L 2600,4034 L 2600,4047 L 2599,4048 L 2599,4065 L 2599,4066 L 2600,4086 L 2599,4088 L 2599,4111 L 2600,4118 L 2400,4118 z " style="fill-opacity:1.000000;fill:rgb(219,60,135);stroke:rgb(0,0,0);stroke-width:2"/></g>
<g fill-rule="evenodd"><path d="M 2600,4118 L 2599,4111 L 2599,4088 L 2600,4086 L 2599,4066 L 2599,4065 L 2599,4048 L 2600,4047 L 2600,4034 L 2599,4032 L 2599,4021 L 2600,4018 L 2600,4009 L 2599,4006 L 2599,3998 L 2600,3995 L 2600,3987 L 2599,3984 L 2599,3978 L 2600,3974 L 2600,3970 L 2599,3947 L 2599,3943 L 2600,3939 L 2600,3933 L 2599,3929 L 2599,3922 L 2600,3919 L 2600,3911 L 2599,3908 L 2599,3899 L 2600,3896 L 2600,3885 L 2599,3883 L 2599,3870 L 2600,3868 L 2599,3851 L 2599,3851 L 2599,3831 L 2600,3829 L 2600,3806 L 2599,3799 L 2599,3773 L 2600,3759 L 2600,3727 L 2599,3697 L 2599,3658 L 2600,3589 L 2600,3535 L 2599,3345 L 2598,3307 L 2657,3253 L 2671,3241 L 2684,3229 L 2696,3218 L 2799,3124 L 2798,3256 L 2799,3345 L 2800,3535 L 2800,3589 L 2799,3658 L 2799,3697 L 2800,3727 L 2800,3759 L 2799,3773 L 2799,3799 L 2800,3806 L 2800,3829 L 2799,3831 L 2799,3851 L 2799,3851 L 2800,3868 L 2799,3870 L 2799,3883 L 2800,3885 L 2800,3896 L 2799,3899 L 2799,3908 L 2800,3911 L 2800,3919 L 2799,3922 L 2799,3929 L 2800,3933 L 2800,3939 L 2799,3943 L 2799,3947 L 2800,3970 L 2800,3974 L 2799,3978 L 2799,3984 L 2800,3987 L 2800,3995 L 2799,3998 L 2799,4006 L 2800,4009 L 2800,4018 L 2799,4021 L 2799,4032 L 2800,4034 L 2800,4047 L 2799,4048 L 2799,4065 L 2799,4066 L 2800,4086 L 2799,4088 L 2799,4111 L 2800,4118 L 2600,4118 z " style="fill-opacity:1.000000;fill:rgb(12,62,153);stroke:rgb(0,0,0);stroke-width:2"/></g>
<g fill-rule="evenodd"><path d="M 2800,4118 L 2799,4111 L 2799,4088 L 2800,4086 L 2799,4066 L 2799,4065 L 2799,4048 L 2800,4047 L 2800,4034 L 2799,4032 L 2799,4021 L 2800,4018 L 2800,4009 L 2799,4006 L 2799,3998 L 2800,3995 L 2800,3987 L 2799,3984 L 2799,3978 L 2800,3974 L 2800,3970 L 2799,3947 L 2799,3943 L 2800,3939 L 2800,3933 L 2799,3929 L 2799,3922 L 2800,3919 L 2800,3911 L 2799,3908 L 2799,3899 L 2800,3896 L 2800,3885 L 2799,3883 L 2799,3870 L 2800,3868 L 2799,3851 L 2799,3851 L 2799,3831 L 2800,3829 L 2800,3806 L 2799,3799 L 2799,3773 L 2800,3759 L 2800,3727 L 2799,3697 L 2799,3658 L 2800,3589 L 2800,3535 L 2799,3345 L 2798,3256 L 2799,3124 L 2848,3067 L 2851,3063 L 2861,3052 L 2863,3049 L 2901,3005 L 2999,3034 L 2998,3256 L 2999,3345 L 3000,3535 L 3000,3589 L 2999,3658 L 2999,3697 L 3000,3727 L 3000,3759 L 2999,3773 L 2999,3799 L 3000,3806 L 3000,3829 L 2999,3831 L 2999,3851 L 2999,3851 L 2999,3868 L 2999,3870 L 2999,3883 L 3000,3885 L 3000,3896 L 2999,3899 L 2999,3908 L 3000,3911 L 3000,3919 L 2999,3922 L 2999,3929 L 3000,3933 L 3000,3939 L 2999,3943 L 2999,3947 L 3000,3970 L 3000,3974 L 2999,3978 L 2999,3984 L 3000,3987 L 3000,3995 L 2999,3998 L 2999,4006 L 3000,4009 L 3000,4018 L 2999,4021 L 2999,4032 L 3000,4034 L 2999,4047 L 2999,4048 L 2999,4065 L 2999,4066 L 3000,4086 L 2999,4088 L 2999,4111 L 3000,4118 L 2800,4118 z " style="fill-opacity:1.000000;fill:rgb(36,94,13);stroke:rgb(0,0,0);stroke-width:2"/></g>
<g fill-rule="evenodd"><path d="M 3000,4118 L 2999,4111 L 2999,4088 L 3000,4086 L 2999,4066 L 2999,4065 L 2999,4048 L 2999,4047 L 3000,4034 L 2999,4032 L 2999,4021 L 3000,4018 L 3000,4009 L 2999,4006 L 2999,3998 L 3000,3995 L 3000,3987 L 2999,3984 L 2999,3978 L 3000,3974 L 3000,3970 L 2999,3947 L 2999,3943 L 3000,3939 L 3000,3933 L 2999,3929 L 2999,3922 L 3000,3919 L 3000,3911 L 2999,3908 L 2999,3899 L 3000,3896 L 3000,3885 L 2999,3883 L 2999,3870 L 2999,3868 L 2999,3851 L 2999,3851 L 2999,3831 L 3000,3829 L 3000,3806 L 2999,3799 L 2999,3773 L 3000,3759 L 3000,3727 L 2999,3697 L 2999,3658 L 3000,3589 L 3000,3535 L 2999,3345 L 2998,3256 L 2999,3034 L 3047,3043 L 3061,3045 L 3226,3074 L 3240,3076 L 3300,3086 L 3300,3149 L 3300,3204 L 3299,3388 L 3299,3427 L 3300,3524 L 3300,3555 L 3299,3613 L 3299,3639 L 3300,3677 L 3300,3700 L 3299,3726 L 3299,3746 L 3300,3766 L 3300,3784 L 3299,3799 L 3299,3816 L 3300,3828 L 3300,3843 L 3299,3853 L 3299,3868 L 3300,3876 L 3300,3891 L 3299,3898 L 3299,3912 L 3300,3919 L 3300,3933 L 3299,3938 L 3299,3948 L 3300,3969 L 3299,3979 L 3299,3984 L 3299,3998 L 3300,4004 L 3300,4018 L 3299,4026 L 3299,4040 L 3300,4049 L 3300,4064 L 3299,4073 L 3299,4089 L 3300,4101 L 3300,4118 L 3000,4118 z " style="fill-opacity:1.000000;fill:rgb(28,6,183);stroke:rgb(0,0,0);stroke-width:2"/></g>
<g fill-rule="evenodd"><path d="M 3300,4118 L 3300,4101 L 3299,4089 L 3299,4073 L 3300,4064 L 3300,4049 L 3299,4040 L 3299,4026 L 3300,4018 L 3300,4004 L 3299,3998 L 3299,3984 L 3299,3979 L 3300,3969 L 3299,3948 L 3299,3938 L 3300,3933 L 3300,3919 L 3299,3912 L 3299,3898 L 3300,3891 L 3300,3876 L 3299,3868 L 3299,3853 L 3300,3843 L 3300,3828 L 3299,3816 L 3299,3799 L 3300,3784 L 3300,3766 L 3299,3746 L 3299,3726 L 3300,3700 L 3300,3677 L 3299,3639 L 3299,3613 L 3300,3555 L 3300,3524 L 3299,3427 L 3299,3388 L 3300,3204 L 3300,3149 L 3300,3086 L 3383,3081 L 3448,3078 L 3462,3077 L 3516,3077 L 3599,3078 L 3598,3256 L 3599,3345 L 3600,3535 L 3600,3589 L 3599,3658 L 3599,3697 L 3600,3727 L 3600,3759 L 3599,3773 L 3599,3799 L 3600,3806 L 3599,3829 L 3599,3831 L 3599,3851 L 3599,3851 L 3599,3868 L 3599,3870 L 3599,3883 L 3599,3885 L 3599,3896 L 3599,3899 L 3599,3908 L 3600,3911 L 3600,3919 L 3599,3922 L 3599,3929 L 3600,3933 L 3600,3939 L 3599,3943 L 3599,3947 L 3600,3970 L 3600,3974 L 3599,3978 L 3599,3984 L 3600,3987 L 3600,3995 L 3599,3998 L 3599,4006 L 3600,4009 L 3600,4018 L 3599,4021 L 3599,4032 L 3599,4034 L 3599,4047 L 3599,4048 L 3599,4065 L 3599,4066 L 3599,4086 L 3599,4088 L 3599,4111 L 3600,4118 L 3300,4118 z " style="fill-opacity:1.000000;fill:rgb(71,222,179);stroke:rgb(0,0,0);stroke-width:2"/></g>
<g fill-rule="evenodd"><path d="M 3600,4118 L 3599,4111 L 3599,4088 L 3599,4086 L 3599,4066 L 3599,4065 L 3599,4048 L 3599,4047 L 3599,4034 L 3599,4032 L 3599,4021 L 3600,4018 L 3600,4009 L 3599,4006 L 3599,3998 L 3600,3995 L 3600,3987 L 3599,3984 L 3599,3978 L 3600,3974 L 3600,3970 L 3599,3947 L 3599,3943 L 3600,3939 L 3600,3933 L 3599,3929 L 3599,3922 L 3600,3919 L 3600,3911 L 3599,3908 L 3599,3899 L 3599,3896 L 3599,3885 L 3599,3883 L 3599,3870 L 3599,3868 L 3599,3851 L 3599,3851 L 3599,3831 L 3599,3829 L 3600,3806 L 3599,3799 L 3599,3773 L 3600,3759 L 3600,3727 L 3599,3697 L 3599,3658 L 3600,3589 L 3600,3535 L 3599,3345 L 3598,3256 L 3599,3078 L 3648,3072 L 3662,3071 L 3799,3055 L 3798,3256 L 3798,3345 L 3800,3535 L 3800,3589 L 3799,3658 L 3799,3697 L 3800,3727 L 3800,3759 L 3799,3773 L 3799,3799 L 3800,3806 L 3799,3829 L 3799,3831 L 3799,3851 L 3799,3851 L 3799,3868 L 3799,3870 L 3799,3883 L 3799,3885 L 3799,3896 L 3799,3899 L 3799,3908 L 3799,3911 L 3800,3919 L 3799,3922 L 3799,3929 L 3800,3933 L 3800,3939 L 3799,3943 L 3799,3947 L 3800,3970 L 3799,3974 L 3799,3978 L 3799,3984 L 3800,3987 L 3800,3995 L 3799,3998 L 3799,4006 L 3799,4009 L 3799,4018 L 3799,4021 L 3799,4032 L 3799,4034 L 3799,4047 L 3799,4048 L 3799,4065 L 3799,4066 L 3799,4086 L 3799,4088 L 3799,4111 L 3800,4118 L 3600,4118 z " style="fill-opacity:1.000000;fill:rgb(18,77,200);stroke:rgb(0,0,0);stroke-width:2"/></g>
<g fill-rule="evenodd"><path d="M 3800,4118 L 3799,4111 L 3799,4088 L 3799,4086 L 3799,4066 L 3799,4065 L 3799,4048 L 3799,4047 L 3799,4034 L 3799,4032 L 3799,4021 L 3799,4018 L 3799,4009 L 3799,4006 L 3799,3998 L 3800,3995 L 3800,3987 L 3799,3984 L 3799,3978 L 3799,3974 L 3800,3970 L 3799,3947 L 3799,3943 L 3800,3939 L 3800,3933 L 3799,3929 L 3799,3922 L 3800,3919 L 3799,3911 L 3799,3908 L 3799,3899 L 3799,3896 L 3799,3885 L 3799,3883 L 3799,3870 L 3799,3868 L 3799,3851 L 3799,3851 L 3799,3831 L 3799,3829 L 3800,3806 L 3799,3799 L 3799,3773 L 3800,3759 L 3800,3727 L 3799,3697 L 3799,3658 L 3800,3589 L 3800,3535 L 3798,3345 L 3798,3256 L 3799,3055 L 3847,3044 L 3847,3044 L 3850,3049 L 3862,3068 L 3886,3108 L 3993,3289 L 3998,3298 L 3998,3345 L 4000,3535 L 4000,3589 L 3999,3658 L 3999,3697 L 4000,3727 L 4000,3759 L 3999,3773 L 3999,3799 L 4000,3806 L 3999,3829 L 3999,3831 L 3999,3851 L 3999,3851 L 3999,3868 L 3999,3870 L 3999,3883 L 3999,3885 L 3999,3896 L 3999,3899 L 3999,3908 L 3999,3911 L 3999,3919 L 3999,3922 L 3999,3929 L 3999,3933 L 4000,3939 L 3999,3943 L 3999,3947 L 4000,3970 L 3999,3974 L 3999,3978 L 3999,3984 L 3999,3987 L 3999,3995 L 3999,3998 L 3999,4006 L 3999,4009 L 3999,4018 L 3999,4021 L 3999,4032 L 3999,4034 L 3999,4047 L 3999,4048 L 3999,4065 L 3999,4066 L 3999,4086 L 3999,4088 L 3999,4111 L 4000,4118 L 3800,4118 z " style="fill-opacity:1.000000;fill:rgb(67,187,139);stroke:rgb(0,0,0);stroke-width:2"/></g>
<g fill-rule="evenodd"><path d="M 4000,4118 L 3999,4111 L 3999,4088 L 3999,4086 L 3999,4066 L 3999,4065 L 3999,4048 L 3999,4047 L 3999,4034 L 3999,4032 L 3999,4021 L 3999,4018 L 3999,4009 L 3999,4006 L 3999,3998 L 3999,3995 L 3999,3987 L 3999,3984 L 3999,3978 L 3999,3974 L 4000,3970 L 3999,3947 L 3999,3943 L 4000,3939 L 3999,3933 L 3999,3929 L 3999,3922 L 3999,3919 L 3999,3911 L 3999,3908 L 3999,3899 L 3999,3896 L 3999,3885 L 3999,3883 L 3999,3870 L 3999,3868 L 3999,3851 L 3999,3851 L 3999,3831 L 3999,3829 L 4000,3806 L 3999,3799 L 3999,3773 L 4000,3759 L 4000,3727 L 3999,3697 L 3999,3658 L 4000,3589 L 4000,3535 L 3998,3345 L 3998,3298 L 4016,3319 L 4054,3366 L 4064,3379 L 4078,3397 L 4148,3484 L 4161,3500 L 4172,3515 L 4176,3520 L 4200,3552 L 4200,3589 L 4199,3658 L 4199,3697 L 4200,3727 L 4200,3759 L 4199,3773 L 4199,3799 L 4200,3806 L 4199,3829 L 4199,3831 L 4199,3851 L 4199,3851 L 4199,3868 L 4199,3870 L 4199,3883 L 4199,3885 L 4199,3896 L 4199,3899 L 4199,3908 L 4199,3911 L 4199,3919 L 4199,3922 L 4199,3929 L 4199,3933 L 4200,3939 L 4199,3943 L 4199,3947 L 4200,3970 L 4199,3974 L 4199,3978 L 4199,3984 L 4199,3987 L 4199,3995 L 4199,3998 L 4199,4006 L 4199,4009 L 4199,4018 L 4199,4021 L 4199,4032 L 4199,4034 L 4199,4047 L 4199,4048 L 4199,4065 L 4199,4066 L 4199,4086 L 4199,4088 L 4199,4111 L 4200,4118 L 4000,4118 z " style="fill-opacity:1.000000;fill:rgb(166,31,3);stroke:rgb(0,0,0);stroke-width:2"/></g>
<g fill-rule="evenodd"><path d="M 4200,4118 L 4199,4111 L 4199,4088 L 4199,4086 L 4199,4066 L 4199,4065 L 4199,4048 L 4199,4047 L 4199,4034 L 4199,4032 L 4199,4021 L 4199,4018 L 4199,4009 L 4199,4006 L 4199,3998 L 4199,3995 L 4199,3987 L 4199,3984 L 4199,3978 L 4199,3974 L 4200,3970 L 4199,3947 L 4199,3943 L 4200,3939 L 4199,3933 L 4199,3929 L 4199,3922 L 4199,3919 L 4199,3911 L 4199,3908 L 4199,3899 L 4199,3896 L 4199,3885 L 4199,3883 L 4199,3870 L 4199,3868 L 4199,3851 L 4199,3851 L 4199,3831 L 4199,3829 L 4200,3806 L 4199,3799 L 4199,3773 L 4200,3759 L 4200,3727 L 4199,3697 L 4199,3658 L 4200,3589 L 4200,3552 L 4205,3556 L 4248,3589 L 4275,3612 L 4284,3619 L 4290,3624 L 4333,3660 L 4336,3662 L 4348,3673 L 4363,3685 L 4382,3703 L 4393,3713 L 4395,3715 L 4399,3719 L 4400,3727 L 4400,3759 L 4399,3773 L 4399,3799 L 4399,3806 L 4399,3829 L 4399,3831 L 4399,3851 L 4399,3851 L 4399,3868 L 4399,3870 L 4399,3883 L 4399,3885 L 4399,3896 L 4399,3899 L 4399,3908 L 4399,3911 L 4399,3919 L 4399,3922 L 4399,3929 L 4399,3933 L 4399,3939 L 4399,3943 L 4399,3947 L 4400,3970 L 4399,3974 L 4399,3978 L 4399,3984 L 4399,3987 L 4399,3995 L 4399,3998 L 4399,4006 L 4399,4009 L 4399,4018 L 4399,4021 L 4399,4032 L 4399,4034 L 4399,4047 L 4399,4048 L 4399,4065 L 4399,4066 L 4399,4086 L 4399,4088 L 4399,4111 L 4399,4118 L 4200,4118 z " style="fill-opacity:1.000000;fill:rgb(90,125,9);stroke:rgb(0,0,0);stroke-width:2"/></g>
<g fill-rule="evenodd"><path d="M 4699,4118 L 4399,4118 L 4399,4111 L 4399,4088 L 4399,4086 L 4399,4066 L 4399,4065 L 4399,4048 L 4399,4047 L 4399,4034 L 4399,4032 L 4399,4021 L 4399,4018 L 4399,4009 L 4399,4006 L 4399,3998 L 4399,3995 L 4399,3987 L 4399,3984 L 4399,3978 L 4399,3974 L 4400,3970 L 4399,3947 L 4399,3943 L 4399,3939 L 4399,3933 L 4399,3929 L 4399,3922 L 4399,3919 L 4399,3911 L 4399,3908 L 4399,3899 L 4399,3896 L 4399,3885 L 4399,3883 L 4399,3870 L 4399,3868 L 4399,3851 L 4399,3851 L 4399,3831 L 4399,3829 L 4399,3806 L 4399,3799 L 4399,3773 L 4400,3759 L 4400,3727 L 4399,3719 L 4434,3731 L 4437,3732 L 4453,3738 L 4468,3744 L 4482,3749 L 4497,3755 L 4503,3758 L 4520,3766 L 4526,3768 L 4533,3771 L 4553,3781 L 4557,3783 L 4566,3787 L 4577,3792 L 4585,3796 L 4597,3803 L 4606,3808 L 4616,3814 L 4627,3820 L 4628,3821 L 4650,3833 L 4657,3838 L 4662,3842 L 4683,3855 L 4688,3858 L 4702,3867 L 4716,3877 L 4735,3891 L 4751,3902 L 4754,3904 L 4701,3957 L 4700,3958 L 4700,3959 L 4699,3960 L 4699,3961 L 4699,4118 z " style="fill-opacity:1.000000;fill:rgb(56,37,31);stroke:rgb(0,0,0);stroke-width:2"/></g>
<g fill-rule="evenodd"><path d="M 1079,0 L 1080,6 L 1080,29 L 1080,31 L 1080,51 L 1080,52 L 1080,69 L 1080,70 L 1080,83 L 1080,85 L 1080,96 L 1080,99 L 1079,108 L 1080,111 L 1080,119 L 1079,122 L 1079,130 L 1080,133 L 1080,139 L 1080,143 L 1079,147 L 1080,170 L 1080,174 L 1079,178 L 1079,184 L 1080,188 L 1080,195 L 1079,198 L 1080,206 L 1080,209 L 1080,218 L 1080,221 L 1080,232 L 1080,234 L 1080,247 L 1080,249 L 1080,266 L 1080,266 L 1080,286 L 1080,288 L 1079,311 L 1080,318 L 1080,344 L 1079,358 L 1079,390 L 1080,420 L 1080,459 L 1079,528 L 1079,582 L 1080,772 L 1081,861 L 1081,907 L 1069,898 L 1060,888 L 1015,728 L 998,671 L 961,547 L 941,471 L 937,457 L 932,436 L 916,376 L 914,368 L 908,344 L 903,319 L 901,310 L 897,292 L 897,290 L 893,271 L 891,254 L 890,249 L 889,242 L 889,238 L 887,227 L 886,218 L 886,203 L 886,201 L 885,197 L 885,195 L 885,183 L 885,178 L 886,161 L 886,156 L 885,147 L 885,144 L 885,130 L 885,124 L 885,122 L 886,116 L 886,110 L 886,103 L 887,88 L 889,80 L 889,78 L 890,68 L 891,61 L 893,46 L 897,28 L 897,25 L 902,4 L 903,0 L 1079,0 z " style="fill-opacity:1.000000;fill:rgb(93,212,203);stroke:rgb(0,0,0);stroke-width:2"/></g>
<g fill-rule="evenodd"><path d="M 1279,0 L 1280,6 L 1280,29 L 1280,31 L 1280,51 L 1280,52 L 1280,69 L 1280,70 L 1280,83 L 1280,85 L 1280,96 L 1279,99 L 1279,108 L 1280,111 L 1280,119 L 1279,122 L 1279,130 L 1280,133 L 1280,139 L 1279,143 L 1279,147 L 1280,170 L 1280,174 L 1279,178 L 1279,184 L 1280,188 L 1280,195 L 1279,198 L 1279,206 L 1280,209 L 1280,218 L 1279,221 L 1280,232 L 1280,234 L 1280,247 L 1280,249 L 1280,266 L 1280,266 L 1280,286 L 1280,288 L 1279,311 L 1280,318 L 1280,344 L 1279,358 L 1279,390 L 1280,420 L 1280,459 L 1279,528 L 1279,582 L 1280,772 L 1281,861 L 1281,876 L 1279,878 L 1226,946 L 1213,962 L 1178,1008 L 1081,907 L 1081,907 L 1081,861 L 1080,772 L 1079,582 L 1079,528 L 1080,459 L 1080,420 L 1079,390 L 1079,358 L 1080,344 L 1080,318 L 1079,311 L 1080,288 L 1080,286 L 1080,266 L 1080,266 L 1080,249 L 1080,247 L 1080,234 L 1080,232 L 1080,221 L 1080,218 L 1080,209 L 1080,206 L 1079,198 L 1080,195 L 1080,188 L 1079,184 L 1079,178 L 1080,174 L 1080,170 L 1079,147 L 1080,143 L 1080,139 L 1080,133 L 1079,130 L 1079,122 L 1080,119 L 1080,111 L 1079,108 L 1080,99 L 1080,96 L 1080,85 L 1080,83 L 1080,70 L 1080,69 L 1080,52 L 1080,51 L 1080,31 L 1080,29 L 1080,6 L 1079,0 L 1279,0 z " style="fill-opacity:1.000000;fill:rgb(252,150,245);stroke:rgb(0,0,0);stroke-width:2"/></g>
<g fill-rule="evenodd"><path d="M 1479,0 L 1480,6 L 1480,29 L 1480,31 L 1480,51 L 1480,52 L 1480,69 L 1480,70 L 1480,83 L 1480,85 L 1480,96 L 1479,99 L 1479,108 L 1480,111 L 1480,119 L 1479,122 L 1479,130 L 1480,133 L 1480,139 L 1479,143 L 1479,147 L 1480,170 L 1480,174 L 1479,178 L 1479,184 L 1480,188 L 1480,195 L 1479,198 L 1479,206 L 1480,209 L 1480,218 L 1479,221 L 1480,232 L 1480,234 L 1480,247 L 1480,249 L 1480,266 L 1480,266 L 1480,286 L 1479,288 L 1479,311 L 1480,318 L 1480,344 L 1479,358 L 1479,390 L 1480,420 L 1480,459 L 1479,528 L 1479,582 L 1480,683 L 1427,734 L 1416,745 L 1415,745 L 1402,757 L 1292,865 L 1281,876 L 1281,861 L 1280,772 L 1279,582 L 1279,528 L 1280,459 L 1280,420 L 1279,390 L 1279,358 L 1280,344 L 1280,318 L 1279,311 L 1280,288 L 1280,286 L 1280,266 L 1280,266 L 1280,249 L 1280,247 L 1280,234 L 1280,232 L 1279,221 L 1280,218 L 1280,209 L 1279,206 L 1279,198 L 1280,195 L 1280,188 L 1279,184 L 1279,178 L 1280,174 L 1280,170 L 1279,147 L 1279,143 L 1280,139 L 1280,133 L 1279,130 L 1279,122 L 1280,119 L 1280,111 L 1279,108 L 1279,99 L 1280,96 L 1280,85 L 1280,83 L 1280,70 L 1280,69 L 1280,52 L 1280,51 L 1280,31 L 1280,29 L 1280,6 L 1279,0 L 1479,0 z " style="fill-opacity:1.000000;fill:rgb(69,59,19);stroke:rgb(0,0,0);stroke-width:2"/></g>
<g fill-rule="evenodd"><path d="M 1679,0 L 1680,6 L 1680,29 L 1679,31 L 1680,51 L 1680,52 L 1680,69 L 1680,70 L 1679,83 L 1680,85 L 1680,96 L 1679,99 L 1679,108 L 1680,111 L 1680,119 L 1679,122 L 1679,130 L 1680,133 L 1680,139 L 1679,143 L 1679,147 L 1680,170 L 1680,174 L 1679,178 L 1679,184 L 1680,188 L 1680,195 L 1679,198 L 1679,206 L 1680,209 L 1680,218 L 1679,221 L 1679,232 L 1680,234 L 1680,247 L 1680,249 L 1680,266 L 1680,266 L 1680,286 L 1679,288 L 1679,311 L 1680,318 L 1680,344 L 1679,358 L 1679,390 L 1680,420 L 1680,459 L 1679,528 L 1679,554 L 1673,558 L 1627,588 L 1615,595 L 1608,600 L 1595,608 L 1535,647 L 1521,656 L 1511,662 L 1496,672 L 1480,683 L 1479,582 L 1479,528 L 1480,459 L 1480,420 L 1479,390 L 1479,358 L 1480,344 L 1480,318 L 1479,311 L 1479,288 L 1480,286 L 1480,266 L 1480,266 L 1480,249 L 1480,247 L 1480,234 L 1480,232 L 1479,221 L 1480,218 L 1480,209 L 1479,206 L 1479,198 L 1480,195 L 1480,188 L 1479,184 L 1479,178 L 1480,174 L 1480,170 L 1479,147 L 1479,143 L 1480,139 L 1480,133 L 1479,130 L 1479,122 L 1480,119 L 1480,111 L 1479,108 L 1479,99 L 1480,96 L 1480,85 L 1480,83 L 1480,70 L 1480,69 L 1480,52 L 1480,51 L 1480,31 L 1480,29 L 1480,6 L 1479,0 L 1679,0 z " style="fill-opacity:1.000000;fill:rgb(13,137,10);stroke:rgb(0,0,0);stroke-width:2"/></g>
<g fill-rule="evenodd"><path d="M 1879,0 L 1880,6 L 1880,29 L 1879,31 L 1880,51 L 1880,52 L 1880,69 L 1880,70 L 1879,83 L 1880,85 L 1880,96 L 1879,99 L 1879,108 L 1880,111 L 1880,119 L 1879,122 L 1879,130 L 1880,133 L 1880,139 L 1879,143 L 1879,147 L 1880,170 L 1880,174 L 1879,178 L 1879,184 L 1880,188 L 1880,195 L 1879,198 L 1879,206 L 1880,209 L 1880,218 L 1879,221 L 1879,232 L 1880,234 L 1880,247 L 1880,249 L 1880,266 L 1880,266 L 1880,286 L 1879,288 L 1879,311 L 1880,318 L 1880,344 L 1879,358 L 1879,390 L 1880,420 L 1880,459 L 1880,465 L 1873,473 L 1867,481 L 1856,494 L 1853,498 L 1852,498 L 1841,502 L 1804,513 L 1790,518 L 1785,520 L 1772,524 L 1730,537 L 1716,542 L 1707,545 L 1694,549 L 1679,554 L 1679,528 L 1680,459 L 1680,420 L 1679,390 L 1679,358 L 1680,344 L 1680,318 L 1679,311 L 1679,288 L 1680,286 L 1680,266 L 1680,266 L 1680,249 L 1680,247 L 1680,234 L 1679,232 L 1679,221 L 1680,218 L 1680,209 L 1679,206 L 1679,198 L 1680,195 L 1680,188 L 1679,184 L 1679,178 L 1680,174 L 1680,170 L 1679,147 L 1679,143 L 1680,139 L 1680,133 L 1679,130 L 1679,122 L 1680,119 L 1680,111 L 1679,108 L 1679,99 L 1680,96 L 1680,85 L 1679,83 L 1680,70 L 1680,69 L 1680,52 L 1680,51 L 1679,31 L 1680,29 L 1680,6 L 1679,0 L 1879,0 z " style="fill-opacity:1.000000;fill:rgb(28,219,174);stroke:rgb(0,0,0);stroke-width:2"/></g>
<g fill-rule="evenodd"><path d="M 2079,0 L 2080,6 L 2080,29 L 2079,31 L 2080,51 L 2080,52 L 2080,69 L 2079,70 L 2079,83 L 2080,85 L 2080,96 L 2079,99 L 2079,108 L 2080,111 L 2080,119 L 2079,122 L 2079,130 L 2080,133 L 2080,139 L 2079,143 L 2079,147 L 2080,170 L 2080,174 L 2079,178 L 2079,184 L 2080,188 L 2080,195 L 2079,198 L 2079,206 L 2080,209 L 2080,218 L 2079,221 L 2079,232 L 2080,234 L 2080,247 L 2079,249 L 2080,266 L 2080,266 L 2080,286 L 2079,288 L 2079,311 L 2080,318 L 2080,340 L 2074,343 L 2072,344 L 2064,350 L 2061,351 L 2040,364 L 2037,366 L 2029,371 L 2025,373 L 2001,388 L 1998,391 L 1989,396 L 1984,399 L 1953,418 L 1948,422 L 1939,427 L 1933,431 L 1885,461 L 1880,465 L 1880,459 L 1880,420 L 1879,390 L 1879,358 L 1880,344 L 1880,318 L 1879,311 L 1879,288 L 1880,286 L 1880,266 L 1880,266 L 1880,249 L 1880,247 L 1880,234 L 1879,232 L 1879,221 L 1880,218 L 1880,209 L 1879,206 L 1879,198 L 1880,195 L 1880,188 L 1879,184 L 1879,178 L 1880,174 L 1880,170 L 1879,147 L 1879,143 L 1880,139 L 1880,133 L 1879,130 L 1879,122 L 1880,119 L 1880,111 L 1879,108 L 1879,99 L 1880,96 L 1880,85 L 1879,83 L 1880,70 L 1880,69 L 1880,52 L 1880,51 L 1879,31 L 1880,29 L 1880,6 L 1879,0 L 2079,0 z " style="fill-opacity:1.000000;fill:rgb(50,32,154);stroke:rgb(0,0,0);stroke-width:2"/></g>
<g fill-rule="evenodd"><path d="M 2279,0 L 2280,6 L 2280,29 L 2279,31 L 2280,51 L 2280,52 L 2280,69 L 2279,70 L 2279,83 L 2280,85 L 2280,96 L 2279,99 L 2279,108 L 2280,111 L 2280,119 L 2279,122 L 2279,130 L 2280,133 L 2280,139 L 2279,143 L 2279,147 L 2280,170 L 2280,174 L 2279,178 L 2279,184 L 2280,188 L 2280,195 L 2279,198 L 2279,206 L 2280,209 L 2280,218 L 2279,221 L 2279,232 L 2280,234 L 2280,247 L 2279,249 L 2280,266 L 2280,266 L 2280,286 L 2279,288 L 2279,311 L 2280,318 L 2280,340 L 2270,340 L 2257,340 L 2255,340 L 2244,340 L 2230,339 L 2220,339 L 2216,339 L 2207,339 L 2195,339 L 2186,339 L 2181,339 L 2173,339 L 2161,339 L 2152,339 L 2147,339 L 2139,339 L 2124,339 L 2115,339 L 2110,340 L 2102,340 L 2082,340 L 2080,340 L 2080,318 L 2079,311 L 2079,288 L 2080,286 L 2080,266 L 2080,266 L 2079,249 L 2080,247 L 2080,234 L 2079,232 L 2079,221 L 2080,218 L 2080,209 L 2079,206 L 2079,198 L 2080,195 L 2080,188 L 2079,184 L 2079,178 L 2080,174 L 2080,170 L 2079,147 L 2079,143 L 2080,139 L 2080,133 L 2079,130 L 2079,122 L 2080,119 L 2080,111 L 2079,108 L 2079,99 L 2080,96 L 2080,85 L 2079,83 L 2079,70 L 2080,69 L 2080,52 L 2080,51 L 2079,31 L 2080,29 L 2080,6 L 2079,0 L 2279,0 z " style="fill-opacity:1.000000;fill:rgb(80,238,64);stroke:rgb(0,0,0);stroke-width:2"/></g>
<g fill-rule="evenodd"><path d="M 2479,0 L 2480,6 L 2480,29 L 2479,31 L 2479,51 L 2480,52 L 2480,69 L 2479,70 L 2479,83 L 2480,85 L 2480,96 L 2479,99 L 2479,108 L 2480,111 L 2480,119 L 2479,122 L 2479,130 L 2480,133 L 2480,139 L 2479,143 L 2479,147 L 2480,170 L 2480,174 L 2479,178 L 2479,184 L 2480,188 L 2480,195 L 2479,198 L 2479,206 L 2480,209 L 2480,218 L 2479,221 L 2479,232 L 2480,234 L 2480,247 L 2479,249 L 2479,266 L 2480,266 L 2480,286 L 2479,288 L 2479,311 L 2480,318 L 2480,344 L 2479,358 L 2479,390 L 2480,420 L 2480,459 L 2480,465 L 2474,461 L 2459,452 L 2442,441 L 2419,427 L 2406,419 L 2399,414 L 2385,405 L 2370,396 L 2358,388 L 2354,385 L 2341,377 L 2330,371 L 2319,364 L 2316,362 L 2304,355 L 2295,350 L 2285,343 L 2281,341 L 2280,340 L 2280,318 L 2279,311 L 2279,288 L 2280,286 L 2280,266 L 2280,266 L 2279,249 L 2280,247 L 2280,234 L 2279,232 L 2279,221 L 2280,218 L 2280,209 L 2279,206 L 2279,198 L 2280,195 L 2280,188 L 2279,184 L 2279,178 L 2280,174 L 2280,170 L 2279,147 L 2279,143 L 2280,139 L 2280,133 L 2279,130 L 2279,122 L 2280,119 L 2280,111 L 2279,108 L 2279,99 L 2280,96 L 2280,85 L 2279,83 L 2279,70 L 2280,69 L 2280,52 L 2280,51 L 2279,31 L 2280,29 L 2280,6 L 2279,0 L 2479,0 z " style="fill-opacity:1.000000;fill:rgb(120,54,253);stroke:rgb(0,0,0);stroke-width:2"/></g>
<g fill-rule="evenodd"><path d="M 2679,0 L 2680,6 L 2680,29 L 2679,31 L 2679,51 L 2679,52 L 2680,69 L 2679,70 L 2679,83 L 2680,85 L 2680,96 L 2679,99 L 2679,108 L 2680,111 L 2680,119 L 2679,122 L 2679,130 L 2680,133 L 2680,139 L 2679,143 L 2679,147 L 2680,170 L 2680,174 L 2679,178 L 2679,184 L 2680,188 L 2680,195 L 2679,198 L 2679,206 L 2680,209 L 2680,218 L 2679,221 L 2679,232 L 2680,234 L 2680,247 L 2679,249 L 2679,266 L 2679,266 L 2680,286 L 2679,288 L 2679,311 L 2680,318 L 2680,344 L 2679,358 L 2679,390 L 2680,420 L 2680,459 L 2679,528 L 2679,582 L 2679,636 L 2640,666 L 2628,651 L 2614,633 L 2610,627 L 2595,609 L 2542,543 L 2531,530 L 2531,529 L 2520,515 L 2486,473 L 2480,465 L 2480,459 L 2480,420 L 2479,390 L 2479,358 L 2480,344 L 2480,318 L 2479,311 L 2479,288 L 2480,286 L 2480,266 L 2479,266 L 2479,249 L 2480,247 L 2480,234 L 2479,232 L 2479,221 L 2480,218 L 2480,209 L 2479,206 L 2479,198 L 2480,195 L 2480,188 L 2479,184 L 2479,178 L 2480,174 L 2480,170 L 2479,147 L 2479,143 L 2480,139 L 2480,133 L 2479,130 L 2479,122 L 2480,119 L 2480,111 L 2479,108 L 2479,99 L 2480,96 L 2480,85 L 2479,83 L 2479,70 L 2480,69 L 2480,52 L 2479,51 L 2479,31 L 2480,29 L 2480,6 L 2479,0 L 2679,0 z " style="fill-opacity:1.000000;fill:rgb(18,73,50);stroke:rgb(0,0,0);stroke-width:2"/></g>
<g fill-rule="evenodd"><path d="M 2940,0 L 2940,0 L 2940,18 L 2939,27 L 2939,44 L 2940,50 L 2940,66 L 2939,71 L 2939,85 L 2940,89 L 2940,104 L 2939,107 L 2939,121 L 2940,123 L 2940,137 L 2939,139 L 2939,148 L 2940,170 L 2939,179 L 2939,180 L 2939,194 L 2940,196 L 2940,211 L 2939,214 L 2939,228 L 2940,232 L 2940,247 L 2939,252 L 2939,267 L 2940,274 L 2940,290 L 2939,299 L 2939,317 L 2940,329 L 2940,349 L 2939,366 L 2939,388 L 2940,414 L 2940,440 L 2939,481 L 2939,510 L 2938,510 L 2887,535 L 2882,537 L 2875,540 L 2869,543 L 2812,571 L 2807,574 L 2800,577 L 2793,580 L 2723,614 L 2718,617 L 2710,621 L 2703,624 L 2679,636 L 2679,582 L 2679,528 L 2680,459 L 2680,420 L 2679,390 L 2679,358 L 2680,344 L 2680,318 L 2679,311 L 2679,288 L 2680,286 L 2679,266 L 2679,266 L 2679,249 L 2680,247 L 2680,234 L 2679,232 L 2679,221 L 2680,218 L 2680,209 L 2679,206 L 2679,198 L 2680,195 L 2680,188 L 2679,184 L 2679,178 L 2680,174 L 2680,170 L 2679,147 L 2679,143 L 2680,139 L 2680,133 L 2679,130 L 2679,122 L 2680,119 L 2680,111 L 2679,108 L 2679,99 L 2680,96 L 2680,85 L 2679,83 L 2679,70 L 2680,69 L 2679,52 L 2679,51 L 2679,31 L 2680,29 L 2680,6 L 2679,0 L 2940,0 z " style="fill-opacity:1.000000;fill:rgb(246,158,125);stroke:rgb(0,0,0);stroke-width:2"/></g>
<g fill-rule="evenodd"><path d="M 3199,0 L 3200,6 L 3200,29 L 3199,31 L 3199,51 L 3199,52 L 3199,69 L 3199,70 L 3199,83 L 3200,85 L 3200,96 L 3199,99 L 3199,108 L 3200,111 L 3200,119 L 3199,122 L 3199,130 L 3200,133 L 3200,139 L 3199,143 L 3199,147 L 3200,170 L 3200,174 L 3199,178 L 3199,184 L 3200,188 L 3200,195 L 3199,198 L 3199,206 L 3200,209 L 3200,218 L 3199,221 L 3199,232 L 3200,234 L 3199,247 L 3199,249 L 3199,266 L 3199,266 L 3200,286 L 3199,288 L 3199,311 L 3200,318 L 3200,344 L 3199,358 L 3199,390 L 3200,420 L 3200,459 L 3199,504 L 3193,506 L 3183,509 L 3180,509 L 3176,509 L 3163,509 L 3124,509 L 3110,509 L 3106,509 L 3093,509 L 3055,509 L 3041,509 L 3036,509 L 3023,509 L 2981,509 L 2967,509 L 2960,509 L 2946,510 L 2939,510 L 2939,481 L 2940,440 L 2940,414 L 2939,388 L 2939,366 L 2940,349 L 2940,329 L 2939,317 L 2939,299 L 2940,290 L 2940,274 L 2939,267 L 2939,252 L 2940,247 L 2940,232 L 2939,228 L 2939,214 L 2940,211 L 2940,196 L 2939,194 L 2939,180 L 2939,179 L 2940,170 L 2939,148 L 2939,139 L 2940,137 L 2940,123 L 2939,121 L 2939,107 L 2940,104 L 2940,89 L 2939,85 L 2939,71 L 2940,66 L 2940,50 L 2939,44 L 2939,27 L 2940,18 L 2940,0 L 2940,0 L 3199,0 z " style="fill-opacity:1.000000;fill:rgb(73,220,173);stroke:rgb(0,0,0);stroke-width:2"/></g>
<g fill-rule="evenodd"><path d="M 3399,0 L 3400,6 L 3399,29 L 3399,31 L 3399,51 L 3399,52 L 3399,69 L 3399,70 L 3399,83 L 3399,85 L 3400,96 L 3399,99 L 3399,108 L 3400,111 L 3400,119 L 3399,122 L 3399,130 L 3400,133 L 3400,139 L 3399,143 L 3399,147 L 3400,170 L 3400,174 L 3399,178 L 3399,184 L 3400,188 L 3400,195 L 3399,198 L 3399,206 L 3400,209 L 3400,218 L 3399,221 L 3399,232 L 3399,234 L 3399,247 L 3399,249 L 3399,266 L 3399,266 L 3399,286 L 3399,288 L 3399,311 L 3400,318 L 3400,344 L 3399,358 L 3399,390 L 3400,420 L 3400,459 L 3399,504 L 3393,504 L 3379,504 L 3375,504 L 3362,504 L 3323,504 L 3309,504 L 3306,504 L 3293,504 L 3255,504 L 3241,504 L 3237,504 L 3224,504 L 3199,504 L 3200,459 L 3200,420 L 3199,390 L 3199,358 L 3200,344 L 3200,318 L 3199,311 L 3199,288 L 3200,286 L 3199,266 L 3199,266 L 3199,249 L 3199,247 L 3200,234 L 3199,232 L 3199,221 L 3200,218 L 3200,209 L 3199,206 L 3199,198 L 3200,195 L 3200,188 L 3199,184 L 3199,178 L 3200,174 L 3200,170 L 3199,147 L 3199,143 L 3200,139 L 3200,133 L 3199,130 L 3199,122 L 3200,119 L 3200,111 L 3199,108 L 3199,99 L 3200,96 L 3200,85 L 3199,83 L 3199,70 L 3199,69 L 3199,52 L 3199,51 L 3199,31 L 3200,29 L 3200,6 L 3199,0 L 3399,0 z " style="fill-opacity:1.000000;fill:rgb(79,20,242);stroke:rgb(0,0,0);stroke-width:2"/></g>
<g fill-rule="evenodd"><path d="M 3599,0 L 3600,6 L 3599,29 L 3599,31 L 3599,51 L 3599,52 L 3599,69 L 3599,70 L 3599,83 L 3599,85 L 3599,96 L 3599,99 L 3599,108 L 3600,111 L 3600,119 L 3599,122 L 3599,130 L 3600,133 L 3600,139 L 3599,143 L 3599,147 L 3600,170 L 3600,174 L 3599,178 L 3599,184 L 3600,188 L 3600,195 L 3599,198 L 3599,206 L 3600,209 L 3600,218 L 3599,221 L 3599,232 L 3599,234 L 3599,247 L 3599,249 L 3599,266 L 3599,266 L 3599,286 L 3599,288 L 3599,311 L 3600,318 L 3600,344 L 3599,358 L 3599,390 L 3600,420 L 3600,459 L 3600,462 L 3587,481 L 3584,484 L 3576,487 L 3574,488 L 3565,491 L 3523,504 L 3511,509 L 3510,509 L 3499,513 L 3464,524 L 3453,520 L 3445,518 L 3439,516 L 3433,514 L 3399,504 L 3400,459 L 3400,420 L 3399,390 L 3399,358 L 3400,344 L 3400,318 L 3399,311 L 3399,288 L 3399,286 L 3399,266 L 3399,266 L 3399,249 L 3399,247 L 3399,234 L 3399,232 L 3399,221 L 3400,218 L 3400,209 L 3399,206 L 3399,198 L 3400,195 L 3400,188 L 3399,184 L 3399,178 L 3400,174 L 3400,170 L 3399,147 L 3399,143 L 3400,139 L 3400,133 L 3399,130 L 3399,122 L 3400,119 L 3400,111 L 3399,108 L 3399,99 L 3400,96 L 3399,85 L 3399,83 L 3399,70 L 3399,69 L 3399,52 L 3399,51 L 3399,31 L 3399,29 L 3400,6 L 3399,0 L 3599,0 z " style="fill-opacity:1.000000;fill:rgb(68,64,102);stroke:rgb(0,0,0);stroke-width:2"/></g>
<g fill-rule="evenodd"><path d="M 3799,0 L 3800,6 L 3799,29 L 3799,31 L 3799,51 L 3799,52 L 3799,69 L 3799,70 L 3799,83 L 3799,85 L 3799,96 L 3799,99 L 3799,108 L 3799,111 L 3800,119 L 3799,122 L 3799,130 L 3800,133 L 3800,139 L 3799,143 L 3799,147 L 3800,170 L 3799,174 L 3799,178 L 3799,184 L 3800,188 L 3800,195 L 3799,198 L 3799,206 L 3799,209 L 3799,218 L 3799,221 L 3799,232 L 3799,234 L 3799,247 L 3799,249 L 3799,266 L 3799,266 L 3799,286 L 3799,288 L 3799,311 L 3800,318 L 3800,320 L 3794,324 L 3785,330 L 3774,338 L 3774,338 L 3764,345 L 3754,352 L 3742,360 L 3742,361 L 3731,368 L 3717,378 L 3704,388 L 3703,388 L 3691,397 L 3669,412 L 3654,424 L 3650,426 L 3635,437 L 3600,462 L 3600,459 L 3600,420 L 3599,390 L 3599,358 L 3600,344 L 3600,318 L 3599,311 L 3599,288 L 3599,286 L 3599,266 L 3599,266 L 3599,249 L 3599,247 L 3599,234 L 3599,232 L 3599,221 L 3600,218 L 3600,209 L 3599,206 L 3599,198 L 3600,195 L 3600,188 L 3599,184 L 3599,178 L 3600,174 L 3600,170 L 3599,147 L 3599,143 L 3600,139 L 3600,133 L 3599,130 L 3599,122 L 3600,119 L 3600,111 L 3599,108 L 3599,99 L 3599,96 L 3599,85 L 3599,83 L 3599,70 L 3599,69 L 3599,52 L 3599,51 L 3599,31 L 3599,29 L 3600,6 L 3599,0 L 3799,0 z " style="fill-opacity:1.000000;fill:rgb(208,107,196);stroke:rgb(0,0,0);stroke-width:2"/></g>
<g fill-rule="evenodd"><path d="M 3999,0 L 4000,6 L 3999,29 L 3999,31 L 3999,51 L 3999,52 L 3999,69 L 3999,70 L 3999,83 L 3999,85 L 3999,96 L 3999,99 L 3999,108 L 3999,111 L 3999,119 L 3999,122 L 3999,130 L 3999,133 L 4000,139 L 3999,143 L 3999,147 L 4000,170 L 3999,174 L 3999,178 L 3999,184 L 3999,188 L 3999,195 L 3999,198 L 3999,206 L 3999,209 L 3999,218 L 3999,221 L 3999,232 L 3999,234 L 3999,247 L 3999,249 L 3999,266 L 3999,266 L 3999,286 L 3999,288 L 3999,311 L 4000,318 L 4000,320 L 3992,320 L 3980,320 L 3968,320 L 3965,320 L 3955,319 L 3945,319 L 3935,319 L 3931,319 L 3923,319 L 3914,319 L 3906,319 L 3900,319 L 3893,319 L 3884,319 L 3876,319 L 3870,319 L 3864,319 L 3852,319 L 3844,319 L 3837,320 L 3831,320 L 3815,320 L 3806,320 L 3800,320 L 3800,318 L 3799,311 L 3799,288 L 3799,286 L 3799,266 L 3799,266 L 3799,249 L 3799,247 L 3799,234 L 3799,232 L 3799,221 L 3799,218 L 3799,209 L 3799,206 L 3799,198 L 3800,195 L 3800,188 L 3799,184 L 3799,178 L 3799,174 L 3800,170 L 3799,147 L 3799,143 L 3800,139 L 3800,133 L 3799,130 L 3799,122 L 3800,119 L 3799,111 L 3799,108 L 3799,99 L 3799,96 L 3799,85 L 3799,83 L 3799,70 L 3799,69 L 3799,52 L 3799,51 L 3799,31 L 3799,29 L 3800,6 L 3799,0 L 3999,0 z " style="fill-opacity:1.000000;fill:rgb(48,183,50);stroke:rgb(0,0,0);stroke-width:2"/></g>
<g fill-rule="evenodd"><path d="M 4199,0 L 4200,6 L 4199,29 L 4199,31 L 4199,51 L 4199,52 L 4199,69 L 4199,70 L 4199,83 L 4199,85 L 4199,96 L 4199,99 L 4199,108 L 4199,111 L 4199,119 L 4199,122 L 4199,130 L 4199,133 L 4200,139 L 4199,143 L 4199,147 L 4200,170 L 4199,174 L 4199,178 L 4199,184 L 4199,188 L 4199,195 L 4199,198 L 4199,206 L 4199,209 L 4199,218 L 4199,221 L 4199,232 L 4199,234 L 4199,247 L 4199,249 L 4199,266 L 4199,266 L 4199,286 L 4199,288 L 4199,311 L 4200,318 L 4200,344 L 4199,358 L 4199,390 L 4200,420 L 4200,459 L 4200,463 L 4178,447 L 4164,437 L 4161,435 L 4148,426 L 4118,404 L 4108,397 L 4104,394 L 4096,388 L 4075,373 L 4068,368 L 4063,365 L 4057,361 L 4041,349 L 4035,345 L 4029,341 L 4024,338 L 4010,327 L 4005,324 L 4000,320 L 4000,318 L 3999,311 L 3999,288 L 3999,286 L 3999,266 L 3999,266 L 3999,249 L 3999,247 L 3999,234 L 3999,232 L 3999,221 L 3999,218 L 3999,209 L 3999,206 L 3999,198 L 3999,195 L 3999,188 L 3999,184 L 3999,178 L 3999,174 L 4000,170 L 3999,147 L 3999,143 L 4000,139 L 3999,133 L 3999,130 L 3999,122 L 3999,119 L 3999,111 L 3999,108 L 3999,99 L 3999,96 L 3999,85 L 3999,83 L 3999,70 L 3999,69 L 3999,52 L 3999,51 L 3999,31 L 3999,29 L 4000,6 L 3999,0 L 4199,0 z " style="fill-opacity:1.000000;fill:rgb(59,161,34);stroke:rgb(0,0,0);stroke-width:2"/></g>
<g fill-rule="evenodd"><path d="M 4399,0 L 4399,6 L 4399,29 L 4399,31 L 4399,51 L 4399,52 L 4399,69 L 4399,70 L 4399,83 L 4399,85 L 4399,96 L 4399,99 L 4399,108 L 4399,111 L 4399,119 L 4399,122 L 4399,130 L 4399,133 L 4399,139 L 4399,143 L 4399,147 L 4400,170 L 4399,174 L 4399,178 L 4399,184 L 4399,188 L 4399,195 L 4399,198 L 4399,206 L 4399,209 L 4399,218 L 4399,221 L 4399,232 L 4399,234 L 4399,247 L 4399,249 L 4399,266 L 4399,266 L 4399,286 L 4399,288 L 4399,311 L 4399,318 L 4400,344 L 4399,358 L 4399,390 L 4400,420 L 4400,459 L 4399,528 L 4399,582 L 4400,715 L 4337,660 L 4331,650 L 4316,629 L 4289,592 L 4278,575 L 4250,535 L 4239,519 L 4225,499 L 4215,486 L 4200,463 L 4200,459 L 4200,420 L 4199,390 L 4199,358 L 4200,344 L 4200,318 L 4199,311 L 4199,288 L 4199,286 L 4199,266 L 4199,266 L 4199,249 L 4199,247 L 4199,234 L 4199,232 L 4199,221 L 4199,218 L 4199,209 L 4199,206 L 4199,198 L 4199,195 L 4199,188 L 4199,184 L 4199,178 L 4199,174 L 4200,170 L 4199,147 L 4199,143 L 4200,139 L 4199,133 L 4199,130 L 4199,122 L 4199,119 L 4199,111 L 4199,108 L 4199,99 L 4199,96 L 4199,85 L 4199,83 L 4199,70 L 4199,69 L 4199,52 L 4199,51 L 4199,31 L 4199,29 L 4200,6 L 4199,0 L 4399,0 z " style="fill-opacity:1.000000;fill:rgb(246,34,145);stroke:rgb(0,0,0);stroke-width:2"/></g>
<g fill-rule="evenodd"><path d="M 4620,0 L 4699,78 L 4699,79 L 4699,701 L 4683,704 L 4646,710 L 4632,712 L 4581,721 L 4548,727 L 4535,729 L 4521,731 L 4444,743 L 4428,745 L 4421,740 L 4419,738 L 4408,724 L 4400,715 L 4399,582 L 4399,528 L 4400,459 L 4400,420 L 4399,390 L 4399,358 L 4400,344 L 4399,318 L 4399,311 L 4399,288 L 4399,286 L 4399,266 L 4399,266 L 4399,249 L 4399,247 L 4399,234 L 4399,232 L 4399,221 L 4399,218 L 4399,209 L 4399,206 L 4399,198 L 4399,195 L 4399,188 L 4399,184 L 4399,178 L 4399,174 L 4400,170 L 4399,147 L 4399,143 L 4399,139 L 4399,133 L 4399,130 L 4399,122 L 4399,119 L 4399,111 L 4399,108 L 4399,99 L 4399,96 L 4399,85 L 4399,83 L 4399,70 L 4399,69 L 4399,52 L 4399,51 L 4399,31 L 4399,29 L 4399,6 L 4399,0 L 4620,0 z " style="fill-opacity:1.000000;fill:rgb(157,225,139);stroke:rgb(0,0,0);stroke-width:2"/></g>
<g fill-rule="evenodd"><path d="M 348,4118 L 349,4109 L 352,4082 L 353,4071 L 356,4055 L 357,4046 L 360,4019 L 360,4012 L 362,4000 L 363,3994 L 366,3966 L 366,3962 L 368,3951 L 368,3947 L 371,3918 L 371,3916 L 373,3902 L 373,3901 L 377,3869 L 377,3868 L 378,3851 L 379,3850 L 382,3816 L 382,3814 L 384,3791 L 385,3787 L 388,3752 L 389,3746 L 392,3711 L 393,3702 L 397,3665 L 398,3653 L 399,3640 L 401,3639 L 413,3634 L 434,3626 L 454,3618 L 464,3613 L 465,3613 L 505,3595 L 506,3595 L 518,3590 L 536,3581 L 562,3568 L 574,3562 L 583,3558 L 616,3541 L 627,3535 L 640,3528 L 678,3508 L 709,3492 L 717,3487 L 723,3483 L 816,3431 L 827,3425 L 845,3414 L 866,3402 L 1031,3303 L 1057,3288 L 1073,3278 L 1107,3258 L 1139,3244 L 1152,3238 L 1165,3233 L 1169,3240 L 1213,3319 L 1213,3329 L 1209,3387 L 1207,3434 L 1204,3512 L 1203,3529 L 1200,3592 L 1199,3632 L 1199,3660 L 1198,3676 L 1196,3747 L 1196,3781 L 1196,3782 L 1196,3795 L 1195,3879 L 1195,3888 L 1195,3902 L 1195,3913 L 1196,3951 L 1195,3982 L 1195,4004 L 1195,4038 L 1195,4067 L 1195,4081 L 1196,4118 L 348,4118 z " style="fill-opacity:1.000000;fill:rgb(31,218,176);stroke:rgb(0,0,0);stroke-width:2"/></g>
<g fill-rule="evenodd"><path d="M 4859,3798 L 4754,3904 L 4751,3902 L 4735,3891 L 4716,3877 L 4702,3867 L 4688,3858 L 4683,3855 L 4662,3842 L 4657,3838 L 4650,3833 L 4628,3821 L 4627,3820 L 4616,3814 L 4606,3808 L 4597,3803 L 4585,3796 L 4577,3792 L 4566,3787 L 4557,3783 L 4553,3781 L 4533,3771 L 4526,3768 L 4520,3766 L 4503,3758 L 4497,3755 L 4482,3749 L 4468,3744 L 4453,3738 L 4437,3732 L 4434,3731 L 4399,3719 L 4395,3715 L 4393,3713 L 4382,3703 L 4363,3685 L 4348,3673 L 4336,3662 L 4333,3660 L 4290,3624 L 4284,3619 L 4275,3612 L 4248,3589 L 4205,3556 L 4200,3552 L 4176,3520 L 4172,3515 L 4161,3500 L 4148,3484 L 4078,3397 L 4064,3379 L 4054,3366 L 4016,3319 L 3998,3298 L 3993,3289 L 3886,3108 L 3862,3068 L 3850,3049 L 3847,3044 L 3976,2929 L 4001,2907 L 4123,2794 L 4148,2771 L 4276,2647 L 4301,2622 L 4451,2472 L 4464,2458 L 4483,2458 L 4683,2458 L 4716,2458 L 4859,2458 L 4859,3798 z " style="fill-opacity:1.000000;fill:rgb(202,153,2);stroke:rgb(0,0,0);stroke-width:2"/></g>
<g fill-rule="evenodd"><path d="M 903,0 L 902,4 L 897,25 L 897,28 L 893,46 L 891,61 L 890,68 L 889,78 L 889,80 L 887,88 L 886,103 L 886,110 L 886,116 L 885,122 L 885,124 L 885,130 L 885,144 L 885,147 L 886,156 L 886,161 L 885,178 L 885,183 L 885,195 L 885,197 L 886,201 L 886,203 L 886,218 L 887,227 L 889,238 L 889,242 L 890,249 L 891,254 L 893,271 L 897,290 L 897,292 L 901,310 L 903,319 L 908,344 L 914,368 L 916,376 L 932,436 L 937,457 L 941,471 L 961,547 L 998,671 L 1015,728 L 1060,888 L 1035,870 L 982,834 L 958,818 L 895,774 L 838,730 L 799,698 L 797,697 L 716,632 L 683,606 L 630,568 L 600,548 L 557,521 L 527,504 L 485,482 L 454,468 L 442,462 L 442,450 L 439,415 L 438,393 L 436,374 L 434,355 L 433,332 L 431,317 L 429,295 L 428,283 L 427,265 L 426,253 L 424,231 L 423,222 L 422,205 L 421,196 L 418,171 L 418,165 L 416,146 L 416,139 L 413,112 L 412,107 L 410,82 L 410,77 L 406,46 L 406,42 L 403,6 L 402,2 L 402,0 L 903,0 z " style="fill-opacity:1.000000;fill:rgb(185,114,157);stroke:rgb(0,0,0);stroke-width:2"/></g>
<g fill-rule="evenodd"><path d="M 4859,1139 L 4859,2458 L 4716,2458 L 4683,2458 L 4483,2458 L 4464,2458 L 4452,2440 L 4341,2275 L 4322,2247 L 4300,2213 L 4256,2142 L 4227,2091 L 4223,2043 L 4219,2005 L 4218,1993 L 4217,1986 L 4201,1830 L 4201,1825 L 4199,1810 L 4197,1789 L 4185,1693 L 4183,1679 L 4183,1676 L 4178,1640 L 4170,1584 L 4168,1572 L 4166,1550 L 4160,1516 L 4155,1487 L 4153,1475 L 4147,1433 L 4141,1400 L 4139,1392 L 4137,1380 L 4133,1361 L 4156,1322 L 4157,1318 L 4162,1310 L 4175,1287 L 4201,1238 L 4207,1227 L 4212,1218 L 4228,1188 L 4241,1163 L 4246,1152 L 4260,1124 L 4275,1094 L 4278,1088 L 4283,1077 L 4307,1028 L 4316,1008 L 4321,997 L 4321,996 L 4356,917 L 4357,916 L 4362,904 L 4372,880 L 4405,801 L 4411,786 L 4419,769 L 4428,745 L 4444,743 L 4521,731 L 4535,729 L 4548,727 L 4581,721 L 4632,712 L 4646,710 L 4683,704 L 4699,701 L 4699,976 L 4699,977 L 4700,978 L 4700,979 L 4701,980 L 4859,1139 z " style="fill-opacity:1.000000;fill:rgb(73,44,128);stroke:rgb(0,0,0);stroke-width:2"/></g>
<g fill-rule="evenodd"><path d="M 0,3148 L 18,3148 L 37,3148 L 62,3148 L 78,3148 L 94,3148 L 108,3148 L 120,3148 L 133,3148 L 143,3148 L 156,3148 L 167,3148 L 179,3148 L 192,3148 L 205,3148 L 219,3148 L 220,3150 L 223,3155 L 227,3162 L 230,3167 L 234,3174 L 236,3178 L 240,3185 L 242,3189 L 245,3195 L 248,3199 L 252,3206 L 254,3210 L 257,3217 L 259,3221 L 263,3228 L 266,3232 L 270,3239 L 272,3244 L 276,3251 L 279,3256 L 280,3258 L 279,3260 L 276,3265 L 272,3272 L 270,3277 L 266,3284 L 263,3288 L 259,3295 L 257,3300 L 254,3306 L 252,3310 L 248,3317 L 245,3321 L 242,3327 L 240,3331 L 236,3338 L 234,3342 L 230,3349 L 227,3354 L 223,3361 L 220,3366 L 215,3376 L 212,3382 L 207,3389 L 204,3396 L 195,3412 L 191,3420 L 186,3428 L 181,3437 L 165,3468 L 156,3483 L 152,3489 L 143,3506 L 126,3538 L 97,3537 L 87,3537 L 84,3537 L 55,3536 L 33,3535 L 20,3534 L 0,3534 L 0,3534 L 0,3148 z " style="fill-opacity:1.000000;fill:rgb(126,197,153);stroke:rgb(0,0,0);stroke-width:2"/></g>
<g fill-rule="evenodd"><path d="M 0,2930 L 20,2930 L 39,2930 L 63,2930 L 79,2930 L 95,2930 L 108,2930 L 120,2930 L 133,2930 L 143,2930 L 156,2930 L 166,2930 L 179,2930 L 191,2930 L 205,2930 L 220,2930 L 220,2930 L 223,2935 L 227,2942 L 230,2947 L 234,2954 L 236,2959 L 240,2965 L 242,2970 L 245,2976 L 248,2980 L 252,2987 L 254,2991 L 257,2997 L 259,3001 L 263,3008 L 266,3012 L 270,3019 L 272,3024 L 276,3031 L 279,3036 L 280,3038 L 279,3040 L 276,3045 L 272,3052 L 269,3057 L 266,3064 L 263,3069 L 259,3075 L 257,3080 L 254,3085 L 251,3090 L 248,3096 L 245,3101 L 242,3106 L 240,3111 L 236,3118 L 234,3122 L 230,3129 L 227,3134 L 223,3141 L 220,3146 L 219,3148 L 205,3148 L 192,3148 L 179,3148 L 167,3148 L 156,3148 L 143,3148 L 133,3148 L 120,3148 L 108,3148 L 94,3148 L 78,3148 L 62,3148 L 37,3148 L 18,3148 L 0,3148 L 0,2930 z " style="fill-opacity:1.000000;fill:rgb(213,233,128);stroke:rgb(0,0,0);stroke-width:2"/></g>
<g fill-rule="evenodd"><path d="M 0,2716 L 23,2716 L 41,2716 L 65,2716 L 80,2716 L 96,2716 L 109,2716 L 121,2716 L 134,2716 L 143,2716 L 156,2716 L 166,2716 L 179,2716 L 190,2716 L 204,2716 L 219,2716 L 221,2716 L 226,2725 L 227,2726 L 232,2737 L 233,2738 L 238,2748 L 239,2750 L 244,2759 L 244,2760 L 249,2769 L 250,2771 L 255,2780 L 255,2781 L 260,2790 L 261,2792 L 266,2802 L 267,2803 L 272,2814 L 273,2815 L 277,2823 L 274,2829 L 272,2832 L 268,2841 L 266,2844 L 262,2852 L 260,2856 L 256,2863 L 254,2866 L 251,2873 L 248,2877 L 245,2884 L 243,2887 L 239,2894 L 237,2898 L 233,2906 L 231,2909 L 227,2918 L 225,2921 L 220,2930 L 220,2930 L 205,2930 L 191,2930 L 179,2930 L 166,2930 L 156,2930 L 143,2930 L 133,2930 L 120,2930 L 108,2930 L 95,2930 L 79,2930 L 63,2930 L 39,2930 L 20,2930 L 0,2930 L 0,2716 z " style="fill-opacity:1.000000;fill:rgb(178,234,201);stroke:rgb(0,0,0);stroke-width:2"/></g>
<g fill-rule="evenodd"><path d="M 0,2498 L 16,2498 L 35,2498 L 61,2498 L 76,2498 L 93,2498 L 107,2498 L 119,2498 L 132,2498 L 143,2498 L 156,2498 L 167,2498 L 180,2498 L 193,2498 L 206,2498 L 218,2498 L 220,2502 L 222,2505 L 227,2514 L 229,2517 L 234,2526 L 235,2529 L 240,2537 L 242,2540 L 246,2547 L 247,2550 L 252,2558 L 254,2561 L 258,2568 L 259,2571 L 264,2579 L 266,2582 L 270,2591 L 272,2594 L 277,2603 L 279,2606 L 280,2608 L 279,2610 L 275,2617 L 272,2622 L 268,2629 L 266,2634 L 263,2640 L 260,2645 L 256,2651 L 254,2656 L 251,2661 L 248,2667 L 245,2672 L 243,2677 L 240,2683 L 237,2688 L 233,2694 L 231,2699 L 227,2706 L 224,2711 L 221,2716 L 219,2716 L 204,2716 L 190,2716 L 179,2716 L 166,2716 L 156,2716 L 143,2716 L 134,2716 L 121,2716 L 109,2716 L 96,2716 L 80,2716 L 65,2716 L 41,2716 L 23,2716 L 0,2716 L 0,2498 z " style="fill-opacity:1.000000;fill:rgb(204,83,191);stroke:rgb(0,0,0);stroke-width:2"/></g>
<g fill-rule="evenodd"><path d="M 0,2278 L 20,2278 L 39,2278 L 63,2278 L 79,2278 L 95,2278 L 108,2278 L 120,2278 L 133,2278 L 143,2278 L 156,2278 L 166,2278 L 179,2278 L 191,2278 L 205,2278 L 220,2278 L 220,2278 L 224,2285 L 227,2290 L 230,2297 L 233,2303 L 236,2308 L 240,2314 L 243,2319 L 245,2324 L 248,2329 L 251,2335 L 254,2340 L 257,2345 L 260,2350 L 263,2356 L 266,2362 L 269,2368 L 272,2374 L 275,2379 L 279,2386 L 280,2388 L 279,2390 L 277,2394 L 272,2402 L 270,2405 L 266,2414 L 264,2417 L 259,2425 L 258,2428 L 254,2436 L 252,2438 L 247,2446 L 246,2449 L 242,2457 L 240,2459 L 235,2468 L 234,2471 L 229,2479 L 227,2483 L 222,2491 L 220,2494 L 218,2498 L 206,2498 L 193,2498 L 180,2498 L 167,2498 L 156,2498 L 143,2498 L 132,2498 L 119,2498 L 107,2498 L 93,2498 L 76,2498 L 61,2498 L 35,2498 L 16,2498 L 0,2498 L 0,2278 z " style="fill-opacity:1.000000;fill:rgb(103,214,191);stroke:rgb(0,0,0);stroke-width:2"/></g>
<g fill-rule="evenodd"><path d="M 0,2062 L 20,2062 L 39,2062 L 64,2062 L 79,2062 L 95,2062 L 108,2062 L 120,2062 L 133,2062 L 143,2062 L 156,2062 L 166,2062 L 179,2062 L 191,2062 L 205,2062 L 220,2062 L 220,2062 L 222,2065 L 227,2074 L 229,2077 L 234,2086 L 235,2089 L 240,2097 L 242,2100 L 246,2107 L 247,2110 L 252,2118 L 254,2121 L 258,2128 L 259,2131 L 264,2139 L 266,2142 L 270,2151 L 272,2154 L 277,2163 L 279,2166 L 280,2168 L 279,2170 L 275,2177 L 272,2182 L 268,2189 L 266,2194 L 263,2200 L 260,2205 L 256,2211 L 254,2215 L 251,2221 L 248,2226 L 245,2232 L 243,2237 L 240,2243 L 237,2248 L 233,2254 L 231,2259 L 227,2266 L 224,2271 L 220,2278 L 220,2278 L 205,2278 L 191,2278 L 179,2278 L 166,2278 L 156,2278 L 143,2278 L 133,2278 L 120,2278 L 108,2278 L 95,2278 L 79,2278 L 63,2278 L 39,2278 L 20,2278 L 0,2278 L 0,2062 z " style="fill-opacity:1.000000;fill:rgb(20,214,126);stroke:rgb(0,0,0);stroke-width:2"/></g>
<g fill-rule="evenodd"><path d="M 0,1844 L 18,1844 L 37,1844 L 62,1844 L 78,1844 L 94,1844 L 108,1844 L 120,1844 L 133,1844 L 143,1844 L 156,1844 L 167,1844 L 179,1844 L 192,1844 L 205,1844 L 219,1844 L 220,1846 L 225,1855 L 227,1858 L 231,1867 L 233,1870 L 237,1878 L 239,1882 L 243,1889 L 245,1892 L 248,1899 L 251,1903 L 254,1910 L 256,1913 L 260,1920 L 262,1924 L 266,1932 L 268,1935 L 272,1944 L 274,1947 L 277,1953 L 273,1961 L 272,1962 L 267,1973 L 266,1975 L 261,1984 L 260,1986 L 255,1995 L 255,1996 L 250,2005 L 249,2007 L 244,2016 L 244,2017 L 239,2026 L 238,2028 L 233,2038 L 232,2039 L 227,2050 L 226,2051 L 220,2062 L 220,2062 L 205,2062 L 191,2062 L 179,2062 L 166,2062 L 156,2062 L 143,2062 L 133,2062 L 120,2062 L 108,2062 L 95,2062 L 79,2062 L 64,2062 L 39,2062 L 20,2062 L 0,2062 L 0,1844 z " style="fill-opacity:1.000000;fill:rgb(45,220,142);stroke:rgb(0,0,0);stroke-width:2"/></g>
<g fill-rule="evenodd"><path d="M 0,1626 L 20,1626 L 39,1626 L 63,1626 L 79,1626 L 95,1626 L 108,1626 L 120,1626 L 133,1626 L 143,1626 L 156,1626 L 166,1626 L 179,1626 L 191,1626 L 205,1626 L 220,1626 L 220,1627 L 225,1635 L 227,1639 L 231,1647 L 233,1651 L 237,1658 L 239,1662 L 243,1669 L 245,1672 L 248,1679 L 251,1683 L 254,1690 L 256,1693 L 260,1701 L 262,1705 L 266,1712 L 268,1716 L 272,1724 L 274,1728 L 279,1736 L 280,1738 L 279,1740 L 278,1742 L 272,1752 L 271,1754 L 265,1764 L 264,1765 L 259,1775 L 258,1776 L 253,1785 L 252,1787 L 247,1796 L 246,1797 L 241,1806 L 240,1808 L 235,1817 L 234,1819 L 228,1829 L 227,1831 L 222,1841 L 220,1843 L 219,1844 L 205,1844 L 192,1844 L 179,1844 L 167,1844 L 156,1844 L 143,1844 L 133,1844 L 120,1844 L 108,1844 L 94,1844 L 78,1844 L 62,1844 L 37,1844 L 18,1844 L 0,1844 L 0,1626 z " style="fill-opacity:1.000000;fill:rgb(102,131,239);stroke:rgb(0,0,0);stroke-width:2"/></g>
<g fill-rule="evenodd"><path d="M 0,1410 L 20,1410 L 39,1410 L 64,1410 L 79,1410 L 95,1410 L 108,1410 L 120,1410 L 133,1410 L 143,1410 L 156,1410 L 166,1410 L 179,1410 L 191,1410 L 205,1410 L 220,1410 L 220,1410 L 223,1416 L 227,1422 L 230,1427 L 234,1434 L 236,1439 L 240,1445 L 242,1450 L 245,1456 L 248,1460 L 251,1466 L 254,1471 L 257,1477 L 259,1481 L 263,1488 L 266,1492 L 269,1499 L 272,1505 L 276,1511 L 279,1517 L 280,1518 L 279,1520 L 276,1525 L 272,1532 L 270,1537 L 266,1544 L 263,1548 L 259,1555 L 257,1559 L 254,1566 L 252,1570 L 248,1577 L 245,1581 L 242,1587 L 240,1591 L 236,1598 L 234,1602 L 230,1609 L 227,1614 L 223,1621 L 220,1626 L 220,1626 L 205,1626 L 191,1626 L 179,1626 L 166,1626 L 156,1626 L 143,1626 L 133,1626 L 120,1626 L 108,1626 L 95,1626 L 79,1626 L 63,1626 L 39,1626 L 20,1626 L 0,1626 L 0,1410 z " style="fill-opacity:1.000000;fill:rgb(87,73,97);stroke:rgb(0,0,0);stroke-width:2"/></g>
<g fill-rule="evenodd"><path d="M 0,1192 L 18,1192 L 37,1192 L 62,1192 L 77,1192 L 94,1192 L 107,1192 L 120,1192 L 133,1192 L 143,1192 L 156,1192 L 167,1192 L 179,1192 L 192,1192 L 206,1192 L 219,1192 L 220,1194 L 221,1195 L 227,1206 L 228,1207 L 234,1218 L 235,1219 L 240,1229 L 241,1230 L 246,1239 L 247,1240 L 252,1250 L 253,1251 L 258,1260 L 259,1261 L 265,1271 L 265,1272 L 271,1283 L 272,1284 L 278,1295 L 279,1296 L 280,1298 L 279,1301 L 274,1309 L 272,1313 L 268,1321 L 266,1325 L 262,1332 L 260,1336 L 256,1343 L 254,1346 L 251,1353 L 248,1357 L 245,1364 L 243,1367 L 239,1375 L 237,1379 L 233,1386 L 231,1390 L 227,1398 L 225,1402 L 220,1410 L 220,1410 L 205,1410 L 191,1410 L 179,1410 L 166,1410 L 156,1410 L 143,1410 L 133,1410 L 120,1410 L 108,1410 L 95,1410 L 79,1410 L 64,1410 L 39,1410 L 20,1410 L 0,1410 L 0,1192 z " style="fill-opacity:1.000000;fill:rgb(255,105,143);stroke:rgb(0,0,0);stroke-width:2"/></g>
<g fill-rule="evenodd"><path d="M 0,982 L 29,982 L 48,982 L 69,982 L 85,982 L 98,982 L 112,982 L 122,982 L 135,982 L 143,982 L 156,982 L 164,982 L 177,982 L 187,982 L 201,982 L 215,982 L 225,982 L 226,985 L 227,986 L 232,996 L 233,998 L 238,1008 L 239,1010 L 244,1019 L 244,1020 L 249,1029 L 250,1031 L 255,1040 L 255,1041 L 260,1050 L 261,1052 L 266,1061 L 267,1063 L 272,1074 L 273,1075 L 277,1083 L 274,1089 L 272,1092 L 268,1101 L 266,1104 L 262,1112 L 260,1116 L 256,1123 L 254,1126 L 251,1133 L 248,1137 L 245,1144 L 243,1147 L 239,1154 L 237,1158 L 233,1166 L 231,1169 L 227,1178 L 225,1181 L 220,1190 L 219,1192 L 206,1192 L 192,1192 L 179,1192 L 167,1192 L 156,1192 L 143,1192 L 133,1192 L 120,1192 L 107,1192 L 94,1192 L 77,1192 L 62,1192 L 37,1192 L 18,1192 L 0,1192 L 0,982 z " style="fill-opacity:1.000000;fill:rgb(97,205,209);stroke:rgb(0,0,0);stroke-width:2"/></g>
<g fill-rule="evenodd"><path d="M 0,594 L 15,594 L 28,593 L 52,592 L 74,591 L 84,603 L 101,624 L 143,674 L 156,688 L 165,698 L 179,714 L 189,726 L 203,746 L 211,758 L 220,774 L 227,786 L 232,799 L 237,811 L 239,818 L 241,822 L 245,834 L 249,843 L 255,854 L 262,864 L 270,875 L 274,880 L 273,882 L 270,888 L 266,895 L 264,900 L 261,906 L 259,911 L 256,917 L 253,922 L 251,928 L 249,932 L 246,938 L 243,943 L 241,949 L 238,953 L 235,960 L 233,965 L 230,972 L 227,977 L 225,982 L 215,982 L 201,982 L 187,982 L 177,982 L 164,982 L 156,982 L 143,982 L 135,982 L 122,982 L 112,982 L 98,982 L 85,982 L 69,982 L 48,982 L 29,982 L 0,982 L 0,594 z " style="fill-opacity:1.000000;fill:rgb(30,157,156);stroke:rgb(0,0,0);stroke-width:2"/></g>
<g fill-rule="evenodd"><path d="M 223,3361 L 227,3354 L 230,3349 L 234,3342 L 236,3338 L 240,3331 L 242,3327 L 245,3321 L 248,3317 L 252,3310 L 254,3306 L 257,3300 L 259,3295 L 263,3288 L 266,3284 L 270,3277 L 272,3272 L 276,3265 L 279,3260 L 280,3258 L 294,3258 L 307,3258 L 320,3258 L 333,3258 L 343,3258 L 356,3258 L 367,3258 L 379,3258 L 392,3258 L 406,3258 L 422,3258 L 437,3258 L 463,3258 L 481,3258 L 528,3258 L 553,3258 L 669,3258 L 709,3258 L 1107,3258 L 1073,3278 L 1057,3288 L 1031,3303 L 866,3402 L 845,3414 L 827,3425 L 816,3431 L 723,3483 L 717,3487 L 709,3492 L 678,3508 L 640,3528 L 627,3535 L 616,3541 L 583,3558 L 574,3562 L 562,3568 L 536,3581 L 518,3590 L 506,3595 L 505,3595 L 465,3613 L 464,3613 L 454,3618 L 434,3626 L 413,3634 L 401,3639 L 399,3640 L 370,3632 L 356,3627 L 343,3623 L 339,3622 L 305,3610 L 300,3609 L 293,3606 L 271,3598 L 257,3593 L 245,3588 L 234,3585 L 208,3574 L 205,3573 L 196,3569 L 165,3556 L 155,3552 L 143,3546 L 134,3542 L 126,3538 L 143,3506 L 152,3489 L 156,3483 L 165,3468 L 181,3437 L 186,3428 L 191,3420 L 195,3412 L 204,3396 L 207,3389 L 212,3382 L 215,3376 L 220,3366 L 223,3361 z " style="fill-opacity:1.000000;fill:rgb(22,114,114);stroke:rgb(0,0,0);stroke-width:2"/></g>
<g fill-rule="evenodd"><path d="M 220,3150 L 219,3148 L 220,3146 L 223,3141 L 227,3134 L 230,3129 L 234,3122 L 236,3118 L 240,3111 L 242,3106 L 245,3101 L 248,3096 L 251,3090 L 254,3085 L 257,3080 L 259,3075 L 263,3069 L 266,3064 L 269,3057 L 272,3052 L 276,3045 L 279,3040 L 280,3038 L 294,3038 L 308,3038 L 320,3038 L 333,3038 L 343,3038 L 356,3038 L 367,3038 L 379,3038 L 392,3038 L 405,3038 L 422,3038 L 437,3038 L 462,3038 L 481,3038 L 527,3038 L 552,3038 L 667,3038 L 708,3038 L 1165,3038 L 1165,3056 L 1165,3057 L 1165,3068 L 1165,3069 L 1165,3227 L 1165,3228 L 1165,3233 L 1152,3238 L 1139,3244 L 1107,3258 L 709,3258 L 669,3258 L 553,3258 L 528,3258 L 481,3258 L 463,3258 L 437,3258 L 422,3258 L 406,3258 L 392,3258 L 379,3258 L 367,3258 L 356,3258 L 343,3258 L 333,3258 L 320,3258 L 307,3258 L 294,3258 L 280,3258 L 279,3256 L 276,3251 L 272,3244 L 270,3239 L 266,3232 L 263,3228 L 259,3221 L 257,3217 L 254,3210 L 252,3206 L 248,3199 L 245,3195 L 242,3189 L 240,3185 L 236,3178 L 234,3174 L 230,3167 L 227,3162 L 223,3155 L 220,3150 z " style="fill-opacity:1.000000;fill:rgb(230,29,240);stroke:rgb(0,0,0);stroke-width:2"/></g>
<g fill-rule="evenodd"><path d="M 220,2930 L 220,2930 L 220,2930 L 225,2921 L 227,2918 L 231,2909 L 233,2906 L 237,2898 L 239,2894 L 243,2887 L 245,2884 L 248,2877 L 251,2873 L 254,2866 L 256,2863 L 260,2856 L 262,2852 L 266,2844 L 268,2841 L 272,2832 L 274,2829 L 277,2823 L 281,2823 L 296,2823 L 310,2823 L 321,2823 L 334,2823 L 343,2823 L 356,2823 L 366,2823 L 378,2823 L 390,2823 L 403,2823 L 418,2823 L 434,2823 L 457,2823 L 476,2823 L 519,2823 L 544,2823 L 653,2823 L 693,2823 L 1184,2823 L 1184,2834 L 1185,2847 L 1186,2881 L 1186,2884 L 1184,2896 L 1169,3008 L 1167,3020 L 1165,3038 L 708,3038 L 667,3038 L 552,3038 L 527,3038 L 481,3038 L 462,3038 L 437,3038 L 422,3038 L 405,3038 L 392,3038 L 379,3038 L 367,3038 L 356,3038 L 343,3038 L 333,3038 L 320,3038 L 308,3038 L 294,3038 L 280,3038 L 279,3036 L 276,3031 L 272,3024 L 270,3019 L 266,3012 L 263,3008 L 259,3001 L 257,2997 L 254,2991 L 252,2987 L 248,2980 L 245,2976 L 242,2970 L 240,2965 L 236,2959 L 234,2954 L 230,2947 L 227,2942 L 223,2935 L 220,2930 z " style="fill-opacity:1.000000;fill:rgb(132,79,74);stroke:rgb(0,0,0);stroke-width:2"/></g>
<g fill-rule="evenodd"><path d="M 224,2711 L 227,2706 L 231,2699 L 233,2694 L 237,2688 L 240,2683 L 243,2677 L 245,2672 L 248,2667 L 251,2661 L 254,2656 L 256,2651 L 260,2645 L 263,2640 L 266,2634 L 268,2629 L 272,2622 L 275,2617 L 279,2610 L 280,2608 L 294,2608 L 308,2608 L 320,2608 L 333,2608 L 343,2608 L 356,2608 L 367,2608 L 379,2608 L 392,2608 L 405,2608 L 422,2608 L 437,2608 L 462,2608 L 481,2608 L 527,2608 L 552,2608 L 667,2608 L 708,2608 L 1183,2608 L 1184,2624 L 1185,2636 L 1187,2718 L 1185,2799 L 1184,2812 L 1184,2823 L 693,2823 L 653,2823 L 544,2823 L 519,2823 L 476,2823 L 457,2823 L 434,2823 L 418,2823 L 403,2823 L 390,2823 L 378,2823 L 366,2823 L 356,2823 L 343,2823 L 334,2823 L 321,2823 L 310,2823 L 296,2823 L 281,2823 L 277,2823 L 273,2815 L 272,2814 L 267,2803 L 266,2802 L 261,2792 L 260,2790 L 255,2781 L 255,2780 L 250,2771 L 249,2769 L 244,2760 L 244,2759 L 239,2750 L 238,2748 L 233,2738 L 232,2737 L 227,2726 L 226,2725 L 221,2716 L 224,2711 z " style="fill-opacity:1.000000;fill:rgb(119,2,215);stroke:rgb(0,0,0);stroke-width:2"/></g>
<g fill-rule="evenodd"><path d="M 220,2502 L 218,2498 L 220,2494 L 222,2491 L 227,2483 L 229,2479 L 234,2471 L 235,2468 L 240,2459 L 242,2457 L 246,2449 L 247,2446 L 252,2438 L 254,2436 L 258,2428 L 259,2425 L 264,2417 L 266,2414 L 270,2405 L 272,2402 L 277,2394 L 279,2390 L 280,2388 L 294,2388 L 307,2388 L 320,2388 L 333,2388 L 343,2388 L 356,2388 L 367,2388 L 379,2388 L 392,2388 L 406,2388 L 422,2388 L 437,2388 L 463,2388 L 481,2388 L 528,2388 L 553,2388 L 669,2388 L 709,2388 L 1183,2388 L 1184,2404 L 1185,2417 L 1187,2498 L 1185,2580 L 1184,2592 L 1183,2608 L 708,2608 L 667,2608 L 552,2608 L 527,2608 L 481,2608 L 462,2608 L 437,2608 L 422,2608 L 405,2608 L 392,2608 L 379,2608 L 367,2608 L 356,2608 L 343,2608 L 333,2608 L 320,2608 L 308,2608 L 294,2608 L 280,2608 L 279,2606 L 277,2603 L 272,2594 L 270,2591 L 266,2582 L 264,2579 L 259,2571 L 258,2568 L 254,2561 L 252,2558 L 247,2550 L 246,2547 L 242,2540 L 240,2537 L 235,2529 L 234,2526 L 229,2517 L 227,2514 L 222,2505 L 220,2502 z " style="fill-opacity:1.000000;fill:rgb(232,57,44);stroke:rgb(0,0,0);stroke-width:2"/></g>
<g fill-rule="evenodd"><path d="M 220,2278 L 220,2278 L 220,2278 L 224,2271 L 227,2266 L 231,2259 L 233,2254 L 237,2248 L 240,2243 L 243,2237 L 245,2232 L 248,2226 L 251,2221 L 254,2215 L 256,2211 L 260,2205 L 263,2200 L 266,2194 L 268,2189 L 272,2182 L 275,2177 L 279,2170 L 280,2168 L 294,2168 L 308,2168 L 320,2168 L 333,2168 L 343,2168 L 356,2168 L 367,2168 L 379,2168 L 392,2168 L 405,2168 L 422,2168 L 437,2168 L 462,2168 L 481,2168 L 527,2168 L 552,2168 L 667,2168 L 708,2168 L 1183,2168 L 1184,2184 L 1185,2196 L 1187,2278 L 1185,2359 L 1184,2372 L 1183,2388 L 709,2388 L 669,2388 L 553,2388 L 528,2388 L 481,2388 L 463,2388 L 437,2388 L 422,2388 L 406,2388 L 392,2388 L 379,2388 L 367,2388 L 356,2388 L 343,2388 L 333,2388 L 320,2388 L 307,2388 L 294,2388 L 280,2388 L 279,2386 L 275,2379 L 272,2374 L 269,2368 L 266,2362 L 263,2356 L 260,2350 L 257,2345 L 254,2340 L 251,2335 L 248,2329 L 245,2324 L 243,2319 L 240,2314 L 236,2308 L 233,2303 L 230,2297 L 227,2290 L 224,2285 L 220,2278 z " style="fill-opacity:1.000000;fill:rgb(83,203,201);stroke:rgb(0,0,0);stroke-width:2"/></g>
<g fill-rule="evenodd"><path d="M 220,2062 L 226,2051 L 227,2050 L 232,2039 L 233,2038 L 238,2028 L 239,2026 L 244,2017 L 244,2016 L 249,2007 L 250,2005 L 255,1996 L 255,1995 L 260,1986 L 261,1984 L 266,1975 L 267,1973 L 272,1962 L 273,1961 L 277,1953 L 281,1953 L 296,1953 L 310,1953 L 321,1953 L 334,1953 L 343,1953 L 356,1953 L 366,1953 L 378,1953 L 390,1953 L 403,1953 L 418,1953 L 434,1953 L 457,1953 L 476,1953 L 519,1953 L 544,1953 L 653,1953 L 693,1953 L 1184,1953 L 1184,1964 L 1185,1977 L 1187,2058 L 1185,2140 L 1184,2152 L 1183,2168 L 708,2168 L 667,2168 L 552,2168 L 527,2168 L 481,2168 L 462,2168 L 437,2168 L 422,2168 L 405,2168 L 392,2168 L 379,2168 L 367,2168 L 356,2168 L 343,2168 L 333,2168 L 320,2168 L 308,2168 L 294,2168 L 280,2168 L 279,2166 L 277,2163 L 272,2154 L 270,2151 L 266,2142 L 264,2139 L 259,2131 L 258,2128 L 254,2121 L 252,2118 L 247,2110 L 246,2107 L 242,2100 L 240,2097 L 235,2089 L 234,2086 L 229,2077 L 227,2074 L 222,2065 L 220,2062 z " style="fill-opacity:1.000000;fill:rgb(18,30,51);stroke:rgb(0,0,0);stroke-width:2"/></g>
<g fill-rule="evenodd"><path d="M 222,1841 L 227,1831 L 228,1829 L 234,1819 L 235,1817 L 240,1808 L 241,1806 L 246,1797 L 247,1796 L 252,1787 L 253,1785 L 258,1776 L 259,1775 L 264,1765 L 265,1764 L 271,1754 L 272,1752 L 278,1742 L 279,1740 L 280,1738 L 294,1738 L 308,1738 L 320,1738 L 333,1738 L 343,1738 L 356,1738 L 367,1738 L 379,1738 L 392,1738 L 405,1738 L 422,1738 L 437,1738 L 462,1738 L 481,1738 L 527,1738 L 552,1738 L 667,1738 L 708,1738 L 1183,1738 L 1184,1754 L 1185,1766 L 1187,1848 L 1185,1929 L 1184,1942 L 1184,1953 L 693,1953 L 653,1953 L 544,1953 L 519,1953 L 476,1953 L 457,1953 L 434,1953 L 418,1953 L 403,1953 L 390,1953 L 378,1953 L 366,1953 L 356,1953 L 343,1953 L 334,1953 L 321,1953 L 310,1953 L 296,1953 L 281,1953 L 277,1953 L 274,1947 L 272,1944 L 268,1935 L 266,1932 L 262,1924 L 260,1920 L 256,1913 L 254,1910 L 251,1903 L 248,1899 L 245,1892 L 243,1889 L 239,1882 L 237,1878 L 233,1870 L 231,1867 L 227,1858 L 225,1855 L 220,1846 L 219,1844 L 220,1843 L 222,1841 z " style="fill-opacity:1.000000;fill:rgb(116,158,12);stroke:rgb(0,0,0);stroke-width:2"/></g>
<g fill-rule="evenodd"><path d="M 223,1621 L 227,1614 L 230,1609 L 234,1602 L 236,1598 L 240,1591 L 242,1587 L 245,1581 L 248,1577 L 252,1570 L 254,1566 L 257,1559 L 259,1555 L 263,1548 L 266,1544 L 270,1537 L 272,1532 L 276,1525 L 279,1520 L 280,1518 L 294,1518 L 308,1518 L 320,1518 L 333,1518 L 343,1518 L 356,1518 L 367,1518 L 379,1518 L 392,1518 L 405,1518 L 422,1518 L 437,1518 L 462,1518 L 481,1518 L 527,1518 L 552,1518 L 667,1518 L 708,1518 L 1183,1518 L 1184,1534 L 1185,1547 L 1187,1628 L 1185,1710 L 1184,1722 L 1183,1738 L 708,1738 L 667,1738 L 552,1738 L 527,1738 L 481,1738 L 462,1738 L 437,1738 L 422,1738 L 405,1738 L 392,1738 L 379,1738 L 367,1738 L 356,1738 L 343,1738 L 333,1738 L 320,1738 L 308,1738 L 294,1738 L 280,1738 L 279,1736 L 274,1728 L 272,1724 L 268,1716 L 266,1712 L 262,1705 L 260,1701 L 256,1693 L 254,1690 L 251,1683 L 248,1679 L 245,1672 L 243,1669 L 239,1662 L 237,1658 L 233,1651 L 231,1647 L 227,1639 L 225,1635 L 220,1627 L 220,1626 L 220,1626 L 223,1621 z " style="fill-opacity:1.000000;fill:rgb(244,213,212);stroke:rgb(0,0,0);stroke-width:2"/></g>
<g fill-rule="evenodd"><path d="M 220,1410 L 225,1402 L 227,1398 L 231,1390 L 233,1386 L 237,1379 L 239,1375 L 243,1367 L 245,1364 L 248,1357 L 251,1353 L 254,1346 L 256,1343 L 260,1336 L 262,1332 L 266,1325 L 268,1321 L 272,1313 L 274,1309 L 279,1301 L 280,1298 L 294,1298 L 307,1298 L 320,1298 L 333,1298 L 343,1298 L 356,1298 L 367,1298 L 379,1298 L 392,1298 L 406,1298 L 422,1298 L 437,1298 L 463,1298 L 481,1298 L 528,1298 L 553,1298 L 669,1298 L 709,1298 L 1183,1298 L 1184,1315 L 1185,1327 L 1187,1409 L 1185,1490 L 1184,1503 L 1183,1518 L 708,1518 L 667,1518 L 552,1518 L 527,1518 L 481,1518 L 462,1518 L 437,1518 L 422,1518 L 405,1518 L 392,1518 L 379,1518 L 367,1518 L 356,1518 L 343,1518 L 333,1518 L 320,1518 L 308,1518 L 294,1518 L 280,1518 L 279,1517 L 276,1511 L 272,1505 L 269,1499 L 266,1492 L 263,1488 L 259,1481 L 257,1477 L 254,1471 L 251,1466 L 248,1460 L 245,1456 L 242,1450 L 240,1445 L 236,1439 L 234,1434 L 230,1427 L 227,1422 L 223,1416 L 220,1410 z " style="fill-opacity:1.000000;fill:rgb(159,212,164);stroke:rgb(0,0,0);stroke-width:2"/></g>
<g fill-rule="evenodd"><path d="M 220,1194 L 219,1192 L 220,1190 L 225,1181 L 227,1178 L 231,1169 L 233,1166 L 237,1158 L 239,1154 L 243,1147 L 245,1144 L 248,1137 L 251,1133 L 254,1126 L 256,1123 L 260,1116 L 262,1112 L 266,1104 L 268,1101 L 272,1092 L 274,1089 L 277,1083 L 281,1083 L 296,1083 L 310,1083 L 321,1083 L 334,1083 L 343,1083 L 356,1083 L 366,1083 L 378,1083 L 390,1083 L 403,1083 L 418,1083 L 434,1083 L 457,1083 L 476,1083 L 519,1083 L 544,1083 L 653,1083 L 693,1083 L 1184,1083 L 1184,1094 L 1185,1107 L 1187,1188 L 1185,1270 L 1184,1282 L 1183,1298 L 709,1298 L 669,1298 L 553,1298 L 528,1298 L 481,1298 L 463,1298 L 437,1298 L 422,1298 L 406,1298 L 392,1298 L 379,1298 L 367,1298 L 356,1298 L 343,1298 L 333,1298 L 320,1298 L 307,1298 L 294,1298 L 280,1298 L 279,1296 L 278,1295 L 272,1284 L 271,1283 L 265,1272 L 265,1271 L 259,1261 L 258,1260 L 253,1251 L 252,1250 L 247,1240 L 246,1239 L 241,1230 L 240,1229 L 235,1219 L 234,1218 L 228,1207 L 227,1206 L 221,1195 L 220,1194 z " style="fill-opacity:1.000000;fill:rgb(89,126,53);stroke:rgb(0,0,0);stroke-width:2"/></g>
<g fill-rule="evenodd"><path d="M 225,982 L 227,977 L 230,972 L 233,965 L 235,960 L 238,953 L 241,949 L 243,943 L 246,938 L 249,932 L 251,928 L 253,922 L 256,917 L 259,911 L 261,906 L 264,900 L 266,895 L 270,888 L 273,882 L 274,880 L 285,878 L 290,876 L 297,874 L 309,872 L 320,870 L 333,869 L 343,868 L 356,868 L 366,869 L 379,870 L 390,872 L 402,874 L 409,876 L 415,878 L 428,881 L 445,884 L 461,886 L 492,888 L 515,890 L 591,893 L 629,894 L 1055,897 L 1069,898 L 1081,907 L 1081,907 L 1178,1008 L 1183,1051 L 1184,1059 L 1184,1064 L 1185,1066 L 1184,1072 L 1184,1083 L 693,1083 L 653,1083 L 544,1083 L 519,1083 L 476,1083 L 457,1083 L 434,1083 L 418,1083 L 403,1083 L 390,1083 L 378,1083 L 366,1083 L 356,1083 L 343,1083 L 334,1083 L 321,1083 L 310,1083 L 296,1083 L 281,1083 L 277,1083 L 273,1075 L 272,1074 L 267,1063 L 266,1061 L 261,1052 L 260,1050 L 255,1041 L 255,1040 L 250,1031 L 249,1029 L 244,1020 L 244,1019 L 239,1010 L 238,1008 L 233,998 L 232,996 L 227,986 L 226,985 L 225,982 z " style="fill-opacity:1.000000;fill:rgb(207,50,34);stroke:rgb(0,0,0);stroke-width:2"/></g>
<g fill-rule="evenodd"><path d="M 285,878 L 274,880 L 270,875 L 262,864 L 255,854 L 249,843 L 245,834 L 241,822 L 239,818 L 237,811 L 232,799 L 227,786 L 220,774 L 211,758 L 203,746 L 189,726 L 179,714 L 165,698 L 156,688 L 143,674 L 101,624 L 84,603 L 74,591 L 85,586 L 134,564 L 165,551 L 203,537 L 233,527 L 270,517 L 290,513 L 301,510 L 342,499 L 373,489 L 409,476 L 418,472 L 442,462 L 454,468 L 485,482 L 527,504 L 557,521 L 600,548 L 630,568 L 683,606 L 716,632 L 797,697 L 799,698 L 838,730 L 895,774 L 958,818 L 982,834 L 1035,870 L 1060,888 L 1069,898 L 1055,897 L 629,894 L 591,893 L 515,890 L 492,888 L 461,886 L 445,884 L 428,881 L 415,878 L 409,876 L 402,874 L 390,872 L 379,870 L 366,869 L 356,868 L 343,868 L 333,869 L 320,870 L 309,872 L 297,874 L 290,876 L 285,878 z " style="fill-opacity:1.000000;fill:rgb(244,204,207);stroke:rgb(0,0,0);stroke-width:2"/></g>
<g fill-rule="evenodd"><path d="M 402,0 L 402,2 L 403,6 L 406,42 L 406,46 L 410,77 L 410,82 L 412,107 L 413,112 L 416,139 L 416,146 L 418,165 L 418,171 L 421,196 L 422,205 L 423,222 L 424,231 L 426,253 L 427,265 L 428,283 L 429,295 L 431,317 L 433,332 L 434,355 L 436,374 L 438,393 L 439,415 L 442,450 L 442,462 L 418,472 L 409,476 L 373,489 L 342,499 L 301,510 L 290,513 L 270,517 L 233,527 L 203,537 L 165,551 L 134,564 L 85,586 L 74,591 L 52,592 L 28,593 L 15,594 L 0,594 L 0,0 L 402,0 z " style="fill-opacity:1.000000;fill:rgb(211,144,45);stroke:rgb(0,0,0);stroke-width:2"/></g>
<g fill-rule="evenodd"><path d="M 0,3534 L 0,3534 L 20,3534 L 33,3535 L 55,3536 L 84,3537 L 87,3537 L 97,3537 L 126,3538 L 134,3542 L 143,3546 L 155,3552 L 165,3556 L 196,3569 L 205,3573 L 208,3574 L 234,3585 L 245,3588 L 257,3593 L 271,3598 L 293,3606 L 300,3609 L 305,3610 L 339,3622 L 343,3623 L 356,3627 L 370,3632 L 399,3640 L 398,3653 L 397,3665 L 393,3702 L 392,3711 L 389,3746 L 388,3752 L 385,3787 L 384,3791 L 382,3814 L 382,3816 L 379,3850 L 378,3851 L 377,3868 L 377,3869 L 373,3901 L 373,3902 L 371,3916 L 371,3918 L 368,3947 L 368,3951 L 366,3962 L 366,3966 L 363,3994 L 362,4000 L 360,4012 L 360,4019 L 357,4046 L 356,4055 L 353,4071 L 352,4082 L 349,4109 L 348,4118 L 0,4118 L 0,3534 z " style="fill-opacity:1.000000;fill:rgb(72,211,143);stroke:rgb(0,0,0);stroke-width:2"/></g>
<g fill-rule="evenodd"><path d="M 1165,3227 L 1165,3069 L 1165,3068 L 1165,3057 L 1165,3056 L 1165,3038 L 1167,3020 L 1169,3008 L 1184,2896 L 1186,2884 L 1186,2881 L 1185,2847 L 1184,2834 L 1184,2823 L 1184,2812 L 1185,2799 L 1187,2718 L 1185,2636 L 1184,2624 L 1183,2608 L 1184,2592 L 1185,2580 L 1187,2498 L 1185,2417 L 1184,2404 L 1183,2388 L 1184,2372 L 1185,2359 L 1187,2278 L 1185,2196 L 1184,2184 L 1183,2168 L 1184,2152 L 1185,2140 L 1187,2058 L 1185,1977 L 1184,1964 L 1184,1953 L 1184,1942 L 1185,1929 L 1187,1848 L 1185,1766 L 1184,1754 L 1183,1738 L 1184,1722 L 1185,1710 L 1187,1628 L 1185,1547 L 1184,1534 L 1183,1518 L 1184,1503 L 1185,1490 L 1187,1409 L 1185,1327 L 1184,1315 L 1183,1298 L 1184,1282 L 1185,1270 L 1187,1188 L 1185,1107 L 1184,1094 L 1184,1083 L 1184,1072 L 1185,1066 L 1184,1064 L 1184,1059 L 1183,1051 L 1178,1008 L 1213,962 L 1226,946 L 1279,878 L 1281,876 L 1292,865 L 1402,757 L 1415,745 L 1416,745 L 1427,734 L 1480,683 L 1496,672 L 1511,662 L 1521,656 L 1535,647 L 1595,608 L 1608,600 L 1615,595 L 1627,588 L 1673,558 L 1679,554 L 1694,549 L 1707,545 L 1716,542 L 1730,537 L 1772,524 L 1785,520 L 1790,518 L 1804,513 L 1841,502 L 1852,498 L 1853,498 L 1891,523 L 1907,533 L 1919,541 L 1933,551 L 1955,565 L 1968,574 L 1973,578 L 1986,586 L 2000,595 L 2011,603 L 2014,605 L 2025,613 L 2036,619 L 2046,634 L 2054,646 L 2067,668 L 2073,681 L 2081,699 L 2086,711 L 2091,727 L 2094,739 L 2097,754 L 2099,766 L 2101,780 L 2101,792 L 2101,805 L 2101,818 L 2099,831 L 2097,843 L 2094,858 L 2091,870 L 2086,886 L 2081,898 L 2080,902 L 2080,1405 L 2078,1409 L 2073,1421 L 2068,1437 L 2065,1449 L 2062,1464 L 2060,1476 L 2058,1490 L 2058,1502 L 2058,1515 L 2058,1527 L 2060,1541 L 2062,1553 L 2065,1568 L 2068,1580 L 2073,1596 L 2078,1608 L 2086,1627 L 2092,1639 L 2105,1661 L 2113,1673 L 2133,1700 L 2143,1712 L 2173,1746 L 2186,1758 L 2209,1781 L 2236,1803 L 2251,1816 L 2292,1847 L 2337,1878 L 2356,1890 L 2431,1935 L 2515,1981 L 2520,1983 L 2526,2025 L 2528,2037 L 2539,2094 L 2552,2151 L 2556,2164 L 2574,2224 L 2595,2285 L 2600,2298 L 2628,2364 L 2659,2430 L 2666,2443 L 2711,2526 L 2729,2613 L 2753,2700 L 2783,2787 L 2818,2874 L 2822,2881 L 2901,3005 L 2863,3049 L 2861,3052 L 2851,3063 L 2848,3067 L 2799,3124 L 2696,3218 L 2684,3229 L 2671,3241 L 2657,3253 L 2598,3307 L 2590,3312 L 2561,3331 L 2548,3340 L 2478,3386 L 2465,3395 L 2443,3409 L 2431,3416 L 2399,3438 L 2383,3444 L 2369,3450 L 2338,3462 L 2325,3468 L 2283,3485 L 2269,3490 L 2243,3501 L 2231,3506 L 2200,3518 L 2171,3523 L 2157,3525 L 2154,3525 L 2141,3527 L 2086,3536 L 2072,3538 L 2069,3538 L 2056,3540 L 2004,3548 L 2000,3549 L 1986,3547 L 1973,3546 L 1968,3546 L 1954,3544 L 1903,3539 L 1890,3538 L 1886,3538 L 1872,3536 L 1816,3530 L 1803,3529 L 1800,3529 L 1772,3519 L 1759,3514 L 1729,3504 L 1717,3499 L 1683,3488 L 1669,3483 L 1632,3469 L 1619,3465 L 1578,3450 L 1563,3445 L 1511,3426 L 1496,3420 L 1439,3401 L 1421,3394 L 1338,3363 L 1319,3357 L 1226,3324 L 1213,3319 L 1169,3240 L 1165,3233 L 1165,3228 L 1165,3227 z " style="fill-opacity:1.000000;fill:rgb(117,230,217);stroke:rgb(0,0,0);stroke-width:2"/></g>
<g fill-rule="evenodd"><path d="M 2058,1515 L 2058,1502 L 2058,1490 L 2060,1476 L 2062,1464 L 2065,1449 L 2068,1437 L 2073,1421 L 2078,1409 L 2080,1405 L 2080,902 L 2081,898 L 2086,886 L 2091,870 L 2094,858 L 2097,843 L 2099,831 L 2101,818 L 2101,805 L 2101,792 L 2101,780 L 2099,766 L 2097,754 L 2094,739 L 2091,727 L 2086,711 L 2081,699 L 2073,681 L 2067,668 L 2054,646 L 2046,634 L 2036,619 L 2025,613 L 2014,605 L 2011,603 L 2000,595 L 1986,586 L 1973,578 L 1968,574 L 1955,565 L 1933,551 L 1919,541 L 1907,533 L 1891,523 L 1853,498 L 1856,494 L 1867,481 L 1873,473 L 1880,465 L 1885,461 L 1933,431 L 1939,427 L 1948,422 L 1953,418 L 1984,399 L 1989,396 L 1998,391 L 2001,388 L 2025,373 L 2029,371 L 2037,366 L 2040,364 L 2061,351 L 2064,350 L 2072,344 L 2074,343 L 2080,340 L 2082,340 L 2102,340 L 2110,340 L 2115,339 L 2124,339 L 2139,339 L 2147,339 L 2152,339 L 2161,339 L 2173,339 L 2181,339 L 2186,339 L 2195,339 L 2207,339 L 2216,339 L 2220,339 L 2230,339 L 2244,340 L 2255,340 L 2257,340 L 2270,340 L 2280,340 L 2281,341 L 2285,343 L 2295,350 L 2304,355 L 2316,362 L 2319,364 L 2330,371 L 2341,377 L 2354,385 L 2358,388 L 2370,396 L 2385,405 L 2399,414 L 2406,419 L 2419,427 L 2442,441 L 2459,452 L 2474,461 L 2480,465 L 2486,473 L 2520,515 L 2531,529 L 2531,530 L 2542,543 L 2595,609 L 2610,627 L 2614,633 L 2628,651 L 2640,666 L 2635,681 L 2631,693 L 2627,702 L 2622,742 L 2619,782 L 2619,794 L 2617,839 L 2619,883 L 2619,895 L 2623,940 L 2629,985 L 2631,997 L 2639,1045 L 2639,1302 L 2648,1350 L 2650,1362 L 2656,1407 L 2660,1452 L 2660,1464 L 2662,1509 L 2660,1553 L 2660,1565 L 2654,1625 L 2644,1653 L 2640,1665 L 2629,1692 L 2625,1704 L 2608,1749 L 2604,1761 L 2593,1790 L 2588,1802 L 2570,1852 L 2565,1864 L 2552,1899 L 2548,1912 L 2524,1973 L 2520,1983 L 2515,1981 L 2431,1935 L 2356,1890 L 2337,1878 L 2292,1847 L 2251,1816 L 2236,1803 L 2209,1781 L 2186,1758 L 2173,1746 L 2143,1712 L 2133,1700 L 2113,1673 L 2105,1661 L 2092,1639 L 2086,1627 L 2078,1608 L 2073,1596 L 2068,1580 L 2065,1568 L 2062,1553 L 2060,1541 L 2058,1527 L 2058,1515 z " style="fill-opacity:1.000000;fill:rgb(29,42,229);stroke:rgb(0,0,0);stroke-width:2"/></g>
<g fill-rule="evenodd"><path d="M 3471,1511 L 3473,1506 L 3476,1499 L 3487,1474 L 3490,1467 L 3492,1462 L 3494,1455 L 3504,1432 L 3507,1425 L 3509,1420 L 3512,1413 L 3520,1395 L 3520,1388 L 3521,1376 L 3521,1341 L 3520,1329 L 3517,1294 L 3515,1282 L 3507,1246 L 3504,1233 L 3499,1219 L 3499,968 L 3504,954 L 3507,941 L 3513,914 L 3512,904 L 3511,895 L 3510,891 L 3509,881 L 3506,856 L 3505,848 L 3505,844 L 3504,836 L 3501,814 L 3500,806 L 3499,801 L 3498,794 L 3495,771 L 3494,763 L 3494,759 L 3493,751 L 3490,726 L 3489,717 L 3488,713 L 3487,703 L 3483,672 L 3481,660 L 3481,657 L 3480,645 L 3474,599 L 3472,582 L 3472,581 L 3470,563 L 3464,524 L 3499,513 L 3510,509 L 3511,509 L 3523,504 L 3565,491 L 3574,488 L 3576,487 L 3584,484 L 3586,485 L 3603,496 L 3638,518 L 3652,527 L 3658,530 L 3672,539 L 3693,552 L 3706,560 L 3708,562 L 3720,569 L 3736,579 L 3743,584 L 3746,587 L 3766,614 L 3774,626 L 3786,648 L 3793,661 L 3801,679 L 3806,691 L 3811,707 L 3814,719 L 3817,734 L 3819,746 L 3821,760 L 3821,772 L 3821,785 L 3821,798 L 3819,811 L 3817,823 L 3814,838 L 3811,850 L 3808,859 L 3804,864 L 3804,864 L 3795,873 L 3795,873 L 3791,878 L 3788,887 L 3785,899 L 3782,914 L 3780,926 L 3778,940 L 3778,952 L 3778,965 L 3778,978 L 3780,991 L 3782,1003 L 3785,1018 L 3788,1030 L 3793,1046 L 3798,1058 L 3806,1077 L 3812,1089 L 3825,1111 L 3833,1123 L 3852,1150 L 3862,1162 L 3893,1196 L 3906,1208 L 3929,1231 L 3956,1253 L 3971,1266 L 4012,1297 L 4057,1328 L 4076,1340 L 4077,1341 L 4133,1361 L 4137,1380 L 4139,1392 L 4141,1400 L 4147,1433 L 4153,1475 L 4155,1487 L 4160,1516 L 4166,1550 L 4168,1572 L 4170,1584 L 4178,1640 L 4183,1676 L 4183,1679 L 4185,1693 L 4197,1789 L 4199,1810 L 4201,1825 L 4201,1830 L 4217,1986 L 4218,1993 L 4219,2005 L 4223,2043 L 4227,2091 L 4188,2076 L 4056,2009 L 4032,1997 L 4011,1987 L 3986,1974 L 3881,1921 L 3863,1912 L 3858,1910 L 3840,1900 L 3778,1869 L 3764,1862 L 3764,1862 L 3749,1854 L 3706,1832 L 3695,1827 L 3693,1825 L 3682,1820 L 3648,1802 L 3639,1798 L 3636,1796 L 3627,1791 L 3596,1775 L 3589,1771 L 3585,1770 L 3577,1765 L 3547,1749 L 3539,1746 L 3535,1744 L 3527,1739 L 3494,1722 L 3486,1718 L 3482,1716 L 3473,1711 L 3437,1692 L 3433,1690 L 3430,1688 L 3420,1683 L 3402,1673 L 3417,1637 L 3422,1625 L 3424,1622 L 3429,1610 L 3446,1570 L 3449,1561 L 3451,1557 L 3455,1548 L 3468,1518 L 3471,1511 z " style="fill-opacity:1.000000;fill:rgb(192,247,43);stroke:rgb(0,0,0);stroke-width:2"/></g>
<g fill-rule="evenodd"><path d="M 3178,1365 L 3178,1352 L 3178,1340 L 3180,1326 L 3182,1314 L 3185,1299 L 3188,1287 L 3193,1271 L 3198,1259 L 3199,1255 L 3199,942 L 3201,938 L 3204,930 L 3204,924 L 3204,923 L 3203,907 L 3203,905 L 3202,892 L 3202,891 L 3202,878 L 3202,878 L 3201,867 L 3201,865 L 3201,855 L 3200,854 L 3200,845 L 3200,843 L 3200,834 L 3199,833 L 3199,824 L 3199,822 L 3198,813 L 3198,812 L 3198,802 L 3198,800 L 3197,789 L 3197,789 L 3197,776 L 3197,775 L 3196,762 L 3196,760 L 3195,744 L 3195,743 L 3194,725 L 3194,719 L 3193,700 L 3192,692 L 3191,669 L 3190,650 L 3189,623 L 3188,593 L 3186,559 L 3183,509 L 3193,506 L 3199,504 L 3224,504 L 3237,504 L 3241,504 L 3255,504 L 3293,504 L 3306,504 L 3309,504 L 3323,504 L 3362,504 L 3375,504 L 3379,504 L 3393,504 L 3399,504 L 3433,514 L 3439,516 L 3445,518 L 3453,520 L 3464,524 L 3470,563 L 3472,581 L 3472,582 L 3474,599 L 3480,645 L 3481,657 L 3481,660 L 3483,672 L 3487,703 L 3488,713 L 3489,717 L 3490,726 L 3493,751 L 3494,759 L 3494,763 L 3495,771 L 3498,794 L 3499,801 L 3500,806 L 3501,814 L 3504,836 L 3505,844 L 3505,848 L 3506,856 L 3509,881 L 3510,891 L 3511,895 L 3512,904 L 3513,914 L 3507,941 L 3504,954 L 3499,968 L 3499,1219 L 3504,1233 L 3507,1246 L 3515,1282 L 3517,1294 L 3520,1329 L 3521,1341 L 3521,1376 L 3520,1388 L 3520,1395 L 3512,1413 L 3509,1420 L 3507,1425 L 3504,1432 L 3494,1455 L 3492,1462 L 3490,1467 L 3487,1474 L 3476,1499 L 3473,1506 L 3471,1511 L 3468,1518 L 3455,1548 L 3451,1557 L 3449,1561 L 3446,1570 L 3429,1610 L 3424,1622 L 3422,1625 L 3417,1637 L 3402,1673 L 3388,1676 L 3385,1677 L 3371,1666 L 3356,1653 L 3329,1631 L 3306,1608 L 3293,1596 L 3263,1562 L 3253,1550 L 3233,1523 L 3225,1511 L 3212,1489 L 3206,1477 L 3198,1458 L 3193,1446 L 3188,1430 L 3185,1418 L 3182,1403 L 3180,1391 L 3178,1377 L 3178,1365 z " style="fill-opacity:1.000000;fill:rgb(120,129,135);stroke:rgb(0,0,0);stroke-width:2"/></g>
<g fill-rule="evenodd"><path d="M 2565,1864 L 2570,1852 L 2588,1802 L 2593,1790 L 2604,1761 L 2608,1749 L 2625,1704 L 2629,1692 L 2640,1665 L 2644,1653 L 2654,1625 L 2660,1565 L 2660,1553 L 2662,1509 L 2660,1464 L 2660,1452 L 2656,1407 L 2650,1362 L 2648,1350 L 2639,1302 L 2639,1045 L 2631,997 L 2629,985 L 2623,940 L 2619,895 L 2619,883 L 2617,839 L 2619,794 L 2619,782 L 2622,742 L 2627,702 L 2631,693 L 2635,681 L 2640,666 L 2679,636 L 2703,624 L 2710,621 L 2718,617 L 2723,614 L 2793,580 L 2800,577 L 2807,574 L 2812,571 L 2869,543 L 2875,540 L 2882,537 L 2887,535 L 2938,510 L 2939,510 L 2946,510 L 2960,509 L 2967,509 L 2981,509 L 3023,509 L 3036,509 L 3041,509 L 3055,509 L 3093,509 L 3106,509 L 3110,509 L 3124,509 L 3163,509 L 3176,509 L 3180,509 L 3183,509 L 3186,559 L 3188,593 L 3189,623 L 3190,650 L 3191,669 L 3192,692 L 3193,700 L 3194,719 L 3194,725 L 3195,743 L 3195,744 L 3196,760 L 3196,762 L 3197,775 L 3197,776 L 3197,789 L 3197,789 L 3198,800 L 3198,802 L 3198,812 L 3198,813 L 3199,822 L 3199,824 L 3199,833 L 3200,834 L 3200,843 L 3200,845 L 3200,854 L 3201,855 L 3201,865 L 3201,867 L 3202,878 L 3202,878 L 3202,891 L 3202,892 L 3203,905 L 3203,907 L 3204,923 L 3204,924 L 3204,930 L 3201,938 L 3199,942 L 3199,1255 L 3198,1259 L 3193,1271 L 3188,1287 L 3185,1299 L 3182,1314 L 3180,1326 L 3178,1340 L 3178,1352 L 3178,1365 L 3178,1377 L 3180,1391 L 3182,1403 L 3185,1418 L 3188,1430 L 3193,1446 L 3198,1458 L 3206,1477 L 3212,1489 L 3225,1511 L 3233,1523 L 3253,1550 L 3263,1562 L 3293,1596 L 3306,1608 L 3329,1631 L 3356,1653 L 3371,1666 L 3385,1677 L 3377,1688 L 3360,1709 L 3344,1747 L 3338,1761 L 3337,1764 L 3331,1776 L 3318,1808 L 3313,1819 L 3312,1822 L 3307,1832 L 3298,1855 L 3294,1864 L 3292,1868 L 3288,1876 L 3280,1895 L 3277,1903 L 3274,1907 L 3271,1914 L 3263,1932 L 3260,1940 L 3258,1945 L 3255,1951 L 3246,1971 L 3243,1978 L 3241,1983 L 3237,1990 L 3227,2013 L 3223,2022 L 3221,2027 L 3217,2035 L 3203,2065 L 3198,2077 L 3197,2080 L 3189,2088 L 3155,2128 L 3145,2140 L 3143,2142 L 3121,2168 L 3096,2194 L 3083,2206 L 3047,2241 L 3006,2275 L 3005,2277 L 2989,2289 L 2846,2409 L 2825,2428 L 2711,2526 L 2666,2443 L 2659,2430 L 2628,2364 L 2600,2298 L 2595,2285 L 2574,2224 L 2556,2164 L 2552,2151 L 2539,2094 L 2528,2037 L 2526,2025 L 2520,1983 L 2524,1973 L 2548,1912 L 2552,1899 L 2565,1864 z " style="fill-opacity:1.000000;fill:rgb(68,14,95);stroke:rgb(0,0,0);stroke-width:2"/></g>
<g fill-rule="evenodd"><path d="M 3778,965 L 3778,952 L 3778,940 L 3780,926 L 3782,914 L 3785,899 L 3788,887 L 3791,878 L 3795,873 L 3795,873 L 3804,864 L 3804,864 L 3808,859 L 3811,850 L 3814,838 L 3817,823 L 3819,811 L 3821,798 L 3821,785 L 3821,772 L 3821,760 L 3819,746 L 3817,734 L 3814,719 L 3811,707 L 3806,691 L 3801,679 L 3793,661 L 3786,648 L 3774,626 L 3766,614 L 3746,587 L 3743,584 L 3736,579 L 3720,569 L 3708,562 L 3706,560 L 3693,552 L 3672,539 L 3658,530 L 3652,527 L 3638,518 L 3603,496 L 3586,485 L 3584,484 L 3587,481 L 3600,462 L 3635,437 L 3650,426 L 3654,424 L 3669,412 L 3691,397 L 3703,388 L 3704,388 L 3717,378 L 3731,368 L 3742,361 L 3742,360 L 3754,352 L 3764,345 L 3774,338 L 3774,338 L 3785,330 L 3794,324 L 3800,320 L 3806,320 L 3815,320 L 3831,320 L 3837,320 L 3844,319 L 3852,319 L 3864,319 L 3870,319 L 3876,319 L 3884,319 L 3893,319 L 3900,319 L 3906,319 L 3914,319 L 3923,319 L 3931,319 L 3935,319 L 3945,319 L 3955,319 L 3965,320 L 3968,320 L 3980,320 L 3992,320 L 4000,320 L 4005,324 L 4010,327 L 4024,338 L 4029,341 L 4035,345 L 4041,349 L 4057,361 L 4063,365 L 4068,368 L 4075,373 L 4096,388 L 4104,394 L 4108,397 L 4118,404 L 4148,426 L 4161,435 L 4164,437 L 4178,447 L 4200,463 L 4215,486 L 4225,499 L 4239,519 L 4250,535 L 4278,575 L 4289,592 L 4316,629 L 4331,650 L 4337,660 L 4400,715 L 4408,724 L 4419,738 L 4421,740 L 4428,745 L 4419,769 L 4411,786 L 4405,801 L 4372,880 L 4362,904 L 4357,916 L 4356,917 L 4321,996 L 4321,997 L 4316,1008 L 4307,1028 L 4283,1077 L 4278,1088 L 4275,1094 L 4260,1124 L 4246,1152 L 4241,1163 L 4228,1188 L 4212,1218 L 4207,1227 L 4201,1238 L 4175,1287 L 4162,1310 L 4157,1318 L 4156,1322 L 4133,1361 L 4077,1341 L 4076,1340 L 4057,1328 L 4012,1297 L 3971,1266 L 3956,1253 L 3929,1231 L 3906,1208 L 3893,1196 L 3862,1162 L 3852,1150 L 3833,1123 L 3825,1111 L 3812,1089 L 3806,1077 L 3798,1058 L 3793,1046 L 3788,1030 L 3785,1018 L 3782,1003 L 3780,991 L 3778,978 L 3778,965 z " style="fill-opacity:1.000000;fill:rgb(80,0,212);stroke:rgb(0,0,0);stroke-width:2"/></g>
</svg>
