<?xml version="1.0" standalone="no"?>
<!DOCTYPE svg PUBLIC "-//W3C//DTD SVG 1.1//EN"
"http://www.w3.org/Graphics/SVG/1.1/DTD/svg11.dtd">
<svg width="4860" height="4134" viewBox="0 0 4860 4134" version="1.1"
xmlns="http://www.w3.org/2000/svg"
xmlns:xlink="http://www.w3.org/1999/xlink">
<g fill-rule="evenodd"><path d="M 209,1318 L 208,1331 L 204,1342 L 198,1353 L 190,1363 L 179,1370 L 168,1375 L 156,1378 L 143,1378 L 131,1375 L 120,1370 L 110,1363 L 101,1353 L 95,1342 L 91,1331 L 90,1318 L 91,1306 L 95,1294 L 101,1283 L 110,1274 L 120,1266 L 131,1261 L 143,1259 L 156,1259 L 168,1261 L 179,1266 L 190,1274 L 198,1283 L 204,1294 L 208,1306 L 209,1318 z " style="fill-opacity:1.000000;fill:rgb(41,35,190);stroke:rgb(0,0,0);stroke-width:2"/></g>
<g fill-rule="evenodd"><path d="M 209,1098 L 208,1110 L 204,1122 L 198,1133 L 190,1142 L 179,1150 L 168,1155 L 156,1157 L 143,1157 L 131,1155 L 120,1150 L 110,1142 L 101,1133 L 95,1122 L 91,1110 L 90,1098 L 91,1085 L 95,1073 L 101,1063 L 110,1053 L 120,1046 L 131,1041 L 143,1038 L 156,1038 L 168,1041 L 179,1046 L 190,1053 L 198,1063 L 204,1073 L 208,1085 L 209,1098 z " style="fill-opacity:1.000000;fill:rgb(132,225,108);stroke:rgb(0,0,0);stroke-width:2"/></g>
<g fill-rule="evenodd"><path d="M 209,898 L 208,910 L 204,922 L 198,933 L 190,942 L 179,950 L 168,955 L 156,957 L 143,957 L 131,955 L 120,950 L 110,942 L 101,933 L 95,922 L 91,910 L 90,898 L 91,885 L 95,873 L 101,863 L 110,853 L 120,846 L 131,841 L 143,838 L 156,838 L 168,841 L 179,846 L 190,853 L 198,863 L 204,873 L 208,885 L 209,898 z " style="fill-opacity:1.000000;fill:rgb(214,174,82);stroke:rgb(0,0,0);stroke-width:2"/></g>
<g fill-rule="evenodd"><path d="M 409,3384 L 408,3397 L 404,3409 L 398,3419 L 390,3429 L 379,3436 L 368,3441 L 356,3444 L 343,3444 L 331,3441 L 320,3436 L 310,3429 L 301,3419 L 295,3409 L 291,3397 L 290,3384 L 291,3372 L 295,3360 L 301,3349 L 310,3340 L 320,3332 L 331,3327 L 343,3325 L 356,3325 L 368,3327 L 379,3332 L 390,3340 L 398,3349 L 404,3360 L 408,3372 L 409,3384 z " style="fill-opacity:1.000000;fill:rgb(144,73,241);stroke:rgb(0,0,0);stroke-width:2"/></g>
<g fill-rule="evenodd"><path d="M 409,2734 L 408,2746 L 404,2758 L 398,2769 L 390,2778 L 379,2786 L 368,2791 L 356,2793 L 343,2793 L 331,2791 L 320,2786 L 310,2778 L 301,2769 L 295,2758 L 291,2746 L 290,2734 L 291,2721 L 295,2710 L 301,2699 L 310,2689 L 320,2682 L 331,2677 L 343,2674 L 356,2674 L 368,2677 L 379,2682 L 390,2689 L 398,2699 L 404,2710 L 408,2721 L 409,2734 z " style="fill-opacity:1.000000;fill:rgb(241,187,233);stroke:rgb(0,0,0);stroke-width:2"/></g>
<g fill-rule="evenodd"><path d="M 409,2514 L 408,2527 L 404,2539 L 398,2549 L 390,2559 L 379,2566 L 368,2571 L 356,2574 L 343,2574 L 331,2571 L 320,2566 L 310,2559 L 301,2549 L 295,2539 L 291,2527 L 290,2514 L 291,2502 L 295,2490 L 301,2479 L 310,2470 L 320,2462 L 331,2457 L 343,2455 L 356,2455 L 368,2457 L 379,2462 L 390,2470 L 398,2479 L 404,2490 L 408,2502 L 409,2514 z " style="fill-opacity:1.000000;fill:rgb(235,179,166);stroke:rgb(0,0,0);stroke-width:2"/></g>
<g fill-rule="evenodd"><path d="M 409,2294 L 408,2306 L 404,2318 L 398,2329 L 390,2338 L 379,2346 L 368,2351 L 356,2353 L 343,2353 L 331,2351 L 320,2346 L 310,2338 L 301,2329 L 295,2318 L 291,2306 L 290,2294 L 291,2281 L 295,2269 L 301,2259 L 310,2249 L 320,2242 L 331,2237 L 343,2234 L 356,2234 L 368,2237 L 379,2242 L 390,2249 L 398,2259 L 404,2269 L 408,2281 L 409,2294 z " style="fill-opacity:1.000000;fill:rgb(219,60,135);stroke:rgb(0,0,0);stroke-width:2"/></g>
<g fill-rule="evenodd"><path d="M 1768,3986 L 1766,4000 L 1762,4013 L 1755,4025 L 1746,4036 L 1735,4044 L 1723,4050 L 1710,4054 L 1696,4054 L 1682,4052 L 1670,4047 L 1658,4040 L 1648,4031 L 1640,4019 L 1635,4007 L 1632,3993 L 1632,3962 L 1633,3949 L 1637,3936 L 1644,3924 L 1653,3913 L 1664,3905 L 1676,3899 L 1689,3895 L 1703,3894 L 1717,3897 L 1729,3901 L 1741,3909 L 1751,3918 L 1759,3929 L 1764,3942 L 1767,3956 L 1768,3986 z " style="fill-opacity:1.000000;fill:rgb(12,62,153);stroke:rgb(0,0,0);stroke-width:2"/></g>
<g fill-rule="evenodd"><path d="M 1968,3986 L 1966,4000 L 1962,4013 L 1955,4025 L 1946,4036 L 1935,4044 L 1923,4050 L 1910,4054 L 1896,4054 L 1882,4052 L 1870,4047 L 1858,4040 L 1848,4031 L 1840,4019 L 1835,4007 L 1832,3993 L 1832,3962 L 1833,3949 L 1837,3936 L 1844,3924 L 1853,3913 L 1864,3905 L 1876,3899 L 1889,3895 L 1903,3894 L 1917,3897 L 1929,3901 L 1941,3909 L 1951,3918 L 1959,3929 L 1964,3942 L 1967,3956 L 1968,3986 z " style="fill-opacity:1.000000;fill:rgb(36,94,13);stroke:rgb(0,0,0);stroke-width:2"/></g>
<g fill-rule="evenodd"><path d="M 2168,3986 L 2166,4000 L 2162,4013 L 2155,4025 L 2146,4036 L 2135,4044 L 2123,4050 L 2110,4054 L 2096,4054 L 2082,4052 L 2070,4047 L 2058,4040 L 2048,4031 L 2040,4019 L 2035,4007 L 2032,3993 L 2032,3962 L 2033,3949 L 2037,3936 L 2044,3924 L 2053,3913 L 2064,3905 L 2076,3899 L 2089,3895 L 2103,3894 L 2117,3897 L 2129,3901 L 2141,3909 L 2151,3918 L 2159,3929 L 2164,3942 L 2167,3956 L 2168,3986 z " style="fill-opacity:1.000000;fill:rgb(28,6,183);stroke:rgb(0,0,0);stroke-width:2"/></g>
<g fill-rule="evenodd"><path d="M 2368,3986 L 2366,4000 L 2362,4013 L 2355,4025 L 2346,4036 L 2335,4044 L 2323,4050 L 2310,4054 L 2296,4054 L 2282,4052 L 2270,4047 L 2258,4040 L 2248,4031 L 2240,4019 L 2235,4007 L 2232,3993 L 2232,3962 L 2233,3949 L 2237,3936 L 2244,3924 L 2253,3913 L 2264,3905 L 2276,3899 L 2289,3895 L 2303,3894 L 2317,3897 L 2329,3901 L 2341,3909 L 2351,3918 L 2359,3929 L 2364,3942 L 2367,3956 L 2368,3986 z " style="fill-opacity:1.000000;fill:rgb(71,222,179);stroke:rgb(0,0,0);stroke-width:2"/></g>
<g fill-rule="evenodd"><path d="M 2567,3986 L 2566,4000 L 2562,4013 L 2555,4025 L 2546,4036 L 2535,4044 L 2523,4050 L 2510,4054 L 2496,4054 L 2482,4052 L 2470,4047 L 2458,4040 L 2448,4031 L 2440,4019 L 2435,4007 L 2432,3993 L 2431,3962 L 2433,3949 L 2437,3936 L 2444,3924 L 2453,3913 L 2464,3905 L 2476,3899 L 2489,3895 L 2503,3894 L 2517,3897 L 2529,3901 L 2541,3909 L 2551,3918 L 2559,3929 L 2564,3942 L 2567,3956 L 2567,3986 z " style="fill-opacity:1.000000;fill:rgb(18,77,200);stroke:rgb(0,0,0);stroke-width:2"/></g>
<g fill-rule="evenodd"><path d="M 3167,3986 L 3166,4000 L 3162,4013 L 3155,4025 L 3146,4036 L 3135,4044 L 3123,4050 L 3110,4054 L 3096,4054 L 3082,4052 L 3070,4047 L 3058,4040 L 3048,4031 L 3040,4019 L 3035,4007 L 3032,3993 L 3031,3962 L 3033,3949 L 3037,3936 L 3044,3924 L 3053,3913 L 3064,3905 L 3076,3899 L 3089,3895 L 3103,3894 L 3117,3897 L 3129,3901 L 3141,3909 L 3151,3918 L 3159,3929 L 3164,3942 L 3167,3956 L 3167,3986 z " style="fill-opacity:1.000000;fill:rgb(67,187,139);stroke:rgb(0,0,0);stroke-width:2"/></g>
<g fill-rule="evenodd"><path d="M 3767,3986 L 3766,4000 L 3762,4013 L 3755,4025 L 3746,4036 L 3735,4044 L 3723,4050 L 3710,4054 L 3696,4054 L 3682,4052 L 3670,4047 L 3658,4040 L 3648,4031 L 3640,4019 L 3635,4007 L 3632,3993 L 3631,3962 L 3633,3949 L 3637,3936 L 3644,3924 L 3653,3913 L 3663,3905 L 3676,3899 L 3689,3895 L 3703,3894 L 3717,3897 L 3729,3901 L 3741,3909 L 3751,3918 L 3759,3929 L 3764,3942 L 3767,3956 L 3767,3986 z " style="fill-opacity:1.000000;fill:rgb(166,31,3);stroke:rgb(0,0,0);stroke-width:2"/></g>
<g fill-rule="evenodd"><path d="M 3967,3986 L 3966,4000 L 3962,4013 L 3955,4025 L 3946,4036 L 3935,4044 L 3923,4050 L 3910,4054 L 3896,4054 L 3882,4052 L 3870,4047 L 3858,4040 L 3848,4031 L 3840,4019 L 3835,4007 L 3832,3993 L 3831,3962 L 3833,3949 L 3837,3936 L 3844,3924 L 3853,3913 L 3863,3905 L 3876,3899 L 3889,3895 L 3903,3894 L 3917,3897 L 3929,3901 L 3941,3909 L 3951,3918 L 3959,3929 L 3964,3942 L 3967,3956 L 3967,3986 z " style="fill-opacity:1.000000;fill:rgb(90,125,9);stroke:rgb(0,0,0);stroke-width:2"/></g>
<g fill-rule="evenodd"><path d="M 4167,3986 L 4166,4000 L 4162,4013 L 4155,4025 L 4146,4036 L 4135,4044 L 4123,4050 L 4110,4054 L 4096,4054 L 4082,4052 L 4070,4047 L 4058,4040 L 4048,4031 L 4040,4019 L 4035,4007 L 4032,3993 L 4031,3962 L 4033,3949 L 4037,3936 L 4044,3924 L 4053,3913 L 4063,3905 L 4076,3899 L 4089,3895 L 4103,3894 L 4116,3897 L 4129,3901 L 4141,3909 L 4151,3918 L 4159,3929 L 4164,3942 L 4167,3956 L 4167,3986 z " style="fill-opacity:1.000000;fill:rgb(56,37,31);stroke:rgb(0,0,0);stroke-width:2"/></g>
<g fill-rule="evenodd"><path d="M 4367,3986 L 4366,4000 L 4362,4013 L 4355,4025 L 4346,4036 L 4335,4044 L 4323,4050 L 4310,4054 L 4296,4054 L 4282,4052 L 4269,4047 L 4258,4040 L 4248,4031 L 4240,4019 L 4235,4007 L 4232,3993 L 4231,3962 L 4233,3949 L 4237,3936 L 4244,3924 L 4253,3913 L 4263,3905 L 4276,3899 L 4289,3895 L 4303,3894 L 4316,3897 L 4329,3901 L 4341,3909 L 4351,3918 L 4359,3929 L 4364,3942 L 4367,3956 L 4367,3986 z " style="fill-opacity:1.000000;fill:rgb(93,212,203);stroke:rgb(0,0,0);stroke-width:2"/></g>
<g fill-rule="evenodd"><path d="M 1048,186 L 1046,200 L 1042,213 L 1035,225 L 1026,236 L 1016,244 L 1003,250 L 990,254 L 976,254 L 962,252 L 950,248 L 938,240 L 928,231 L 920,219 L 915,207 L 912,193 L 912,162 L 913,149 L 917,136 L 924,124 L 933,113 L 944,105 L 956,99 L 969,95 L 983,95 L 997,97 L 1009,101 L 1021,109 L 1031,118 L 1039,129 L 1044,142 L 1047,156 L 1048,186 z " style="fill-opacity:1.000000;fill:rgb(252,150,245);stroke:rgb(0,0,0);stroke-width:2"/></g>
<g fill-rule="evenodd"><path d="M 1248,186 L 1246,200 L 1242,213 L 1235,225 L 1226,236 L 1216,244 L 1203,250 L 1190,254 L 1176,254 L 1162,252 L 1150,248 L 1138,240 L 1128,231 L 1120,219 L 1115,207 L 1112,193 L 1112,162 L 1113,149 L 1117,136 L 1124,124 L 1133,113 L 1144,105 L 1156,99 L 1169,95 L 1183,95 L 1197,97 L 1209,101 L 1221,109 L 1231,118 L 1239,129 L 1244,142 L 1247,156 L 1248,186 z " style="fill-opacity:1.000000;fill:rgb(69,59,19);stroke:rgb(0,0,0);stroke-width:2"/></g>
<g fill-rule="evenodd"><path d="M 1448,186 L 1446,200 L 1442,213 L 1435,225 L 1426,236 L 1415,244 L 1403,250 L 1390,254 L 1376,254 L 1362,252 L 1350,248 L 1338,240 L 1328,231 L 1320,219 L 1315,207 L 1312,193 L 1312,162 L 1313,149 L 1317,136 L 1324,124 L 1333,113 L 1344,105 L 1356,99 L 1369,95 L 1383,95 L 1397,97 L 1409,101 L 1421,109 L 1431,118 L 1439,129 L 1444,142 L 1447,156 L 1448,186 z " style="fill-opacity:1.000000;fill:rgb(13,137,10);stroke:rgb(0,0,0);stroke-width:2"/></g>
<g fill-rule="evenodd"><path d="M 2847,186 L 2846,200 L 2842,213 L 2835,225 L 2826,236 L 2815,244 L 2803,250 L 2790,254 L 2776,254 L 2762,252 L 2750,248 L 2738,240 L 2728,231 L 2720,219 L 2715,207 L 2712,193 L 2711,162 L 2713,149 L 2717,136 L 2724,124 L 2733,113 L 2744,105 L 2756,99 L 2769,95 L 2783,95 L 2797,97 L 2809,101 L 2821,109 L 2831,118 L 2839,129 L 2844,142 L 2847,156 L 2847,186 z " style="fill-opacity:1.000000;fill:rgb(28,219,174);stroke:rgb(0,0,0);stroke-width:2"/></g>
<g fill-rule="evenodd"><path d="M 4367,186 L 4366,200 L 4362,213 L 4355,225 L 4346,236 L 4335,244 L 4323,250 L 4310,254 L 4296,254 L 4282,252 L 4269,248 L 4258,240 L 4248,231 L 4240,219 L 4235,207 L 4232,193 L 4231,162 L 4233,149 L 4237,136 L 4244,124 L 4253,113 L 4263,105 L 4276,99 L 4289,95 L 4303,95 L 4316,97 L 4329,101 L 4341,109 L 4351,118 L 4359,129 L 4364,142 L 4367,156 L 4367,186 z " style="fill-opacity:1.000000;fill:rgb(50,32,154);stroke:rgb(0,0,0);stroke-width:2"/></g>
<g fill-rule="evenodd"><path d="M 4567,186 L 4566,200 L 4562,213 L 4555,225 L 4546,236 L 4535,244 L 4523,250 L 4510,254 L 4496,254 L 4482,252 L 4469,248 L 4458,240 L 4448,231 L 4440,219 L 4435,207 L 4432,193 L 4431,162 L 4433,149 L 4437,136 L 4444,124 L 4453,113 L 4463,105 L 4476,99 L 4489,95 L 4503,95 L 4516,97 L 4529,101 L 4541,109 L 4551,118 L 4559,129 L 4564,142 L 4567,156 L 4567,186 z " style="fill-opacity:1.000000;fill:rgb(80,238,64);stroke:rgb(0,0,0);stroke-width:2"/></g>
<g fill-rule="evenodd"><path d="M 2447,159 L 2512,159 L 2513,149 L 2517,136 L 2524,124 L 2533,113 L 2544,105 L 2556,99 L 2569,95 L 2583,95 L 2597,97 L 2609,101 L 2621,109 L 2631,118 L 2639,129 L 2644,142 L 2647,156 L 2647,186 L 2646,200 L 2642,213 L 2635,225 L 2626,236 L 2615,244 L 2603,250 L 2590,254 L 2576,254 L 2562,252 L 2550,248 L 2538,240 L 2528,231 L 2520,219 L 2515,207 L 2512,193 L 2512,189 L 2447,189 L 2446,200 L 2442,213 L 2435,225 L 2426,236 L 2415,244 L 2403,250 L 2395,252 L 2395,468 L 2394,471 L 2393,474 L 2392,477 L 2390,479 L 2240,629 L 2238,631 L 2235,632 L 2232,633 L 2229,634 L 2130,634 L 2127,633 L 2124,632 L 2121,631 L 2119,629 L 1995,505 L 1995,758 L 1998,758 L 2009,763 L 2019,771 L 2027,780 L 2033,790 L 2037,802 L 2039,814 L 2037,827 L 2033,838 L 2027,849 L 2019,858 L 2009,866 L 1998,871 L 1986,873 L 1973,873 L 1961,871 L 1950,866 L 1940,858 L 1932,849 L 1926,838 L 1922,827 L 1920,814 L 1922,802 L 1926,790 L 1932,780 L 1940,771 L 1950,763 L 1961,758 L 1965,758 L 1965,253 L 1962,252 L 1950,248 L 1938,240 L 1928,231 L 1920,219 L 1915,207 L 1912,193 L 1912,162 L 1913,149 L 1917,136 L 1924,124 L 1933,113 L 1944,105 L 1956,99 L 1969,95 L 1983,95 L 1997,97 L 2009,101 L 2021,109 L 2031,118 L 2039,129 L 2044,142 L 2047,156 L 2048,186 L 2046,200 L 2042,213 L 2035,225 L 2026,236 L 2015,244 L 2003,250 L 1995,252 L 1995,462 L 2136,604 L 2223,604 L 2365,462 L 2365,253 L 2362,252 L 2350,248 L 2338,240 L 2328,231 L 2320,219 L 2315,207 L 2312,193 L 2312,162 L 2313,149 L 2317,136 L 2324,124 L 2333,113 L 2344,105 L 2356,99 L 2369,95 L 2383,95 L 2397,97 L 2409,101 L 2421,109 L 2431,118 L 2439,129 L 2444,142 L 2447,156 L 2447,159 z " style="fill-opacity:1.000000;fill:rgb(120,54,253);stroke:rgb(0,0,0);stroke-width:2"/></g>
<g fill-rule="evenodd"><path d="M 407,2089 L 404,2098 L 398,2109 L 390,2119 L 379,2126 L 368,2131 L 356,2134 L 343,2134 L 331,2131 L 320,2126 L 310,2119 L 301,2109 L 295,2098 L 291,2086 L 290,2074 L 291,2062 L 295,2050 L 301,2039 L 310,2030 L 320,2022 L 331,2017 L 343,2015 L 356,2015 L 368,2017 L 379,2022 L 390,2030 L 398,2039 L 404,2050 L 407,2059 L 3080,2059 L 3605,1534 L 3608,1532 L 3610,1531 L 3613,1530 L 3616,1529 L 3643,1529 L 3646,1520 L 3652,1510 L 3660,1501 L 3670,1493 L 3681,1488 L 3693,1486 L 3706,1486 L 3718,1488 L 3729,1493 L 3739,1501 L 3747,1510 L 3753,1520 L 3757,1532 L 3759,1544 L 3757,1557 L 3753,1568 L 3747,1579 L 3739,1588 L 3729,1596 L 3718,1601 L 3706,1603 L 3693,1603 L 3681,1601 L 3670,1596 L 3660,1588 L 3652,1579 L 3646,1568 L 3643,1559 L 3622,1559 L 3097,2085 L 3095,2087 L 3092,2088 L 3089,2089 L 407,2089 z " style="fill-opacity:1.000000;fill:rgb(18,73,50);stroke:rgb(0,0,0);stroke-width:2"/></g>
<g fill-rule="evenodd"><path d="M 407,1849 L 3033,1849 L 3036,1840 L 3042,1830 L 3050,1821 L 3060,1813 L 3071,1808 L 3083,1806 L 3096,1806 L 3108,1808 L 3119,1813 L 3129,1821 L 3137,1830 L 3143,1840 L 3147,1852 L 3149,1864 L 3147,1877 L 3143,1888 L 3137,1899 L 3129,1908 L 3119,1916 L 3108,1921 L 3096,1923 L 3083,1923 L 3071,1921 L 3060,1916 L 3050,1908 L 3042,1899 L 3036,1888 L 3033,1879 L 407,1879 L 404,1888 L 398,1899 L 390,1908 L 379,1916 L 368,1921 L 356,1923 L 343,1923 L 331,1921 L 320,1916 L 310,1908 L 301,1899 L 295,1888 L 291,1876 L 290,1864 L 291,1851 L 295,1839 L 301,1829 L 310,1819 L 320,1812 L 331,1807 L 343,1804 L 356,1804 L 368,1807 L 379,1812 L 390,1819 L 398,1829 L 404,1839 L 407,1849 z " style="fill-opacity:1.000000;fill:rgb(246,158,125);stroke:rgb(0,0,0);stroke-width:2"/></g>
<g fill-rule="evenodd"><path d="M 407,1659 L 404,1668 L 398,1679 L 390,1689 L 379,1696 L 368,1701 L 356,1704 L 343,1704 L 331,1701 L 320,1696 L 310,1689 L 301,1679 L 295,1668 L 291,1657 L 290,1644 L 291,1632 L 295,1620 L 301,1609 L 310,1600 L 320,1592 L 331,1587 L 343,1585 L 356,1585 L 368,1587 L 379,1592 L 390,1600 L 398,1609 L 404,1620 L 407,1629 L 3224,1629 L 3849,1004 L 3846,998 L 3842,987 L 3840,974 L 3842,962 L 3846,950 L 3852,940 L 3860,931 L 3870,923 L 3881,918 L 3893,916 L 3906,916 L 3918,918 L 3929,923 L 3939,931 L 3947,940 L 3953,950 L 3957,962 L 3959,974 L 3957,987 L 3953,998 L 3947,1009 L 3939,1018 L 3929,1026 L 3918,1031 L 3906,1033 L 3893,1033 L 3881,1031 L 3870,1025 L 3240,1655 L 3238,1657 L 3236,1658 L 3233,1659 L 3230,1659 L 407,1659 z " style="fill-opacity:1.000000;fill:rgb(73,220,173);stroke:rgb(0,0,0);stroke-width:2"/></g>
<g fill-rule="evenodd"><path d="M 616,4134 L 583,4134 L 550,4127 L 520,4113 L 492,4093 L 470,4068 L 453,4039 L 443,4008 L 440,3974 L 443,3941 L 453,3909 L 470,3880 L 477,3873 L 393,3789 L 306,3789 L 265,3830 L 271,3836 L 287,3863 L 296,3893 L 300,3924 L 296,3956 L 287,3985 L 271,4013 L 250,4036 L 225,4054 L 196,4067 L 165,4074 L 134,4074 L 103,4067 L 75,4054 L 49,4036 L 28,4013 L 13,3985 L 3,3956 L 0,3924 L 3,3893 L 13,3863 L 28,3836 L 49,3813 L 75,3794 L 103,3782 L 134,3775 L 165,3775 L 196,3782 L 225,3794 L 244,3809 L 278,3774 L 139,3635 L 137,3633 L 136,3630 L 135,3627 L 135,3624 L 135,3332 L 131,3331 L 120,3326 L 110,3318 L 101,3309 L 95,3298 L 91,3286 L 90,3274 L 91,3262 L 95,3250 L 101,3239 L 110,3230 L 120,3222 L 131,3217 L 135,3216 L 135,3112 L 131,3111 L 120,3106 L 110,3099 L 101,3090 L 95,3079 L 91,3067 L 90,3054 L 91,3042 L 95,3030 L 101,3019 L 110,3010 L 120,3003 L 131,2997 L 135,2997 L 135,2895 L 131,2895 L 120,2890 L 110,2882 L 101,2873 L 95,2862 L 91,2850 L 90,2838 L 91,2825 L 95,2813 L 101,2803 L 110,2793 L 120,2786 L 131,2781 L 135,2780 L 135,2684 L 131,2683 L 120,2678 L 110,2670 L 101,2661 L 95,2650 L 91,2638 L 90,2626 L 91,2614 L 95,2602 L 101,2591 L 110,2582 L 120,2574 L 131,2569 L 135,2568 L 135,2460 L 131,2459 L 120,2454 L 110,2447 L 101,2438 L 95,2427 L 91,2415 L 90,2402 L 91,2390 L 95,2378 L 101,2367 L 110,2358 L 120,2351 L 131,2345 L 135,2345 L 135,2244 L 131,2243 L 120,2238 L 110,2230 L 101,2221 L 95,2210 L 91,2198 L 90,2186 L 91,2173 L 95,2162 L 101,2151 L 110,2141 L 120,2134 L 131,2129 L 135,2128 L 135,2028 L 131,2027 L 120,2022 L 110,2015 L 101,2005 L 95,1994 L 91,1983 L 90,1970 L 91,1958 L 95,1946 L 101,1935 L 110,1926 L 120,1918 L 131,1913 L 135,1912 L 135,1808 L 131,1807 L 120,1802 L 110,1795 L 101,1786 L 95,1775 L 91,1763 L 90,1750 L 91,1738 L 95,1726 L 98,1720 L 34,1656 L 32,1654 L 31,1651 L 30,1649 L 30,1646 L 30,847 L 30,844 L 31,841 L 32,839 L 34,837 L 212,659 L 215,656 L 139,580 L 137,578 L 136,575 L 135,572 L 135,569 L 135,374 L 103,367 L 75,354 L 49,336 L 28,313 L 13,286 L 3,256 L 0,224 L 3,193 L 13,163 L 28,136 L 49,113 L 75,95 L 103,82 L 134,75 L 165,75 L 196,82 L 225,95 L 244,109 L 349,4 L 351,2 L 354,1 L 357,0 L 360,0 L 540,0 L 542,0 L 545,1 L 548,2 L 550,4 L 598,52 L 620,36 L 650,22 L 683,15 L 716,15 L 749,22 L 780,36 L 807,56 L 829,80 L 846,109 L 856,141 L 860,174 L 856,208 L 846,240 L 829,269 L 807,293 L 780,313 L 749,327 L 716,334 L 683,334 L 650,327 L 620,313 L 592,293 L 570,269 L 553,240 L 543,208 L 540,174 L 543,141 L 553,109 L 570,80 L 577,73 L 533,30 L 366,30 L 265,130 L 271,136 L 287,163 L 296,193 L 300,224 L 296,256 L 287,286 L 271,313 L 250,336 L 225,354 L 196,367 L 165,374 L 165,563 L 256,654 L 1091,654 L 1522,223 L 1520,219 L 1515,207 L 1512,193 L 1512,162 L 1513,149 L 1517,136 L 1524,124 L 1533,113 L 1544,105 L 1556,99 L 1569,95 L 1583,95 L 1597,97 L 1609,101 L 1616,105 L 1682,39 L 1684,37 L 1687,36 L 1690,35 L 1693,34 L 4546,34 L 4549,35 L 4552,36 L 4555,37 L 4557,39 L 4623,105 L 4625,108 L 4626,110 L 4627,113 L 4627,116 L 4627,1232 L 4650,1222 L 4683,1215 L 4716,1215 L 4749,1222 L 4779,1236 L 4806,1256 L 4829,1280 L 4846,1309 L 4856,1341 L 4859,1374 L 4856,1408 L 4846,1440 L 4829,1469 L 4806,1493 L 4779,1513 L 4749,1527 L 4716,1534 L 4683,1534 L 4650,1527 L 4619,1513 L 4598,1497 L 4364,1731 L 4364,1974 L 4364,1977 L 4363,1980 L 4362,1983 L 4360,1985 L 4271,2074 L 4360,2164 L 4362,2166 L 4363,2169 L 4364,2172 L 4364,2174 L 4364,2468 L 4710,2814 L 4712,2816 L 4713,2819 L 4714,2821 L 4714,2824 L 4714,3415 L 4716,3415 L 4749,3422 L 4779,3436 L 4806,3455 L 4829,3480 L 4846,3509 L 4856,3541 L 4859,3574 L 4856,3608 L 4846,3639 L 4829,3668 L 4806,3693 L 4779,3713 L 4749,3727 L 4716,3734 L 4683,3734 L 4650,3727 L 4619,3713 L 4592,3693 L 4570,3668 L 4553,3639 L 4543,3608 L 4539,3574 L 4543,3541 L 4553,3509 L 4570,3480 L 4592,3455 L 4619,3436 L 4650,3422 L 4683,3415 L 4684,3415 L 4684,2831 L 4339,2485 L 4337,2483 L 4336,2480 L 4335,2477 L 4334,2474 L 4334,2181 L 4243,2089 L 4016,2089 L 4016,2141 L 3883,2141 L 3883,2008 L 4016,2008 L 4016,2059 L 4243,2059 L 4334,1968 L 4334,1724 L 4335,1722 L 4336,1719 L 4337,1716 L 4339,1714 L 4577,1476 L 4570,1469 L 4553,1440 L 4543,1408 L 4539,1374 L 4543,1341 L 4553,1309 L 4570,1280 L 4592,1256 L 4597,1252 L 4597,122 L 4540,64 L 1699,64 L 1637,126 L 1639,129 L 1644,142 L 1647,156 L 1648,186 L 1646,200 L 1642,213 L 1635,225 L 1626,236 L 1615,244 L 1603,250 L 1590,254 L 1576,254 L 1562,252 L 1550,248 L 1543,244 L 1107,680 L 1105,682 L 1103,683 L 1100,684 L 1097,684 L 229,684 L 60,854 L 60,1639 L 119,1699 L 131,1694 L 143,1691 L 156,1691 L 168,1694 L 179,1699 L 190,1706 L 198,1715 L 204,1726 L 208,1738 L 209,1750 L 208,1763 L 204,1775 L 198,1786 L 190,1795 L 179,1802 L 168,1807 L 165,1808 L 165,1912 L 168,1913 L 179,1918 L 190,1926 L 198,1935 L 204,1946 L 208,1958 L 209,1970 L 208,1983 L 204,1994 L 198,2005 L 190,2015 L 179,2022 L 168,2027 L 165,2028 L 165,2128 L 168,2129 L 179,2134 L 190,2141 L 198,2151 L 204,2162 L 208,2173 L 209,2186 L 208,2198 L 204,2210 L 198,2221 L 190,2230 L 179,2238 L 168,2243 L 165,2244 L 165,2345 L 168,2345 L 179,2351 L 190,2358 L 198,2367 L 204,2378 L 208,2390 L 209,2402 L 208,2415 L 204,2427 L 198,2438 L 190,2447 L 179,2454 L 168,2459 L 165,2460 L 165,2568 L 168,2569 L 179,2574 L 190,2582 L 198,2591 L 204,2602 L 208,2614 L 209,2626 L 208,2638 L 204,2650 L 198,2661 L 190,2670 L 179,2678 L 168,2683 L 165,2684 L 165,2780 L 168,2781 L 179,2786 L 190,2793 L 198,2803 L 204,2813 L 208,2825 L 209,2838 L 208,2850 L 204,2862 L 198,2873 L 190,2882 L 179,2890 L 168,2895 L 165,2895 L 165,2997 L 168,2997 L 179,3003 L 190,3010 L 198,3019 L 204,3030 L 208,3042 L 209,3054 L 208,3067 L 204,3079 L 198,3090 L 190,3099 L 179,3106 L 168,3111 L 165,3112 L 165,3216 L 168,3217 L 179,3222 L 190,3230 L 198,3239 L 204,3250 L 207,3259 L 2011,3259 L 2014,3259 L 2017,3260 L 2019,3262 L 2022,3263 L 2663,3905 L 2676,3899 L 2689,3895 L 2703,3894 L 2717,3897 L 2729,3901 L 2741,3909 L 2751,3918 L 2759,3929 L 2764,3942 L 2767,3956 L 2767,3959 L 2832,3959 L 2833,3949 L 2837,3936 L 2844,3924 L 2853,3913 L 2864,3905 L 2876,3899 L 2889,3895 L 2903,3894 L 2917,3897 L 2929,3901 L 2941,3909 L 2951,3918 L 2959,3929 L 2964,3942 L 2967,3956 L 2967,3986 L 2966,4000 L 2962,4013 L 2955,4025 L 2946,4036 L 2935,4044 L 2923,4050 L 2910,4054 L 2896,4054 L 2882,4052 L 2870,4047 L 2858,4040 L 2848,4031 L 2840,4019 L 2835,4007 L 2832,3993 L 2832,3989 L 2767,3989 L 2766,4000 L 2762,4013 L 2755,4025 L 2746,4036 L 2735,4044 L 2723,4050 L 2710,4054 L 2696,4054 L 2682,4052 L 2670,4047 L 2658,4040 L 2648,4031 L 2640,4019 L 2635,4007 L 2632,3993 L 2631,3962 L 2633,3949 L 2637,3936 L 2642,3926 L 2005,3289 L 207,3289 L 204,3298 L 198,3309 L 190,3318 L 179,3326 L 168,3331 L 165,3332 L 165,3618 L 306,3759 L 400,3759 L 402,3760 L 405,3761 L 408,3762 L 410,3764 L 498,3852 L 520,3836 L 550,3822 L 583,3815 L 616,3815 L 649,3822 L 680,3836 L 707,3855 L 729,3880 L 746,3909 L 756,3941 L 760,3974 L 756,4008 L 746,4039 L 729,4068 L 707,4093 L 680,4113 L 649,4127 L 616,4134 z " style="fill-opacity:1.000000;fill:rgb(79,20,242);stroke:rgb(0,0,0);stroke-width:2"/></g>
<g fill-rule="evenodd"><path d="M 3243,1359 L 3246,1350 L 3252,1340 L 3260,1331 L 3270,1323 L 3281,1318 L 3293,1316 L 3306,1316 L 3318,1318 L 3329,1323 L 3339,1331 L 3347,1340 L 3353,1350 L 3357,1362 L 3359,1374 L 3357,1387 L 3353,1398 L 3347,1409 L 3339,1418 L 3329,1426 L 3318,1431 L 3306,1433 L 3293,1433 L 3281,1431 L 3270,1426 L 3260,1418 L 3252,1409 L 3246,1398 L 3243,1389 L 490,1389 L 445,1435 L 443,1437 L 440,1438 L 437,1439 L 434,1439 L 407,1439 L 404,1449 L 398,1460 L 390,1469 L 379,1476 L 368,1481 L 356,1484 L 343,1484 L 331,1481 L 320,1476 L 310,1469 L 301,1460 L 295,1449 L 291,1437 L 290,1424 L 291,1412 L 295,1400 L 301,1389 L 310,1380 L 320,1373 L 331,1368 L 343,1365 L 356,1365 L 368,1368 L 379,1373 L 390,1380 L 398,1389 L 404,1400 L 407,1409 L 428,1409 L 474,1364 L 476,1362 L 478,1361 L 481,1360 L 484,1359 L 3243,1359 z " style="fill-opacity:1.000000;fill:rgb(68,64,102);stroke:rgb(0,0,0);stroke-width:2"/></g>
<g fill-rule="evenodd"><path d="M 407,3149 L 1923,3149 L 1926,3140 L 1932,3130 L 1940,3121 L 1950,3113 L 1961,3108 L 1973,3106 L 1986,3106 L 1998,3108 L 2009,3113 L 2019,3121 L 2027,3130 L 2033,3140 L 2037,3152 L 2039,3164 L 2037,3177 L 2033,3188 L 2027,3199 L 2019,3208 L 2009,3216 L 1998,3221 L 1986,3223 L 1973,3223 L 1961,3221 L 1950,3216 L 1940,3208 L 1932,3199 L 1926,3188 L 1923,3179 L 407,3179 L 404,3188 L 398,3199 L 390,3208 L 379,3216 L 368,3221 L 356,3223 L 343,3223 L 331,3221 L 320,3216 L 310,3208 L 301,3199 L 295,3188 L 291,3176 L 290,3164 L 291,3151 L 295,3139 L 301,3129 L 310,3119 L 320,3112 L 331,3107 L 343,3104 L 356,3104 L 368,3107 L 379,3112 L 390,3119 L 398,3129 L 404,3139 L 407,3149 z " style="fill-opacity:1.000000;fill:rgb(208,107,196);stroke:rgb(0,0,0);stroke-width:2"/></g>
<g fill-rule="evenodd"><path d="M 380,2996 L 368,3001 L 356,3004 L 343,3004 L 331,3001 L 320,2996 L 310,2989 L 301,2979 L 295,2968 L 291,2957 L 290,2944 L 291,2932 L 295,2920 L 301,2909 L 310,2900 L 320,2892 L 331,2887 L 343,2885 L 356,2885 L 368,2887 L 379,2892 L 390,2900 L 398,2909 L 404,2920 L 408,2932 L 409,2944 L 408,2957 L 404,2968 L 401,2974 L 416,2989 L 2431,2989 L 2434,2989 L 2437,2990 L 2439,2991 L 2442,2993 L 3408,3959 L 3432,3959 L 3433,3949 L 3437,3936 L 3444,3924 L 3453,3913 L 3464,3905 L 3476,3899 L 3489,3895 L 3503,3894 L 3517,3897 L 3529,3901 L 3541,3909 L 3551,3918 L 3559,3929 L 3564,3942 L 3567,3956 L 3567,3986 L 3566,4000 L 3562,4013 L 3555,4025 L 3546,4036 L 3535,4044 L 3523,4050 L 3510,4054 L 3496,4054 L 3482,4052 L 3470,4047 L 3458,4040 L 3448,4031 L 3440,4019 L 3435,4007 L 3432,3993 L 3432,3989 L 3401,3989 L 3399,3989 L 3396,3988 L 3393,3987 L 3391,3985 L 2425,3019 L 409,3019 L 406,3019 L 404,3018 L 401,3016 L 399,3015 L 380,2996 z " style="fill-opacity:1.000000;fill:rgb(48,183,50);stroke:rgb(0,0,0);stroke-width:2"/></g>
<g fill-rule="evenodd"><path d="M 207,1549 L 204,1558 L 198,1569 L 190,1578 L 179,1586 L 168,1591 L 156,1593 L 143,1593 L 131,1591 L 120,1586 L 110,1578 L 101,1569 L 95,1558 L 91,1546 L 90,1534 L 91,1521 L 95,1510 L 101,1499 L 110,1489 L 120,1482 L 131,1477 L 143,1474 L 156,1474 L 168,1477 L 179,1482 L 190,1489 L 198,1499 L 204,1510 L 207,1519 L 2121,1519 L 2122,1512 L 2126,1500 L 2132,1490 L 2140,1481 L 2150,1473 L 2161,1468 L 2173,1466 L 2186,1466 L 2198,1468 L 2209,1473 L 2219,1481 L 2227,1490 L 2233,1500 L 2237,1512 L 2239,1524 L 2237,1537 L 2233,1548 L 2227,1559 L 2219,1568 L 2209,1576 L 2198,1581 L 2186,1583 L 2173,1583 L 2161,1581 L 2150,1576 L 2140,1568 L 2132,1559 L 2126,1549 L 207,1549 z " style="fill-opacity:1.000000;fill:rgb(59,161,34);stroke:rgb(0,0,0);stroke-width:2"/></g>
<g fill-rule="evenodd"><path d="M 1722,223 L 1720,219 L 1715,207 L 1712,193 L 1712,162 L 1713,149 L 1717,136 L 1724,124 L 1733,113 L 1744,105 L 1756,99 L 1769,95 L 1783,95 L 1797,97 L 1809,101 L 1821,109 L 1831,118 L 1839,129 L 1844,142 L 1847,156 L 1848,186 L 1846,200 L 1842,213 L 1835,225 L 1826,236 L 1815,244 L 1803,250 L 1790,254 L 1776,254 L 1762,252 L 1750,248 L 1743,244 L 1203,785 L 1200,787 L 1198,788 L 1195,789 L 1192,789 L 409,789 L 409,834 L 290,834 L 290,714 L 409,714 L 409,759 L 1186,759 L 1722,223 z " style="fill-opacity:1.000000;fill:rgb(246,34,145);stroke:rgb(0,0,0);stroke-width:2"/></g>
<g fill-rule="evenodd"><path d="M 380,1045 L 368,1051 L 356,1053 L 343,1053 L 331,1051 L 320,1046 L 310,1038 L 301,1029 L 295,1018 L 291,1006 L 290,994 L 291,981 L 295,969 L 301,959 L 310,949 L 320,942 L 331,937 L 343,934 L 356,934 L 368,937 L 379,942 L 390,949 L 398,959 L 404,969 L 408,981 L 409,994 L 408,1006 L 404,1018 L 401,1024 L 416,1039 L 3444,1039 L 3484,998 L 3484,253 L 3482,252 L 3470,248 L 3458,240 L 3448,231 L 3440,219 L 3435,207 L 3432,193 L 3431,162 L 3433,149 L 3437,136 L 3444,124 L 3453,113 L 3464,105 L 3476,99 L 3489,95 L 3503,95 L 3517,97 L 3529,101 L 3541,109 L 3551,118 L 3559,129 L 3564,142 L 3567,156 L 3567,186 L 3566,200 L 3562,213 L 3555,225 L 3546,236 L 3535,244 L 3523,250 L 3514,252 L 3514,1004 L 3514,1007 L 3513,1010 L 3512,1013 L 3510,1015 L 3461,1064 L 3459,1066 L 3456,1067 L 3453,1068 L 3450,1069 L 409,1069 L 406,1068 L 404,1067 L 401,1066 L 399,1064 L 380,1045 z " style="fill-opacity:1.000000;fill:rgb(157,225,139);stroke:rgb(0,0,0);stroke-width:2"/></g>
<g fill-rule="evenodd"><path d="M 380,1256 L 368,1261 L 356,1264 L 343,1264 L 331,1261 L 320,1256 L 310,1248 L 301,1239 L 295,1228 L 291,1216 L 290,1204 L 291,1192 L 295,1180 L 301,1169 L 310,1160 L 320,1152 L 331,1147 L 343,1144 L 356,1144 L 368,1147 L 379,1152 L 390,1160 L 398,1169 L 404,1180 L 408,1192 L 409,1204 L 408,1216 L 404,1228 L 401,1234 L 416,1249 L 3424,1249 L 4084,588 L 4084,253 L 4082,252 L 4070,248 L 4058,240 L 4048,231 L 4040,219 L 4035,207 L 4032,193 L 4031,162 L 4033,149 L 4037,136 L 4044,124 L 4053,113 L 4063,105 L 4076,99 L 4089,95 L 4103,95 L 4116,97 L 4129,101 L 4141,109 L 4151,118 L 4159,129 L 4164,142 L 4167,156 L 4167,186 L 4166,200 L 4162,213 L 4155,225 L 4146,236 L 4135,244 L 4123,250 L 4114,252 L 4114,594 L 4114,597 L 4113,600 L 4112,603 L 4110,605 L 3441,1274 L 3438,1276 L 3436,1278 L 3433,1279 L 3430,1279 L 409,1279 L 406,1279 L 404,1278 L 401,1276 L 399,1274 L 380,1256 z " style="fill-opacity:1.000000;fill:rgb(31,218,176);stroke:rgb(0,0,0);stroke-width:2"/></g>
<g fill-rule="evenodd"><path d="M 2165,253 L 2162,252 L 2150,248 L 2138,240 L 2128,231 L 2120,219 L 2115,207 L 2112,193 L 2112,162 L 2113,149 L 2117,136 L 2124,124 L 2133,113 L 2144,105 L 2156,99 L 2169,95 L 2183,95 L 2197,97 L 2209,101 L 2221,109 L 2231,118 L 2239,129 L 2244,142 L 2247,156 L 2248,186 L 2246,200 L 2242,213 L 2235,225 L 2226,236 L 2215,244 L 2203,250 L 2195,252 L 2195,458 L 2198,458 L 2209,463 L 2219,471 L 2227,480 L 2233,490 L 2237,502 L 2239,514 L 2237,527 L 2233,539 L 2227,549 L 2219,558 L 2209,566 L 2198,571 L 2186,573 L 2173,573 L 2161,571 L 2150,566 L 2140,558 L 2132,549 L 2126,539 L 2122,527 L 2120,514 L 2122,502 L 2126,490 L 2132,480 L 2140,471 L 2150,463 L 2161,458 L 2165,458 L 2165,253 z " style="fill-opacity:1.000000;fill:rgb(202,153,2);stroke:rgb(0,0,0);stroke-width:2"/></g>
<g fill-rule="evenodd"><path d="M 4514,3896 L 4516,3897 L 4529,3901 L 4541,3909 L 4551,3918 L 4559,3929 L 4564,3942 L 4567,3956 L 4567,3986 L 4566,4000 L 4562,4013 L 4555,4025 L 4546,4036 L 4535,4044 L 4523,4050 L 4510,4054 L 4496,4054 L 4482,4052 L 4469,4047 L 4458,4040 L 4448,4031 L 4440,4019 L 4435,4007 L 4432,3993 L 4431,3962 L 4433,3949 L 4437,3936 L 4444,3924 L 4453,3913 L 4463,3905 L 4476,3899 L 4484,3896 L 4484,3871 L 4482,3868 L 4481,3865 L 4480,3862 L 4479,3859 L 4479,3126 L 3939,2585 L 3937,2583 L 3936,2580 L 3935,2577 L 3934,2574 L 3934,2340 L 3923,2336 L 3911,2329 L 3901,2321 L 3893,2310 L 3887,2298 L 3883,2285 L 3883,2271 L 3885,2258 L 3889,2245 L 3897,2233 L 3906,2224 L 3917,2216 L 3929,2211 L 3943,2208 L 3949,2208 L 3963,2209 L 3976,2213 L 3988,2220 L 3998,2228 L 4006,2239 L 4012,2251 L 4016,2264 L 4016,2278 L 4014,2291 L 4010,2304 L 4002,2315 L 3993,2325 L 3982,2333 L 3969,2338 L 3964,2339 L 3964,2568 L 4505,3109 L 4507,3111 L 4508,3114 L 4509,3116 L 4509,3119 L 4509,3853 L 4512,3856 L 4513,3859 L 4514,3861 L 4514,3864 L 4514,3896 z " style="fill-opacity:1.000000;fill:rgb(185,114,157);stroke:rgb(0,0,0);stroke-width:2"/></g>
<g fill-rule="evenodd"><path d="M 3684,253 L 3682,252 L 3670,248 L 3658,240 L 3648,231 L 3640,219 L 3635,207 L 3632,193 L 3631,162 L 3633,149 L 3637,136 L 3644,124 L 3653,113 L 3663,105 L 3676,99 L 3689,95 L 3703,95 L 3717,97 L 3729,101 L 3741,109 L 3751,118 L 3759,129 L 3764,142 L 3767,156 L 3767,186 L 3766,200 L 3762,213 L 3755,225 L 3746,236 L 3735,244 L 3723,250 L 3714,252 L 3714,738 L 3718,738 L 3729,743 L 3739,751 L 3747,760 L 3753,770 L 3757,782 L 3759,794 L 3757,807 L 3753,818 L 3747,829 L 3739,838 L 3729,846 L 3718,851 L 3706,853 L 3693,853 L 3681,851 L 3670,846 L 3660,838 L 3652,829 L 3646,818 L 3642,807 L 3640,794 L 3642,782 L 3646,770 L 3652,760 L 3660,751 L 3670,743 L 3681,738 L 3684,738 L 3684,253 z " style="fill-opacity:1.000000;fill:rgb(73,44,128);stroke:rgb(0,0,0);stroke-width:2"/></g>
<g fill-rule="evenodd"><path d="M 3084,253 L 3082,252 L 3070,248 L 3058,240 L 3048,231 L 3040,219 L 3035,207 L 3032,193 L 3031,162 L 3033,149 L 3037,136 L 3044,124 L 3053,113 L 3064,105 L 3076,99 L 3089,95 L 3103,95 L 3117,97 L 3129,101 L 3141,109 L 3151,118 L 3159,129 L 3164,142 L 3167,156 L 3167,186 L 3166,200 L 3162,213 L 3155,225 L 3146,236 L 3135,244 L 3123,250 L 3114,252 L 3114,798 L 3118,798 L 3129,803 L 3139,811 L 3147,820 L 3153,830 L 3157,842 L 3159,854 L 3157,867 L 3153,878 L 3147,889 L 3139,898 L 3129,906 L 3118,911 L 3106,913 L 3093,913 L 3081,911 L 3070,906 L 3060,898 L 3052,889 L 3046,878 L 3042,867 L 3040,854 L 3042,842 L 3046,830 L 3052,820 L 3060,811 L 3070,803 L 3081,798 L 3084,798 L 3084,253 z " style="fill-opacity:1.000000;fill:rgb(126,197,153);stroke:rgb(0,0,0);stroke-width:2"/></g>
<g fill-rule="evenodd"><path d="M 3314,788 L 3318,788 L 3329,793 L 3339,801 L 3347,810 L 3353,820 L 3357,832 L 3359,844 L 3357,857 L 3353,868 L 3347,879 L 3339,888 L 3329,896 L 3318,901 L 3306,903 L 3293,903 L 3281,901 L 3270,896 L 3260,888 L 3252,879 L 3246,868 L 3242,857 L 3240,844 L 3242,832 L 3246,820 L 3252,810 L 3260,801 L 3270,793 L 3281,788 L 3284,788 L 3284,253 L 3282,252 L 3270,248 L 3258,240 L 3248,231 L 3240,219 L 3235,207 L 3232,193 L 3231,162 L 3233,149 L 3237,136 L 3244,124 L 3253,113 L 3264,105 L 3276,99 L 3289,95 L 3303,95 L 3317,97 L 3329,101 L 3341,109 L 3351,118 L 3359,129 L 3364,142 L 3367,156 L 3367,186 L 3366,200 L 3362,213 L 3355,225 L 3346,236 L 3335,244 L 3323,250 L 3314,252 L 3314,788 z " style="fill-opacity:1.000000;fill:rgb(213,233,128);stroke:rgb(0,0,0);stroke-width:2"/></g>
<g fill-rule="evenodd"><path d="M 3884,253 L 3882,252 L 3870,248 L 3858,240 L 3848,231 L 3840,219 L 3835,207 L 3832,193 L 3831,162 L 3833,149 L 3837,136 L 3844,124 L 3853,113 L 3863,105 L 3876,99 L 3889,95 L 3903,95 L 3917,97 L 3929,101 L 3941,109 L 3951,118 L 3959,129 L 3964,142 L 3967,156 L 3967,186 L 3966,200 L 3962,213 L 3955,225 L 3946,236 L 3935,244 L 3923,250 L 3914,252 L 3914,418 L 3918,418 L 3929,423 L 3939,431 L 3947,440 L 3953,450 L 3957,462 L 3959,474 L 3957,487 L 3953,499 L 3947,509 L 3939,518 L 3929,526 L 3918,531 L 3906,533 L 3893,533 L 3881,531 L 3870,526 L 3860,518 L 3852,509 L 3846,499 L 3842,487 L 3840,474 L 3842,462 L 3846,450 L 3852,440 L 3860,431 L 3870,423 L 3881,418 L 3884,418 L 3884,253 z " style="fill-opacity:1.000000;fill:rgb(178,234,201);stroke:rgb(0,0,0);stroke-width:2"/></g>
</svg>
