<?xml version="1.0" standalone="no"?>
<!DOCTYPE svg PUBLIC "-//W3C//DTD SVG 1.1//EN"
"http://www.w3.org/Graphics/SVG/1.1/DTD/svg11.dtd">
<svg width="4860" height="4134" viewBox="0 0 4860 4134" version="1.1"
xmlns="http://www.w3.org/2000/svg"
xmlns:xlink="http://www.w3.org/1999/xlink">
<g fill-rule="evenodd"><path d="M 75,1320 L 75,1317 L 75,1304 L 76,1301 L 78,1288 L 79,1284 L 82,1272 L 83,1267 L 88,1255 L 91,1248 L 97,1236 L 102,1227 L 110,1215 L 115,1208 L 120,1208 L 133,1208 L 143,1208 L 156,1208 L 167,1208 L 179,1208 L 192,1208 L 205,1208 L 219,1208 L 220,1210 L 221,1211 L 227,1222 L 228,1223 L 234,1234 L 235,1235 L 240,1245 L 241,1246 L 246,1255 L 247,1256 L 252,1266 L 253,1267 L 258,1276 L 259,1277 L 265,1287 L 265,1288 L 271,1299 L 272,1300 L 278,1311 L 279,1312 L 280,1314 L 279,1316 L 274,1325 L 272,1329 L 268,1337 L 266,1341 L 262,1348 L 260,1352 L 256,1359 L 254,1362 L 251,1369 L 248,1373 L 245,1380 L 243,1383 L 239,1391 L 237,1395 L 233,1402 L 231,1406 L 227,1414 L 225,1418 L 220,1426 L 220,1426 L 204,1426 L 191,1426 L 179,1426 L 166,1426 L 156,1426 L 143,1426 L 133,1426 L 120,1426 L 114,1426 L 110,1421 L 102,1409 L 97,1401 L 91,1388 L 88,1382 L 83,1369 L 82,1364 L 79,1352 L 78,1348 L 76,1336 L 75,1332 L 75,1320 z " style="fill-opacity:1.000000;fill:rgb(41,35,190);stroke:rgb(0,0,0);stroke-width:2"/></g>
<g fill-rule="evenodd"><path d="M 75,1099 L 75,1096 L 75,1084 L 76,1080 L 78,1068 L 79,1064 L 82,1051 L 83,1047 L 88,1034 L 91,1028 L 97,1015 L 102,1007 L 108,998 L 112,998 L 122,998 L 135,998 L 143,998 L 156,998 L 164,998 L 177,998 L 187,998 L 201,998 L 214,998 L 224,998 L 226,1000 L 227,1002 L 232,1012 L 233,1014 L 238,1023 L 239,1025 L 244,1035 L 244,1036 L 249,1045 L 250,1047 L 255,1056 L 255,1057 L 260,1066 L 261,1068 L 266,1077 L 267,1079 L 272,1090 L 273,1091 L 277,1099 L 274,1105 L 272,1108 L 268,1116 L 266,1120 L 262,1128 L 260,1132 L 256,1139 L 254,1142 L 251,1149 L 248,1153 L 245,1160 L 243,1163 L 239,1170 L 237,1174 L 233,1181 L 231,1185 L 227,1194 L 225,1197 L 220,1206 L 219,1208 L 205,1208 L 192,1208 L 179,1208 L 167,1208 L 156,1208 L 143,1208 L 133,1208 L 120,1208 L 115,1208 L 110,1201 L 102,1188 L 97,1180 L 91,1168 L 88,1161 L 83,1149 L 82,1144 L 79,1131 L 78,1128 L 76,1115 L 75,1112 L 75,1099 z " style="fill-opacity:1.000000;fill:rgb(132,225,108);stroke:rgb(0,0,0);stroke-width:2"/></g>
<g fill-rule="evenodd"><path d="M 75,899 L 75,896 L 75,884 L 76,880 L 78,868 L 79,864 L 79,862 L 85,853 L 88,851 L 97,842 L 99,839 L 109,831 L 112,828 L 122,821 L 126,819 L 138,813 L 143,810 L 156,805 L 164,802 L 177,798 L 188,795 L 203,793 L 220,790 L 221,790 L 227,802 L 232,815 L 237,827 L 239,834 L 241,838 L 245,850 L 249,859 L 255,870 L 262,880 L 270,891 L 274,896 L 272,898 L 269,904 L 266,910 L 264,916 L 261,922 L 259,927 L 256,932 L 253,938 L 251,944 L 249,948 L 246,953 L 243,959 L 240,965 L 238,969 L 235,975 L 233,981 L 230,987 L 227,993 L 224,998 L 214,998 L 201,998 L 187,998 L 177,998 L 164,998 L 156,998 L 143,998 L 135,998 L 122,998 L 112,998 L 108,998 L 102,988 L 97,980 L 91,968 L 88,961 L 83,949 L 82,944 L 79,931 L 78,928 L 76,915 L 75,912 L 75,899 z " style="fill-opacity:1.000000;fill:rgb(214,174,82);stroke:rgb(0,0,0);stroke-width:2"/></g>
<g fill-rule="evenodd"><path d="M 227,3391 L 227,3378 L 228,3369 L 230,3365 L 234,3358 L 236,3354 L 240,3347 L 241,3345 L 243,3343 L 254,3336 L 266,3329 L 274,3325 L 287,3319 L 293,3317 L 306,3313 L 310,3312 L 323,3309 L 327,3308 L 340,3307 L 343,3307 L 356,3307 L 360,3307 L 372,3308 L 376,3309 L 389,3312 L 394,3313 L 406,3317 L 412,3319 L 425,3325 L 433,3329 L 445,3336 L 456,3343 L 468,3352 L 483,3364 L 495,3375 L 515,3395 L 528,3409 L 556,3445 L 569,3462 L 590,3493 L 611,3528 L 624,3550 L 625,3552 L 616,3557 L 583,3574 L 574,3578 L 562,3584 L 557,3587 L 555,3587 L 551,3587 L 506,3589 L 500,3590 L 496,3590 L 492,3590 L 456,3593 L 453,3593 L 450,3594 L 436,3595 L 419,3597 L 416,3597 L 402,3599 L 400,3599 L 389,3600 L 371,3601 L 356,3595 L 343,3590 L 315,3577 L 304,3570 L 294,3565 L 283,3549 L 275,3537 L 262,3515 L 256,3503 L 248,3484 L 243,3472 L 238,3456 L 234,3443 L 231,3429 L 229,3417 L 228,3403 L 227,3391 z " style="fill-opacity:1.000000;fill:rgb(144,73,241);stroke:rgb(0,0,0);stroke-width:2"/></g>
<g fill-rule="evenodd"><path d="M 227,2740 L 227,2727 L 228,2721 L 231,2715 L 233,2710 L 237,2704 L 240,2699 L 243,2693 L 245,2688 L 248,2683 L 251,2677 L 254,2672 L 256,2667 L 260,2661 L 263,2656 L 266,2650 L 268,2645 L 272,2638 L 275,2633 L 279,2626 L 280,2624 L 294,2624 L 308,2624 L 320,2624 L 333,2624 L 343,2624 L 356,2624 L 367,2624 L 379,2624 L 392,2624 L 405,2624 L 422,2624 L 437,2624 L 462,2624 L 481,2624 L 527,2624 L 552,2624 L 667,2624 L 708,2624 L 760,2624 L 732,2658 L 705,2690 L 693,2704 L 666,2732 L 639,2758 L 627,2769 L 584,2804 L 572,2813 L 537,2835 L 531,2839 L 519,2839 L 476,2839 L 457,2839 L 434,2839 L 418,2839 L 403,2839 L 390,2839 L 378,2839 L 366,2839 L 356,2839 L 343,2839 L 334,2839 L 321,2839 L 310,2839 L 296,2839 L 281,2839 L 277,2839 L 273,2831 L 272,2830 L 267,2819 L 266,2817 L 261,2808 L 260,2806 L 255,2797 L 255,2796 L 250,2787 L 249,2785 L 244,2776 L 244,2775 L 239,2766 L 238,2764 L 233,2754 L 232,2752 L 227,2743 L 227,2740 z " style="fill-opacity:1.000000;fill:rgb(241,187,233);stroke:rgb(0,0,0);stroke-width:2"/></g>
<g fill-rule="evenodd"><path d="M 227,2521 L 227,2508 L 228,2497 L 229,2495 L 234,2487 L 235,2484 L 240,2475 L 242,2473 L 246,2465 L 247,2462 L 252,2454 L 253,2451 L 257,2444 L 259,2441 L 264,2433 L 265,2430 L 270,2421 L 272,2418 L 277,2409 L 279,2406 L 280,2404 L 294,2404 L 307,2404 L 320,2404 L 333,2404 L 343,2404 L 356,2404 L 367,2404 L 379,2404 L 392,2404 L 405,2404 L 422,2404 L 437,2404 L 463,2404 L 481,2404 L 528,2404 L 553,2404 L 669,2404 L 707,2404 L 708,2404 L 744,2432 L 780,2463 L 792,2474 L 825,2505 L 859,2539 L 837,2559 L 824,2570 L 792,2598 L 760,2624 L 708,2624 L 667,2624 L 552,2624 L 527,2624 L 481,2624 L 462,2624 L 437,2624 L 422,2624 L 405,2624 L 392,2624 L 379,2624 L 367,2624 L 356,2624 L 343,2624 L 333,2624 L 320,2624 L 308,2624 L 294,2624 L 280,2624 L 279,2622 L 277,2619 L 272,2610 L 270,2607 L 265,2598 L 264,2595 L 259,2587 L 257,2584 L 253,2577 L 252,2574 L 247,2566 L 246,2563 L 242,2556 L 240,2553 L 235,2545 L 234,2542 L 229,2533 L 228,2531 L 227,2521 z " style="fill-opacity:1.000000;fill:rgb(235,179,166);stroke:rgb(0,0,0);stroke-width:2"/></g>
<g fill-rule="evenodd"><path d="M 227,2300 L 227,2287 L 228,2281 L 231,2275 L 233,2270 L 237,2264 L 240,2258 L 243,2252 L 245,2248 L 248,2242 L 251,2237 L 254,2231 L 256,2227 L 260,2221 L 263,2216 L 266,2210 L 268,2205 L 272,2198 L 275,2193 L 279,2186 L 280,2184 L 294,2184 L 308,2184 L 320,2184 L 333,2184 L 343,2184 L 356,2184 L 367,2184 L 379,2184 L 392,2184 L 405,2184 L 422,2184 L 437,2184 L 458,2184 L 461,2185 L 473,2191 L 496,2202 L 508,2209 L 535,2227 L 548,2236 L 581,2263 L 594,2274 L 637,2318 L 649,2332 L 678,2365 L 707,2403 L 707,2404 L 669,2404 L 553,2404 L 528,2404 L 481,2404 L 463,2404 L 437,2404 L 422,2404 L 405,2404 L 392,2404 L 379,2404 L 367,2404 L 356,2404 L 343,2404 L 333,2404 L 320,2404 L 307,2404 L 294,2404 L 280,2404 L 279,2402 L 275,2395 L 272,2390 L 269,2384 L 266,2378 L 263,2372 L 259,2366 L 257,2361 L 254,2356 L 251,2351 L 248,2345 L 245,2340 L 243,2335 L 240,2330 L 236,2324 L 233,2318 L 230,2313 L 228,2308 L 227,2300 z " style="fill-opacity:1.000000;fill:rgb(219,60,135);stroke:rgb(0,0,0);stroke-width:2"/></g>
<g fill-rule="evenodd"><path d="M 1195,4134 L 1195,4097 L 1195,4083 L 1195,4054 L 1195,4020 L 1195,3998 L 1196,3967 L 1195,3929 L 1195,3918 L 1195,3904 L 1195,3895 L 1196,3811 L 1196,3798 L 1196,3797 L 1196,3763 L 1196,3763 L 1256,3724 L 1270,3716 L 1311,3693 L 1352,3673 L 1366,3667 L 1403,3651 L 1439,3638 L 1453,3633 L 1487,3622 L 1521,3613 L 1534,3610 L 1566,3604 L 1598,3599 L 1612,3597 L 1674,3592 L 1688,3592 L 1749,3593 L 1763,3595 L 1800,3599 L 1800,3605 L 1799,3674 L 1799,3713 L 1800,3743 L 1800,3775 L 1799,3789 L 1799,3815 L 1800,3822 L 1800,3845 L 1799,3847 L 1800,3867 L 1800,3867 L 1800,3884 L 1799,3886 L 1799,3899 L 1800,3901 L 1800,3912 L 1799,3915 L 1799,3924 L 1800,3927 L 1800,3935 L 1799,3938 L 1799,3945 L 1800,3949 L 1800,3955 L 1799,3959 L 1799,3963 L 1800,3986 L 1800,3990 L 1799,3994 L 1799,4000 L 1800,4003 L 1800,4011 L 1799,4014 L 1799,4022 L 1800,4025 L 1800,4034 L 1799,4037 L 1799,4048 L 1800,4050 L 1800,4063 L 1799,4064 L 1800,4081 L 1800,4082 L 1800,4102 L 1799,4104 L 1799,4127 L 1800,4134 L 1195,4134 z " style="fill-opacity:1.000000;fill:rgb(12,62,153);stroke:rgb(0,0,0);stroke-width:2"/></g>
<g fill-rule="evenodd"><path d="M 1800,4134 L 1799,4127 L 1799,4104 L 1800,4102 L 1800,4082 L 1800,4081 L 1799,4064 L 1800,4063 L 1800,4050 L 1799,4048 L 1799,4037 L 1800,4034 L 1800,4025 L 1799,4022 L 1799,4014 L 1800,4011 L 1800,4003 L 1799,4000 L 1799,3994 L 1800,3990 L 1800,3986 L 1799,3963 L 1799,3959 L 1800,3955 L 1800,3949 L 1799,3945 L 1799,3938 L 1800,3935 L 1800,3927 L 1799,3924 L 1799,3915 L 1800,3912 L 1800,3901 L 1799,3899 L 1799,3886 L 1800,3884 L 1800,3867 L 1800,3867 L 1799,3847 L 1800,3845 L 1800,3822 L 1799,3815 L 1799,3789 L 1800,3775 L 1800,3743 L 1799,3713 L 1799,3674 L 1800,3605 L 1800,3599 L 1812,3597 L 1874,3592 L 1879,3592 L 1888,3595 L 1945,3621 L 1958,3627 L 1999,3651 L 1999,3674 L 1999,3713 L 2000,3743 L 2000,3775 L 1999,3789 L 1999,3815 L 2000,3822 L 2000,3845 L 1999,3847 L 2000,3867 L 2000,3867 L 2000,3884 L 1999,3886 L 1999,3899 L 2000,3901 L 2000,3912 L 1999,3915 L 1999,3924 L 2000,3927 L 2000,3935 L 1999,3938 L 1999,3945 L 2000,3949 L 2000,3955 L 1999,3959 L 1999,3963 L 2000,3986 L 2000,3990 L 1999,3994 L 1999,4000 L 2000,4003 L 2000,4011 L 1999,4014 L 1999,4022 L 2000,4025 L 2000,4034 L 1999,4037 L 1999,4048 L 2000,4050 L 2000,4063 L 1999,4064 L 2000,4081 L 2000,4082 L 2000,4102 L 1999,4104 L 1999,4127 L 2000,4134 L 1800,4134 z " style="fill-opacity:1.000000;fill:rgb(36,94,13);stroke:rgb(0,0,0);stroke-width:2"/></g>
<g fill-rule="evenodd"><path d="M 2000,4134 L 1999,4127 L 1999,4104 L 2000,4102 L 2000,4082 L 2000,4081 L 1999,4064 L 2000,4063 L 2000,4050 L 1999,4048 L 1999,4037 L 2000,4034 L 2000,4025 L 1999,4022 L 1999,4014 L 2000,4011 L 2000,4003 L 1999,4000 L 1999,3994 L 2000,3990 L 2000,3986 L 1999,3963 L 1999,3959 L 2000,3955 L 2000,3949 L 1999,3945 L 1999,3938 L 2000,3935 L 2000,3927 L 1999,3924 L 1999,3915 L 2000,3912 L 2000,3901 L 1999,3899 L 1999,3886 L 2000,3884 L 2000,3867 L 2000,3867 L 1999,3847 L 2000,3845 L 2000,3822 L 1999,3815 L 1999,3789 L 2000,3775 L 2000,3743 L 1999,3713 L 1999,3674 L 1999,3651 L 2013,3654 L 2028,3658 L 2078,3675 L 2092,3680 L 2133,3698 L 2146,3705 L 2180,3724 L 2192,3732 L 2200,3737 L 2200,3743 L 2200,3775 L 2199,3789 L 2199,3815 L 2200,3822 L 2200,3845 L 2199,3847 L 2199,3867 L 2200,3867 L 2200,3884 L 2199,3886 L 2199,3899 L 2200,3901 L 2200,3912 L 2199,3915 L 2199,3924 L 2200,3927 L 2200,3935 L 2199,3938 L 2199,3945 L 2200,3949 L 2200,3955 L 2199,3959 L 2199,3963 L 2200,3986 L 2200,3990 L 2199,3994 L 2199,4000 L 2200,4003 L 2200,4011 L 2199,4014 L 2199,4022 L 2200,4025 L 2200,4034 L 2199,4037 L 2199,4048 L 2200,4050 L 2200,4063 L 2199,4064 L 2199,4081 L 2200,4082 L 2200,4102 L 2199,4104 L 2199,4127 L 2200,4134 L 2000,4134 z " style="fill-opacity:1.000000;fill:rgb(28,6,183);stroke:rgb(0,0,0);stroke-width:2"/></g>
<g fill-rule="evenodd"><path d="M 2200,4134 L 2199,4127 L 2199,4104 L 2200,4102 L 2200,4082 L 2199,4081 L 2199,4064 L 2200,4063 L 2200,4050 L 2199,4048 L 2199,4037 L 2200,4034 L 2200,4025 L 2199,4022 L 2199,4014 L 2200,4011 L 2200,4003 L 2199,4000 L 2199,3994 L 2200,3990 L 2200,3986 L 2199,3963 L 2199,3959 L 2200,3955 L 2200,3949 L 2199,3945 L 2199,3938 L 2200,3935 L 2200,3927 L 2199,3924 L 2199,3915 L 2200,3912 L 2200,3901 L 2199,3899 L 2199,3886 L 2200,3884 L 2200,3867 L 2199,3867 L 2199,3847 L 2200,3845 L 2200,3822 L 2199,3815 L 2199,3789 L 2200,3775 L 2200,3743 L 2200,3737 L 2236,3745 L 2251,3749 L 2282,3759 L 2296,3764 L 2321,3775 L 2334,3782 L 2355,3794 L 2366,3801 L 2384,3814 L 2395,3822 L 2400,3826 L 2400,3845 L 2399,3847 L 2399,3867 L 2400,3867 L 2400,3884 L 2399,3886 L 2399,3899 L 2400,3901 L 2400,3912 L 2399,3915 L 2399,3924 L 2400,3927 L 2400,3935 L 2399,3938 L 2399,3945 L 2400,3949 L 2400,3955 L 2399,3959 L 2399,3963 L 2400,3986 L 2400,3990 L 2399,3994 L 2399,4000 L 2400,4003 L 2400,4011 L 2399,4014 L 2399,4022 L 2400,4025 L 2400,4034 L 2399,4037 L 2399,4048 L 2400,4050 L 2400,4063 L 2399,4064 L 2399,4081 L 2400,4082 L 2400,4102 L 2399,4104 L 2399,4127 L 2400,4134 L 2200,4134 z " style="fill-opacity:1.000000;fill:rgb(71,222,179);stroke:rgb(0,0,0);stroke-width:2"/></g>
<g fill-rule="evenodd"><path d="M 2400,4134 L 2399,4127 L 2399,4104 L 2400,4102 L 2400,4082 L 2399,4081 L 2399,4064 L 2400,4063 L 2400,4050 L 2399,4048 L 2399,4037 L 2400,4034 L 2400,4025 L 2399,4022 L 2399,4014 L 2400,4011 L 2400,4003 L 2399,4000 L 2399,3994 L 2400,3990 L 2400,3986 L 2399,3963 L 2399,3959 L 2400,3955 L 2400,3949 L 2399,3945 L 2399,3938 L 2400,3935 L 2400,3927 L 2399,3924 L 2399,3915 L 2400,3912 L 2400,3901 L 2399,3899 L 2399,3886 L 2400,3884 L 2400,3867 L 2399,3867 L 2399,3847 L 2400,3845 L 2400,3826 L 2403,3827 L 2427,3829 L 2443,3832 L 2460,3836 L 2475,3840 L 2487,3844 L 2501,3849 L 2509,3853 L 2522,3859 L 2529,3863 L 2541,3871 L 2546,3875 L 2557,3883 L 2561,3887 L 2571,3897 L 2575,3901 L 2584,3912 L 2588,3917 L 2596,3929 L 2600,3935 L 2600,3935 L 2599,3938 L 2599,3945 L 2600,3949 L 2600,3955 L 2599,3959 L 2599,3963 L 2600,3986 L 2600,3990 L 2599,3994 L 2599,4000 L 2600,4003 L 2600,4011 L 2599,4014 L 2599,4022 L 2600,4025 L 2600,4034 L 2599,4037 L 2599,4048 L 2600,4050 L 2600,4063 L 2599,4064 L 2599,4081 L 2600,4082 L 2600,4102 L 2599,4104 L 2599,4127 L 2600,4134 L 2400,4134 z " style="fill-opacity:1.000000;fill:rgb(18,77,200);stroke:rgb(0,0,0);stroke-width:2"/></g>
<g fill-rule="evenodd"><path d="M 3000,4134 L 2999,4127 L 2999,4104 L 3000,4102 L 2999,4082 L 2999,4081 L 2999,4064 L 3000,4063 L 3000,4050 L 2999,4048 L 2999,4037 L 3000,4034 L 3000,4025 L 2999,4022 L 2999,4014 L 3000,4011 L 3000,4003 L 2999,4000 L 2999,3994 L 3000,3990 L 3000,3986 L 2999,3963 L 2999,3959 L 3000,3955 L 3000,3949 L 2999,3945 L 2999,3938 L 3000,3935 L 3000,3927 L 2999,3924 L 2999,3915 L 3000,3912 L 3000,3901 L 2999,3899 L 2999,3886 L 3000,3884 L 2999,3867 L 2999,3867 L 2999,3847 L 3000,3845 L 3000,3822 L 2999,3815 L 2999,3789 L 2999,3785 L 3005,3786 L 3022,3789 L 3049,3795 L 3064,3799 L 3085,3806 L 3099,3811 L 3115,3818 L 3128,3825 L 3140,3832 L 3152,3840 L 3163,3847 L 3174,3856 L 3183,3864 L 3193,3874 L 3202,3883 L 3211,3893 L 3218,3904 L 3226,3915 L 3234,3928 L 3240,3940 L 3247,3955 L 3260,3985 L 3264,3996 L 3269,4011 L 3277,4035 L 3281,4050 L 3287,4082 L 3287,4088 L 3289,4100 L 3291,4107 L 3291,4111 L 3295,4134 L 3000,4134 z " style="fill-opacity:1.000000;fill:rgb(67,187,139);stroke:rgb(0,0,0);stroke-width:2"/></g>
<g fill-rule="evenodd"><path d="M 3600,4134 L 3599,4127 L 3599,4104 L 3600,4102 L 3599,4082 L 3599,4081 L 3599,4064 L 3599,4063 L 3600,4050 L 3599,4048 L 3599,4037 L 3600,4034 L 3600,4025 L 3599,4022 L 3599,4014 L 3600,4011 L 3600,4003 L 3599,4000 L 3599,3994 L 3600,3990 L 3600,3986 L 3599,3963 L 3599,3959 L 3600,3955 L 3600,3949 L 3599,3945 L 3599,3938 L 3600,3935 L 3600,3927 L 3599,3924 L 3599,3915 L 3600,3912 L 3600,3901 L 3599,3899 L 3599,3886 L 3599,3884 L 3599,3867 L 3599,3867 L 3599,3847 L 3600,3845 L 3600,3822 L 3599,3815 L 3599,3789 L 3600,3775 L 3600,3743 L 3599,3713 L 3599,3674 L 3600,3605 L 3600,3551 L 3599,3361 L 3598,3304 L 3626,3224 L 3656,3236 L 3670,3241 L 3733,3267 L 3795,3296 L 3798,3298 L 3799,3361 L 3800,3551 L 3800,3605 L 3799,3674 L 3799,3713 L 3800,3743 L 3800,3775 L 3799,3789 L 3799,3815 L 3800,3822 L 3800,3845 L 3799,3847 L 3799,3867 L 3799,3867 L 3799,3884 L 3799,3886 L 3799,3899 L 3800,3901 L 3800,3912 L 3799,3915 L 3799,3924 L 3800,3927 L 3800,3935 L 3799,3938 L 3799,3945 L 3800,3949 L 3800,3955 L 3799,3959 L 3799,3963 L 3800,3986 L 3800,3990 L 3799,3994 L 3799,4000 L 3800,4003 L 3800,4011 L 3799,4014 L 3799,4022 L 3800,4025 L 3800,4034 L 3799,4037 L 3799,4048 L 3800,4050 L 3799,4063 L 3799,4064 L 3799,4081 L 3799,4082 L 3800,4102 L 3799,4104 L 3799,4127 L 3800,4134 L 3600,4134 z " style="fill-opacity:1.000000;fill:rgb(166,31,3);stroke:rgb(0,0,0);stroke-width:2"/></g>
<g fill-rule="evenodd"><path d="M 3800,4134 L 3799,4127 L 3799,4104 L 3800,4102 L 3799,4082 L 3799,4081 L 3799,4064 L 3799,4063 L 3800,4050 L 3799,4048 L 3799,4037 L 3800,4034 L 3800,4025 L 3799,4022 L 3799,4014 L 3800,4011 L 3800,4003 L 3799,4000 L 3799,3994 L 3800,3990 L 3800,3986 L 3799,3963 L 3799,3959 L 3800,3955 L 3800,3949 L 3799,3945 L 3799,3938 L 3800,3935 L 3800,3927 L 3799,3924 L 3799,3915 L 3800,3912 L 3800,3901 L 3799,3899 L 3799,3886 L 3799,3884 L 3799,3867 L 3799,3867 L 3799,3847 L 3800,3845 L 3800,3822 L 3799,3815 L 3799,3789 L 3800,3775 L 3800,3743 L 3799,3713 L 3799,3674 L 3800,3605 L 3800,3551 L 3799,3361 L 3798,3298 L 3860,3320 L 3874,3326 L 3935,3351 L 3979,3400 L 3991,3413 L 3999,3423 L 4000,3551 L 4000,3605 L 3999,3674 L 3999,3713 L 4000,3743 L 4000,3775 L 3999,3789 L 3999,3815 L 4000,3822 L 4000,3845 L 3999,3847 L 3999,3867 L 3999,3867 L 3999,3884 L 3999,3886 L 3999,3899 L 4000,3901 L 4000,3912 L 3999,3915 L 3999,3924 L 4000,3927 L 4000,3935 L 3999,3938 L 3999,3945 L 4000,3949 L 4000,3955 L 3999,3959 L 3999,3963 L 4000,3986 L 4000,3990 L 3999,3994 L 3999,4000 L 4000,4003 L 4000,4011 L 3999,4014 L 3999,4022 L 4000,4025 L 4000,4034 L 3999,4037 L 3999,4048 L 4000,4050 L 3999,4063 L 3999,4064 L 3999,4081 L 3999,4082 L 4000,4102 L 3999,4104 L 3999,4127 L 4000,4134 L 3800,4134 z " style="fill-opacity:1.000000;fill:rgb(90,125,9);stroke:rgb(0,0,0);stroke-width:2"/></g>
<g fill-rule="evenodd"><path d="M 4000,4134 L 3999,4127 L 3999,4104 L 4000,4102 L 3999,4082 L 3999,4081 L 3999,4064 L 3999,4063 L 4000,4050 L 3999,4048 L 3999,4037 L 4000,4034 L 4000,4025 L 3999,4022 L 3999,4014 L 4000,4011 L 4000,4003 L 3999,4000 L 3999,3994 L 4000,3990 L 4000,3986 L 3999,3963 L 3999,3959 L 4000,3955 L 4000,3949 L 3999,3945 L 3999,3938 L 4000,3935 L 4000,3927 L 3999,3924 L 3999,3915 L 4000,3912 L 4000,3901 L 3999,3899 L 3999,3886 L 3999,3884 L 3999,3867 L 3999,3867 L 3999,3847 L 4000,3845 L 4000,3822 L 3999,3815 L 3999,3789 L 4000,3775 L 4000,3743 L 3999,3713 L 3999,3674 L 4000,3605 L 4000,3551 L 3999,3423 L 4068,3485 L 4083,3498 L 4119,3535 L 4152,3571 L 4164,3585 L 4200,3629 L 4199,3674 L 4199,3713 L 4200,3743 L 4200,3775 L 4199,3789 L 4199,3815 L 4200,3822 L 4200,3845 L 4199,3847 L 4199,3867 L 4199,3867 L 4199,3884 L 4199,3886 L 4199,3899 L 4200,3901 L 4200,3912 L 4199,3915 L 4199,3924 L 4200,3927 L 4200,3935 L 4199,3938 L 4199,3945 L 4200,3949 L 4200,3955 L 4199,3959 L 4199,3963 L 4200,3986 L 4200,3990 L 4199,3994 L 4199,4000 L 4200,4003 L 4200,4011 L 4199,4014 L 4199,4022 L 4200,4025 L 4200,4034 L 4199,4037 L 4199,4048 L 4200,4050 L 4199,4063 L 4199,4064 L 4199,4081 L 4199,4082 L 4199,4102 L 4199,4104 L 4199,4127 L 4200,4134 L 4000,4134 z " style="fill-opacity:1.000000;fill:rgb(56,37,31);stroke:rgb(0,0,0);stroke-width:2"/></g>
<g fill-rule="evenodd"><path d="M 4200,4134 L 4199,4127 L 4199,4104 L 4199,4102 L 4199,4082 L 4199,4081 L 4199,4064 L 4199,4063 L 4200,4050 L 4199,4048 L 4199,4037 L 4200,4034 L 4200,4025 L 4199,4022 L 4199,4014 L 4200,4011 L 4200,4003 L 4199,4000 L 4199,3994 L 4200,3990 L 4200,3986 L 4199,3963 L 4199,3959 L 4200,3955 L 4200,3949 L 4199,3945 L 4199,3938 L 4200,3935 L 4200,3927 L 4199,3924 L 4199,3915 L 4200,3912 L 4200,3901 L 4199,3899 L 4199,3886 L 4199,3884 L 4199,3867 L 4199,3867 L 4199,3847 L 4200,3845 L 4200,3822 L 4199,3815 L 4199,3789 L 4200,3775 L 4200,3743 L 4199,3713 L 4199,3674 L 4200,3629 L 4208,3636 L 4226,3649 L 4254,3672 L 4279,3695 L 4293,3709 L 4326,3743 L 4338,3757 L 4358,3783 L 4368,3797 L 4381,3818 L 4389,3832 L 4398,3849 L 4399,3853 L 4399,3867 L 4399,3867 L 4399,3884 L 4399,3886 L 4399,3899 L 4399,3901 L 4400,3912 L 4399,3915 L 4399,3924 L 4400,3927 L 4400,3935 L 4399,3938 L 4399,3945 L 4400,3949 L 4400,3955 L 4399,3959 L 4399,3963 L 4400,3986 L 4400,3990 L 4399,3994 L 4399,4000 L 4400,4003 L 4400,4011 L 4399,4014 L 4399,4022 L 4400,4025 L 4400,4034 L 4399,4037 L 4399,4048 L 4399,4050 L 4399,4063 L 4399,4064 L 4399,4081 L 4399,4082 L 4399,4101 L 4399,4104 L 4399,4127 L 4400,4134 L 4200,4134 z " style="fill-opacity:1.000000;fill:rgb(93,212,203);stroke:rgb(0,0,0);stroke-width:2"/></g>
<g fill-rule="evenodd"><path d="M 1079,0 L 1079,15 L 1080,22 L 1080,45 L 1079,47 L 1080,67 L 1080,68 L 1080,84 L 1080,86 L 1079,99 L 1080,101 L 1080,112 L 1079,115 L 1079,124 L 1080,127 L 1080,135 L 1079,138 L 1079,145 L 1080,149 L 1080,155 L 1079,159 L 1079,163 L 1080,186 L 1080,190 L 1079,194 L 1079,200 L 1080,204 L 1080,211 L 1079,214 L 1079,222 L 1080,225 L 1080,234 L 1079,237 L 1079,248 L 1080,250 L 1080,263 L 1080,264 L 1080,281 L 1080,282 L 1080,302 L 1079,304 L 1079,327 L 1080,334 L 1080,360 L 1079,374 L 1079,405 L 1079,412 L 1050,431 L 1038,438 L 1007,454 L 1000,454 L 986,454 L 946,453 L 932,452 L 932,452 L 916,392 L 914,384 L 908,360 L 903,335 L 901,325 L 897,308 L 897,306 L 893,287 L 891,270 L 890,265 L 889,258 L 889,254 L 887,242 L 886,234 L 886,219 L 886,217 L 885,213 L 885,211 L 885,199 L 885,194 L 886,177 L 886,172 L 885,163 L 885,160 L 885,146 L 885,140 L 885,138 L 886,132 L 886,126 L 886,118 L 887,103 L 889,95 L 889,94 L 890,84 L 891,77 L 893,62 L 897,44 L 897,41 L 902,20 L 903,14 L 906,0 L 1079,0 z " style="fill-opacity:1.000000;fill:rgb(252,150,245);stroke:rgb(0,0,0);stroke-width:2"/></g>
<g fill-rule="evenodd"><path d="M 1279,0 L 1279,15 L 1280,22 L 1280,45 L 1279,47 L 1280,67 L 1280,68 L 1280,84 L 1280,86 L 1279,99 L 1280,101 L 1280,112 L 1279,115 L 1279,124 L 1280,127 L 1280,135 L 1279,138 L 1279,145 L 1280,149 L 1280,155 L 1279,159 L 1279,163 L 1280,186 L 1280,190 L 1279,194 L 1279,200 L 1280,204 L 1280,211 L 1279,214 L 1279,222 L 1280,225 L 1280,234 L 1279,237 L 1279,248 L 1280,250 L 1280,263 L 1280,264 L 1280,281 L 1280,282 L 1280,302 L 1279,304 L 1279,323 L 1277,324 L 1261,337 L 1250,345 L 1231,357 L 1219,364 L 1196,376 L 1183,382 L 1155,392 L 1140,397 L 1105,407 L 1089,410 L 1079,412 L 1079,405 L 1079,374 L 1080,360 L 1080,334 L 1079,327 L 1079,304 L 1080,302 L 1080,282 L 1080,281 L 1080,264 L 1080,263 L 1080,250 L 1079,248 L 1079,237 L 1080,234 L 1080,225 L 1079,222 L 1079,214 L 1080,211 L 1080,204 L 1079,200 L 1079,194 L 1080,190 L 1080,186 L 1079,163 L 1079,159 L 1080,155 L 1080,149 L 1079,145 L 1079,138 L 1080,135 L 1080,127 L 1079,124 L 1079,115 L 1080,112 L 1080,101 L 1079,99 L 1080,86 L 1080,84 L 1080,68 L 1080,67 L 1079,47 L 1080,45 L 1080,22 L 1079,15 L 1079,0 L 1279,0 z " style="fill-opacity:1.000000;fill:rgb(69,59,19);stroke:rgb(0,0,0);stroke-width:2"/></g>
<g fill-rule="evenodd"><path d="M 1479,0 L 1479,15 L 1480,22 L 1480,45 L 1479,47 L 1480,67 L 1480,68 L 1480,84 L 1479,86 L 1479,99 L 1480,101 L 1480,112 L 1479,115 L 1479,124 L 1480,127 L 1480,135 L 1479,138 L 1479,145 L 1480,149 L 1480,155 L 1479,159 L 1479,163 L 1480,186 L 1480,190 L 1479,194 L 1479,200 L 1480,204 L 1480,211 L 1479,214 L 1479,214 L 1474,223 L 1470,229 L 1462,240 L 1458,245 L 1449,255 L 1444,259 L 1434,268 L 1429,272 L 1418,280 L 1412,284 L 1399,291 L 1392,295 L 1378,301 L 1368,305 L 1354,309 L 1340,313 L 1324,317 L 1305,320 L 1287,322 L 1279,323 L 1279,304 L 1280,302 L 1280,282 L 1280,281 L 1280,264 L 1280,263 L 1280,250 L 1279,248 L 1279,237 L 1280,234 L 1280,225 L 1279,222 L 1279,214 L 1280,211 L 1280,204 L 1279,200 L 1279,194 L 1280,190 L 1280,186 L 1279,163 L 1279,159 L 1280,155 L 1280,149 L 1279,145 L 1279,138 L 1280,135 L 1280,127 L 1279,124 L 1279,115 L 1280,112 L 1280,101 L 1279,99 L 1280,86 L 1280,84 L 1280,68 L 1280,67 L 1279,47 L 1280,45 L 1280,22 L 1279,15 L 1279,0 L 1479,0 z " style="fill-opacity:1.000000;fill:rgb(13,137,10);stroke:rgb(0,0,0);stroke-width:2"/></g>
<g fill-rule="evenodd"><path d="M 2679,163 L 2679,159 L 2680,155 L 2680,149 L 2679,145 L 2679,138 L 2680,135 L 2680,127 L 2679,124 L 2679,115 L 2680,112 L 2680,110 L 2689,104 L 2697,100 L 2710,94 L 2716,92 L 2730,87 L 2734,86 L 2748,83 L 2752,82 L 2765,80 L 2768,80 L 2782,80 L 2785,80 L 2799,81 L 2802,81 L 2816,84 L 2820,84 L 2834,88 L 2839,90 L 2853,96 L 2859,99 L 2873,106 L 2882,111 L 2896,120 L 2908,129 L 2921,140 L 2937,155 L 2939,157 L 2939,164 L 2940,185 L 2939,194 L 2939,196 L 2939,210 L 2940,212 L 2940,226 L 2939,229 L 2939,244 L 2940,248 L 2940,263 L 2939,267 L 2939,283 L 2940,289 L 2940,306 L 2939,315 L 2939,327 L 2938,331 L 2924,362 L 2918,376 L 2898,412 L 2889,426 L 2859,468 L 2849,482 L 2828,508 L 2804,534 L 2791,548 L 2760,579 L 2726,610 L 2722,604 L 2711,585 L 2701,567 L 2698,563 L 2679,531 L 2680,475 L 2680,436 L 2679,405 L 2679,374 L 2680,360 L 2680,334 L 2679,327 L 2679,304 L 2680,302 L 2679,282 L 2679,281 L 2679,264 L 2680,263 L 2680,250 L 2679,248 L 2679,237 L 2680,234 L 2680,225 L 2679,222 L 2679,214 L 2680,211 L 2680,204 L 2679,200 L 2679,194 L 2680,190 L 2680,186 L 2679,163 z " style="fill-opacity:1.000000;fill:rgb(28,219,174);stroke:rgb(0,0,0);stroke-width:2"/></g>
<g fill-rule="evenodd"><path d="M 4199,163 L 4199,159 L 4200,155 L 4200,149 L 4199,145 L 4199,138 L 4200,135 L 4200,127 L 4199,124 L 4199,115 L 4200,112 L 4200,110 L 4209,104 L 4216,100 L 4230,94 L 4236,92 L 4250,87 L 4254,86 L 4268,83 L 4271,82 L 4285,80 L 4288,80 L 4302,80 L 4305,80 L 4319,81 L 4322,81 L 4336,84 L 4340,84 L 4354,88 L 4359,90 L 4372,96 L 4379,99 L 4393,106 L 4400,110 L 4400,112 L 4399,115 L 4399,124 L 4400,127 L 4400,135 L 4399,138 L 4399,145 L 4400,149 L 4400,155 L 4399,159 L 4399,163 L 4400,186 L 4400,190 L 4399,194 L 4399,200 L 4400,204 L 4400,211 L 4399,214 L 4399,222 L 4400,225 L 4400,234 L 4399,237 L 4399,248 L 4399,250 L 4399,263 L 4399,264 L 4399,281 L 4399,282 L 4399,302 L 4399,304 L 4399,327 L 4400,334 L 4400,360 L 4399,374 L 4399,405 L 4400,433 L 4378,463 L 4367,476 L 4356,491 L 4320,459 L 4306,445 L 4272,410 L 4260,396 L 4239,369 L 4230,355 L 4216,334 L 4208,320 L 4199,302 L 4199,302 L 4199,282 L 4199,281 L 4199,264 L 4199,263 L 4200,250 L 4199,248 L 4199,237 L 4200,234 L 4200,225 L 4199,222 L 4199,214 L 4200,211 L 4200,204 L 4199,200 L 4199,194 L 4200,190 L 4200,186 L 4199,163 z " style="fill-opacity:1.000000;fill:rgb(50,32,154);stroke:rgb(0,0,0);stroke-width:2"/></g>
<g fill-rule="evenodd"><path d="M 4399,163 L 4399,159 L 4400,155 L 4400,149 L 4399,145 L 4399,138 L 4400,135 L 4400,127 L 4399,124 L 4399,115 L 4400,112 L 4400,110 L 4409,104 L 4416,100 L 4430,94 L 4436,92 L 4450,87 L 4454,86 L 4468,83 L 4471,82 L 4485,80 L 4488,80 L 4502,80 L 4505,80 L 4519,81 L 4522,81 L 4532,83 L 4536,85 L 4538,87 L 4549,96 L 4552,98 L 4561,107 L 4564,110 L 4572,120 L 4574,123 L 4579,130 L 4580,135 L 4581,139 L 4582,153 L 4582,155 L 4582,186 L 4582,188 L 4582,202 L 4581,205 L 4579,219 L 4578,223 L 4575,236 L 4573,241 L 4568,255 L 4566,261 L 4559,275 L 4554,283 L 4546,297 L 4538,308 L 4527,322 L 4514,337 L 4501,351 L 4478,373 L 4462,386 L 4421,418 L 4401,431 L 4400,433 L 4399,405 L 4399,374 L 4400,360 L 4400,334 L 4399,327 L 4399,304 L 4399,302 L 4399,282 L 4399,281 L 4399,264 L 4399,263 L 4399,250 L 4399,248 L 4399,237 L 4400,234 L 4400,225 L 4399,222 L 4399,214 L 4400,211 L 4400,204 L 4399,200 L 4399,194 L 4400,190 L 4400,186 L 4399,163 z " style="fill-opacity:1.000000;fill:rgb(80,238,64);stroke:rgb(0,0,0);stroke-width:2"/></g>
<g fill-rule="evenodd"><path d="M 1879,163 L 1879,159 L 1880,155 L 1880,149 L 1879,145 L 1879,138 L 1880,135 L 1880,127 L 1879,124 L 1879,115 L 1880,112 L 1880,110 L 1889,104 L 1897,100 L 1910,94 L 1916,92 L 1930,87 L 1934,86 L 1948,83 L 1952,82 L 1965,80 L 1968,80 L 1982,80 L 1985,80 L 1999,81 L 2002,81 L 2016,84 L 2020,84 L 2034,88 L 2039,90 L 2053,96 L 2059,99 L 2073,106 L 2080,110 L 2080,112 L 2079,115 L 2079,124 L 2080,127 L 2080,135 L 2079,138 L 2079,145 L 2080,149 L 2080,155 L 2079,159 L 2079,163 L 2080,186 L 2080,190 L 2079,194 L 2079,200 L 2080,204 L 2080,211 L 2079,214 L 2079,222 L 2080,225 L 2080,234 L 2079,237 L 2079,248 L 2080,250 L 2080,263 L 2079,264 L 2080,281 L 2080,282 L 2080,302 L 2080,302 L 2080,302 L 2080,411 L 2078,415 L 2073,427 L 2072,430 L 2073,446 L 2076,462 L 2078,475 L 2081,489 L 2084,498 L 2089,511 L 2091,518 L 2097,529 L 2099,534 L 2106,545 L 2108,548 L 2116,558 L 2119,561 L 2127,570 L 2130,573 L 2139,581 L 2142,583 L 2144,584 L 2154,586 L 2158,587 L 2170,588 L 2173,588 L 2186,588 L 2189,588 L 2201,587 L 2205,586 L 2215,584 L 2217,583 L 2220,581 L 2229,573 L 2232,570 L 2241,561 L 2243,558 L 2251,548 L 2253,545 L 2260,534 L 2262,529 L 2268,518 L 2270,511 L 2275,498 L 2278,489 L 2281,475 L 2283,462 L 2286,446 L 2287,430 L 2286,427 L 2281,415 L 2280,411 L 2280,302 L 2280,302 L 2280,302 L 2280,282 L 2279,281 L 2279,264 L 2280,263 L 2280,250 L 2279,248 L 2279,237 L 2280,234 L 2280,225 L 2279,222 L 2279,214 L 2280,211 L 2280,204 L 2279,200 L 2279,194 L 2280,190 L 2280,186 L 2279,163 L 2279,159 L 2280,155 L 2280,149 L 2279,145 L 2279,138 L 2280,135 L 2280,127 L 2279,124 L 2279,115 L 2280,112 L 2280,110 L 2289,104 L 2297,100 L 2310,94 L 2316,92 L 2330,87 L 2334,86 L 2348,83 L 2352,82 L 2365,80 L 2368,80 L 2382,80 L 2385,80 L 2399,81 L 2402,81 L 2416,84 L 2420,84 L 2434,88 L 2439,90 L 2453,96 L 2459,99 L 2473,106 L 2480,110 L 2489,104 L 2497,100 L 2510,94 L 2516,92 L 2530,87 L 2534,86 L 2548,83 L 2552,82 L 2565,80 L 2568,80 L 2582,80 L 2585,80 L 2599,81 L 2602,81 L 2616,84 L 2620,84 L 2634,88 L 2639,90 L 2653,96 L 2659,99 L 2673,106 L 2680,110 L 2680,112 L 2679,115 L 2679,124 L 2680,127 L 2680,135 L 2679,138 L 2679,145 L 2680,149 L 2680,155 L 2679,159 L 2679,163 L 2680,186 L 2680,190 L 2679,194 L 2679,200 L 2680,204 L 2680,211 L 2679,214 L 2679,222 L 2680,225 L 2680,234 L 2679,237 L 2679,248 L 2680,250 L 2680,263 L 2679,264 L 2679,281 L 2679,282 L 2680,302 L 2679,304 L 2679,327 L 2680,334 L 2680,360 L 2679,374 L 2679,405 L 2680,436 L 2680,475 L 2679,531 L 2698,563 L 2701,567 L 2711,585 L 2722,604 L 2726,610 L 2717,647 L 2716,650 L 2713,665 L 2712,667 L 2658,695 L 2655,696 L 2622,711 L 2410,799 L 2387,808 L 2384,809 L 2340,822 L 2337,823 L 2295,831 L 2292,831 L 2252,835 L 2249,836 L 2240,836 L 2228,847 L 2191,877 L 2179,886 L 2149,905 L 2137,912 L 2112,925 L 2099,931 L 2078,939 L 2065,943 L 2046,948 L 2033,951 L 2015,954 L 2003,955 L 1986,956 L 1973,956 L 1956,955 L 1944,954 L 1926,951 L 1913,948 L 1894,943 L 1881,939 L 1860,931 L 1847,925 L 1822,912 L 1810,905 L 1780,886 L 1768,877 L 1731,847 L 1719,836 L 1695,813 L 1672,788 L 1659,775 L 1640,752 L 1660,717 L 1666,706 L 1699,659 L 1703,653 L 1801,416 L 1825,389 L 1835,375 L 1852,351 L 1861,337 L 1872,317 L 1879,304 L 1880,302 L 1880,302 L 1880,282 L 1880,281 L 1879,264 L 1880,263 L 1880,250 L 1879,248 L 1879,237 L 1880,234 L 1880,225 L 1879,222 L 1879,214 L 1880,211 L 1880,204 L 1879,200 L 1879,194 L 1880,190 L 1880,186 L 1879,163 z " style="fill-opacity:1.000000;fill:rgb(120,54,253);stroke:rgb(0,0,0);stroke-width:2"/></g>
<g fill-rule="evenodd"><path d="M 227,2081 L 227,2067 L 227,2065 L 232,2055 L 233,2054 L 238,2044 L 239,2042 L 244,2033 L 244,2032 L 249,2023 L 250,2021 L 255,2012 L 255,2011 L 260,2002 L 261,2000 L 266,1990 L 267,1989 L 272,1978 L 273,1977 L 277,1969 L 281,1969 L 296,1969 L 310,1969 L 321,1969 L 334,1969 L 343,1969 L 356,1969 L 366,1969 L 378,1969 L 390,1969 L 403,1969 L 418,1969 L 434,1969 L 455,1969 L 456,1969 L 2984,1969 L 3001,1976 L 3013,1980 L 3029,1984 L 3042,1987 L 3051,1988 L 3057,1987 L 3071,1983 L 3083,1978 L 3096,1973 L 3105,1968 L 3117,1962 L 3124,1958 L 3135,1951 L 3141,1946 L 3150,1938 L 3156,1932 L 3164,1923 L 3169,1918 L 3177,1908 L 3182,1901 L 3188,1890 L 3193,1882 L 3198,1870 L 3203,1859 L 3208,1846 L 3212,1831 L 3215,1817 L 3219,1797 L 3221,1781 L 3223,1766 L 3230,1763 L 3240,1758 L 3242,1757 L 3260,1748 L 3262,1746 L 3277,1736 L 3280,1734 L 3293,1724 L 3295,1722 L 3301,1716 L 3544,1473 L 3550,1467 L 3553,1465 L 3566,1454 L 3568,1452 L 3583,1442 L 3586,1441 L 3589,1439 L 3590,1438 L 3604,1424 L 3614,1416 L 3630,1404 L 3640,1397 L 3659,1385 L 3671,1379 L 3693,1368 L 3706,1363 L 3734,1353 L 3747,1349 L 3784,1340 L 3798,1338 L 3847,1331 L 3863,1330 L 3895,1329 L 3930,1329 L 3948,1329 L 4009,1333 L 4036,1343 L 4052,1348 L 4060,1351 L 4076,1356 L 4121,1372 L 4114,1403 L 4110,1417 L 4096,1471 L 4087,1498 L 4085,1505 L 4084,1508 L 4083,1510 L 4065,1571 L 4065,1574 L 4064,1577 L 4060,1589 L 4048,1632 L 4047,1634 L 4043,1650 L 4040,1662 L 4032,1692 L 4031,1695 L 4029,1702 L 4016,1709 L 4007,1715 L 3995,1722 L 3966,1737 L 3938,1751 L 3926,1756 L 3883,1773 L 3875,1776 L 3863,1780 L 3819,1797 L 3807,1801 L 3764,1819 L 3752,1824 L 3706,1844 L 3693,1850 L 3683,1855 L 3655,1889 L 3631,1926 L 3608,1965 L 3589,2008 L 3534,2141 L 3510,2206 L 3506,2213 L 3488,2252 L 3472,2292 L 3466,2306 L 3450,2352 L 3435,2401 L 3431,2416 L 3431,2418 L 3415,2477 L 3414,2481 L 3404,2518 L 3373,2574 L 3366,2587 L 3364,2589 L 3339,2633 L 3337,2636 L 3283,2730 L 3280,2735 L 3251,2784 L 3249,2787 L 3167,2761 L 3089,2732 L 2816,2619 L 2765,2599 L 2762,2598 L 2714,2582 L 2665,2568 L 2662,2568 L 2616,2557 L 2570,2549 L 2567,2549 L 2523,2543 L 2478,2540 L 2475,2540 L 2431,2539 L 859,2539 L 825,2505 L 792,2474 L 780,2463 L 744,2432 L 708,2404 L 707,2404 L 707,2403 L 678,2365 L 649,2332 L 637,2318 L 594,2274 L 581,2263 L 548,2236 L 535,2227 L 508,2209 L 496,2202 L 473,2191 L 461,2185 L 458,2184 L 437,2184 L 422,2184 L 405,2184 L 392,2184 L 379,2184 L 367,2184 L 356,2184 L 343,2184 L 333,2184 L 320,2184 L 308,2184 L 294,2184 L 280,2184 L 279,2182 L 277,2179 L 272,2170 L 270,2167 L 265,2158 L 264,2155 L 259,2147 L 257,2144 L 253,2137 L 252,2134 L 247,2126 L 246,2123 L 242,2116 L 240,2113 L 235,2105 L 234,2102 L 229,2093 L 228,2091 L 227,2081 z " style="fill-opacity:1.000000;fill:rgb(18,73,50);stroke:rgb(0,0,0);stroke-width:2"/></g>
<g fill-rule="evenodd"><path d="M 227,1870 L 227,1857 L 228,1845 L 228,1845 L 234,1835 L 235,1833 L 240,1824 L 241,1822 L 246,1813 L 247,1812 L 252,1802 L 253,1801 L 258,1792 L 259,1791 L 264,1781 L 265,1780 L 271,1769 L 272,1768 L 278,1758 L 279,1756 L 280,1754 L 294,1754 L 308,1754 L 320,1754 L 333,1754 L 343,1754 L 356,1754 L 367,1754 L 379,1754 L 392,1754 L 405,1754 L 422,1754 L 437,1754 L 458,1754 L 459,1754 L 2982,1754 L 2998,1748 L 3010,1744 L 3027,1740 L 3040,1737 L 3056,1735 L 3068,1733 L 3083,1732 L 3096,1732 L 3111,1733 L 3123,1735 L 3139,1737 L 3152,1740 L 3169,1744 L 3181,1748 L 3201,1756 L 3213,1761 L 3223,1766 L 3221,1781 L 3219,1797 L 3215,1817 L 3212,1831 L 3208,1846 L 3203,1859 L 3198,1870 L 3193,1882 L 3188,1890 L 3182,1901 L 3177,1908 L 3169,1918 L 3164,1923 L 3156,1932 L 3150,1938 L 3141,1946 L 3135,1951 L 3124,1958 L 3117,1962 L 3105,1968 L 3096,1973 L 3083,1978 L 3071,1983 L 3057,1987 L 3051,1988 L 3042,1987 L 3029,1984 L 3013,1980 L 3001,1976 L 2984,1969 L 456,1969 L 455,1969 L 434,1969 L 418,1969 L 403,1969 L 390,1969 L 378,1969 L 366,1969 L 356,1969 L 343,1969 L 334,1969 L 321,1969 L 310,1969 L 296,1969 L 281,1969 L 277,1969 L 274,1963 L 272,1960 L 268,1951 L 266,1948 L 262,1940 L 260,1936 L 256,1929 L 254,1926 L 251,1919 L 248,1915 L 245,1908 L 243,1905 L 239,1898 L 237,1894 L 233,1886 L 231,1883 L 228,1875 L 227,1870 z " style="fill-opacity:1.000000;fill:rgb(246,158,125);stroke:rgb(0,0,0);stroke-width:2"/></g>
<g fill-rule="evenodd"><path d="M 223,1637 L 227,1630 L 230,1625 L 234,1618 L 236,1614 L 240,1607 L 241,1605 L 243,1603 L 254,1596 L 266,1589 L 274,1585 L 287,1579 L 293,1577 L 306,1573 L 310,1572 L 323,1569 L 327,1568 L 340,1567 L 343,1567 L 356,1567 L 360,1567 L 372,1568 L 376,1569 L 389,1572 L 394,1573 L 406,1577 L 412,1579 L 425,1585 L 433,1589 L 433,1589 L 2105,1589 L 2113,1593 L 2120,1596 L 2133,1600 L 2139,1601 L 2151,1604 L 2156,1605 L 2169,1606 L 2173,1606 L 2186,1606 L 2191,1606 L 2203,1605 L 2208,1604 L 2220,1601 L 2226,1600 L 2239,1596 L 2246,1593 L 2258,1587 L 2268,1582 L 2280,1575 L 2292,1568 L 2304,1559 L 2320,1545 L 2333,1534 L 2355,1512 L 2357,1509 L 3174,1509 L 3183,1505 L 3197,1505 L 3213,1503 L 3237,1500 L 3251,1498 L 3268,1494 L 3281,1490 L 3293,1485 L 3306,1480 L 3315,1476 L 3326,1470 L 3333,1465 L 3344,1458 L 3350,1454 L 3359,1446 L 3364,1441 L 3373,1432 L 3377,1426 L 3385,1417 L 3389,1410 L 3396,1399 L 3400,1391 L 3406,1379 L 3410,1369 L 3415,1356 L 3419,1343 L 3430,1338 L 3436,1336 L 3439,1335 L 3448,1329 L 3451,1328 L 3460,1322 L 3462,1320 L 3469,1314 L 3472,1312 L 3475,1309 L 3793,991 L 3797,979 L 3801,970 L 3807,959 L 3810,952 L 3817,941 L 3820,936 L 3828,926 L 3832,922 L 3840,913 L 3844,909 L 3854,901 L 3858,897 L 3869,890 L 3874,887 L 3886,880 L 3893,877 L 3906,872 L 3916,868 L 3929,864 L 3943,861 L 3958,858 L 3978,855 L 3994,854 L 4025,853 L 4043,854 L 4089,858 L 4109,860 L 4146,866 L 4186,875 L 4209,880 L 4274,898 L 4276,929 L 4277,941 L 4278,974 L 4277,1008 L 4276,1020 L 4274,1054 L 4269,1088 L 4267,1101 L 4259,1142 L 4246,1168 L 4241,1179 L 4228,1204 L 4212,1234 L 4207,1243 L 4201,1254 L 4175,1303 L 4162,1326 L 4157,1334 L 4156,1338 L 4148,1350 L 4121,1372 L 4076,1356 L 4060,1351 L 4052,1348 L 4036,1343 L 4009,1333 L 3948,1329 L 3930,1329 L 3895,1329 L 3863,1330 L 3847,1331 L 3798,1338 L 3784,1340 L 3747,1349 L 3734,1353 L 3706,1363 L 3693,1368 L 3671,1379 L 3659,1385 L 3640,1397 L 3630,1404 L 3614,1416 L 3604,1424 L 3590,1438 L 3589,1439 L 3586,1441 L 3583,1442 L 3568,1452 L 3566,1454 L 3553,1465 L 3550,1467 L 3544,1473 L 3301,1716 L 3295,1722 L 3293,1724 L 3280,1734 L 3277,1736 L 3262,1746 L 3260,1748 L 3242,1757 L 3240,1758 L 3230,1763 L 3223,1766 L 3213,1761 L 3201,1756 L 3181,1748 L 3169,1744 L 3152,1740 L 3139,1737 L 3123,1735 L 3111,1733 L 3096,1732 L 3083,1732 L 3068,1733 L 3056,1735 L 3040,1737 L 3027,1740 L 3010,1744 L 2998,1748 L 2982,1754 L 459,1754 L 458,1754 L 437,1754 L 422,1754 L 405,1754 L 392,1754 L 379,1754 L 367,1754 L 356,1754 L 343,1754 L 333,1754 L 320,1754 L 308,1754 L 294,1754 L 280,1754 L 279,1752 L 274,1744 L 272,1740 L 268,1732 L 266,1728 L 262,1720 L 260,1717 L 256,1709 L 254,1706 L 251,1699 L 248,1695 L 245,1688 L 243,1685 L 239,1678 L 237,1674 L 233,1667 L 231,1663 L 227,1655 L 225,1651 L 220,1642 L 220,1642 L 220,1642 L 223,1637 z " style="fill-opacity:1.000000;fill:rgb(73,220,173);stroke:rgb(0,0,0);stroke-width:2"/></g>
<g fill-rule="evenodd"><path d="M 906,0 L 903,14 L 902,20 L 897,41 L 897,44 L 893,62 L 891,77 L 890,84 L 889,94 L 889,95 L 887,103 L 886,118 L 886,126 L 886,132 L 885,138 L 885,140 L 885,146 L 885,160 L 885,163 L 886,172 L 886,177 L 885,194 L 885,199 L 885,211 L 885,213 L 886,217 L 886,219 L 886,234 L 887,242 L 889,254 L 889,258 L 890,265 L 891,270 L 893,287 L 897,306 L 897,308 L 901,325 L 903,335 L 908,360 L 914,384 L 916,392 L 932,452 L 932,452 L 946,453 L 986,454 L 1000,454 L 1007,454 L 1038,438 L 1050,431 L 1079,412 L 1089,410 L 1105,407 L 1140,397 L 1155,392 L 1183,382 L 1196,376 L 1219,364 L 1231,357 L 1250,345 L 1261,337 L 1277,324 L 1279,323 L 1287,322 L 1305,320 L 1324,317 L 1340,313 L 1354,309 L 1368,305 L 1378,301 L 1392,295 L 1399,291 L 1412,284 L 1418,280 L 1429,272 L 1434,268 L 1444,259 L 1449,255 L 1458,245 L 1462,240 L 1470,229 L 1474,223 L 1479,214 L 1479,214 L 1480,211 L 1480,204 L 1479,200 L 1479,194 L 1480,190 L 1480,186 L 1479,163 L 1479,159 L 1480,155 L 1480,149 L 1479,145 L 1479,138 L 1480,135 L 1480,127 L 1479,124 L 1479,115 L 1480,112 L 1480,101 L 1479,99 L 1479,86 L 1480,84 L 1480,68 L 1480,67 L 1479,47 L 1480,45 L 1480,22 L 1479,15 L 1479,0 L 4604,0 L 4699,94 L 4699,95 L 4699,992 L 4700,993 L 4700,994 L 4700,995 L 4701,996 L 4859,1154 L 4859,3814 L 4754,3920 L 4751,3918 L 4735,3907 L 4716,3893 L 4702,3883 L 4688,3874 L 4683,3871 L 4662,3858 L 4657,3854 L 4650,3849 L 4628,3837 L 4627,3836 L 4620,3832 L 4618,3830 L 4618,3830 L 4609,3818 L 4588,3784 L 4579,3769 L 4562,3736 L 4557,3725 L 4544,3692 L 4542,3685 L 4533,3651 L 4532,3646 L 4527,3613 L 4526,3609 L 4524,3576 L 4524,3573 L 4526,3539 L 4527,3536 L 4532,3502 L 4533,3498 L 4542,3464 L 4544,3457 L 4557,3424 L 4562,3413 L 4579,3380 L 4588,3364 L 4597,3350 L 4597,3119 L 4597,3111 L 4597,3108 L 4595,3090 L 4594,3088 L 4591,3070 L 4590,3067 L 4584,3048 L 4583,3045 L 4579,3034 L 4523,2898 L 4224,2599 L 4213,2588 L 4211,2586 L 4191,2561 L 4189,2558 L 4170,2530 L 4169,2528 L 4152,2495 L 4150,2493 L 4150,2491 L 4149,2474 L 4149,2428 L 4155,2410 L 4159,2397 L 4167,2362 L 4169,2349 L 4173,2316 L 4174,2302 L 4175,2270 L 4175,2256 L 4175,2249 L 4151,2229 L 4137,2219 L 4113,2202 L 4110,2200 L 4089,2198 L 4062,2196 L 4044,2193 L 4031,2190 L 4017,2186 L 4016,2186 L 4008,2183 L 3994,2180 L 3987,2178 L 3973,2176 L 3966,2175 L 3953,2175 L 3948,2174 L 3941,2175 L 3936,2175 L 3922,2176 L 3915,2177 L 3902,2180 L 3894,2182 L 3883,2186 L 3880,2187 L 3870,2189 L 3854,2193 L 3836,2196 L 3814,2198 L 3770,2201 L 3735,2202 L 3546,2206 L 3510,2206 L 3534,2141 L 3589,2008 L 3608,1965 L 3631,1926 L 3655,1889 L 3683,1855 L 3693,1850 L 3706,1844 L 3752,1824 L 3764,1819 L 3807,1801 L 3819,1797 L 3863,1780 L 3875,1776 L 3883,1773 L 3926,1756 L 3938,1751 L 3966,1737 L 3995,1722 L 4007,1715 L 4016,1709 L 4029,1702 L 4031,1695 L 4032,1692 L 4040,1662 L 4043,1650 L 4047,1634 L 4048,1632 L 4060,1589 L 4064,1577 L 4065,1574 L 4065,1571 L 4083,1510 L 4084,1508 L 4085,1505 L 4087,1498 L 4096,1471 L 4110,1417 L 4114,1403 L 4121,1372 L 4148,1350 L 4156,1338 L 4157,1334 L 4162,1326 L 4175,1303 L 4201,1254 L 4207,1243 L 4212,1234 L 4228,1204 L 4241,1179 L 4246,1168 L 4259,1142 L 4267,1101 L 4269,1088 L 4274,1054 L 4276,1020 L 4277,1008 L 4278,974 L 4277,941 L 4276,929 L 4274,898 L 4312,807 L 4323,779 L 4324,777 L 4339,724 L 4340,722 L 4350,672 L 4350,669 L 4355,621 L 4355,618 L 4356,594 L 4356,491 L 4367,476 L 4378,463 L 4400,433 L 4401,431 L 4421,418 L 4462,386 L 4478,373 L 4501,351 L 4514,337 L 4527,322 L 4538,308 L 4546,297 L 4554,283 L 4559,275 L 4566,261 L 4568,255 L 4573,241 L 4575,236 L 4578,223 L 4579,219 L 4581,205 L 4582,202 L 4582,188 L 4582,186 L 4582,155 L 4582,153 L 4581,139 L 4580,135 L 4579,130 L 4574,123 L 4572,120 L 4564,110 L 4561,107 L 4552,98 L 4549,96 L 4538,87 L 4536,85 L 4532,83 L 4522,81 L 4519,81 L 4505,80 L 4502,80 L 4488,80 L 4485,80 L 4471,82 L 4468,83 L 4454,86 L 4450,87 L 4436,92 L 4430,94 L 4416,100 L 4409,104 L 4400,110 L 4393,106 L 4379,99 L 4372,96 L 4359,90 L 4354,88 L 4340,84 L 4336,84 L 4322,81 L 4319,81 L 4305,80 L 4302,80 L 4288,80 L 4285,80 L 4271,82 L 4268,83 L 4254,86 L 4250,87 L 4236,92 L 4230,94 L 4216,100 L 4209,104 L 4200,110 L 4193,106 L 4179,99 L 4172,96 L 4159,90 L 4154,88 L 4140,84 L 4136,84 L 4122,81 L 4119,81 L 4105,80 L 4102,80 L 4088,80 L 4085,80 L 4071,82 L 4068,83 L 4054,86 L 4050,87 L 4036,92 L 4030,94 L 4016,100 L 4009,104 L 4000,110 L 3993,106 L 3979,99 L 3973,96 L 3959,90 L 3954,88 L 3940,84 L 3936,84 L 3922,81 L 3919,81 L 3905,80 L 3902,80 L 3888,80 L 3885,80 L 3871,82 L 3868,83 L 3854,86 L 3850,87 L 3836,92 L 3830,94 L 3816,100 L 3809,104 L 3800,110 L 3793,106 L 3779,99 L 3773,96 L 3759,90 L 3754,88 L 3740,84 L 3736,84 L 3722,81 L 3719,81 L 3705,80 L 3702,80 L 3688,80 L 3685,80 L 3671,82 L 3668,83 L 3654,86 L 3650,87 L 3636,92 L 3630,94 L 3616,100 L 3609,104 L 3600,110 L 3593,106 L 3579,99 L 3573,96 L 3559,90 L 3554,88 L 3540,84 L 3536,84 L 3522,81 L 3519,81 L 3505,80 L 3502,80 L 3488,80 L 3485,80 L 3471,82 L 3468,83 L 3454,86 L 3450,87 L 3436,92 L 3430,94 L 3416,100 L 3409,104 L 3400,110 L 3393,106 L 3379,99 L 3373,96 L 3359,90 L 3354,88 L 3340,84 L 3336,84 L 3322,81 L 3319,81 L 3305,80 L 3302,80 L 3288,80 L 3285,80 L 3271,82 L 3268,83 L 3254,86 L 3250,87 L 3236,92 L 3230,94 L 3216,100 L 3209,104 L 3200,110 L 3193,106 L 3179,99 L 3173,96 L 3159,90 L 3154,88 L 3140,84 L 3136,84 L 3122,81 L 3119,81 L 3105,80 L 3102,80 L 3088,80 L 3085,80 L 3072,82 L 3068,83 L 3054,86 L 3050,87 L 3036,92 L 3030,94 L 3016,100 L 3009,104 L 2995,112 L 2985,119 L 2971,129 L 2957,141 L 2943,153 L 2939,157 L 2937,155 L 2921,140 L 2908,129 L 2896,120 L 2882,111 L 2873,106 L 2859,99 L 2853,96 L 2839,90 L 2834,88 L 2820,84 L 2816,84 L 2802,81 L 2799,81 L 2785,80 L 2782,80 L 2768,80 L 2765,80 L 2752,82 L 2748,83 L 2734,86 L 2730,87 L 2716,92 L 2710,94 L 2697,100 L 2689,104 L 2680,110 L 2673,106 L 2659,99 L 2653,96 L 2639,90 L 2634,88 L 2620,84 L 2616,84 L 2602,81 L 2599,81 L 2585,80 L 2582,80 L 2568,80 L 2565,80 L 2552,82 L 2548,83 L 2534,86 L 2530,87 L 2516,92 L 2510,94 L 2497,100 L 2489,104 L 2480,110 L 2473,106 L 2459,99 L 2453,96 L 2439,90 L 2434,88 L 2420,84 L 2416,84 L 2402,81 L 2399,81 L 2385,80 L 2382,80 L 2368,80 L 2365,80 L 2352,82 L 2348,83 L 2334,86 L 2330,87 L 2316,92 L 2310,94 L 2297,100 L 2289,104 L 2280,110 L 2273,106 L 2259,99 L 2253,96 L 2239,90 L 2234,88 L 2220,84 L 2216,84 L 2202,81 L 2199,81 L 2185,80 L 2182,80 L 2168,80 L 2165,80 L 2152,82 L 2148,83 L 2134,86 L 2130,87 L 2116,92 L 2110,94 L 2097,100 L 2089,104 L 2080,110 L 2073,106 L 2059,99 L 2053,96 L 2039,90 L 2034,88 L 2020,84 L 2016,84 L 2002,81 L 1999,81 L 1985,80 L 1982,80 L 1968,80 L 1965,80 L 1952,82 L 1948,83 L 1934,86 L 1930,87 L 1916,92 L 1910,94 L 1897,100 L 1889,104 L 1880,110 L 1873,106 L 1859,99 L 1853,96 L 1839,90 L 1834,88 L 1820,84 L 1816,84 L 1802,81 L 1799,81 L 1785,80 L 1782,80 L 1768,80 L 1765,80 L 1752,82 L 1748,83 L 1734,86 L 1730,87 L 1716,92 L 1711,94 L 1710,94 L 1701,104 L 1697,109 L 1689,120 L 1685,126 L 1680,135 L 1680,135 L 1679,138 L 1679,145 L 1680,149 L 1680,155 L 1679,159 L 1679,163 L 1680,186 L 1680,190 L 1679,194 L 1679,200 L 1680,204 L 1680,211 L 1679,214 L 1679,214 L 1674,223 L 1670,229 L 1662,240 L 1658,245 L 1649,255 L 1644,259 L 1634,268 L 1629,272 L 1618,280 L 1612,284 L 1599,291 L 1592,295 L 1578,301 L 1568,305 L 1558,308 L 1163,703 L 1140,713 L 1135,714 L 1132,716 L 1125,718 L 1122,719 L 1115,720 L 1112,721 L 1104,721 L 1101,722 L 1097,722 L 447,722 L 439,714 L 424,703 L 417,700 L 409,699 L 290,699 L 282,700 L 275,703 L 260,714 L 247,727 L 221,790 L 220,790 L 203,793 L 188,795 L 177,798 L 164,802 L 156,805 L 143,810 L 138,813 L 126,819 L 122,821 L 112,828 L 109,831 L 99,839 L 97,842 L 88,851 L 85,853 L 79,862 L 79,864 L 78,868 L 76,880 L 75,884 L 75,896 L 75,899 L 75,912 L 76,915 L 78,928 L 79,931 L 82,944 L 83,949 L 88,961 L 91,968 L 97,980 L 102,988 L 108,998 L 102,1007 L 97,1015 L 91,1028 L 88,1034 L 83,1047 L 82,1051 L 79,1064 L 78,1068 L 76,1080 L 75,1084 L 75,1096 L 75,1099 L 75,1112 L 76,1115 L 78,1128 L 79,1131 L 82,1144 L 83,1149 L 88,1161 L 91,1168 L 97,1180 L 102,1188 L 110,1201 L 115,1208 L 110,1215 L 102,1227 L 97,1236 L 91,1248 L 88,1255 L 83,1267 L 82,1272 L 79,1284 L 78,1288 L 76,1301 L 75,1304 L 75,1317 L 75,1320 L 75,1332 L 76,1336 L 78,1348 L 79,1352 L 82,1364 L 83,1369 L 88,1382 L 91,1388 L 97,1401 L 102,1409 L 110,1421 L 114,1426 L 110,1431 L 102,1443 L 97,1452 L 91,1464 L 88,1470 L 83,1483 L 82,1488 L 79,1500 L 78,1504 L 76,1517 L 75,1520 L 75,1532 L 75,1535 L 75,1548 L 76,1551 L 78,1564 L 79,1568 L 82,1580 L 83,1585 L 88,1597 L 91,1604 L 97,1616 L 101,1622 L 103,1624 L 113,1631 L 121,1636 L 133,1642 L 133,1642 L 143,1642 L 156,1642 L 166,1642 L 179,1642 L 191,1642 L 205,1642 L 220,1642 L 220,1642 L 225,1651 L 227,1655 L 231,1663 L 233,1667 L 237,1674 L 239,1678 L 243,1685 L 245,1688 L 248,1695 L 251,1699 L 254,1706 L 256,1709 L 260,1717 L 262,1720 L 266,1728 L 268,1732 L 272,1740 L 274,1744 L 279,1752 L 280,1754 L 279,1756 L 278,1758 L 272,1768 L 271,1769 L 265,1780 L 264,1781 L 259,1791 L 258,1792 L 253,1801 L 252,1802 L 247,1812 L 246,1813 L 241,1822 L 240,1824 L 235,1833 L 234,1835 L 228,1845 L 228,1845 L 227,1857 L 227,1870 L 228,1875 L 231,1883 L 233,1886 L 237,1894 L 239,1898 L 243,1905 L 245,1908 L 248,1915 L 251,1919 L 254,1926 L 256,1929 L 260,1936 L 262,1940 L 266,1948 L 268,1951 L 272,1960 L 274,1963 L 277,1969 L 273,1977 L 272,1978 L 267,1989 L 266,1990 L 261,2000 L 260,2002 L 255,2011 L 255,2012 L 250,2021 L 249,2023 L 244,2032 L 244,2033 L 239,2042 L 238,2044 L 233,2054 L 232,2055 L 227,2065 L 227,2067 L 227,2081 L 228,2091 L 229,2093 L 234,2102 L 235,2105 L 240,2113 L 242,2116 L 246,2123 L 247,2126 L 252,2134 L 253,2137 L 257,2144 L 259,2147 L 264,2155 L 265,2158 L 270,2167 L 272,2170 L 277,2179 L 279,2182 L 280,2184 L 279,2186 L 275,2193 L 272,2198 L 268,2205 L 266,2210 L 263,2216 L 260,2221 L 256,2227 L 254,2231 L 251,2237 L 248,2242 L 245,2248 L 243,2252 L 240,2258 L 237,2264 L 233,2270 L 231,2275 L 228,2281 L 227,2287 L 227,2300 L 228,2308 L 230,2313 L 233,2318 L 236,2324 L 240,2330 L 243,2335 L 245,2340 L 248,2345 L 251,2351 L 254,2356 L 257,2361 L 259,2366 L 263,2372 L 266,2378 L 269,2384 L 272,2390 L 275,2395 L 279,2402 L 280,2404 L 279,2406 L 277,2409 L 272,2418 L 270,2421 L 265,2430 L 264,2433 L 259,2441 L 257,2444 L 253,2451 L 252,2454 L 247,2462 L 246,2465 L 242,2473 L 240,2475 L 235,2484 L 234,2487 L 229,2495 L 228,2497 L 227,2508 L 227,2521 L 228,2531 L 229,2533 L 234,2542 L 235,2545 L 240,2553 L 242,2556 L 246,2563 L 247,2566 L 252,2574 L 253,2577 L 257,2584 L 259,2587 L 264,2595 L 265,2598 L 270,2607 L 272,2610 L 277,2619 L 279,2622 L 280,2624 L 279,2626 L 275,2633 L 272,2638 L 268,2645 L 266,2650 L 263,2656 L 260,2661 L 256,2667 L 254,2672 L 251,2677 L 248,2683 L 245,2688 L 243,2693 L 240,2699 L 237,2704 L 233,2710 L 231,2715 L 228,2721 L 227,2727 L 227,2740 L 227,2743 L 232,2752 L 233,2754 L 238,2764 L 239,2766 L 244,2775 L 244,2776 L 249,2785 L 250,2787 L 255,2796 L 255,2797 L 260,2806 L 261,2808 L 266,2817 L 267,2819 L 272,2830 L 273,2831 L 277,2839 L 274,2845 L 272,2848 L 268,2857 L 266,2860 L 262,2868 L 260,2872 L 256,2879 L 254,2882 L 251,2889 L 248,2893 L 245,2900 L 243,2903 L 239,2910 L 237,2914 L 233,2922 L 231,2925 L 228,2933 L 227,2938 L 227,2951 L 228,2959 L 230,2963 L 234,2970 L 236,2974 L 240,2981 L 242,2986 L 245,2992 L 248,2996 L 252,3003 L 254,3007 L 257,3013 L 259,3017 L 263,3024 L 266,3028 L 269,3035 L 272,3040 L 276,3047 L 279,3052 L 280,3054 L 279,3056 L 276,3061 L 272,3068 L 269,3073 L 266,3080 L 263,3085 L 259,3091 L 257,3096 L 254,3101 L 251,3106 L 248,3112 L 245,3117 L 242,3122 L 240,3127 L 236,3133 L 233,3138 L 230,3145 L 228,3149 L 227,3157 L 227,3170 L 228,3179 L 230,3183 L 234,3190 L 236,3194 L 240,3201 L 241,3203 L 243,3205 L 254,3212 L 266,3219 L 274,3223 L 287,3229 L 293,3231 L 306,3235 L 310,3236 L 323,3239 L 327,3240 L 340,3241 L 343,3241 L 356,3241 L 360,3241 L 372,3240 L 376,3239 L 389,3236 L 394,3235 L 406,3231 L 412,3229 L 425,3223 L 432,3219 L 1897,3219 L 1905,3223 L 1917,3229 L 1924,3231 L 1936,3235 L 1941,3236 L 1953,3239 L 1957,3240 L 1970,3241 L 1973,3241 L 1986,3241 L 1989,3241 L 2002,3240 L 2006,3239 L 2011,3238 L 2013,3237 L 2016,3237 L 2018,3237 L 2021,3236 L 2024,3236 L 2024,3236 L 2030,3235 L 2034,3235 L 2038,3235 L 2041,3235 L 2045,3235 L 2048,3234 L 2051,3234 L 2066,3234 L 2085,3232 L 2105,3230 L 2140,3223 L 2163,3218 L 2218,3202 L 2330,3248 L 2753,3670 L 2792,3693 L 2799,3698 L 2825,3704 L 2841,3708 L 2880,3721 L 2894,3726 L 2926,3741 L 2939,3747 L 2966,3762 L 2978,3770 L 2999,3785 L 2999,3789 L 2999,3815 L 3000,3822 L 3000,3845 L 2999,3847 L 2999,3867 L 2999,3867 L 3000,3884 L 2999,3886 L 2999,3899 L 3000,3901 L 3000,3912 L 2999,3915 L 2999,3924 L 3000,3927 L 3000,3935 L 2999,3938 L 2999,3945 L 3000,3949 L 3000,3955 L 2999,3959 L 2999,3963 L 3000,3986 L 3000,3990 L 2999,3994 L 2999,4000 L 3000,4003 L 3000,4011 L 2999,4014 L 2999,4022 L 3000,4025 L 3000,4034 L 2999,4037 L 2999,4048 L 3000,4050 L 3000,4063 L 2999,4064 L 2999,4081 L 2999,4082 L 3000,4102 L 2999,4104 L 2999,4127 L 3000,4134 L 2600,4134 L 2599,4127 L 2599,4104 L 2600,4102 L 2600,4082 L 2599,4081 L 2599,4064 L 2600,4063 L 2600,4050 L 2599,4048 L 2599,4037 L 2600,4034 L 2600,4025 L 2599,4022 L 2599,4014 L 2600,4011 L 2600,4003 L 2599,4000 L 2599,3994 L 2600,3990 L 2600,3986 L 2599,3963 L 2599,3959 L 2600,3955 L 2600,3949 L 2599,3945 L 2599,3938 L 2600,3935 L 2600,3935 L 2596,3929 L 2588,3917 L 2584,3912 L 2575,3901 L 2571,3897 L 2561,3887 L 2557,3883 L 2546,3875 L 2541,3871 L 2529,3863 L 2522,3859 L 2509,3853 L 2501,3849 L 2487,3844 L 2475,3840 L 2460,3836 L 2443,3832 L 2427,3829 L 2403,3827 L 2400,3826 L 2395,3822 L 2384,3814 L 2366,3801 L 2355,3794 L 2334,3782 L 2321,3775 L 2296,3764 L 2282,3759 L 2251,3749 L 2236,3745 L 2200,3737 L 2192,3732 L 2180,3724 L 2146,3705 L 2133,3698 L 2092,3680 L 2078,3675 L 2028,3658 L 2013,3654 L 1999,3651 L 1958,3627 L 1945,3621 L 1888,3595 L 1879,3592 L 1874,3592 L 1812,3597 L 1800,3599 L 1763,3595 L 1749,3593 L 1688,3592 L 1674,3592 L 1612,3597 L 1598,3599 L 1566,3604 L 1534,3610 L 1521,3613 L 1487,3622 L 1453,3633 L 1439,3638 L 1403,3651 L 1366,3667 L 1352,3673 L 1311,3693 L 1270,3716 L 1256,3724 L 1196,3763 L 1150,3731 L 1104,3703 L 1070,3683 L 1031,3662 L 992,3643 L 959,3628 L 925,3614 L 891,3602 L 857,3591 L 826,3582 L 796,3575 L 762,3568 L 705,3559 L 672,3555 L 625,3552 L 624,3550 L 611,3528 L 590,3493 L 569,3462 L 556,3445 L 528,3409 L 515,3395 L 495,3375 L 483,3364 L 468,3352 L 456,3343 L 445,3336 L 433,3329 L 425,3325 L 412,3319 L 406,3317 L 394,3313 L 389,3312 L 376,3309 L 372,3308 L 360,3307 L 356,3307 L 343,3307 L 340,3307 L 327,3308 L 323,3309 L 310,3312 L 306,3313 L 293,3317 L 287,3319 L 274,3325 L 266,3329 L 254,3336 L 243,3343 L 241,3345 L 240,3347 L 236,3354 L 234,3358 L 230,3365 L 228,3369 L 227,3378 L 227,3391 L 228,3403 L 229,3417 L 231,3429 L 234,3443 L 238,3456 L 243,3472 L 248,3484 L 256,3503 L 262,3515 L 275,3537 L 283,3549 L 294,3565 L 304,3570 L 315,3577 L 343,3590 L 356,3595 L 371,3601 L 389,3600 L 400,3599 L 402,3599 L 416,3597 L 419,3597 L 436,3595 L 450,3594 L 453,3593 L 456,3593 L 492,3590 L 496,3590 L 500,3590 L 506,3589 L 551,3587 L 555,3587 L 557,3587 L 562,3584 L 574,3578 L 583,3574 L 616,3557 L 625,3552 L 672,3555 L 705,3559 L 762,3568 L 796,3575 L 826,3582 L 857,3591 L 891,3602 L 925,3614 L 959,3628 L 992,3643 L 1031,3662 L 1070,3683 L 1104,3703 L 1150,3731 L 1196,3763 L 1196,3763 L 1196,3797 L 1196,3798 L 1196,3811 L 1195,3895 L 1195,3904 L 1195,3918 L 1195,3929 L 1196,3967 L 1195,3998 L 1195,4020 L 1195,4054 L 1195,4083 L 1195,4097 L 1195,4134 L 0,4134 L 0,0 L 906,0 z " style="fill-opacity:1.000000;fill:rgb(79,20,242);stroke:rgb(0,0,0);stroke-width:2"/></g>
<g fill-rule="evenodd"><path d="M 220,1426 L 225,1418 L 227,1414 L 231,1406 L 233,1402 L 237,1395 L 239,1391 L 243,1383 L 245,1380 L 248,1373 L 251,1369 L 254,1362 L 256,1359 L 260,1352 L 262,1348 L 266,1341 L 268,1337 L 272,1329 L 274,1325 L 279,1316 L 280,1314 L 294,1314 L 307,1314 L 320,1314 L 333,1314 L 343,1314 L 356,1314 L 366,1314 L 366,1314 L 367,1315 L 369,1316 L 378,1320 L 378,1320 L 381,1321 L 388,1323 L 390,1324 L 392,1325 L 400,1327 L 402,1328 L 404,1329 L 409,1331 L 410,1331 L 422,1335 L 423,1335 L 438,1329 L 443,1327 L 446,1326 L 455,1323 L 458,1322 L 466,1321 L 469,1320 L 477,1319 L 480,1319 L 484,1319 L 3217,1319 L 3225,1315 L 3237,1310 L 3243,1307 L 3255,1303 L 3260,1302 L 3273,1299 L 3277,1299 L 3289,1297 L 3293,1297 L 3306,1297 L 3310,1297 L 3322,1299 L 3326,1299 L 3338,1302 L 3343,1303 L 3356,1307 L 3362,1310 L 3374,1315 L 3382,1319 L 3395,1327 L 3405,1334 L 3418,1343 L 3419,1343 L 3415,1356 L 3410,1369 L 3406,1379 L 3400,1391 L 3396,1399 L 3389,1410 L 3385,1417 L 3377,1426 L 3373,1432 L 3364,1441 L 3359,1446 L 3350,1454 L 3344,1458 L 3333,1465 L 3326,1470 L 3315,1476 L 3306,1480 L 3293,1485 L 3281,1490 L 3268,1494 L 3251,1498 L 3237,1500 L 3213,1503 L 3197,1505 L 3183,1505 L 3174,1509 L 2357,1509 L 2348,1501 L 2326,1483 L 2314,1474 L 2298,1463 L 2285,1456 L 2272,1450 L 2260,1444 L 2249,1440 L 2236,1436 L 2227,1433 L 2215,1431 L 2206,1429 L 2194,1428 L 2186,1428 L 2173,1428 L 2165,1428 L 2153,1429 L 2145,1431 L 2132,1433 L 2123,1436 L 2110,1440 L 2099,1444 L 2087,1450 L 2078,1454 L 517,1454 L 480,1470 L 475,1472 L 472,1473 L 463,1475 L 460,1476 L 452,1478 L 449,1478 L 441,1479 L 438,1479 L 434,1479 L 433,1479 L 432,1479 L 424,1483 L 412,1489 L 406,1491 L 393,1495 L 389,1497 L 376,1499 L 372,1500 L 359,1501 L 356,1501 L 343,1501 L 340,1501 L 327,1500 L 323,1499 L 311,1497 L 306,1495 L 293,1491 L 287,1489 L 275,1483 L 267,1479 L 254,1472 L 244,1465 L 241,1463 L 240,1461 L 236,1455 L 233,1450 L 230,1443 L 227,1438 L 223,1431 L 220,1426 z " style="fill-opacity:1.000000;fill:rgb(68,64,102);stroke:rgb(0,0,0);stroke-width:2"/></g>
<g fill-rule="evenodd"><path d="M 227,3170 L 227,3157 L 228,3149 L 230,3145 L 233,3138 L 236,3133 L 240,3127 L 242,3122 L 245,3117 L 248,3112 L 251,3106 L 254,3101 L 257,3096 L 259,3091 L 263,3085 L 266,3080 L 269,3073 L 272,3068 L 276,3061 L 279,3056 L 280,3054 L 294,3054 L 308,3054 L 320,3054 L 333,3054 L 343,3054 L 356,3054 L 366,3054 L 366,3054 L 366,3054 L 369,3055 L 378,3059 L 378,3059 L 381,3060 L 388,3063 L 390,3064 L 392,3065 L 399,3067 L 402,3068 L 404,3069 L 409,3070 L 410,3070 L 422,3074 L 434,3079 L 446,3084 L 1885,3084 L 1895,3080 L 1907,3075 L 1919,3071 L 1930,3068 L 1942,3066 L 1952,3064 L 1964,3063 L 1973,3062 L 1986,3062 L 1995,3063 L 2007,3064 L 2017,3066 L 2029,3068 L 2040,3071 L 2052,3075 L 2064,3080 L 2077,3085 L 2091,3093 L 2104,3100 L 2122,3112 L 2134,3121 L 2157,3140 L 2170,3151 L 2200,3181 L 2212,3195 L 2218,3202 L 2163,3218 L 2140,3223 L 2105,3230 L 2085,3232 L 2066,3234 L 2051,3234 L 2048,3234 L 2045,3235 L 2041,3235 L 2038,3235 L 2034,3235 L 2030,3235 L 2024,3236 L 2024,3236 L 2021,3236 L 2018,3237 L 2016,3237 L 2013,3237 L 2011,3238 L 2006,3239 L 2002,3240 L 1989,3241 L 1986,3241 L 1973,3241 L 1970,3241 L 1957,3240 L 1953,3239 L 1941,3236 L 1936,3235 L 1924,3231 L 1917,3229 L 1905,3223 L 1897,3219 L 432,3219 L 425,3223 L 412,3229 L 406,3231 L 394,3235 L 389,3236 L 376,3239 L 372,3240 L 360,3241 L 356,3241 L 343,3241 L 340,3241 L 327,3240 L 323,3239 L 310,3236 L 306,3235 L 293,3231 L 287,3229 L 274,3223 L 266,3219 L 254,3212 L 243,3205 L 241,3203 L 240,3201 L 236,3194 L 234,3190 L 230,3183 L 228,3179 L 227,3170 z " style="fill-opacity:1.000000;fill:rgb(208,107,196);stroke:rgb(0,0,0);stroke-width:2"/></g>
<g fill-rule="evenodd"><path d="M 3295,4134 L 3291,4111 L 3291,4107 L 3289,4100 L 3287,4088 L 3287,4082 L 3281,4050 L 3277,4035 L 3269,4011 L 3264,3996 L 3260,3985 L 3247,3955 L 3240,3940 L 3234,3928 L 3226,3915 L 3218,3904 L 3211,3893 L 3202,3883 L 3193,3874 L 3183,3864 L 3174,3856 L 3163,3847 L 3152,3840 L 3140,3832 L 3128,3825 L 3115,3818 L 3099,3811 L 3085,3806 L 3064,3799 L 3049,3795 L 3022,3789 L 3005,3786 L 2999,3785 L 2978,3770 L 2966,3762 L 2939,3747 L 2926,3741 L 2894,3726 L 2880,3721 L 2841,3708 L 2825,3704 L 2799,3698 L 2792,3693 L 2753,3670 L 2330,3248 L 2218,3202 L 2212,3195 L 2200,3181 L 2170,3151 L 2157,3140 L 2134,3121 L 2122,3112 L 2104,3100 L 2091,3093 L 2077,3085 L 2064,3080 L 2052,3075 L 2040,3071 L 2029,3068 L 2017,3066 L 2007,3064 L 1995,3063 L 1986,3062 L 1973,3062 L 1964,3063 L 1952,3064 L 1942,3066 L 1930,3068 L 1919,3071 L 1907,3075 L 1895,3080 L 1885,3084 L 446,3084 L 434,3079 L 422,3074 L 410,3070 L 409,3070 L 404,3069 L 402,3068 L 399,3067 L 392,3065 L 390,3064 L 388,3063 L 381,3060 L 378,3059 L 378,3059 L 369,3055 L 366,3054 L 366,3054 L 366,3054 L 356,3054 L 343,3054 L 333,3054 L 320,3054 L 308,3054 L 294,3054 L 280,3054 L 279,3052 L 276,3047 L 272,3040 L 269,3035 L 266,3028 L 263,3024 L 259,3017 L 257,3013 L 254,3007 L 252,3003 L 248,2996 L 245,2992 L 242,2986 L 240,2981 L 236,2974 L 234,2970 L 230,2963 L 228,2959 L 227,2951 L 227,2938 L 228,2933 L 231,2925 L 233,2922 L 237,2914 L 239,2910 L 243,2903 L 245,2900 L 248,2893 L 251,2889 L 254,2882 L 256,2879 L 260,2872 L 262,2868 L 266,2860 L 268,2857 L 272,2848 L 274,2845 L 277,2839 L 281,2839 L 296,2839 L 310,2839 L 321,2839 L 334,2839 L 343,2839 L 356,2839 L 366,2839 L 378,2839 L 390,2839 L 403,2839 L 418,2839 L 434,2839 L 457,2839 L 476,2839 L 519,2839 L 531,2839 L 537,2835 L 572,2813 L 584,2804 L 627,2769 L 639,2758 L 666,2732 L 693,2704 L 705,2690 L 732,2658 L 760,2624 L 792,2598 L 824,2570 L 837,2559 L 859,2539 L 2431,2539 L 2475,2540 L 2478,2540 L 2523,2543 L 2567,2549 L 2570,2549 L 2616,2557 L 2662,2568 L 2665,2568 L 2714,2582 L 2762,2598 L 2765,2599 L 2816,2619 L 3089,2732 L 3167,2761 L 3249,2787 L 3250,2788 L 3288,2848 L 3328,2905 L 3330,2907 L 3371,2960 L 3415,3011 L 3417,3013 L 3462,3061 L 3626,3224 L 3598,3304 L 3599,3361 L 3600,3551 L 3600,3605 L 3599,3674 L 3599,3713 L 3600,3743 L 3600,3775 L 3599,3789 L 3599,3815 L 3600,3822 L 3600,3845 L 3599,3847 L 3599,3867 L 3599,3867 L 3599,3884 L 3599,3886 L 3599,3899 L 3600,3901 L 3600,3912 L 3599,3915 L 3599,3924 L 3600,3927 L 3600,3935 L 3599,3938 L 3599,3945 L 3600,3949 L 3600,3955 L 3599,3959 L 3599,3963 L 3600,3986 L 3600,3990 L 3599,3994 L 3599,4000 L 3600,4003 L 3600,4011 L 3599,4014 L 3599,4022 L 3600,4025 L 3600,4034 L 3599,4037 L 3599,4048 L 3600,4050 L 3599,4063 L 3599,4064 L 3599,4081 L 3599,4082 L 3600,4102 L 3599,4104 L 3599,4127 L 3600,4134 L 3295,4134 z " style="fill-opacity:1.000000;fill:rgb(48,183,50);stroke:rgb(0,0,0);stroke-width:2"/></g>
<g fill-rule="evenodd"><path d="M 75,1535 L 75,1532 L 75,1520 L 76,1517 L 78,1504 L 79,1500 L 82,1488 L 83,1483 L 88,1470 L 91,1464 L 97,1452 L 102,1443 L 110,1431 L 114,1426 L 120,1426 L 133,1426 L 143,1426 L 156,1426 L 166,1426 L 179,1426 L 191,1426 L 204,1426 L 220,1426 L 220,1426 L 223,1431 L 227,1438 L 230,1443 L 233,1450 L 236,1455 L 240,1461 L 241,1463 L 244,1465 L 254,1472 L 267,1479 L 275,1483 L 287,1489 L 293,1491 L 306,1495 L 311,1497 L 323,1499 L 327,1500 L 340,1501 L 343,1501 L 356,1501 L 359,1501 L 372,1500 L 376,1499 L 389,1497 L 393,1495 L 406,1491 L 412,1489 L 424,1483 L 432,1479 L 433,1479 L 434,1479 L 438,1479 L 441,1479 L 449,1478 L 452,1478 L 460,1476 L 463,1475 L 472,1473 L 475,1472 L 480,1470 L 517,1454 L 2078,1454 L 2087,1450 L 2099,1444 L 2110,1440 L 2123,1436 L 2132,1433 L 2145,1431 L 2153,1429 L 2165,1428 L 2173,1428 L 2186,1428 L 2194,1428 L 2206,1429 L 2215,1431 L 2227,1433 L 2236,1436 L 2249,1440 L 2260,1444 L 2272,1450 L 2285,1456 L 2298,1463 L 2314,1474 L 2326,1483 L 2348,1501 L 2357,1509 L 2355,1512 L 2333,1534 L 2320,1545 L 2304,1559 L 2292,1568 L 2280,1575 L 2268,1582 L 2258,1587 L 2246,1593 L 2239,1596 L 2226,1600 L 2220,1601 L 2208,1604 L 2203,1605 L 2191,1606 L 2186,1606 L 2173,1606 L 2169,1606 L 2156,1605 L 2151,1604 L 2139,1601 L 2133,1600 L 2120,1596 L 2113,1593 L 2105,1589 L 433,1589 L 433,1589 L 425,1585 L 412,1579 L 406,1577 L 394,1573 L 389,1572 L 376,1569 L 372,1568 L 360,1567 L 356,1567 L 343,1567 L 340,1567 L 327,1568 L 323,1569 L 310,1572 L 306,1573 L 293,1577 L 287,1579 L 274,1585 L 266,1589 L 254,1596 L 243,1603 L 241,1605 L 240,1607 L 236,1614 L 234,1618 L 230,1625 L 227,1630 L 223,1637 L 220,1642 L 220,1642 L 205,1642 L 191,1642 L 179,1642 L 166,1642 L 156,1642 L 143,1642 L 133,1642 L 133,1642 L 121,1636 L 113,1631 L 103,1624 L 101,1622 L 97,1616 L 91,1604 L 88,1597 L 83,1585 L 82,1580 L 79,1568 L 78,1564 L 76,1551 L 75,1548 L 75,1535 z " style="fill-opacity:1.000000;fill:rgb(59,161,34);stroke:rgb(0,0,0);stroke-width:2"/></g>
<g fill-rule="evenodd"><path d="M 284,894 L 274,896 L 270,891 L 262,880 L 255,870 L 249,859 L 245,850 L 241,838 L 239,834 L 237,827 L 232,815 L 227,802 L 221,790 L 247,727 L 260,714 L 275,703 L 282,700 L 290,699 L 409,699 L 417,700 L 424,703 L 439,714 L 447,722 L 1097,722 L 1101,722 L 1104,721 L 1112,721 L 1115,720 L 1122,719 L 1125,718 L 1132,716 L 1135,714 L 1140,713 L 1163,703 L 1558,308 L 1568,305 L 1578,301 L 1592,295 L 1599,291 L 1612,284 L 1618,280 L 1629,272 L 1634,268 L 1644,259 L 1649,255 L 1658,245 L 1662,240 L 1670,229 L 1674,223 L 1679,214 L 1679,214 L 1680,211 L 1680,204 L 1679,200 L 1679,194 L 1680,190 L 1680,186 L 1679,163 L 1679,159 L 1680,155 L 1680,149 L 1679,145 L 1679,138 L 1680,135 L 1680,135 L 1685,126 L 1689,120 L 1697,109 L 1701,104 L 1710,94 L 1711,94 L 1716,92 L 1730,87 L 1734,86 L 1748,83 L 1752,82 L 1765,80 L 1768,80 L 1782,80 L 1785,80 L 1799,81 L 1802,81 L 1816,84 L 1820,84 L 1834,88 L 1839,90 L 1853,96 L 1859,99 L 1873,106 L 1880,110 L 1880,112 L 1879,115 L 1879,124 L 1880,127 L 1880,135 L 1879,138 L 1879,145 L 1880,149 L 1880,155 L 1879,159 L 1879,163 L 1880,186 L 1880,190 L 1879,194 L 1879,200 L 1880,204 L 1880,211 L 1879,214 L 1879,222 L 1880,225 L 1880,234 L 1879,237 L 1879,248 L 1880,250 L 1880,263 L 1879,264 L 1880,281 L 1880,282 L 1880,302 L 1880,302 L 1879,304 L 1872,317 L 1861,337 L 1852,351 L 1835,375 L 1825,389 L 1801,416 L 1703,653 L 1699,659 L 1666,706 L 1660,717 L 1640,752 L 1308,890 L 1293,895 L 1290,896 L 1263,905 L 1260,905 L 1235,911 L 1232,911 L 1207,913 L 1204,914 L 1192,914 L 516,914 L 508,909 L 501,905 L 492,904 L 461,902 L 445,899 L 428,896 L 415,894 L 409,892 L 402,890 L 390,888 L 379,886 L 366,885 L 356,884 L 343,884 L 333,885 L 320,886 L 309,888 L 297,890 L 290,892 L 284,894 z " style="fill-opacity:1.000000;fill:rgb(246,34,145);stroke:rgb(0,0,0);stroke-width:2"/></g>
<g fill-rule="evenodd"><path d="M 224,998 L 227,993 L 230,987 L 233,981 L 235,975 L 238,969 L 240,965 L 243,959 L 246,953 L 249,948 L 251,944 L 253,938 L 256,932 L 259,927 L 261,922 L 264,916 L 266,910 L 269,904 L 272,898 L 274,896 L 284,894 L 290,892 L 297,890 L 309,888 L 320,886 L 333,885 L 343,884 L 356,884 L 366,885 L 379,886 L 390,888 L 402,890 L 409,892 L 415,894 L 428,896 L 445,899 L 461,902 L 492,904 L 501,905 L 508,909 L 516,914 L 1192,914 L 1204,914 L 1207,913 L 1232,911 L 1235,911 L 1260,905 L 1263,905 L 1290,896 L 1293,895 L 1308,890 L 1640,752 L 1659,775 L 1672,788 L 1695,813 L 1719,836 L 1731,847 L 1768,877 L 1780,886 L 1810,905 L 1822,912 L 1847,925 L 1860,931 L 1881,939 L 1894,943 L 1913,948 L 1926,951 L 1944,954 L 1956,955 L 1973,956 L 1986,956 L 2003,955 L 2015,954 L 2033,951 L 2046,948 L 2065,943 L 2078,939 L 2099,931 L 2112,925 L 2137,912 L 2149,905 L 2179,886 L 2191,877 L 2228,847 L 2240,836 L 2249,836 L 2252,835 L 2292,831 L 2295,831 L 2337,823 L 2340,822 L 2384,809 L 2387,808 L 2410,799 L 2622,711 L 2655,696 L 2658,695 L 2712,667 L 2759,737 L 2771,754 L 2797,789 L 2824,819 L 2836,833 L 2875,872 L 2887,883 L 2917,907 L 2929,916 L 2953,932 L 2965,939 L 2985,949 L 2998,955 L 3014,961 L 3027,965 L 3042,969 L 3054,972 L 3068,974 L 3080,975 L 3093,976 L 3106,976 L 3119,975 L 3131,974 L 3145,972 L 3157,969 L 3172,965 L 3185,961 L 3201,955 L 3204,953 L 3211,956 L 3223,960 L 3240,964 L 3252,967 L 3267,969 L 3279,970 L 3293,971 L 3306,971 L 3320,970 L 3332,969 L 3347,967 L 3359,964 L 3375,960 L 3388,956 L 3398,952 L 3401,944 L 3406,932 L 3411,916 L 3414,904 L 3417,889 L 3419,877 L 3421,863 L 3421,851 L 3421,838 L 3421,826 L 3419,812 L 3417,800 L 3414,785 L 3411,773 L 3406,757 L 3401,745 L 3399,741 L 3399,302 L 3400,302 L 3400,302 L 3399,282 L 3399,281 L 3399,264 L 3400,263 L 3400,250 L 3399,248 L 3399,237 L 3400,234 L 3400,225 L 3399,222 L 3399,214 L 3400,211 L 3400,204 L 3399,200 L 3399,194 L 3400,190 L 3400,186 L 3399,163 L 3399,159 L 3400,155 L 3400,149 L 3399,145 L 3399,138 L 3400,135 L 3400,127 L 3399,124 L 3399,115 L 3400,112 L 3400,110 L 3409,104 L 3416,100 L 3430,94 L 3436,92 L 3450,87 L 3454,86 L 3468,83 L 3471,82 L 3485,80 L 3488,80 L 3502,80 L 3505,80 L 3519,81 L 3522,81 L 3536,84 L 3540,84 L 3554,88 L 3559,90 L 3573,96 L 3579,99 L 3593,106 L 3600,110 L 3600,112 L 3599,115 L 3599,124 L 3600,127 L 3600,135 L 3599,138 L 3599,145 L 3600,149 L 3600,155 L 3599,159 L 3599,163 L 3600,186 L 3600,190 L 3599,194 L 3599,200 L 3600,204 L 3600,211 L 3599,214 L 3599,222 L 3600,225 L 3600,234 L 3599,237 L 3599,248 L 3600,250 L 3599,263 L 3599,264 L 3599,281 L 3599,282 L 3600,302 L 3600,302 L 3599,302 L 3599,691 L 3598,695 L 3593,707 L 3588,723 L 3585,735 L 3582,750 L 3580,762 L 3578,776 L 3578,788 L 3578,801 L 3578,813 L 3580,827 L 3582,839 L 3585,854 L 3588,866 L 3593,882 L 3598,894 L 3606,912 L 3612,923 L 3578,1004 L 3575,1011 L 3574,1013 L 3569,1024 L 3567,1026 L 3561,1036 L 3559,1038 L 3552,1046 L 3551,1048 L 3547,1052 L 3498,1101 L 3494,1105 L 3492,1107 L 3484,1113 L 3481,1115 L 3472,1121 L 3470,1123 L 3459,1128 L 3456,1130 L 3450,1132 L 3387,1159 L 492,1159 L 485,1153 L 468,1143 L 456,1135 L 443,1129 L 430,1123 L 419,1119 L 409,1116 L 407,1115 L 405,1114 L 402,1113 L 397,1112 L 394,1110 L 391,1109 L 386,1107 L 383,1106 L 380,1105 L 377,1104 L 372,1101 L 369,1100 L 367,1099 L 366,1099 L 356,1099 L 343,1099 L 334,1099 L 321,1099 L 310,1099 L 296,1099 L 281,1099 L 277,1099 L 273,1091 L 272,1090 L 267,1079 L 266,1077 L 261,1068 L 260,1066 L 255,1057 L 255,1056 L 250,1047 L 249,1045 L 244,1036 L 244,1035 L 239,1025 L 238,1023 L 233,1014 L 232,1012 L 227,1002 L 226,1000 L 224,998 z " style="fill-opacity:1.000000;fill:rgb(157,225,139);stroke:rgb(0,0,0);stroke-width:2"/></g>
<g fill-rule="evenodd"><path d="M 220,1210 L 219,1208 L 220,1206 L 225,1197 L 227,1194 L 231,1185 L 233,1181 L 237,1174 L 239,1170 L 243,1163 L 245,1160 L 248,1153 L 251,1149 L 254,1142 L 256,1139 L 260,1132 L 262,1128 L 266,1120 L 268,1116 L 272,1108 L 274,1105 L 277,1099 L 281,1099 L 296,1099 L 310,1099 L 321,1099 L 334,1099 L 343,1099 L 356,1099 L 366,1099 L 367,1099 L 369,1100 L 372,1101 L 377,1104 L 380,1105 L 383,1106 L 386,1107 L 391,1109 L 394,1110 L 397,1112 L 402,1113 L 405,1114 L 407,1115 L 409,1116 L 419,1119 L 430,1123 L 443,1129 L 456,1135 L 468,1143 L 485,1153 L 492,1159 L 3387,1159 L 3450,1132 L 3456,1130 L 3459,1128 L 3470,1123 L 3472,1121 L 3481,1115 L 3484,1113 L 3492,1107 L 3494,1105 L 3498,1101 L 3547,1052 L 3551,1048 L 3552,1046 L 3559,1038 L 3561,1036 L 3567,1026 L 3569,1024 L 3574,1013 L 3575,1011 L 3578,1004 L 3612,923 L 3613,923 L 3637,920 L 3651,918 L 3668,914 L 3681,910 L 3693,905 L 3706,900 L 3715,896 L 3726,890 L 3733,886 L 3744,878 L 3750,874 L 3759,866 L 3764,861 L 3773,852 L 3777,847 L 3785,837 L 3789,830 L 3796,819 L 3800,811 L 3806,799 L 3810,789 L 3815,776 L 3819,762 L 3822,748 L 3826,729 L 3828,713 L 3830,685 L 3830,679 L 3842,651 L 3856,647 L 3870,643 L 3893,635 L 3906,630 L 3924,621 L 3936,615 L 3951,606 L 3961,598 L 3975,588 L 3984,580 L 3996,569 L 4004,560 L 4008,556 L 4011,546 L 4014,534 L 4017,519 L 4019,507 L 4021,493 L 4021,481 L 4021,468 L 4021,456 L 4019,442 L 4017,430 L 4014,415 L 4011,403 L 4006,387 L 4001,375 L 3999,371 L 3999,302 L 3999,302 L 4000,302 L 3999,282 L 3999,281 L 3999,264 L 3999,263 L 4000,250 L 3999,248 L 3999,237 L 4000,234 L 4000,225 L 3999,222 L 3999,214 L 4000,211 L 4000,204 L 3999,200 L 3999,194 L 4000,190 L 4000,186 L 3999,163 L 3999,159 L 4000,155 L 4000,149 L 3999,145 L 3999,138 L 4000,135 L 4000,127 L 3999,124 L 3999,115 L 4000,112 L 4000,110 L 4009,104 L 4016,100 L 4030,94 L 4036,92 L 4050,87 L 4054,86 L 4068,83 L 4071,82 L 4085,80 L 4088,80 L 4102,80 L 4105,80 L 4119,81 L 4122,81 L 4136,84 L 4140,84 L 4154,88 L 4159,90 L 4172,96 L 4179,99 L 4193,106 L 4200,110 L 4200,112 L 4199,115 L 4199,124 L 4200,127 L 4200,135 L 4199,138 L 4199,145 L 4200,149 L 4200,155 L 4199,159 L 4199,163 L 4200,186 L 4200,190 L 4199,194 L 4199,200 L 4200,204 L 4200,211 L 4199,214 L 4199,222 L 4200,225 L 4200,234 L 4199,237 L 4199,248 L 4200,250 L 4199,263 L 4199,264 L 4199,281 L 4199,282 L 4199,302 L 4199,302 L 4208,320 L 4216,334 L 4230,355 L 4239,369 L 4260,396 L 4272,410 L 4306,445 L 4320,459 L 4356,491 L 4356,594 L 4355,618 L 4355,621 L 4350,669 L 4350,672 L 4340,722 L 4339,724 L 4324,777 L 4323,779 L 4312,807 L 4274,898 L 4209,880 L 4186,875 L 4146,866 L 4109,860 L 4089,858 L 4043,854 L 4025,853 L 3994,854 L 3978,855 L 3958,858 L 3943,861 L 3929,864 L 3916,868 L 3906,872 L 3893,877 L 3886,880 L 3874,887 L 3869,890 L 3858,897 L 3854,901 L 3844,909 L 3840,913 L 3832,922 L 3828,926 L 3820,936 L 3817,941 L 3810,952 L 3807,959 L 3801,970 L 3797,979 L 3793,991 L 3475,1309 L 3472,1312 L 3469,1314 L 3462,1320 L 3460,1322 L 3451,1328 L 3448,1329 L 3439,1335 L 3436,1336 L 3430,1338 L 3419,1343 L 3418,1343 L 3405,1334 L 3395,1327 L 3382,1319 L 3374,1315 L 3362,1310 L 3356,1307 L 3343,1303 L 3338,1302 L 3326,1299 L 3322,1299 L 3310,1297 L 3306,1297 L 3293,1297 L 3289,1297 L 3277,1299 L 3273,1299 L 3260,1302 L 3255,1303 L 3243,1307 L 3237,1310 L 3225,1315 L 3217,1319 L 484,1319 L 480,1319 L 477,1319 L 469,1320 L 466,1321 L 458,1322 L 455,1323 L 446,1326 L 443,1327 L 438,1329 L 423,1335 L 422,1335 L 410,1331 L 409,1331 L 404,1329 L 402,1328 L 400,1327 L 392,1325 L 390,1324 L 388,1323 L 381,1321 L 378,1320 L 378,1320 L 369,1316 L 367,1315 L 366,1314 L 366,1314 L 356,1314 L 343,1314 L 333,1314 L 320,1314 L 307,1314 L 294,1314 L 280,1314 L 279,1312 L 278,1311 L 272,1300 L 271,1299 L 265,1288 L 265,1287 L 259,1277 L 258,1276 L 253,1267 L 252,1266 L 247,1256 L 246,1255 L 241,1246 L 240,1245 L 235,1235 L 234,1234 L 228,1223 L 227,1222 L 221,1211 L 220,1210 z " style="fill-opacity:1.000000;fill:rgb(31,218,176);stroke:rgb(0,0,0);stroke-width:2"/></g>
<g fill-rule="evenodd"><path d="M 2079,163 L 2079,159 L 2080,155 L 2080,149 L 2079,145 L 2079,138 L 2080,135 L 2080,127 L 2079,124 L 2079,115 L 2080,112 L 2080,110 L 2089,104 L 2097,100 L 2110,94 L 2116,92 L 2130,87 L 2134,86 L 2148,83 L 2152,82 L 2165,80 L 2168,80 L 2182,80 L 2185,80 L 2199,81 L 2202,81 L 2216,84 L 2220,84 L 2234,88 L 2239,90 L 2253,96 L 2259,99 L 2273,106 L 2280,110 L 2280,112 L 2279,115 L 2279,124 L 2280,127 L 2280,135 L 2279,138 L 2279,145 L 2280,149 L 2280,155 L 2279,159 L 2279,163 L 2280,186 L 2280,190 L 2279,194 L 2279,200 L 2280,204 L 2280,211 L 2279,214 L 2279,222 L 2280,225 L 2280,234 L 2279,237 L 2279,248 L 2280,250 L 2280,263 L 2279,264 L 2279,281 L 2280,282 L 2280,302 L 2280,302 L 2280,302 L 2280,411 L 2281,415 L 2286,427 L 2287,430 L 2286,446 L 2283,462 L 2281,475 L 2278,489 L 2275,498 L 2270,511 L 2268,518 L 2262,529 L 2260,534 L 2253,545 L 2251,548 L 2243,558 L 2241,561 L 2232,570 L 2229,573 L 2220,581 L 2217,583 L 2215,584 L 2205,586 L 2201,587 L 2189,588 L 2186,588 L 2173,588 L 2170,588 L 2158,587 L 2154,586 L 2144,584 L 2142,583 L 2139,581 L 2130,573 L 2127,570 L 2119,561 L 2116,558 L 2108,548 L 2106,545 L 2099,534 L 2097,529 L 2091,518 L 2089,511 L 2084,498 L 2081,489 L 2078,475 L 2076,462 L 2073,446 L 2072,430 L 2073,427 L 2078,415 L 2080,411 L 2080,302 L 2080,302 L 2080,302 L 2080,282 L 2080,281 L 2079,264 L 2080,263 L 2080,250 L 2079,248 L 2079,237 L 2080,234 L 2080,225 L 2079,222 L 2079,214 L 2080,211 L 2080,204 L 2079,200 L 2079,194 L 2080,190 L 2080,186 L 2079,163 z " style="fill-opacity:1.000000;fill:rgb(202,153,2);stroke:rgb(0,0,0);stroke-width:2"/></g>
<g fill-rule="evenodd"><path d="M 4699,4134 L 4400,4134 L 4399,4127 L 4399,4104 L 4399,4101 L 4399,4082 L 4399,4081 L 4399,4064 L 4399,4063 L 4399,4050 L 4399,4048 L 4399,4037 L 4400,4034 L 4400,4025 L 4399,4022 L 4399,4014 L 4400,4011 L 4400,4003 L 4399,4000 L 4399,3994 L 4400,3990 L 4400,3986 L 4399,3963 L 4399,3959 L 4400,3955 L 4400,3949 L 4399,3945 L 4399,3938 L 4400,3935 L 4400,3927 L 4399,3924 L 4399,3915 L 4400,3912 L 4399,3901 L 4399,3899 L 4399,3886 L 4399,3884 L 4399,3867 L 4399,3867 L 4399,3853 L 4398,3849 L 4389,3832 L 4381,3818 L 4368,3797 L 4358,3783 L 4338,3757 L 4326,3743 L 4293,3709 L 4279,3695 L 4254,3672 L 4226,3649 L 4208,3636 L 4200,3629 L 4164,3585 L 4152,3571 L 4119,3535 L 4083,3498 L 4068,3485 L 3999,3423 L 3991,3413 L 3979,3400 L 3935,3351 L 3874,3326 L 3860,3320 L 3798,3298 L 3795,3296 L 3733,3267 L 3670,3241 L 3656,3236 L 3626,3224 L 3462,3061 L 3417,3013 L 3415,3011 L 3371,2960 L 3330,2907 L 3328,2905 L 3288,2848 L 3250,2788 L 3249,2787 L 3251,2784 L 3280,2735 L 3283,2730 L 3337,2636 L 3339,2633 L 3364,2589 L 3366,2587 L 3373,2574 L 3404,2518 L 3414,2481 L 3415,2477 L 3431,2418 L 3431,2416 L 3435,2401 L 3450,2352 L 3466,2306 L 3472,2292 L 3488,2252 L 3506,2213 L 3510,2206 L 3546,2206 L 3735,2202 L 3770,2201 L 3814,2198 L 3836,2196 L 3854,2193 L 3870,2189 L 3880,2187 L 3883,2186 L 3894,2182 L 3902,2180 L 3915,2177 L 3922,2176 L 3936,2175 L 3941,2175 L 3948,2174 L 3953,2175 L 3966,2175 L 3973,2176 L 3987,2178 L 3994,2180 L 4008,2183 L 4016,2186 L 4017,2186 L 4031,2190 L 4044,2193 L 4062,2196 L 4089,2198 L 4110,2200 L 4113,2202 L 4137,2219 L 4151,2229 L 4175,2249 L 4175,2256 L 4175,2270 L 4174,2302 L 4173,2316 L 4169,2349 L 4167,2362 L 4159,2397 L 4155,2410 L 4149,2428 L 4149,2474 L 4150,2491 L 4150,2493 L 4152,2495 L 4169,2528 L 4170,2530 L 4189,2558 L 4191,2561 L 4211,2586 L 4213,2588 L 4224,2599 L 4523,2898 L 4579,3034 L 4583,3045 L 4584,3048 L 4590,3067 L 4591,3070 L 4594,3088 L 4595,3090 L 4597,3108 L 4597,3111 L 4597,3119 L 4597,3350 L 4588,3364 L 4579,3380 L 4562,3413 L 4557,3424 L 4544,3457 L 4542,3464 L 4533,3498 L 4532,3502 L 4527,3536 L 4526,3539 L 4524,3573 L 4524,3576 L 4526,3609 L 4527,3613 L 4532,3646 L 4533,3651 L 4542,3685 L 4544,3692 L 4557,3725 L 4562,3736 L 4579,3769 L 4588,3784 L 4609,3818 L 4618,3830 L 4618,3830 L 4620,3832 L 4627,3836 L 4628,3837 L 4650,3849 L 4657,3854 L 4662,3858 L 4683,3871 L 4688,3874 L 4702,3883 L 4716,3893 L 4735,3907 L 4751,3918 L 4754,3920 L 4701,3973 L 4700,3974 L 4700,3975 L 4700,3976 L 4699,3977 L 4699,4134 z " style="fill-opacity:1.000000;fill:rgb(185,114,157);stroke:rgb(0,0,0);stroke-width:2"/></g>
<g fill-rule="evenodd"><path d="M 3599,163 L 3599,159 L 3600,155 L 3600,149 L 3599,145 L 3599,138 L 3600,135 L 3600,127 L 3599,124 L 3599,115 L 3600,112 L 3600,110 L 3609,104 L 3616,100 L 3630,94 L 3636,92 L 3650,87 L 3654,86 L 3668,83 L 3671,82 L 3685,80 L 3688,80 L 3702,80 L 3705,80 L 3719,81 L 3722,81 L 3736,84 L 3740,84 L 3754,88 L 3759,90 L 3773,96 L 3779,99 L 3793,106 L 3800,110 L 3800,112 L 3799,115 L 3799,124 L 3800,127 L 3800,135 L 3799,138 L 3799,145 L 3800,149 L 3800,155 L 3799,159 L 3799,163 L 3800,186 L 3800,190 L 3799,194 L 3799,200 L 3800,204 L 3800,211 L 3799,214 L 3799,222 L 3800,225 L 3800,234 L 3799,237 L 3799,248 L 3800,250 L 3799,263 L 3799,264 L 3799,281 L 3799,282 L 3800,302 L 3799,302 L 3799,302 L 3799,371 L 3798,375 L 3793,387 L 3788,403 L 3785,415 L 3782,430 L 3780,442 L 3778,456 L 3778,468 L 3778,481 L 3778,493 L 3780,507 L 3782,519 L 3785,534 L 3788,546 L 3793,562 L 3798,574 L 3806,593 L 3812,605 L 3825,627 L 3833,639 L 3842,651 L 3830,679 L 3830,685 L 3828,713 L 3826,729 L 3822,748 L 3819,762 L 3815,776 L 3810,789 L 3806,799 L 3800,811 L 3796,819 L 3789,830 L 3785,837 L 3777,847 L 3773,852 L 3764,861 L 3759,866 L 3750,874 L 3744,878 L 3733,886 L 3726,890 L 3715,896 L 3706,900 L 3693,905 L 3681,910 L 3668,914 L 3651,918 L 3637,920 L 3613,923 L 3612,923 L 3606,912 L 3598,894 L 3593,882 L 3588,866 L 3585,854 L 3582,839 L 3580,827 L 3578,813 L 3578,801 L 3578,788 L 3578,776 L 3580,762 L 3582,750 L 3585,735 L 3588,723 L 3593,707 L 3598,695 L 3599,691 L 3599,302 L 3600,302 L 3600,302 L 3599,282 L 3599,281 L 3599,264 L 3599,263 L 3600,250 L 3599,248 L 3599,237 L 3600,234 L 3600,225 L 3599,222 L 3599,214 L 3600,211 L 3600,204 L 3599,200 L 3599,194 L 3600,190 L 3600,186 L 3599,163 z " style="fill-opacity:1.000000;fill:rgb(73,44,128);stroke:rgb(0,0,0);stroke-width:2"/></g>
<g fill-rule="evenodd"><path d="M 2943,153 L 2957,141 L 2971,129 L 2985,119 L 2995,112 L 3009,104 L 3016,100 L 3030,94 L 3036,92 L 3050,87 L 3054,86 L 3068,83 L 3072,82 L 3085,80 L 3088,80 L 3102,80 L 3105,80 L 3119,81 L 3122,81 L 3136,84 L 3140,84 L 3154,88 L 3159,90 L 3173,96 L 3179,99 L 3193,106 L 3200,110 L 3200,112 L 3199,115 L 3199,124 L 3200,127 L 3200,135 L 3199,138 L 3199,145 L 3200,149 L 3200,155 L 3199,159 L 3199,163 L 3200,186 L 3200,190 L 3199,194 L 3199,200 L 3200,204 L 3200,211 L 3199,214 L 3199,222 L 3200,225 L 3200,234 L 3199,237 L 3199,248 L 3200,250 L 3200,263 L 3199,264 L 3199,281 L 3199,282 L 3200,302 L 3200,302 L 3199,302 L 3199,741 L 3198,745 L 3195,753 L 3195,759 L 3195,760 L 3196,776 L 3196,778 L 3197,791 L 3197,792 L 3197,805 L 3197,805 L 3198,816 L 3198,818 L 3198,828 L 3198,829 L 3199,838 L 3199,840 L 3199,849 L 3200,850 L 3200,859 L 3200,861 L 3200,870 L 3201,871 L 3201,881 L 3201,883 L 3202,894 L 3202,894 L 3202,907 L 3202,908 L 3203,921 L 3203,923 L 3204,939 L 3204,940 L 3204,953 L 3201,955 L 3185,961 L 3172,965 L 3157,969 L 3145,972 L 3131,974 L 3119,975 L 3106,976 L 3093,976 L 3080,975 L 3068,974 L 3054,972 L 3042,969 L 3027,965 L 3014,961 L 2998,955 L 2985,949 L 2965,939 L 2953,932 L 2929,916 L 2917,907 L 2887,883 L 2875,872 L 2836,833 L 2824,819 L 2797,789 L 2771,754 L 2759,737 L 2712,667 L 2713,665 L 2716,650 L 2717,647 L 2726,610 L 2760,579 L 2791,548 L 2804,534 L 2828,508 L 2849,482 L 2859,468 L 2889,426 L 2898,412 L 2918,376 L 2924,362 L 2938,331 L 2939,327 L 2939,315 L 2940,306 L 2940,289 L 2939,283 L 2939,267 L 2940,263 L 2940,248 L 2939,244 L 2939,229 L 2940,226 L 2940,212 L 2939,210 L 2939,196 L 2939,194 L 2940,185 L 2939,164 L 2939,157 L 2943,153 z " style="fill-opacity:1.000000;fill:rgb(126,197,153);stroke:rgb(0,0,0);stroke-width:2"/></g>
<g fill-rule="evenodd"><path d="M 3199,163 L 3199,159 L 3200,155 L 3200,149 L 3199,145 L 3199,138 L 3200,135 L 3200,127 L 3199,124 L 3199,115 L 3200,112 L 3200,110 L 3209,104 L 3216,100 L 3230,94 L 3236,92 L 3250,87 L 3254,86 L 3268,83 L 3271,82 L 3285,80 L 3288,80 L 3302,80 L 3305,80 L 3319,81 L 3322,81 L 3336,84 L 3340,84 L 3354,88 L 3359,90 L 3373,96 L 3379,99 L 3393,106 L 3400,110 L 3400,112 L 3399,115 L 3399,124 L 3400,127 L 3400,135 L 3399,138 L 3399,145 L 3400,149 L 3400,155 L 3399,159 L 3399,163 L 3400,186 L 3400,190 L 3399,194 L 3399,200 L 3400,204 L 3400,211 L 3399,214 L 3399,222 L 3400,225 L 3400,234 L 3399,237 L 3399,248 L 3400,250 L 3400,263 L 3399,264 L 3399,281 L 3399,282 L 3400,302 L 3400,302 L 3399,302 L 3399,741 L 3401,745 L 3406,757 L 3411,773 L 3414,785 L 3417,800 L 3419,812 L 3421,826 L 3421,838 L 3421,851 L 3421,863 L 3419,877 L 3417,889 L 3414,904 L 3411,916 L 3406,932 L 3401,944 L 3398,952 L 3388,956 L 3375,960 L 3359,964 L 3347,967 L 3332,969 L 3320,970 L 3306,971 L 3293,971 L 3279,970 L 3267,969 L 3252,967 L 3240,964 L 3223,960 L 3211,956 L 3204,953 L 3204,940 L 3204,939 L 3203,923 L 3203,921 L 3202,908 L 3202,907 L 3202,894 L 3202,894 L 3201,883 L 3201,881 L 3201,871 L 3200,870 L 3200,861 L 3200,859 L 3200,850 L 3199,849 L 3199,840 L 3199,838 L 3198,829 L 3198,828 L 3198,818 L 3198,816 L 3197,805 L 3197,805 L 3197,792 L 3197,791 L 3196,778 L 3196,776 L 3195,760 L 3195,759 L 3195,753 L 3198,745 L 3199,741 L 3199,302 L 3200,302 L 3200,302 L 3199,282 L 3199,281 L 3199,264 L 3200,263 L 3200,250 L 3199,248 L 3199,237 L 3200,234 L 3200,225 L 3199,222 L 3199,214 L 3200,211 L 3200,204 L 3199,200 L 3199,194 L 3200,190 L 3200,186 L 3199,163 z " style="fill-opacity:1.000000;fill:rgb(213,233,128);stroke:rgb(0,0,0);stroke-width:2"/></g>
<g fill-rule="evenodd"><path d="M 3799,163 L 3799,159 L 3800,155 L 3800,149 L 3799,145 L 3799,138 L 3800,135 L 3800,127 L 3799,124 L 3799,115 L 3800,112 L 3800,110 L 3809,104 L 3816,100 L 3830,94 L 3836,92 L 3850,87 L 3854,86 L 3868,83 L 3871,82 L 3885,80 L 3888,80 L 3902,80 L 3905,80 L 3919,81 L 3922,81 L 3936,84 L 3940,84 L 3954,88 L 3959,90 L 3973,96 L 3979,99 L 3993,106 L 4000,110 L 4000,112 L 3999,115 L 3999,124 L 4000,127 L 4000,135 L 3999,138 L 3999,145 L 4000,149 L 4000,155 L 3999,159 L 3999,163 L 4000,186 L 4000,190 L 3999,194 L 3999,200 L 4000,204 L 4000,211 L 3999,214 L 3999,222 L 4000,225 L 4000,234 L 3999,237 L 3999,248 L 4000,250 L 3999,263 L 3999,264 L 3999,281 L 3999,282 L 4000,302 L 3999,302 L 3999,302 L 3999,371 L 4001,375 L 4006,387 L 4011,403 L 4014,415 L 4017,430 L 4019,442 L 4021,456 L 4021,468 L 4021,481 L 4021,493 L 4019,507 L 4017,519 L 4014,534 L 4011,546 L 4008,556 L 4004,560 L 3996,569 L 3984,580 L 3975,588 L 3961,598 L 3951,606 L 3936,615 L 3924,621 L 3906,630 L 3893,635 L 3870,643 L 3856,647 L 3842,651 L 3833,639 L 3825,627 L 3812,605 L 3806,593 L 3798,574 L 3793,562 L 3788,546 L 3785,534 L 3782,519 L 3780,507 L 3778,493 L 3778,481 L 3778,468 L 3778,456 L 3780,442 L 3782,430 L 3785,415 L 3788,403 L 3793,387 L 3798,375 L 3799,371 L 3799,302 L 3799,302 L 3800,302 L 3799,282 L 3799,281 L 3799,264 L 3799,263 L 3800,250 L 3799,248 L 3799,237 L 3800,234 L 3800,225 L 3799,222 L 3799,214 L 3800,211 L 3800,204 L 3799,200 L 3799,194 L 3800,190 L 3800,186 L 3799,163 z " style="fill-opacity:1.000000;fill:rgb(178,234,201);stroke:rgb(0,0,0);stroke-width:2"/></g>
</svg>
