<?xml version="1.0" standalone="no"?>
<!DOCTYPE svg PUBLIC "-//W3C//DTD SVG 1.1//EN"
"http://www.w3.org/Graphics/SVG/1.1/DTD/svg11.dtd">
<svg width="4860" height="4118" viewBox="0 0 4860 4118" version="1.1"
xmlns="http://www.w3.org/2000/svg"
xmlns:xlink="http://www.w3.org/1999/xlink">
<g fill-rule="evenodd"><path d="M 1768,3970 L 1766,3984 L 1762,3997 L 1755,4009 L 1746,4020 L 1736,4028 L 1723,4034 L 1710,4038 L 1696,4038 L 1683,4036 L 1670,4031 L 1658,4024 L 1648,4015 L 1640,4003 L 1635,3991 L 1632,3977 L 1632,3946 L 1633,3933 L 1637,3920 L 1644,3908 L 1653,3897 L 1664,3889 L 1676,3883 L 1689,3879 L 1703,3878 L 1717,3881 L 1729,3885 L 1741,3893 L 1751,3902 L 1759,3913 L 1764,3926 L 1767,3940 L 1768,3970 z " style="fill-opacity:1.000000;fill:rgb(41,35,190);stroke:rgb(0,0,0);stroke-width:2"/></g>
<g fill-rule="evenodd"><path d="M 1968,3970 L 1966,3984 L 1962,3997 L 1955,4009 L 1946,4020 L 1935,4028 L 1923,4034 L 1910,4038 L 1896,4038 L 1882,4036 L 1870,4031 L 1858,4024 L 1848,4015 L 1840,4003 L 1835,3991 L 1832,3977 L 1832,3946 L 1833,3933 L 1837,3920 L 1844,3908 L 1853,3897 L 1864,3889 L 1876,3883 L 1889,3879 L 1903,3878 L 1917,3881 L 1929,3885 L 1941,3893 L 1951,3902 L 1959,3913 L 1964,3926 L 1967,3940 L 1968,3970 z " style="fill-opacity:1.000000;fill:rgb(132,225,108);stroke:rgb(0,0,0);stroke-width:2"/></g>
<g fill-rule="evenodd"><path d="M 2168,3970 L 2166,3984 L 2162,3997 L 2155,4009 L 2146,4020 L 2135,4028 L 2123,4034 L 2110,4038 L 2096,4038 L 2082,4036 L 2070,4031 L 2058,4024 L 2048,4015 L 2040,4003 L 2035,3991 L 2032,3977 L 2032,3946 L 2033,3933 L 2037,3920 L 2044,3908 L 2053,3897 L 2064,3889 L 2076,3883 L 2089,3879 L 2103,3878 L 2117,3881 L 2129,3885 L 2141,3893 L 2151,3902 L 2159,3913 L 2164,3926 L 2167,3940 L 2168,3970 z " style="fill-opacity:1.000000;fill:rgb(214,174,82);stroke:rgb(0,0,0);stroke-width:2"/></g>
<g fill-rule="evenodd"><path d="M 2368,3970 L 2366,3984 L 2362,3997 L 2355,4009 L 2346,4020 L 2335,4028 L 2323,4034 L 2310,4038 L 2296,4038 L 2282,4036 L 2270,4031 L 2258,4024 L 2248,4015 L 2240,4003 L 2235,3991 L 2232,3977 L 2232,3946 L 2233,3933 L 2237,3920 L 2244,3908 L 2253,3897 L 2264,3889 L 2276,3883 L 2289,3879 L 2303,3878 L 2317,3881 L 2329,3885 L 2341,3893 L 2351,3902 L 2359,3913 L 2364,3926 L 2367,3940 L 2368,3970 z " style="fill-opacity:1.000000;fill:rgb(144,73,241);stroke:rgb(0,0,0);stroke-width:2"/></g>
<g fill-rule="evenodd"><path d="M 2567,3970 L 2566,3984 L 2562,3997 L 2555,4009 L 2546,4020 L 2535,4028 L 2523,4034 L 2510,4038 L 2496,4038 L 2482,4036 L 2470,4031 L 2458,4024 L 2448,4015 L 2440,4003 L 2435,3991 L 2432,3977 L 2431,3946 L 2433,3933 L 2437,3920 L 2444,3908 L 2453,3897 L 2464,3889 L 2476,3883 L 2489,3879 L 2503,3878 L 2517,3881 L 2529,3885 L 2541,3893 L 2551,3902 L 2559,3913 L 2564,3926 L 2567,3940 L 2567,3970 z " style="fill-opacity:1.000000;fill:rgb(241,187,233);stroke:rgb(0,0,0);stroke-width:2"/></g>
<g fill-rule="evenodd"><path d="M 3167,3970 L 3166,3984 L 3162,3997 L 3155,4009 L 3146,4020 L 3135,4028 L 3123,4034 L 3110,4038 L 3096,4038 L 3082,4036 L 3070,4031 L 3058,4024 L 3048,4015 L 3040,4003 L 3035,3991 L 3032,3977 L 3031,3946 L 3033,3933 L 3037,3920 L 3044,3908 L 3053,3897 L 3063,3889 L 3076,3883 L 3089,3879 L 3103,3878 L 3117,3881 L 3129,3885 L 3141,3893 L 3151,3902 L 3159,3913 L 3164,3926 L 3167,3940 L 3167,3970 z " style="fill-opacity:1.000000;fill:rgb(235,179,166);stroke:rgb(0,0,0);stroke-width:2"/></g>
<g fill-rule="evenodd"><path d="M 3767,3970 L 3766,3984 L 3762,3997 L 3755,4009 L 3746,4020 L 3735,4028 L 3723,4034 L 3710,4038 L 3696,4038 L 3682,4036 L 3669,4031 L 3658,4024 L 3648,4015 L 3640,4003 L 3635,3991 L 3632,3977 L 3631,3946 L 3633,3933 L 3637,3920 L 3644,3908 L 3653,3897 L 3663,3889 L 3676,3883 L 3689,3879 L 3703,3878 L 3716,3881 L 3729,3885 L 3741,3893 L 3751,3902 L 3759,3913 L 3764,3926 L 3767,3940 L 3767,3970 z " style="fill-opacity:1.000000;fill:rgb(219,60,135);stroke:rgb(0,0,0);stroke-width:2"/></g>
<g fill-rule="evenodd"><path d="M 3967,3970 L 3966,3984 L 3962,3997 L 3955,4009 L 3946,4020 L 3935,4028 L 3923,4034 L 3910,4038 L 3896,4038 L 3882,4036 L 3869,4031 L 3858,4024 L 3848,4015 L 3840,4003 L 3835,3991 L 3832,3977 L 3831,3946 L 3833,3933 L 3837,3920 L 3844,3908 L 3853,3897 L 3863,3889 L 3876,3883 L 3889,3879 L 3903,3878 L 3916,3881 L 3929,3885 L 3941,3893 L 3951,3902 L 3959,3913 L 3964,3926 L 3967,3940 L 3967,3970 z " style="fill-opacity:1.000000;fill:rgb(12,62,153);stroke:rgb(0,0,0);stroke-width:2"/></g>
<g fill-rule="evenodd"><path d="M 4167,3970 L 4166,3984 L 4162,3997 L 4155,4009 L 4146,4020 L 4135,4028 L 4123,4034 L 4110,4038 L 4096,4038 L 4082,4036 L 4069,4031 L 4058,4024 L 4048,4015 L 4040,4003 L 4035,3991 L 4032,3977 L 4031,3946 L 4033,3933 L 4037,3920 L 4044,3908 L 4053,3897 L 4063,3889 L 4076,3883 L 4089,3879 L 4103,3878 L 4116,3881 L 4129,3885 L 4141,3893 L 4151,3902 L 4159,3913 L 4164,3926 L 4167,3940 L 4167,3970 z " style="fill-opacity:1.000000;fill:rgb(36,94,13);stroke:rgb(0,0,0);stroke-width:2"/></g>
<g fill-rule="evenodd"><path d="M 4367,3970 L 4366,3984 L 4362,3997 L 4355,4009 L 4346,4020 L 4335,4028 L 4323,4034 L 4310,4038 L 4296,4038 L 4282,4036 L 4269,4031 L 4258,4024 L 4248,4015 L 4240,4003 L 4235,3991 L 4232,3977 L 4231,3946 L 4233,3933 L 4237,3920 L 4244,3908 L 4253,3897 L 4263,3889 L 4276,3883 L 4289,3879 L 4303,3878 L 4316,3881 L 4329,3885 L 4341,3893 L 4351,3902 L 4359,3913 L 4364,3926 L 4367,3940 L 4367,3970 z " style="fill-opacity:1.000000;fill:rgb(28,6,183);stroke:rgb(0,0,0);stroke-width:2"/></g>
<g fill-rule="evenodd"><path d="M 1048,171 L 1046,184 L 1042,197 L 1035,209 L 1026,220 L 1016,228 L 1003,234 L 990,238 L 976,239 L 963,236 L 950,232 L 938,224 L 928,215 L 920,204 L 915,191 L 912,177 L 912,147 L 913,133 L 917,120 L 924,108 L 933,97 L 944,89 L 956,83 L 969,79 L 983,79 L 997,81 L 1010,86 L 1021,93 L 1031,102 L 1039,114 L 1044,126 L 1047,140 L 1048,171 z " style="fill-opacity:1.000000;fill:rgb(71,222,179);stroke:rgb(0,0,0);stroke-width:2"/></g>
<g fill-rule="evenodd"><path d="M 1248,171 L 1246,184 L 1242,197 L 1235,209 L 1226,220 L 1216,228 L 1203,234 L 1190,238 L 1176,239 L 1163,236 L 1150,232 L 1138,224 L 1128,215 L 1120,204 L 1115,191 L 1112,177 L 1112,147 L 1113,133 L 1117,120 L 1124,108 L 1133,97 L 1144,89 L 1156,83 L 1169,79 L 1183,79 L 1197,81 L 1210,86 L 1221,93 L 1231,102 L 1239,114 L 1244,126 L 1247,140 L 1248,171 z " style="fill-opacity:1.000000;fill:rgb(18,77,200);stroke:rgb(0,0,0);stroke-width:2"/></g>
<g fill-rule="evenodd"><path d="M 1448,171 L 1446,184 L 1442,197 L 1435,209 L 1426,220 L 1416,228 L 1403,234 L 1390,238 L 1376,239 L 1363,236 L 1350,232 L 1338,224 L 1328,215 L 1320,204 L 1315,191 L 1312,177 L 1312,147 L 1313,133 L 1317,120 L 1324,108 L 1333,97 L 1344,89 L 1356,83 L 1369,79 L 1383,79 L 1397,81 L 1410,86 L 1421,93 L 1431,102 L 1439,114 L 1444,126 L 1447,140 L 1448,171 z " style="fill-opacity:1.000000;fill:rgb(67,187,139);stroke:rgb(0,0,0);stroke-width:2"/></g>
<g fill-rule="evenodd"><path d="M 2847,171 L 2846,184 L 2842,197 L 2835,209 L 2826,220 L 2815,228 L 2803,234 L 2790,238 L 2776,239 L 2762,236 L 2750,232 L 2738,224 L 2728,215 L 2720,204 L 2715,191 L 2712,177 L 2711,147 L 2713,133 L 2717,120 L 2724,108 L 2733,97 L 2744,89 L 2756,83 L 2769,79 L 2783,79 L 2797,81 L 2809,86 L 2821,93 L 2831,102 L 2839,114 L 2844,126 L 2847,140 L 2847,171 z " style="fill-opacity:1.000000;fill:rgb(166,31,3);stroke:rgb(0,0,0);stroke-width:2"/></g>
<g fill-rule="evenodd"><path d="M 4367,171 L 4366,184 L 4362,197 L 4355,209 L 4346,220 L 4335,228 L 4323,234 L 4310,238 L 4296,239 L 4282,236 L 4269,232 L 4258,224 L 4248,215 L 4240,204 L 4235,191 L 4232,177 L 4231,147 L 4233,133 L 4237,120 L 4244,108 L 4253,97 L 4263,89 L 4276,83 L 4289,79 L 4303,79 L 4316,81 L 4329,86 L 4341,93 L 4351,102 L 4359,114 L 4364,126 L 4367,140 L 4367,171 z " style="fill-opacity:1.000000;fill:rgb(90,125,9);stroke:rgb(0,0,0);stroke-width:2"/></g>
<g fill-rule="evenodd"><path d="M 4567,171 L 4566,184 L 4562,197 L 4555,209 L 4546,220 L 4535,228 L 4523,234 L 4510,238 L 4496,239 L 4482,236 L 4469,232 L 4458,224 L 4448,215 L 4440,204 L 4434,191 L 4432,177 L 4431,147 L 4433,133 L 4437,120 L 4444,108 L 4453,97 L 4463,89 L 4476,83 L 4489,79 L 4503,79 L 4516,81 L 4529,86 L 4541,93 L 4551,102 L 4559,114 L 4564,126 L 4567,140 L 4567,171 z " style="fill-opacity:1.000000;fill:rgb(56,37,31);stroke:rgb(0,0,0);stroke-width:2"/></g>
<g fill-rule="evenodd"><path d="M 616,4118 L 583,4118 L 550,4111 L 520,4097 L 493,4077 L 470,4052 L 453,4023 L 443,3992 L 440,3958 L 443,3925 L 453,3893 L 470,3864 L 493,3839 L 520,3820 L 550,3806 L 583,3799 L 616,3799 L 649,3806 L 680,3820 L 707,3839 L 729,3864 L 746,3893 L 756,3925 L 760,3958 L 756,3992 L 746,4023 L 729,4052 L 707,4077 L 680,4097 L 649,4111 L 616,4118 z " style="fill-opacity:1.000000;fill:rgb(93,212,203);stroke:rgb(0,0,0);stroke-width:2"/></g>
<g fill-rule="evenodd"><path d="M 4859,3558 L 4856,3592 L 4846,3623 L 4829,3652 L 4806,3677 L 4779,3697 L 4749,3711 L 4716,3718 L 4683,3718 L 4650,3711 L 4619,3697 L 4592,3677 L 4570,3652 L 4553,3623 L 4543,3592 L 4539,3558 L 4543,3525 L 4553,3493 L 4570,3464 L 4592,3440 L 4619,3420 L 4650,3406 L 4683,3399 L 4716,3399 L 4749,3406 L 4779,3420 L 4806,3440 L 4829,3464 L 4846,3493 L 4856,3525 L 4859,3558 z " style="fill-opacity:1.000000;fill:rgb(252,150,245);stroke:rgb(0,0,0);stroke-width:2"/></g>
<g fill-rule="evenodd"><path d="M 683,0 L 716,0 L 749,6 L 780,20 L 807,40 L 829,65 L 846,94 L 856,125 L 860,159 L 856,192 L 846,224 L 829,253 L 807,278 L 780,297 L 749,311 L 716,318 L 683,318 L 650,311 L 620,297 L 593,278 L 570,253 L 553,224 L 543,192 L 540,159 L 543,125 L 553,94 L 570,65 L 593,40 L 620,20 L 650,6 L 683,0 z " style="fill-opacity:1.000000;fill:rgb(69,59,19);stroke:rgb(0,0,0);stroke-width:2"/></g>
<g fill-rule="evenodd"><path d="M 4859,1359 L 4856,1392 L 4846,1424 L 4829,1453 L 4806,1477 L 4779,1497 L 4749,1511 L 4716,1518 L 4683,1518 L 4650,1511 L 4619,1497 L 4592,1477 L 4570,1453 L 4553,1424 L 4543,1392 L 4539,1359 L 4543,1325 L 4553,1293 L 4570,1265 L 4592,1240 L 4619,1220 L 4650,1206 L 4683,1199 L 4716,1199 L 4749,1206 L 4779,1220 L 4806,1240 L 4829,1265 L 4846,1293 L 4856,1325 L 4859,1359 z " style="fill-opacity:1.000000;fill:rgb(13,137,10);stroke:rgb(0,0,0);stroke-width:2"/></g>
<g fill-rule="evenodd"><path d="M 209,1302 L 208,1315 L 204,1327 L 198,1337 L 190,1347 L 180,1354 L 168,1359 L 156,1362 L 143,1362 L 131,1359 L 120,1354 L 110,1347 L 101,1337 L 95,1327 L 91,1315 L 90,1302 L 91,1290 L 95,1278 L 101,1267 L 110,1258 L 120,1250 L 131,1245 L 143,1243 L 156,1243 L 168,1245 L 180,1250 L 190,1258 L 198,1267 L 204,1278 L 208,1290 L 209,1302 z " style="fill-opacity:1.000000;fill:rgb(28,219,174);stroke:rgb(0,0,0);stroke-width:2"/></g>
<g fill-rule="evenodd"><path d="M 209,1082 L 208,1094 L 204,1106 L 198,1117 L 190,1126 L 180,1134 L 168,1139 L 156,1141 L 143,1141 L 131,1139 L 120,1134 L 110,1126 L 101,1117 L 95,1106 L 91,1094 L 90,1082 L 91,1069 L 95,1057 L 101,1047 L 110,1037 L 120,1030 L 131,1025 L 143,1022 L 156,1022 L 168,1025 L 180,1030 L 190,1037 L 198,1047 L 204,1057 L 208,1069 L 209,1082 z " style="fill-opacity:1.000000;fill:rgb(50,32,154);stroke:rgb(0,0,0);stroke-width:2"/></g>
<g fill-rule="evenodd"><path d="M 209,882 L 208,894 L 204,906 L 198,917 L 190,926 L 180,934 L 168,939 L 156,941 L 143,941 L 131,939 L 120,934 L 110,926 L 101,917 L 95,906 L 91,894 L 90,882 L 91,869 L 95,857 L 101,847 L 110,837 L 120,830 L 131,825 L 143,822 L 156,822 L 168,825 L 180,830 L 190,837 L 198,847 L 204,857 L 208,869 L 209,882 z " style="fill-opacity:1.000000;fill:rgb(80,238,64);stroke:rgb(0,0,0);stroke-width:2"/></g>
<g fill-rule="evenodd"><path d="M 409,3368 L 408,3381 L 404,3393 L 398,3403 L 390,3413 L 380,3420 L 368,3425 L 356,3428 L 343,3428 L 331,3425 L 320,3420 L 310,3413 L 301,3403 L 295,3393 L 291,3381 L 290,3368 L 291,3356 L 295,3344 L 301,3333 L 310,3324 L 320,3316 L 331,3311 L 343,3309 L 356,3309 L 368,3311 L 380,3316 L 390,3324 L 398,3333 L 404,3344 L 408,3356 L 409,3368 z " style="fill-opacity:1.000000;fill:rgb(120,54,253);stroke:rgb(0,0,0);stroke-width:2"/></g>
<g fill-rule="evenodd"><path d="M 409,2718 L 408,2730 L 404,2742 L 398,2753 L 390,2762 L 380,2770 L 368,2775 L 356,2777 L 343,2777 L 331,2775 L 320,2770 L 310,2762 L 301,2753 L 295,2742 L 291,2730 L 290,2718 L 291,2705 L 295,2694 L 301,2683 L 310,2673 L 320,2666 L 331,2661 L 343,2658 L 356,2658 L 368,2661 L 380,2666 L 390,2673 L 398,2683 L 404,2694 L 408,2705 L 409,2718 z " style="fill-opacity:1.000000;fill:rgb(18,73,50);stroke:rgb(0,0,0);stroke-width:2"/></g>
<g fill-rule="evenodd"><path d="M 409,2498 L 408,2511 L 404,2523 L 398,2533 L 390,2543 L 380,2550 L 368,2555 L 356,2558 L 343,2558 L 331,2555 L 320,2550 L 310,2543 L 301,2533 L 295,2523 L 291,2511 L 290,2498 L 291,2486 L 295,2474 L 301,2463 L 310,2454 L 320,2446 L 331,2441 L 343,2439 L 356,2439 L 368,2441 L 380,2446 L 390,2454 L 398,2463 L 404,2474 L 408,2486 L 409,2498 z " style="fill-opacity:1.000000;fill:rgb(246,158,125);stroke:rgb(0,0,0);stroke-width:2"/></g>
<g fill-rule="evenodd"><path d="M 409,2278 L 408,2290 L 404,2302 L 398,2313 L 390,2322 L 380,2330 L 368,2335 L 356,2337 L 343,2337 L 331,2335 L 320,2330 L 310,2322 L 301,2313 L 295,2302 L 291,2290 L 290,2278 L 291,2265 L 295,2253 L 301,2243 L 310,2233 L 320,2226 L 331,2221 L 343,2218 L 356,2218 L 368,2221 L 380,2226 L 390,2233 L 398,2243 L 404,2253 L 408,2265 L 409,2278 z " style="fill-opacity:1.000000;fill:rgb(73,220,173);stroke:rgb(0,0,0);stroke-width:2"/></g>
<g fill-rule="evenodd"><path d="M 0,209 L 3,177 L 13,148 L 28,120 L 49,97 L 75,79 L 103,66 L 134,59 L 165,59 L 196,66 L 225,79 L 250,97 L 271,120 L 287,148 L 296,177 L 300,209 L 296,240 L 287,270 L 271,297 L 250,320 L 225,339 L 196,351 L 165,358 L 134,358 L 103,351 L 75,339 L 49,320 L 28,297 L 13,270 L 3,240 L 0,209 z " style="fill-opacity:1.000000;fill:rgb(79,20,242);stroke:rgb(0,0,0);stroke-width:2"/></g>
<g fill-rule="evenodd"><path d="M 0,3908 L 3,3877 L 13,3847 L 28,3820 L 49,3797 L 75,3778 L 103,3766 L 134,3759 L 165,3759 L 196,3766 L 225,3778 L 250,3797 L 271,3820 L 287,3847 L 296,3877 L 300,3908 L 296,3940 L 287,3969 L 271,3997 L 250,4020 L 225,4038 L 196,4051 L 165,4058 L 134,4058 L 103,4051 L 75,4038 L 49,4020 L 28,3997 L 13,3969 L 3,3940 L 0,3908 z " style="fill-opacity:1.000000;fill:rgb(68,64,102);stroke:rgb(0,0,0);stroke-width:2"/></g>
<g fill-rule="evenodd"><path d="M 2447,144 L 2512,144 L 2513,133 L 2517,120 L 2524,108 L 2533,97 L 2544,89 L 2556,83 L 2569,79 L 2583,79 L 2597,81 L 2609,86 L 2621,93 L 2631,102 L 2639,114 L 2644,126 L 2647,140 L 2647,171 L 2646,184 L 2642,197 L 2635,209 L 2626,220 L 2615,228 L 2603,234 L 2590,238 L 2576,239 L 2562,236 L 2550,232 L 2538,224 L 2528,215 L 2520,204 L 2515,191 L 2512,177 L 2512,174 L 2447,174 L 2446,184 L 2442,197 L 2435,209 L 2426,220 L 2415,228 L 2403,234 L 2395,237 L 2395,453 L 2394,456 L 2393,458 L 2392,461 L 2390,463 L 2240,613 L 2238,615 L 2235,617 L 2232,617 L 2229,618 L 2130,618 L 2127,617 L 2124,616 L 2121,615 L 2119,613 L 1995,489 L 1995,742 L 1998,742 L 2009,747 L 2019,755 L 2027,764 L 2033,775 L 2037,786 L 2039,799 L 2037,811 L 2033,823 L 2027,833 L 2019,842 L 2009,850 L 1998,855 L 1986,857 L 1973,857 L 1961,855 L 1950,850 L 1940,842 L 1932,833 L 1926,823 L 1922,811 L 1920,799 L 1922,786 L 1926,775 L 1932,764 L 1940,755 L 1950,747 L 1961,742 L 1965,742 L 1965,237 L 1962,236 L 1950,232 L 1938,224 L 1928,215 L 1920,204 L 1915,191 L 1912,177 L 1912,147 L 1913,133 L 1917,120 L 1924,108 L 1933,97 L 1944,89 L 1956,83 L 1969,79 L 1983,79 L 1997,81 L 2009,86 L 2021,93 L 2031,102 L 2039,114 L 2044,126 L 2047,140 L 2048,171 L 2046,184 L 2042,197 L 2035,209 L 2026,220 L 2015,228 L 2003,234 L 1995,237 L 1995,446 L 2136,588 L 2223,588 L 2365,446 L 2365,237 L 2362,236 L 2350,232 L 2338,224 L 2328,215 L 2320,204 L 2315,191 L 2312,177 L 2312,147 L 2313,133 L 2317,120 L 2324,108 L 2333,97 L 2344,89 L 2356,83 L 2369,79 L 2383,79 L 2397,81 L 2409,86 L 2421,93 L 2431,102 L 2439,114 L 2444,126 L 2447,140 L 2447,144 z " style="fill-opacity:1.000000;fill:rgb(208,107,196);stroke:rgb(0,0,0);stroke-width:2"/></g>
<g fill-rule="evenodd"><path d="M 407,2073 L 404,2082 L 398,2093 L 390,2103 L 380,2110 L 368,2115 L 356,2118 L 343,2118 L 331,2115 L 320,2110 L 310,2103 L 301,2093 L 295,2082 L 291,2071 L 290,2058 L 291,2046 L 295,2034 L 301,2023 L 310,2014 L 320,2006 L 331,2001 L 343,1999 L 356,1999 L 368,2001 L 380,2006 L 390,2014 L 398,2023 L 404,2034 L 407,2043 L 3080,2043 L 3605,1518 L 3608,1516 L 3610,1515 L 3613,1514 L 3616,1514 L 3643,1514 L 3645,1505 L 3652,1494 L 3660,1485 L 3670,1477 L 3681,1472 L 3693,1470 L 3706,1470 L 3718,1472 L 3729,1477 L 3739,1485 L 3747,1494 L 3753,1505 L 3757,1516 L 3758,1529 L 3757,1541 L 3753,1553 L 3747,1563 L 3739,1572 L 3729,1580 L 3718,1585 L 3706,1587 L 3693,1587 L 3681,1585 L 3670,1580 L 3660,1572 L 3652,1563 L 3645,1553 L 3643,1544 L 3622,1544 L 3097,2069 L 3095,2071 L 3092,2072 L 3089,2073 L 407,2073 z " style="fill-opacity:1.000000;fill:rgb(48,183,50);stroke:rgb(0,0,0);stroke-width:2"/></g>
<g fill-rule="evenodd"><path d="M 408,1834 L 3033,1834 L 3036,1824 L 3042,1814 L 3050,1805 L 3060,1797 L 3071,1792 L 3083,1790 L 3096,1790 L 3108,1792 L 3119,1797 L 3129,1805 L 3137,1814 L 3143,1824 L 3147,1836 L 3149,1849 L 3147,1861 L 3143,1873 L 3137,1883 L 3129,1892 L 3119,1900 L 3108,1905 L 3096,1907 L 3083,1907 L 3071,1905 L 3060,1900 L 3050,1892 L 3042,1883 L 3036,1873 L 3033,1864 L 407,1864 L 404,1872 L 398,1883 L 390,1892 L 380,1900 L 368,1905 L 356,1907 L 343,1907 L 331,1905 L 320,1900 L 310,1892 L 301,1883 L 295,1872 L 291,1860 L 290,1848 L 291,1835 L 295,1824 L 301,1813 L 310,1803 L 320,1796 L 331,1791 L 343,1788 L 356,1788 L 368,1791 L 380,1796 L 390,1803 L 398,1813 L 404,1824 L 408,1834 z " style="fill-opacity:1.000000;fill:rgb(59,161,34);stroke:rgb(0,0,0);stroke-width:2"/></g>
<g fill-rule="evenodd"><path d="M 407,1643 L 404,1653 L 398,1663 L 390,1673 L 380,1680 L 368,1685 L 356,1688 L 343,1688 L 331,1685 L 320,1680 L 310,1673 L 301,1663 L 295,1653 L 291,1641 L 290,1628 L 291,1616 L 295,1604 L 301,1593 L 310,1584 L 320,1576 L 331,1571 L 343,1569 L 356,1569 L 368,1571 L 380,1576 L 390,1584 L 398,1593 L 404,1604 L 407,1613 L 3224,1613 L 3849,988 L 3845,983 L 3842,971 L 3840,959 L 3842,946 L 3845,935 L 3852,924 L 3860,915 L 3870,907 L 3881,902 L 3893,900 L 3906,900 L 3918,902 L 3929,907 L 3939,915 L 3947,924 L 3953,935 L 3957,946 L 3958,959 L 3957,971 L 3953,983 L 3947,993 L 3939,1002 L 3929,1010 L 3918,1015 L 3906,1017 L 3893,1017 L 3881,1015 L 3870,1010 L 3240,1639 L 3238,1641 L 3236,1642 L 3233,1643 L 3230,1643 L 407,1643 z " style="fill-opacity:1.000000;fill:rgb(246,34,145);stroke:rgb(0,0,0);stroke-width:2"/></g>
<g fill-rule="evenodd"><path d="M 2663,3889 L 2676,3883 L 2689,3879 L 2703,3878 L 2717,3881 L 2729,3885 L 2741,3893 L 2751,3902 L 2759,3913 L 2764,3926 L 2767,3940 L 2767,3943 L 2832,3943 L 2833,3933 L 2837,3920 L 2844,3908 L 2853,3897 L 2864,3889 L 2876,3883 L 2889,3879 L 2903,3878 L 2917,3881 L 2929,3885 L 2941,3893 L 2951,3902 L 2959,3913 L 2964,3926 L 2967,3940 L 2967,3970 L 2966,3984 L 2962,3997 L 2955,4009 L 2946,4020 L 2935,4028 L 2923,4034 L 2910,4038 L 2896,4038 L 2882,4036 L 2870,4031 L 2858,4024 L 2848,4015 L 2840,4003 L 2835,3991 L 2832,3977 L 2832,3973 L 2767,3973 L 2766,3984 L 2762,3997 L 2755,4009 L 2746,4020 L 2735,4028 L 2723,4034 L 2710,4038 L 2696,4038 L 2682,4036 L 2670,4031 L 2658,4024 L 2648,4015 L 2640,4003 L 2635,3991 L 2632,3977 L 2631,3946 L 2633,3933 L 2637,3920 L 2642,3910 L 2005,3273 L 207,3273 L 204,3282 L 198,3293 L 190,3303 L 180,3310 L 168,3315 L 156,3318 L 143,3318 L 131,3315 L 120,3310 L 110,3303 L 101,3293 L 95,3282 L 91,3270 L 90,3258 L 91,3246 L 95,3234 L 101,3223 L 110,3214 L 120,3206 L 131,3201 L 135,3200 L 135,3096 L 131,3095 L 120,3090 L 110,3083 L 101,3074 L 95,3063 L 91,3051 L 90,3038 L 91,3026 L 95,3014 L 101,3003 L 110,2994 L 120,2987 L 131,2981 L 135,2981 L 135,2879 L 131,2879 L 120,2874 L 110,2866 L 101,2857 L 95,2846 L 91,2834 L 90,2822 L 91,2809 L 95,2798 L 101,2787 L 110,2777 L 120,2770 L 131,2765 L 135,2764 L 135,2668 L 131,2667 L 120,2662 L 110,2655 L 101,2645 L 95,2634 L 91,2622 L 90,2610 L 91,2598 L 95,2586 L 101,2575 L 110,2566 L 120,2558 L 131,2553 L 135,2552 L 135,2444 L 131,2443 L 120,2438 L 110,2431 L 101,2422 L 95,2411 L 91,2399 L 90,2386 L 91,2374 L 95,2362 L 101,2351 L 110,2342 L 120,2335 L 131,2330 L 135,2329 L 135,2228 L 131,2227 L 120,2222 L 110,2214 L 101,2205 L 95,2194 L 91,2182 L 90,2170 L 91,2157 L 95,2146 L 101,2135 L 110,2125 L 120,2118 L 131,2113 L 135,2112 L 135,2012 L 131,2011 L 120,2006 L 110,1999 L 101,1989 L 95,1979 L 91,1967 L 90,1954 L 91,1942 L 95,1930 L 101,1919 L 110,1910 L 120,1902 L 131,1897 L 135,1897 L 135,1792 L 131,1791 L 120,1786 L 110,1779 L 101,1770 L 95,1759 L 91,1747 L 90,1735 L 91,1722 L 95,1710 L 98,1704 L 34,1640 L 32,1638 L 31,1635 L 30,1633 L 30,1630 L 30,831 L 30,828 L 31,825 L 32,823 L 34,821 L 212,643 L 215,641 L 217,639 L 220,639 L 223,638 L 1091,638 L 1522,207 L 1520,204 L 1515,191 L 1512,177 L 1512,147 L 1513,133 L 1517,120 L 1524,108 L 1533,97 L 1544,89 L 1556,83 L 1569,79 L 1583,79 L 1597,81 L 1609,86 L 1616,89 L 1682,23 L 1684,21 L 1687,20 L 1690,19 L 1693,19 L 4546,19 L 4549,19 L 4552,20 L 4555,21 L 4557,23 L 4623,89 L 4625,91 L 4626,94 L 4627,97 L 4627,100 L 4627,1142 L 4627,1145 L 4626,1148 L 4625,1151 L 4623,1153 L 3557,2219 L 3555,2221 L 3552,2222 L 3549,2223 L 3546,2223 L 3516,2223 L 3516,2275 L 3383,2275 L 3383,2142 L 3516,2142 L 3516,2193 L 3540,2193 L 4597,1136 L 4597,106 L 4540,49 L 1699,49 L 1637,111 L 1639,114 L 1644,126 L 1647,140 L 1648,171 L 1646,184 L 1642,197 L 1635,209 L 1626,220 L 1616,228 L 1603,234 L 1590,238 L 1576,239 L 1563,236 L 1550,232 L 1544,228 L 1107,664 L 1105,666 L 1103,667 L 1100,668 L 1097,668 L 229,668 L 60,838 L 60,1623 L 119,1683 L 131,1678 L 143,1675 L 156,1675 L 168,1678 L 180,1683 L 190,1690 L 198,1699 L 204,1710 L 208,1722 L 209,1735 L 208,1747 L 204,1759 L 198,1770 L 190,1779 L 180,1786 L 168,1791 L 165,1792 L 165,1897 L 168,1897 L 180,1902 L 190,1910 L 198,1919 L 204,1930 L 208,1942 L 209,1954 L 208,1967 L 204,1979 L 198,1989 L 190,1999 L 180,2006 L 168,2011 L 165,2012 L 165,2112 L 168,2113 L 180,2118 L 190,2125 L 198,2135 L 204,2146 L 208,2157 L 209,2170 L 208,2182 L 204,2194 L 198,2205 L 190,2214 L 180,2222 L 168,2227 L 165,2228 L 165,2329 L 168,2330 L 180,2335 L 190,2342 L 198,2351 L 204,2362 L 208,2374 L 209,2386 L 208,2399 L 204,2411 L 198,2422 L 190,2431 L 180,2438 L 168,2443 L 165,2444 L 165,2552 L 168,2553 L 180,2558 L 190,2566 L 198,2575 L 204,2586 L 208,2598 L 209,2610 L 208,2622 L 204,2634 L 198,2645 L 190,2655 L 180,2662 L 168,2667 L 165,2668 L 165,2764 L 168,2765 L 180,2770 L 190,2777 L 198,2787 L 204,2798 L 208,2809 L 209,2822 L 208,2834 L 204,2846 L 198,2857 L 190,2866 L 180,2874 L 168,2879 L 165,2879 L 165,2981 L 168,2981 L 180,2987 L 190,2994 L 198,3003 L 204,3014 L 208,3026 L 209,3038 L 208,3051 L 204,3063 L 198,3074 L 190,3083 L 180,3090 L 168,3095 L 165,3096 L 165,3200 L 168,3201 L 180,3206 L 190,3214 L 198,3223 L 204,3234 L 207,3243 L 2011,3243 L 2014,3243 L 2017,3244 L 2019,3246 L 2022,3247 L 2663,3889 z " style="fill-opacity:1.000000;fill:rgb(157,225,139);stroke:rgb(0,0,0);stroke-width:2"/></g>
<g fill-rule="evenodd"><path d="M 3243,1344 L 3246,1335 L 3252,1324 L 3260,1315 L 3270,1307 L 3281,1302 L 3293,1300 L 3306,1300 L 3318,1302 L 3329,1307 L 3339,1315 L 3347,1324 L 3353,1335 L 3357,1346 L 3358,1359 L 3357,1371 L 3353,1383 L 3347,1393 L 3339,1402 L 3329,1410 L 3318,1415 L 3306,1417 L 3293,1417 L 3281,1415 L 3270,1410 L 3260,1402 L 3252,1393 L 3246,1383 L 3243,1374 L 490,1374 L 445,1419 L 443,1421 L 440,1422 L 437,1423 L 434,1424 L 407,1424 L 404,1433 L 398,1444 L 390,1453 L 380,1460 L 368,1465 L 356,1468 L 343,1468 L 331,1465 L 320,1460 L 310,1453 L 301,1444 L 295,1433 L 291,1421 L 290,1409 L 291,1396 L 295,1384 L 301,1373 L 310,1364 L 320,1357 L 331,1352 L 343,1349 L 356,1349 L 368,1352 L 380,1357 L 390,1364 L 398,1373 L 404,1384 L 407,1394 L 428,1394 L 474,1348 L 476,1346 L 479,1345 L 481,1344 L 484,1344 L 3243,1344 z " style="fill-opacity:1.000000;fill:rgb(31,218,176);stroke:rgb(0,0,0);stroke-width:2"/></g>
<g fill-rule="evenodd"><path d="M 408,3133 L 1923,3133 L 1926,3124 L 1932,3114 L 1940,3105 L 1950,3097 L 1961,3092 L 1973,3090 L 1986,3090 L 1998,3092 L 2009,3097 L 2019,3105 L 2027,3114 L 2033,3124 L 2037,3136 L 2039,3148 L 2037,3161 L 2033,3172 L 2027,3183 L 2019,3192 L 2009,3200 L 1998,3205 L 1986,3207 L 1973,3207 L 1961,3205 L 1950,3200 L 1940,3192 L 1932,3183 L 1926,3172 L 1923,3163 L 407,3163 L 404,3172 L 398,3183 L 390,3192 L 380,3200 L 368,3205 L 356,3207 L 343,3207 L 331,3205 L 320,3200 L 310,3192 L 301,3183 L 295,3172 L 291,3160 L 290,3148 L 291,3135 L 295,3123 L 301,3113 L 310,3103 L 320,3096 L 331,3091 L 343,3088 L 356,3088 L 368,3091 L 380,3096 L 390,3103 L 398,3113 L 404,3123 L 408,3133 z " style="fill-opacity:1.000000;fill:rgb(202,153,2);stroke:rgb(0,0,0);stroke-width:2"/></g>
<g fill-rule="evenodd"><path d="M 380,2980 L 368,2985 L 356,2988 L 343,2988 L 331,2985 L 320,2980 L 310,2973 L 301,2963 L 295,2952 L 291,2941 L 290,2928 L 291,2916 L 295,2904 L 301,2893 L 310,2884 L 320,2876 L 331,2871 L 343,2869 L 356,2869 L 368,2871 L 380,2876 L 390,2884 L 398,2893 L 404,2904 L 408,2916 L 409,2928 L 408,2941 L 404,2952 L 401,2958 L 416,2973 L 2431,2973 L 2434,2973 L 2437,2974 L 2439,2975 L 2442,2977 L 3408,3943 L 3432,3943 L 3433,3933 L 3437,3920 L 3444,3908 L 3453,3897 L 3463,3889 L 3476,3883 L 3489,3879 L 3503,3878 L 3516,3881 L 3529,3885 L 3541,3893 L 3551,3902 L 3559,3913 L 3564,3926 L 3567,3940 L 3567,3970 L 3566,3984 L 3562,3997 L 3555,4009 L 3546,4020 L 3535,4028 L 3523,4034 L 3510,4038 L 3496,4038 L 3482,4036 L 3469,4031 L 3458,4024 L 3448,4015 L 3440,4003 L 3435,3991 L 3432,3977 L 3432,3973 L 3401,3973 L 3399,3973 L 3396,3972 L 3393,3971 L 3391,3969 L 2425,3003 L 409,3003 L 407,3003 L 404,3002 L 401,3000 L 399,2999 L 380,2980 z " style="fill-opacity:1.000000;fill:rgb(185,114,157);stroke:rgb(0,0,0);stroke-width:2"/></g>
<g fill-rule="evenodd"><path d="M 207,1533 L 204,1542 L 198,1553 L 190,1562 L 180,1570 L 168,1575 L 156,1577 L 143,1577 L 131,1575 L 120,1570 L 110,1562 L 101,1553 L 95,1542 L 91,1530 L 90,1518 L 91,1506 L 95,1494 L 101,1483 L 110,1474 L 120,1466 L 131,1461 L 143,1458 L 156,1458 L 168,1461 L 180,1466 L 190,1474 L 198,1483 L 204,1494 L 207,1503 L 2121,1503 L 2122,1496 L 2126,1485 L 2132,1474 L 2140,1465 L 2150,1457 L 2161,1452 L 2173,1450 L 2186,1450 L 2198,1452 L 2209,1457 L 2219,1465 L 2227,1474 L 2233,1485 L 2237,1496 L 2239,1509 L 2237,1521 L 2233,1533 L 2227,1543 L 2219,1552 L 2209,1560 L 2198,1565 L 2186,1567 L 2173,1567 L 2161,1565 L 2150,1560 L 2140,1552 L 2132,1543 L 2126,1533 L 207,1533 z " style="fill-opacity:1.000000;fill:rgb(73,44,128);stroke:rgb(0,0,0);stroke-width:2"/></g>
<g fill-rule="evenodd"><path d="M 1722,207 L 1720,204 L 1715,191 L 1712,177 L 1712,147 L 1713,133 L 1717,120 L 1724,108 L 1733,97 L 1744,89 L 1756,83 L 1769,79 L 1783,79 L 1797,81 L 1809,86 L 1821,93 L 1831,102 L 1839,114 L 1844,126 L 1847,140 L 1848,171 L 1846,184 L 1842,197 L 1835,209 L 1826,220 L 1816,228 L 1803,234 L 1790,238 L 1776,239 L 1762,236 L 1750,232 L 1744,228 L 1203,769 L 1200,771 L 1198,772 L 1195,773 L 1192,773 L 409,773 L 409,818 L 290,818 L 290,698 L 409,698 L 409,743 L 1186,743 L 1722,207 z " style="fill-opacity:1.000000;fill:rgb(126,197,153);stroke:rgb(0,0,0);stroke-width:2"/></g>
<g fill-rule="evenodd"><path d="M 380,1029 L 368,1035 L 356,1037 L 343,1037 L 331,1035 L 320,1030 L 310,1022 L 301,1013 L 295,1002 L 291,990 L 290,978 L 291,965 L 295,954 L 301,943 L 310,933 L 320,926 L 331,921 L 343,918 L 356,918 L 368,921 L 380,926 L 390,933 L 398,943 L 404,954 L 408,965 L 409,978 L 408,990 L 404,1002 L 401,1008 L 416,1023 L 3444,1023 L 3484,982 L 3484,237 L 3482,236 L 3469,232 L 3458,224 L 3448,215 L 3440,204 L 3435,191 L 3432,177 L 3431,147 L 3433,133 L 3437,120 L 3444,108 L 3453,97 L 3463,89 L 3476,83 L 3489,79 L 3503,79 L 3516,81 L 3529,86 L 3541,93 L 3551,102 L 3559,114 L 3564,126 L 3567,140 L 3567,171 L 3566,184 L 3562,197 L 3555,209 L 3546,220 L 3535,228 L 3523,234 L 3514,237 L 3514,989 L 3514,991 L 3513,994 L 3512,997 L 3510,999 L 3461,1048 L 3459,1050 L 3456,1052 L 3453,1052 L 3450,1053 L 409,1053 L 407,1052 L 404,1052 L 401,1050 L 399,1048 L 380,1029 z " style="fill-opacity:1.000000;fill:rgb(213,233,128);stroke:rgb(0,0,0);stroke-width:2"/></g>
<g fill-rule="evenodd"><path d="M 380,1240 L 368,1245 L 356,1248 L 343,1248 L 331,1245 L 320,1240 L 310,1233 L 301,1223 L 295,1212 L 291,1201 L 290,1188 L 291,1176 L 295,1164 L 301,1153 L 310,1144 L 320,1136 L 331,1131 L 343,1129 L 356,1129 L 368,1131 L 380,1136 L 390,1144 L 398,1153 L 404,1164 L 408,1176 L 409,1188 L 408,1201 L 404,1212 L 401,1218 L 416,1233 L 3424,1233 L 4084,572 L 4084,237 L 4082,236 L 4069,232 L 4058,224 L 4048,215 L 4040,204 L 4035,191 L 4032,177 L 4031,147 L 4033,133 L 4037,120 L 4044,108 L 4053,97 L 4063,89 L 4076,83 L 4089,79 L 4103,79 L 4116,81 L 4129,86 L 4141,93 L 4151,102 L 4159,114 L 4164,126 L 4167,140 L 4167,171 L 4166,184 L 4162,197 L 4155,209 L 4146,220 L 4135,228 L 4123,234 L 4114,237 L 4114,579 L 4114,582 L 4113,584 L 4112,587 L 4110,589 L 3441,1259 L 3438,1260 L 3436,1262 L 3433,1263 L 3430,1263 L 409,1263 L 407,1263 L 404,1262 L 401,1260 L 399,1259 L 380,1240 z " style="fill-opacity:1.000000;fill:rgb(178,234,201);stroke:rgb(0,0,0);stroke-width:2"/></g>
<g fill-rule="evenodd"><path d="M 2165,237 L 2162,236 L 2150,232 L 2138,224 L 2128,215 L 2120,204 L 2115,191 L 2112,177 L 2112,147 L 2113,133 L 2117,120 L 2124,108 L 2133,97 L 2144,89 L 2156,83 L 2169,79 L 2183,79 L 2197,81 L 2209,86 L 2221,93 L 2231,102 L 2239,114 L 2244,126 L 2247,140 L 2248,171 L 2246,184 L 2242,197 L 2235,209 L 2226,220 L 2215,228 L 2203,234 L 2195,237 L 2195,442 L 2198,442 L 2209,447 L 2219,455 L 2227,464 L 2233,475 L 2237,486 L 2239,499 L 2237,511 L 2233,523 L 2227,533 L 2219,542 L 2209,550 L 2198,555 L 2186,557 L 2173,557 L 2161,555 L 2150,550 L 2140,542 L 2132,533 L 2126,523 L 2122,511 L 2120,499 L 2122,486 L 2126,475 L 2132,464 L 2140,455 L 2150,447 L 2161,442 L 2165,442 L 2165,237 z " style="fill-opacity:1.000000;fill:rgb(204,83,191);stroke:rgb(0,0,0);stroke-width:2"/></g>
<g fill-rule="evenodd"><path d="M 3393,2044 L 3387,2032 L 3383,2019 L 3383,2005 L 3385,1992 L 3389,1979 L 3397,1968 L 3406,1958 L 3417,1950 L 3429,1945 L 3443,1942 L 3449,1942 L 3463,1943 L 3476,1947 L 3488,1954 L 3498,1962 L 3506,1973 L 3512,1985 L 3516,1998 L 3516,2012 L 3514,2025 L 3510,2038 L 3502,2049 L 3493,2059 L 3482,2067 L 3469,2072 L 3456,2075 L 3449,2075 L 3436,2074 L 3423,2070 L 3414,2065 L 3353,2127 L 3353,2778 L 4463,3889 L 4476,3883 L 4489,3879 L 4503,3878 L 4516,3881 L 4529,3885 L 4541,3893 L 4551,3902 L 4559,3913 L 4564,3926 L 4567,3940 L 4567,3970 L 4566,3984 L 4562,3997 L 4555,4009 L 4546,4020 L 4535,4028 L 4523,4034 L 4510,4038 L 4496,4038 L 4482,4036 L 4469,4031 L 4458,4024 L 4448,4015 L 4440,4003 L 4434,3991 L 4432,3977 L 4431,3946 L 4433,3933 L 4437,3920 L 4442,3910 L 3327,2795 L 3325,2793 L 3324,2790 L 3323,2787 L 3323,2785 L 3323,2120 L 3323,2117 L 3324,2115 L 3325,2112 L 3327,2110 L 3393,2044 z " style="fill-opacity:1.000000;fill:rgb(103,214,191);stroke:rgb(0,0,0);stroke-width:2"/></g>
<g fill-rule="evenodd"><path d="M 3684,237 L 3682,236 L 3669,232 L 3658,224 L 3648,215 L 3640,204 L 3635,191 L 3632,177 L 3631,147 L 3633,133 L 3637,120 L 3644,108 L 3653,97 L 3663,89 L 3676,83 L 3689,79 L 3703,79 L 3716,81 L 3729,86 L 3741,93 L 3751,102 L 3759,114 L 3764,126 L 3767,140 L 3767,171 L 3766,184 L 3762,197 L 3755,209 L 3746,220 L 3735,228 L 3723,234 L 3714,237 L 3714,722 L 3718,722 L 3729,727 L 3739,735 L 3747,744 L 3753,755 L 3757,766 L 3758,779 L 3757,791 L 3753,803 L 3747,813 L 3739,822 L 3729,830 L 3718,835 L 3706,837 L 3693,837 L 3681,835 L 3670,830 L 3660,822 L 3652,813 L 3645,803 L 3642,791 L 3640,779 L 3642,766 L 3645,755 L 3652,744 L 3660,735 L 3670,727 L 3681,722 L 3684,722 L 3684,237 z " style="fill-opacity:1.000000;fill:rgb(20,214,126);stroke:rgb(0,0,0);stroke-width:2"/></g>
<g fill-rule="evenodd"><path d="M 3084,237 L 3082,236 L 3070,232 L 3058,224 L 3048,215 L 3040,204 L 3035,191 L 3032,177 L 3031,147 L 3033,133 L 3037,120 L 3044,108 L 3053,97 L 3063,89 L 3076,83 L 3089,79 L 3103,79 L 3117,81 L 3129,86 L 3141,93 L 3151,102 L 3159,114 L 3164,126 L 3167,140 L 3167,171 L 3166,184 L 3162,197 L 3155,209 L 3146,220 L 3135,228 L 3123,234 L 3114,237 L 3114,782 L 3118,782 L 3129,787 L 3139,795 L 3147,804 L 3153,815 L 3157,826 L 3159,839 L 3157,851 L 3153,863 L 3147,873 L 3139,882 L 3129,890 L 3118,895 L 3106,897 L 3093,897 L 3081,895 L 3070,890 L 3060,882 L 3052,873 L 3046,863 L 3042,851 L 3040,839 L 3042,826 L 3046,815 L 3052,804 L 3060,795 L 3070,787 L 3081,782 L 3084,782 L 3084,237 z " style="fill-opacity:1.000000;fill:rgb(45,220,142);stroke:rgb(0,0,0);stroke-width:2"/></g>
<g fill-rule="evenodd"><path d="M 3314,772 L 3318,772 L 3329,777 L 3339,785 L 3347,794 L 3353,805 L 3357,816 L 3358,829 L 3357,841 L 3353,853 L 3347,863 L 3339,872 L 3329,880 L 3318,885 L 3306,887 L 3293,887 L 3281,885 L 3270,880 L 3260,872 L 3252,863 L 3246,853 L 3242,841 L 3240,829 L 3242,816 L 3246,805 L 3252,794 L 3260,785 L 3270,777 L 3281,772 L 3284,772 L 3284,237 L 3282,236 L 3270,232 L 3258,224 L 3248,215 L 3240,204 L 3235,191 L 3232,177 L 3231,147 L 3233,133 L 3237,120 L 3244,108 L 3253,97 L 3263,89 L 3276,83 L 3289,79 L 3303,79 L 3316,81 L 3329,86 L 3341,93 L 3351,102 L 3359,114 L 3364,126 L 3367,140 L 3367,171 L 3366,184 L 3362,197 L 3355,209 L 3346,220 L 3335,228 L 3323,234 L 3314,237 L 3314,772 z " style="fill-opacity:1.000000;fill:rgb(102,131,239);stroke:rgb(0,0,0);stroke-width:2"/></g>
<g fill-rule="evenodd"><path d="M 3884,237 L 3882,236 L 3869,232 L 3858,224 L 3848,215 L 3840,204 L 3835,191 L 3832,177 L 3831,147 L 3833,133 L 3837,120 L 3844,108 L 3853,97 L 3863,89 L 3876,83 L 3889,79 L 3903,79 L 3916,81 L 3929,86 L 3941,93 L 3951,102 L 3959,114 L 3964,126 L 3967,140 L 3967,171 L 3966,184 L 3962,197 L 3955,209 L 3946,220 L 3935,228 L 3923,234 L 3914,237 L 3914,402 L 3918,402 L 3929,407 L 3939,415 L 3947,424 L 3953,435 L 3957,446 L 3958,459 L 3957,471 L 3953,483 L 3947,493 L 3939,502 L 3929,510 L 3918,515 L 3906,517 L 3893,517 L 3881,515 L 3870,510 L 3860,502 L 3852,493 L 3845,483 L 3842,471 L 3840,459 L 3842,446 L 3845,435 L 3852,424 L 3860,415 L 3870,407 L 3881,402 L 3884,402 L 3884,237 z " style="fill-opacity:1.000000;fill:rgb(87,73,97);stroke:rgb(0,0,0);stroke-width:2"/></g>
</svg>
