<?xml version="1.0" standalone="no"?>
<!DOCTYPE svg PUBLIC "-//W3C//DTD SVG 1.1//EN"
"http://www.w3.org/Graphics/SVG/1.1/DTD/svg11.dtd">
<svg width="5411" height="4211" viewBox="0 0 5411 4211" version="1.1"
xmlns="http://www.w3.org/2000/svg"
xmlns:xlink="http://www.w3.org/1999/xlink">
<g fill-rule="evenodd"><path d="M 5205,4211 L 6,4211 L 3,4210 L 2,4210 L 1,4208 L 0,4207 L 0,4205 L 0,5 L 0,4 L 1,2 L 2,0 L 3,0 L 6,0 L 5085,0 L 5087,0 L 5088,1 L 5209,121 L 5210,123 L 5210,124 L 5210,1023 L 5409,1221 L 5410,1223 L 5410,1225 L 5410,3805 L 5410,3807 L 5409,3809 L 5210,4007 L 5210,4205 L 5210,4207 L 5209,4209 L 5207,4210 L 5205,4211M 11,11 L 11,4199 L 5199,4199 L 5199,4005 L 5199,4002 L 5200,4000 L 5399,3802 L 5399,1228 L 5200,1029 L 5199,1027 L 5199,1026 L 5199,128 L 5082,11 L 11,11 z " style="fill-opacity:1.000000;fill:rgb(41,35,190);stroke:rgb(0,0,0);stroke-width:2"/></g>
</svg>
