<?xml version="1.0" standalone="no"?>
<!DOCTYPE svg PUBLIC "-//W3C//DTD SVG 1.1//EN"
"http://www.w3.org/Graphics/SVG/1.1/DTD/svg11.dtd">
<svg width="4860" height="4118" viewBox="0 0 4860 4118" version="1.1"
xmlns="http://www.w3.org/2000/svg"
xmlns:xlink="http://www.w3.org/1999/xlink">
<g fill-rule="evenodd"><path d="M 1196,4118 L 1195,4081 L 1195,4067 L 1195,4038 L 1195,4004 L 1195,3982 L 1196,3951 L 1195,3913 L 1195,3902 L 1195,3888 L 1195,3879 L 1196,3795 L 1196,3782 L 1196,3781 L 1196,3747 L 1196,3747 L 1256,3708 L 1270,3700 L 1311,3677 L 1352,3657 L 1366,3651 L 1403,3635 L 1439,3622 L 1453,3617 L 1487,3606 L 1521,3597 L 1534,3594 L 1566,3588 L 1598,3583 L 1612,3581 L 1674,3576 L 1688,3576 L 1749,3578 L 1763,3579 L 1800,3583 L 1800,3589 L 1799,3658 L 1799,3697 L 1800,3727 L 1800,3759 L 1799,3773 L 1799,3799 L 1800,3806 L 1800,3829 L 1799,3831 L 1800,3851 L 1800,3851 L 1800,3868 L 1800,3870 L 1799,3883 L 1800,3885 L 1800,3896 L 1799,3899 L 1799,3908 L 1800,3911 L 1800,3919 L 1799,3922 L 1799,3929 L 1800,3933 L 1800,3939 L 1799,3943 L 1799,3947 L 1800,3970 L 1800,3974 L 1799,3978 L 1799,3984 L 1800,3987 L 1800,3995 L 1799,3998 L 1799,4006 L 1800,4009 L 1800,4018 L 1799,4021 L 1799,4032 L 1800,4034 L 1800,4047 L 1800,4048 L 1800,4065 L 1800,4066 L 1800,4086 L 1799,4088 L 1799,4111 L 1800,4118 L 1196,4118 z " style="fill-opacity:1.000000;fill:rgb(41,35,190);stroke:rgb(0,0,0);stroke-width:2"/></g>
<g fill-rule="evenodd"><path d="M 1800,4118 L 1799,4111 L 1799,4088 L 1800,4086 L 1800,4066 L 1800,4065 L 1800,4048 L 1800,4047 L 1800,4034 L 1799,4032 L 1799,4021 L 1800,4018 L 1800,4009 L 1799,4006 L 1799,3998 L 1800,3995 L 1800,3987 L 1799,3984 L 1799,3978 L 1800,3974 L 1800,3970 L 1799,3947 L 1799,3943 L 1800,3939 L 1800,3933 L 1799,3929 L 1799,3922 L 1800,3919 L 1800,3911 L 1799,3908 L 1799,3899 L 1800,3896 L 1800,3885 L 1799,3883 L 1800,3870 L 1800,3868 L 1800,3851 L 1800,3851 L 1799,3831 L 1800,3829 L 1800,3806 L 1799,3799 L 1799,3773 L 1800,3759 L 1800,3727 L 1799,3697 L 1799,3658 L 1800,3589 L 1800,3583 L 1812,3581 L 1874,3576 L 1879,3576 L 1888,3579 L 1945,3605 L 1958,3611 L 1999,3635 L 1999,3658 L 1999,3697 L 2000,3727 L 2000,3759 L 1999,3773 L 1999,3799 L 2000,3806 L 2000,3829 L 1999,3831 L 2000,3851 L 2000,3851 L 2000,3868 L 1999,3870 L 1999,3883 L 2000,3885 L 2000,3896 L 1999,3899 L 1999,3908 L 2000,3911 L 2000,3919 L 1999,3922 L 1999,3929 L 2000,3933 L 2000,3939 L 1999,3943 L 1999,3947 L 2000,3970 L 2000,3974 L 1999,3978 L 1999,3984 L 2000,3987 L 2000,3995 L 1999,3998 L 1999,4006 L 2000,4009 L 2000,4018 L 1999,4021 L 1999,4032 L 2000,4034 L 2000,4047 L 1999,4048 L 2000,4065 L 2000,4066 L 2000,4086 L 1999,4088 L 1999,4111 L 2000,4118 L 1800,4118 z " style="fill-opacity:1.000000;fill:rgb(132,225,108);stroke:rgb(0,0,0);stroke-width:2"/></g>
<g fill-rule="evenodd"><path d="M 2000,4118 L 1999,4111 L 1999,4088 L 2000,4086 L 2000,4066 L 2000,4065 L 1999,4048 L 2000,4047 L 2000,4034 L 1999,4032 L 1999,4021 L 2000,4018 L 2000,4009 L 1999,4006 L 1999,3998 L 2000,3995 L 2000,3987 L 1999,3984 L 1999,3978 L 2000,3974 L 2000,3970 L 1999,3947 L 1999,3943 L 2000,3939 L 2000,3933 L 1999,3929 L 1999,3922 L 2000,3919 L 2000,3911 L 1999,3908 L 1999,3899 L 2000,3896 L 2000,3885 L 1999,3883 L 1999,3870 L 2000,3868 L 2000,3851 L 2000,3851 L 1999,3831 L 2000,3829 L 2000,3806 L 1999,3799 L 1999,3773 L 2000,3759 L 2000,3727 L 1999,3697 L 1999,3658 L 1999,3635 L 2013,3638 L 2028,3642 L 2078,3659 L 2092,3664 L 2133,3682 L 2146,3689 L 2180,3708 L 2192,3716 L 2200,3721 L 2200,3727 L 2200,3759 L 2199,3773 L 2199,3799 L 2200,3806 L 2200,3829 L 2199,3831 L 2200,3851 L 2200,3851 L 2200,3868 L 2199,3870 L 2199,3883 L 2200,3885 L 2200,3896 L 2199,3899 L 2199,3908 L 2200,3911 L 2200,3919 L 2199,3922 L 2199,3929 L 2200,3933 L 2200,3939 L 2199,3943 L 2199,3947 L 2200,3970 L 2200,3974 L 2199,3978 L 2199,3984 L 2200,3987 L 2200,3995 L 2199,3998 L 2199,4006 L 2200,4009 L 2200,4018 L 2199,4021 L 2199,4032 L 2200,4034 L 2200,4047 L 2199,4048 L 2200,4065 L 2200,4066 L 2200,4086 L 2199,4088 L 2199,4111 L 2200,4118 L 2000,4118 z " style="fill-opacity:1.000000;fill:rgb(214,174,82);stroke:rgb(0,0,0);stroke-width:2"/></g>
<g fill-rule="evenodd"><path d="M 2200,4118 L 2199,4111 L 2199,4088 L 2200,4086 L 2200,4066 L 2200,4065 L 2199,4048 L 2200,4047 L 2200,4034 L 2199,4032 L 2199,4021 L 2200,4018 L 2200,4009 L 2199,4006 L 2199,3998 L 2200,3995 L 2200,3987 L 2199,3984 L 2199,3978 L 2200,3974 L 2200,3970 L 2199,3947 L 2199,3943 L 2200,3939 L 2200,3933 L 2199,3929 L 2199,3922 L 2200,3919 L 2200,3911 L 2199,3908 L 2199,3899 L 2200,3896 L 2200,3885 L 2199,3883 L 2199,3870 L 2200,3868 L 2200,3851 L 2200,3851 L 2199,3831 L 2200,3829 L 2200,3806 L 2199,3799 L 2199,3773 L 2200,3759 L 2200,3727 L 2200,3721 L 2236,3729 L 2251,3733 L 2282,3743 L 2296,3749 L 2321,3760 L 2334,3766 L 2355,3778 L 2366,3785 L 2384,3798 L 2395,3806 L 2400,3811 L 2400,3829 L 2399,3831 L 2399,3851 L 2400,3851 L 2400,3868 L 2399,3870 L 2399,3883 L 2400,3885 L 2400,3896 L 2399,3899 L 2399,3908 L 2400,3911 L 2400,3919 L 2399,3922 L 2399,3929 L 2400,3933 L 2400,3939 L 2399,3943 L 2399,3947 L 2400,3970 L 2400,3974 L 2399,3978 L 2399,3984 L 2400,3987 L 2400,3995 L 2399,3998 L 2399,4006 L 2400,4009 L 2400,4018 L 2399,4021 L 2399,4032 L 2400,4034 L 2400,4047 L 2399,4048 L 2399,4065 L 2400,4066 L 2400,4086 L 2399,4088 L 2399,4111 L 2400,4118 L 2200,4118 z " style="fill-opacity:1.000000;fill:rgb(144,73,241);stroke:rgb(0,0,0);stroke-width:2"/></g>
<g fill-rule="evenodd"><path d="M 2400,4118 L 2399,4111 L 2399,4088 L 2400,4086 L 2400,4066 L 2399,4065 L 2399,4048 L 2400,4047 L 2400,4034 L 2399,4032 L 2399,4021 L 2400,4018 L 2400,4009 L 2399,4006 L 2399,3998 L 2400,3995 L 2400,3987 L 2399,3984 L 2399,3978 L 2400,3974 L 2400,3970 L 2399,3947 L 2399,3943 L 2400,3939 L 2400,3933 L 2399,3929 L 2399,3922 L 2400,3919 L 2400,3911 L 2399,3908 L 2399,3899 L 2400,3896 L 2400,3885 L 2399,3883 L 2399,3870 L 2400,3868 L 2400,3851 L 2399,3851 L 2399,3831 L 2400,3829 L 2400,3811 L 2403,3811 L 2427,3813 L 2443,3816 L 2460,3820 L 2475,3824 L 2487,3828 L 2501,3833 L 2509,3837 L 2522,3843 L 2529,3847 L 2541,3855 L 2546,3859 L 2557,3867 L 2561,3871 L 2571,3881 L 2575,3885 L 2584,3896 L 2588,3901 L 2596,3913 L 2600,3919 L 2600,3919 L 2599,3922 L 2599,3929 L 2600,3933 L 2600,3939 L 2599,3943 L 2599,3947 L 2600,3970 L 2600,3974 L 2599,3978 L 2599,3984 L 2600,3987 L 2600,3995 L 2599,3998 L 2599,4006 L 2600,4009 L 2600,4018 L 2599,4021 L 2599,4032 L 2600,4034 L 2600,4047 L 2599,4048 L 2599,4065 L 2599,4066 L 2600,4086 L 2599,4088 L 2599,4111 L 2600,4118 L 2400,4118 z " style="fill-opacity:1.000000;fill:rgb(241,187,233);stroke:rgb(0,0,0);stroke-width:2"/></g>
<g fill-rule="evenodd"><path d="M 3000,4118 L 2999,4111 L 2999,4088 L 3000,4086 L 2999,4066 L 2999,4065 L 2999,4048 L 2999,4047 L 3000,4034 L 2999,4032 L 2999,4021 L 3000,4018 L 3000,4009 L 2999,4006 L 2999,3998 L 3000,3995 L 3000,3987 L 2999,3984 L 2999,3978 L 3000,3974 L 3000,3970 L 2999,3947 L 2999,3943 L 3000,3939 L 3000,3933 L 2999,3929 L 2999,3922 L 3000,3919 L 3000,3911 L 2999,3908 L 2999,3899 L 3000,3896 L 3000,3885 L 2999,3883 L 2999,3870 L 2999,3868 L 2999,3851 L 2999,3851 L 2999,3831 L 3000,3829 L 3000,3806 L 2999,3799 L 2999,3773 L 2999,3769 L 3005,3770 L 3022,3773 L 3049,3779 L 3064,3783 L 3085,3790 L 3099,3795 L 3115,3802 L 3128,3809 L 3140,3816 L 3152,3824 L 3163,3831 L 3174,3840 L 3183,3848 L 3193,3858 L 3202,3867 L 3210,3877 L 3218,3888 L 3226,3899 L 3234,3912 L 3240,3924 L 3247,3939 L 3260,3969 L 3264,3980 L 3269,3995 L 3277,4019 L 3281,4034 L 3287,4066 L 3287,4072 L 3289,4084 L 3291,4091 L 3291,4095 L 3295,4118 L 3000,4118 z " style="fill-opacity:1.000000;fill:rgb(235,179,166);stroke:rgb(0,0,0);stroke-width:2"/></g>
<g fill-rule="evenodd"><path d="M 3600,4118 L 3599,4111 L 3599,4088 L 3599,4086 L 3599,4066 L 3599,4065 L 3599,4048 L 3599,4047 L 3599,4034 L 3599,4032 L 3599,4021 L 3600,4018 L 3600,4009 L 3599,4006 L 3599,3998 L 3600,3995 L 3600,3987 L 3599,3984 L 3599,3978 L 3600,3974 L 3600,3970 L 3599,3947 L 3599,3943 L 3600,3939 L 3600,3933 L 3599,3929 L 3599,3922 L 3600,3919 L 3600,3911 L 3599,3908 L 3599,3899 L 3599,3896 L 3599,3885 L 3599,3883 L 3599,3870 L 3599,3868 L 3599,3851 L 3599,3851 L 3599,3831 L 3599,3829 L 3600,3806 L 3599,3799 L 3599,3773 L 3600,3759 L 3600,3727 L 3599,3697 L 3599,3658 L 3600,3589 L 3600,3550 L 3604,3551 L 3640,3562 L 3674,3574 L 3688,3579 L 3745,3605 L 3758,3611 L 3799,3635 L 3799,3658 L 3799,3697 L 3800,3727 L 3800,3759 L 3799,3773 L 3799,3799 L 3800,3806 L 3799,3829 L 3799,3831 L 3799,3851 L 3799,3851 L 3799,3868 L 3799,3870 L 3799,3883 L 3799,3885 L 3799,3896 L 3799,3899 L 3799,3908 L 3799,3911 L 3800,3919 L 3799,3922 L 3799,3929 L 3800,3933 L 3800,3939 L 3799,3943 L 3799,3947 L 3800,3970 L 3799,3974 L 3799,3978 L 3799,3984 L 3800,3987 L 3800,3995 L 3799,3998 L 3799,4006 L 3799,4009 L 3799,4018 L 3799,4021 L 3799,4032 L 3799,4034 L 3799,4047 L 3799,4048 L 3799,4065 L 3799,4066 L 3799,4086 L 3799,4088 L 3799,4111 L 3800,4118 L 3600,4118 z " style="fill-opacity:1.000000;fill:rgb(219,60,135);stroke:rgb(0,0,0);stroke-width:2"/></g>
<g fill-rule="evenodd"><path d="M 3800,4118 L 3799,4111 L 3799,4088 L 3799,4086 L 3799,4066 L 3799,4065 L 3799,4048 L 3799,4047 L 3799,4034 L 3799,4032 L 3799,4021 L 3799,4018 L 3799,4009 L 3799,4006 L 3799,3998 L 3800,3995 L 3800,3987 L 3799,3984 L 3799,3978 L 3799,3974 L 3800,3970 L 3799,3947 L 3799,3943 L 3800,3939 L 3800,3933 L 3799,3929 L 3799,3922 L 3800,3919 L 3799,3911 L 3799,3908 L 3799,3899 L 3799,3896 L 3799,3885 L 3799,3883 L 3799,3870 L 3799,3868 L 3799,3851 L 3799,3851 L 3799,3831 L 3799,3829 L 3800,3806 L 3799,3799 L 3799,3773 L 3800,3759 L 3800,3727 L 3799,3697 L 3799,3658 L 3799,3635 L 3812,3638 L 3828,3642 L 3878,3659 L 3892,3664 L 3933,3682 L 3946,3689 L 3980,3708 L 3992,3716 L 4000,3721 L 4000,3727 L 4000,3759 L 3999,3773 L 3999,3799 L 4000,3806 L 3999,3829 L 3999,3831 L 3999,3851 L 3999,3851 L 3999,3868 L 3999,3870 L 3999,3883 L 3999,3885 L 3999,3896 L 3999,3899 L 3999,3908 L 3999,3911 L 3999,3919 L 3999,3922 L 3999,3929 L 3999,3933 L 4000,3939 L 3999,3943 L 3999,3947 L 4000,3970 L 3999,3974 L 3999,3978 L 3999,3984 L 3999,3987 L 3999,3995 L 3999,3998 L 3999,4006 L 3999,4009 L 3999,4018 L 3999,4021 L 3999,4032 L 3999,4034 L 3999,4047 L 3999,4048 L 3999,4065 L 3999,4066 L 3999,4086 L 3999,4088 L 3999,4111 L 4000,4118 L 3800,4118 z " style="fill-opacity:1.000000;fill:rgb(12,62,153);stroke:rgb(0,0,0);stroke-width:2"/></g>
<g fill-rule="evenodd"><path d="M 4000,4118 L 3999,4111 L 3999,4088 L 3999,4086 L 3999,4066 L 3999,4065 L 3999,4048 L 3999,4047 L 3999,4034 L 3999,4032 L 3999,4021 L 3999,4018 L 3999,4009 L 3999,4006 L 3999,3998 L 3999,3995 L 3999,3987 L 3999,3984 L 3999,3978 L 3999,3974 L 4000,3970 L 3999,3947 L 3999,3943 L 4000,3939 L 3999,3933 L 3999,3929 L 3999,3922 L 3999,3919 L 3999,3911 L 3999,3908 L 3999,3899 L 3999,3896 L 3999,3885 L 3999,3883 L 3999,3870 L 3999,3868 L 3999,3851 L 3999,3851 L 3999,3831 L 3999,3829 L 4000,3806 L 3999,3799 L 3999,3773 L 4000,3759 L 4000,3727 L 4000,3721 L 4036,3729 L 4051,3733 L 4082,3743 L 4096,3749 L 4121,3760 L 4134,3766 L 4155,3778 L 4166,3785 L 4184,3798 L 4195,3806 L 4200,3811 L 4199,3829 L 4199,3831 L 4199,3851 L 4199,3851 L 4199,3868 L 4199,3870 L 4199,3883 L 4199,3885 L 4199,3896 L 4199,3899 L 4199,3908 L 4199,3911 L 4199,3919 L 4199,3922 L 4199,3929 L 4199,3933 L 4200,3939 L 4199,3943 L 4199,3947 L 4200,3970 L 4199,3974 L 4199,3978 L 4199,3984 L 4199,3987 L 4199,3995 L 4199,3998 L 4199,4006 L 4199,4009 L 4199,4018 L 4199,4021 L 4199,4032 L 4199,4034 L 4199,4047 L 4199,4048 L 4199,4065 L 4199,4066 L 4199,4086 L 4199,4088 L 4199,4111 L 4200,4118 L 4000,4118 z " style="fill-opacity:1.000000;fill:rgb(36,94,13);stroke:rgb(0,0,0);stroke-width:2"/></g>
<g fill-rule="evenodd"><path d="M 4200,4118 L 4199,4111 L 4199,4088 L 4199,4086 L 4199,4066 L 4199,4065 L 4199,4048 L 4199,4047 L 4199,4034 L 4199,4032 L 4199,4021 L 4199,4018 L 4199,4009 L 4199,4006 L 4199,3998 L 4199,3995 L 4199,3987 L 4199,3984 L 4199,3978 L 4199,3974 L 4200,3970 L 4199,3947 L 4199,3943 L 4200,3939 L 4199,3933 L 4199,3929 L 4199,3922 L 4199,3919 L 4199,3911 L 4199,3908 L 4199,3899 L 4199,3896 L 4199,3885 L 4199,3883 L 4199,3870 L 4199,3868 L 4199,3851 L 4199,3851 L 4199,3831 L 4199,3829 L 4200,3811 L 4203,3811 L 4226,3813 L 4243,3816 L 4259,3820 L 4275,3824 L 4286,3828 L 4301,3833 L 4309,3837 L 4322,3843 L 4329,3847 L 4341,3855 L 4346,3859 L 4357,3867 L 4361,3871 L 4371,3881 L 4375,3885 L 4384,3896 L 4388,3901 L 4396,3913 L 4399,3919 L 4399,3919 L 4399,3922 L 4399,3929 L 4399,3933 L 4399,3939 L 4399,3943 L 4399,3947 L 4400,3970 L 4399,3974 L 4399,3978 L 4399,3984 L 4399,3987 L 4399,3995 L 4399,3998 L 4399,4006 L 4399,4009 L 4399,4018 L 4399,4021 L 4399,4032 L 4399,4034 L 4399,4047 L 4399,4048 L 4399,4065 L 4399,4066 L 4399,4086 L 4399,4088 L 4399,4111 L 4399,4118 L 4200,4118 z " style="fill-opacity:1.000000;fill:rgb(28,6,183);stroke:rgb(0,0,0);stroke-width:2"/></g>
<g fill-rule="evenodd"><path d="M 1079,0 L 1080,6 L 1080,29 L 1080,31 L 1080,51 L 1080,52 L 1080,69 L 1080,70 L 1080,83 L 1080,85 L 1080,96 L 1080,99 L 1079,108 L 1080,111 L 1080,119 L 1079,122 L 1079,130 L 1080,133 L 1080,139 L 1080,143 L 1079,147 L 1080,170 L 1080,174 L 1079,178 L 1079,184 L 1080,188 L 1080,195 L 1079,198 L 1080,206 L 1080,209 L 1080,218 L 1080,221 L 1080,232 L 1080,234 L 1080,247 L 1080,249 L 1080,266 L 1080,266 L 1080,286 L 1080,288 L 1079,311 L 1080,318 L 1080,344 L 1079,358 L 1079,390 L 1079,396 L 1050,415 L 1038,422 L 1007,438 L 1000,438 L 986,438 L 946,437 L 932,436 L 932,436 L 916,376 L 914,368 L 908,344 L 903,319 L 901,310 L 897,292 L 897,290 L 893,271 L 891,254 L 890,249 L 889,242 L 889,238 L 887,227 L 886,218 L 886,203 L 886,201 L 885,197 L 885,195 L 885,183 L 885,178 L 886,161 L 886,156 L 885,147 L 885,144 L 885,130 L 885,124 L 885,122 L 886,116 L 886,110 L 886,103 L 887,88 L 889,80 L 889,78 L 890,68 L 891,61 L 893,46 L 897,28 L 897,25 L 902,4 L 903,0 L 1079,0 z " style="fill-opacity:1.000000;fill:rgb(71,222,179);stroke:rgb(0,0,0);stroke-width:2"/></g>
<g fill-rule="evenodd"><path d="M 1279,0 L 1280,6 L 1280,29 L 1280,31 L 1280,51 L 1280,52 L 1280,69 L 1280,70 L 1280,83 L 1280,85 L 1280,96 L 1279,99 L 1279,108 L 1280,111 L 1280,119 L 1279,122 L 1279,130 L 1280,133 L 1280,139 L 1279,143 L 1279,147 L 1280,170 L 1280,174 L 1279,178 L 1279,184 L 1280,188 L 1280,195 L 1279,198 L 1279,206 L 1280,209 L 1280,218 L 1279,221 L 1280,232 L 1280,234 L 1280,247 L 1280,249 L 1280,266 L 1280,266 L 1280,286 L 1280,288 L 1279,307 L 1277,308 L 1261,321 L 1250,329 L 1231,342 L 1219,349 L 1196,360 L 1183,366 L 1155,377 L 1140,381 L 1105,391 L 1089,394 L 1079,396 L 1079,390 L 1079,358 L 1080,344 L 1080,318 L 1079,311 L 1080,288 L 1080,286 L 1080,266 L 1080,266 L 1080,249 L 1080,247 L 1080,234 L 1080,232 L 1080,221 L 1080,218 L 1080,209 L 1080,206 L 1079,198 L 1080,195 L 1080,188 L 1079,184 L 1079,178 L 1080,174 L 1080,170 L 1079,147 L 1080,143 L 1080,139 L 1080,133 L 1079,130 L 1079,122 L 1080,119 L 1080,111 L 1079,108 L 1080,99 L 1080,96 L 1080,85 L 1080,83 L 1080,70 L 1080,69 L 1080,52 L 1080,51 L 1080,31 L 1080,29 L 1080,6 L 1079,0 L 1279,0 z " style="fill-opacity:1.000000;fill:rgb(18,77,200);stroke:rgb(0,0,0);stroke-width:2"/></g>
<g fill-rule="evenodd"><path d="M 1479,0 L 1480,6 L 1480,29 L 1480,31 L 1480,51 L 1480,52 L 1480,69 L 1480,70 L 1480,83 L 1480,85 L 1480,96 L 1479,99 L 1479,108 L 1480,111 L 1480,119 L 1479,122 L 1479,130 L 1480,133 L 1480,139 L 1479,143 L 1479,147 L 1480,170 L 1480,174 L 1479,178 L 1479,184 L 1480,188 L 1480,195 L 1479,198 L 1479,199 L 1474,207 L 1470,213 L 1462,224 L 1458,229 L 1449,239 L 1444,243 L 1434,252 L 1429,256 L 1418,264 L 1412,268 L 1399,275 L 1392,279 L 1378,285 L 1368,289 L 1354,294 L 1340,297 L 1324,301 L 1305,304 L 1287,306 L 1279,307 L 1280,288 L 1280,286 L 1280,266 L 1280,266 L 1280,249 L 1280,247 L 1280,234 L 1280,232 L 1279,221 L 1280,218 L 1280,209 L 1279,206 L 1279,198 L 1280,195 L 1280,188 L 1279,184 L 1279,178 L 1280,174 L 1280,170 L 1279,147 L 1279,143 L 1280,139 L 1280,133 L 1279,130 L 1279,122 L 1280,119 L 1280,111 L 1279,108 L 1279,99 L 1280,96 L 1280,85 L 1280,83 L 1280,70 L 1280,69 L 1280,52 L 1280,51 L 1280,31 L 1280,29 L 1280,6 L 1279,0 L 1479,0 z " style="fill-opacity:1.000000;fill:rgb(67,187,139);stroke:rgb(0,0,0);stroke-width:2"/></g>
<g fill-rule="evenodd"><path d="M 2679,147 L 2679,143 L 2680,139 L 2680,133 L 2679,130 L 2679,122 L 2680,119 L 2680,111 L 2679,108 L 2679,99 L 2680,96 L 2680,94 L 2689,88 L 2696,84 L 2710,78 L 2716,76 L 2730,71 L 2734,70 L 2748,67 L 2752,66 L 2765,64 L 2768,64 L 2782,64 L 2785,64 L 2799,65 L 2802,65 L 2816,68 L 2820,69 L 2834,73 L 2839,74 L 2853,80 L 2859,83 L 2873,90 L 2882,95 L 2896,104 L 2908,113 L 2921,124 L 2937,139 L 2939,141 L 2939,148 L 2940,170 L 2939,179 L 2939,180 L 2939,194 L 2940,196 L 2940,211 L 2939,214 L 2939,228 L 2940,232 L 2940,247 L 2939,252 L 2939,267 L 2940,274 L 2940,290 L 2939,299 L 2939,311 L 2938,316 L 2924,347 L 2918,360 L 2898,396 L 2889,410 L 2859,452 L 2849,466 L 2828,492 L 2804,518 L 2791,532 L 2760,563 L 2726,594 L 2722,588 L 2711,569 L 2701,551 L 2698,548 L 2679,515 L 2680,459 L 2680,420 L 2679,390 L 2679,358 L 2680,344 L 2680,318 L 2679,311 L 2679,288 L 2680,286 L 2679,266 L 2679,266 L 2679,249 L 2680,247 L 2680,234 L 2679,232 L 2679,221 L 2680,218 L 2680,209 L 2679,206 L 2679,198 L 2680,195 L 2680,188 L 2679,184 L 2679,178 L 2680,174 L 2680,170 L 2679,147 z " style="fill-opacity:1.000000;fill:rgb(166,31,3);stroke:rgb(0,0,0);stroke-width:2"/></g>
<g fill-rule="evenodd"><path d="M 4199,147 L 4199,143 L 4200,139 L 4199,133 L 4199,130 L 4199,122 L 4199,119 L 4199,111 L 4199,108 L 4199,99 L 4199,96 L 4200,94 L 4209,88 L 4216,84 L 4230,78 L 4236,76 L 4250,71 L 4254,70 L 4268,67 L 4271,66 L 4285,64 L 4288,64 L 4302,64 L 4305,64 L 4319,65 L 4322,65 L 4336,68 L 4340,69 L 4354,73 L 4359,74 L 4372,80 L 4379,83 L 4393,90 L 4400,94 L 4399,96 L 4399,99 L 4399,108 L 4399,111 L 4399,119 L 4399,122 L 4399,130 L 4399,133 L 4399,139 L 4399,143 L 4399,147 L 4400,170 L 4399,174 L 4399,178 L 4399,184 L 4399,188 L 4399,195 L 4399,198 L 4399,206 L 4399,209 L 4399,218 L 4399,221 L 4399,232 L 4399,234 L 4399,247 L 4399,249 L 4399,266 L 4399,266 L 4399,286 L 4399,288 L 4399,311 L 4399,318 L 4400,344 L 4399,358 L 4399,390 L 4400,417 L 4378,447 L 4367,461 L 4356,475 L 4320,443 L 4306,430 L 4272,394 L 4260,381 L 4239,353 L 4229,340 L 4216,318 L 4208,304 L 4199,286 L 4199,286 L 4199,266 L 4199,266 L 4199,249 L 4199,247 L 4199,234 L 4199,232 L 4199,221 L 4199,218 L 4199,209 L 4199,206 L 4199,198 L 4199,195 L 4199,188 L 4199,184 L 4199,178 L 4199,174 L 4200,170 L 4199,147 z " style="fill-opacity:1.000000;fill:rgb(90,125,9);stroke:rgb(0,0,0);stroke-width:2"/></g>
<g fill-rule="evenodd"><path d="M 4399,147 L 4399,143 L 4399,139 L 4399,133 L 4399,130 L 4399,122 L 4399,119 L 4399,111 L 4399,108 L 4399,99 L 4399,96 L 4400,94 L 4409,88 L 4416,84 L 4430,78 L 4436,76 L 4450,71 L 4454,70 L 4468,67 L 4471,66 L 4485,64 L 4488,64 L 4502,64 L 4505,64 L 4519,65 L 4522,65 L 4532,67 L 4535,69 L 4538,71 L 4549,80 L 4552,82 L 4561,91 L 4563,94 L 4572,104 L 4574,107 L 4579,114 L 4580,119 L 4581,123 L 4582,137 L 4582,140 L 4582,170 L 4582,172 L 4582,186 L 4581,189 L 4579,203 L 4578,207 L 4575,220 L 4573,225 L 4568,239 L 4566,245 L 4559,259 L 4554,267 L 4546,281 L 4538,292 L 4527,306 L 4514,321 L 4501,335 L 4478,357 L 4462,370 L 4421,402 L 4401,415 L 4400,417 L 4399,390 L 4399,358 L 4400,344 L 4399,318 L 4399,311 L 4399,288 L 4399,286 L 4399,266 L 4399,266 L 4399,249 L 4399,247 L 4399,234 L 4399,232 L 4399,221 L 4399,218 L 4399,209 L 4399,206 L 4399,198 L 4399,195 L 4399,188 L 4399,184 L 4399,178 L 4399,174 L 4400,170 L 4399,147 z " style="fill-opacity:1.000000;fill:rgb(56,37,31);stroke:rgb(0,0,0);stroke-width:2"/></g>
<g fill-rule="evenodd"><path d="M 348,4118 L 349,4109 L 352,4082 L 353,4071 L 356,4055 L 357,4046 L 360,4019 L 360,4012 L 362,4000 L 363,3994 L 366,3966 L 366,3962 L 368,3951 L 368,3947 L 371,3918 L 371,3916 L 373,3902 L 373,3901 L 377,3869 L 377,3868 L 378,3851 L 379,3850 L 382,3816 L 382,3814 L 384,3791 L 385,3787 L 388,3752 L 389,3746 L 392,3711 L 393,3702 L 397,3665 L 398,3653 L 399,3640 L 401,3639 L 413,3634 L 434,3626 L 454,3618 L 464,3613 L 465,3613 L 505,3595 L 506,3595 L 518,3590 L 536,3581 L 562,3568 L 574,3562 L 583,3558 L 616,3541 L 625,3536 L 672,3539 L 705,3543 L 762,3552 L 796,3559 L 827,3566 L 857,3575 L 891,3586 L 925,3598 L 959,3612 L 992,3627 L 1031,3646 L 1070,3667 L 1104,3687 L 1150,3715 L 1196,3747 L 1196,3747 L 1196,3781 L 1196,3782 L 1196,3795 L 1195,3879 L 1195,3888 L 1195,3902 L 1195,3913 L 1196,3951 L 1195,3982 L 1195,4004 L 1195,4038 L 1195,4067 L 1195,4081 L 1196,4118 L 348,4118 z " style="fill-opacity:1.000000;fill:rgb(93,212,203);stroke:rgb(0,0,0);stroke-width:2"/></g>
<g fill-rule="evenodd"><path d="M 4859,3798 L 4754,3904 L 4751,3902 L 4735,3891 L 4716,3877 L 4702,3867 L 4688,3858 L 4683,3855 L 4662,3842 L 4657,3838 L 4650,3833 L 4628,3821 L 4627,3820 L 4616,3814 L 4606,3808 L 4597,3803 L 4585,3796 L 4577,3792 L 4566,3787 L 4557,3783 L 4553,3781 L 4533,3771 L 4526,3768 L 4520,3766 L 4503,3758 L 4503,3758 L 4480,3734 L 4463,3714 L 4442,3687 L 4427,3665 L 4409,3635 L 4394,3607 L 4378,3575 L 4364,3540 L 4351,3505 L 4338,3458 L 4329,3420 L 4322,3389 L 4317,3357 L 4311,3315 L 4307,3271 L 4305,3225 L 4303,3179 L 4304,3115 L 4307,3047 L 4311,2996 L 4322,2896 L 4339,2790 L 4350,2732 L 4377,2601 L 4468,2549 L 4498,2532 L 4572,2494 L 4649,2458 L 4683,2458 L 4716,2458 L 4859,2458 L 4859,3798 z " style="fill-opacity:1.000000;fill:rgb(252,150,245);stroke:rgb(0,0,0);stroke-width:2"/></g>
<g fill-rule="evenodd"><path d="M 903,0 L 902,4 L 897,25 L 897,28 L 893,46 L 891,61 L 890,68 L 889,78 L 889,80 L 887,88 L 886,103 L 886,110 L 886,116 L 885,122 L 885,124 L 885,130 L 885,144 L 885,147 L 886,156 L 886,161 L 885,178 L 885,183 L 885,195 L 885,197 L 886,201 L 886,203 L 886,218 L 887,227 L 889,238 L 889,242 L 890,249 L 891,254 L 893,271 L 897,290 L 897,292 L 901,310 L 903,319 L 908,344 L 914,368 L 916,376 L 932,436 L 924,439 L 890,450 L 852,460 L 819,467 L 783,473 L 750,476 L 716,478 L 683,478 L 649,476 L 616,473 L 581,467 L 547,460 L 509,450 L 475,439 L 440,426 L 439,415 L 438,393 L 436,374 L 434,355 L 433,332 L 431,317 L 429,295 L 428,283 L 427,265 L 426,253 L 424,231 L 423,222 L 422,205 L 421,196 L 418,171 L 418,165 L 416,146 L 416,139 L 413,112 L 412,107 L 410,82 L 410,77 L 406,46 L 406,42 L 403,6 L 402,2 L 402,0 L 903,0 z " style="fill-opacity:1.000000;fill:rgb(69,59,19);stroke:rgb(0,0,0);stroke-width:2"/></g>
<g fill-rule="evenodd"><path d="M 4859,1139 L 4859,2458 L 4716,2458 L 4683,2458 L 4649,2458 L 4619,2380 L 4592,2305 L 4567,2232 L 4546,2162 L 4526,2095 L 4498,1993 L 4478,1898 L 4467,1840 L 4458,1782 L 4452,1728 L 4448,1677 L 4446,1642 L 4446,1609 L 4447,1563 L 4450,1522 L 4456,1480 L 4460,1454 L 4470,1416 L 4474,1399 L 4487,1364 L 4491,1353 L 4506,1321 L 4510,1315 L 4528,1285 L 4531,1281 L 4552,1254 L 4555,1251 L 4578,1226 L 4581,1224 L 4606,1202 L 4610,1199 L 4638,1180 L 4644,1176 L 4645,1175 L 4648,1174 L 4651,1172 L 4657,1168 L 4659,1166 L 4666,1160 L 4669,1158 L 4673,1154 L 4676,1150 L 4679,1148 L 4683,1144 L 4684,1142 L 4716,1111 L 4739,1090 L 4779,1058 L 4859,1139 z " style="fill-opacity:1.000000;fill:rgb(13,137,10);stroke:rgb(0,0,0);stroke-width:2"/></g>
<g fill-rule="evenodd"><path d="M 75,1304 L 75,1301 L 75,1288 L 76,1285 L 78,1272 L 79,1268 L 82,1256 L 84,1251 L 88,1239 L 91,1232 L 98,1220 L 102,1212 L 111,1199 L 115,1192 L 120,1192 L 133,1192 L 143,1192 L 156,1192 L 167,1192 L 179,1192 L 192,1192 L 206,1192 L 219,1192 L 220,1194 L 221,1195 L 227,1206 L 228,1207 L 234,1218 L 235,1219 L 240,1229 L 241,1230 L 246,1239 L 247,1240 L 252,1250 L 253,1251 L 258,1260 L 259,1261 L 265,1271 L 265,1272 L 271,1283 L 272,1284 L 278,1295 L 279,1296 L 280,1298 L 279,1301 L 274,1309 L 272,1313 L 268,1321 L 266,1325 L 262,1332 L 260,1336 L 256,1343 L 254,1346 L 251,1353 L 248,1357 L 245,1364 L 243,1367 L 239,1375 L 237,1379 L 233,1386 L 231,1390 L 227,1398 L 225,1402 L 220,1410 L 220,1410 L 205,1410 L 191,1410 L 179,1410 L 166,1410 L 156,1410 L 143,1410 L 133,1410 L 120,1410 L 114,1410 L 111,1405 L 102,1393 L 98,1385 L 91,1372 L 88,1366 L 84,1353 L 82,1349 L 79,1336 L 78,1332 L 76,1320 L 75,1316 L 75,1304 z " style="fill-opacity:1.000000;fill:rgb(28,219,174);stroke:rgb(0,0,0);stroke-width:2"/></g>
<g fill-rule="evenodd"><path d="M 75,1083 L 75,1080 L 75,1068 L 76,1064 L 78,1052 L 79,1048 L 82,1036 L 84,1031 L 88,1018 L 91,1012 L 98,999 L 102,991 L 108,982 L 112,982 L 122,982 L 135,982 L 143,982 L 156,982 L 164,982 L 177,982 L 187,982 L 201,982 L 215,982 L 225,982 L 226,985 L 227,986 L 232,996 L 233,998 L 238,1008 L 239,1010 L 244,1019 L 244,1020 L 249,1029 L 250,1031 L 255,1040 L 255,1041 L 260,1050 L 261,1052 L 266,1061 L 267,1063 L 272,1074 L 273,1075 L 277,1083 L 274,1089 L 272,1092 L 268,1101 L 266,1104 L 262,1112 L 260,1116 L 256,1123 L 254,1126 L 251,1133 L 248,1137 L 245,1144 L 243,1147 L 239,1154 L 237,1158 L 233,1166 L 231,1169 L 227,1178 L 225,1181 L 220,1190 L 219,1192 L 206,1192 L 192,1192 L 179,1192 L 167,1192 L 156,1192 L 143,1192 L 133,1192 L 120,1192 L 115,1192 L 111,1185 L 102,1173 L 98,1164 L 91,1152 L 88,1145 L 84,1133 L 82,1128 L 79,1116 L 78,1112 L 76,1099 L 75,1096 L 75,1083 z " style="fill-opacity:1.000000;fill:rgb(50,32,154);stroke:rgb(0,0,0);stroke-width:2"/></g>
<g fill-rule="evenodd"><path d="M 75,883 L 75,880 L 75,868 L 76,864 L 78,852 L 79,848 L 79,846 L 86,838 L 88,835 L 97,826 L 99,823 L 109,815 L 112,813 L 122,805 L 126,803 L 138,797 L 143,794 L 156,789 L 164,786 L 177,782 L 188,779 L 203,777 L 220,775 L 221,774 L 227,786 L 232,799 L 237,811 L 239,818 L 241,822 L 245,834 L 249,843 L 255,854 L 262,864 L 270,875 L 274,880 L 273,882 L 270,888 L 266,895 L 264,900 L 261,906 L 259,911 L 256,917 L 253,922 L 251,928 L 249,932 L 246,938 L 243,943 L 241,949 L 238,953 L 235,960 L 233,965 L 230,972 L 227,977 L 225,982 L 215,982 L 201,982 L 187,982 L 177,982 L 164,982 L 156,982 L 143,982 L 135,982 L 122,982 L 112,982 L 108,982 L 102,973 L 98,964 L 91,952 L 88,945 L 84,933 L 82,928 L 79,916 L 78,912 L 76,899 L 75,896 L 75,883 z " style="fill-opacity:1.000000;fill:rgb(80,238,64);stroke:rgb(0,0,0);stroke-width:2"/></g>
<g fill-rule="evenodd"><path d="M 223,3361 L 227,3354 L 230,3349 L 234,3342 L 236,3338 L 240,3331 L 241,3329 L 243,3327 L 254,3320 L 267,3313 L 274,3309 L 287,3303 L 293,3301 L 306,3297 L 310,3296 L 323,3293 L 327,3292 L 340,3291 L 343,3291 L 356,3291 L 360,3291 L 372,3292 L 376,3293 L 389,3296 L 394,3297 L 406,3301 L 412,3303 L 425,3309 L 433,3313 L 445,3320 L 456,3327 L 468,3336 L 483,3348 L 495,3359 L 515,3379 L 528,3393 L 556,3429 L 569,3446 L 590,3477 L 611,3512 L 624,3534 L 625,3536 L 616,3541 L 583,3558 L 574,3562 L 562,3568 L 536,3581 L 518,3590 L 506,3595 L 505,3595 L 465,3613 L 464,3613 L 454,3618 L 434,3626 L 413,3634 L 401,3639 L 399,3640 L 370,3632 L 356,3627 L 343,3623 L 339,3622 L 305,3610 L 300,3609 L 293,3606 L 271,3598 L 257,3593 L 245,3588 L 234,3585 L 208,3574 L 205,3573 L 196,3569 L 165,3556 L 155,3552 L 143,3546 L 134,3542 L 126,3538 L 143,3506 L 152,3489 L 156,3483 L 165,3468 L 181,3437 L 186,3428 L 191,3420 L 195,3412 L 204,3396 L 207,3389 L 212,3382 L 215,3376 L 220,3366 L 223,3361 z " style="fill-opacity:1.000000;fill:rgb(120,54,253);stroke:rgb(0,0,0);stroke-width:2"/></g>
<g fill-rule="evenodd"><path d="M 227,2724 L 227,2711 L 228,2705 L 231,2699 L 233,2694 L 237,2688 L 240,2683 L 243,2677 L 245,2672 L 248,2667 L 251,2661 L 254,2656 L 256,2651 L 260,2645 L 263,2640 L 266,2634 L 268,2629 L 272,2622 L 275,2617 L 279,2610 L 280,2608 L 294,2608 L 308,2608 L 320,2608 L 333,2608 L 343,2608 L 356,2608 L 367,2608 L 379,2608 L 392,2608 L 405,2608 L 422,2608 L 437,2608 L 462,2608 L 481,2608 L 527,2608 L 552,2608 L 667,2608 L 708,2608 L 760,2608 L 733,2643 L 705,2674 L 693,2688 L 666,2717 L 639,2742 L 627,2753 L 584,2788 L 572,2797 L 537,2819 L 531,2823 L 519,2823 L 476,2823 L 457,2823 L 434,2823 L 418,2823 L 403,2823 L 390,2823 L 378,2823 L 366,2823 L 356,2823 L 343,2823 L 334,2823 L 321,2823 L 310,2823 L 296,2823 L 281,2823 L 277,2823 L 273,2815 L 272,2814 L 267,2803 L 266,2802 L 261,2792 L 260,2790 L 255,2781 L 255,2780 L 250,2771 L 249,2769 L 244,2760 L 244,2759 L 239,2750 L 238,2748 L 233,2738 L 232,2737 L 228,2727 L 227,2724 z " style="fill-opacity:1.000000;fill:rgb(18,73,50);stroke:rgb(0,0,0);stroke-width:2"/></g>
<g fill-rule="evenodd"><path d="M 227,2505 L 227,2492 L 228,2481 L 229,2479 L 234,2471 L 235,2468 L 240,2459 L 242,2457 L 246,2449 L 247,2446 L 252,2438 L 254,2436 L 258,2428 L 259,2425 L 264,2417 L 266,2414 L 270,2405 L 272,2402 L 277,2394 L 279,2390 L 280,2388 L 294,2388 L 307,2388 L 320,2388 L 333,2388 L 343,2388 L 356,2388 L 367,2388 L 379,2388 L 392,2388 L 406,2388 L 422,2388 L 437,2388 L 463,2388 L 481,2388 L 528,2388 L 553,2388 L 669,2388 L 708,2388 L 708,2388 L 744,2416 L 780,2447 L 792,2458 L 825,2489 L 859,2523 L 837,2543 L 824,2554 L 792,2582 L 760,2608 L 708,2608 L 667,2608 L 552,2608 L 527,2608 L 481,2608 L 462,2608 L 437,2608 L 422,2608 L 405,2608 L 392,2608 L 379,2608 L 367,2608 L 356,2608 L 343,2608 L 333,2608 L 320,2608 L 308,2608 L 294,2608 L 280,2608 L 279,2606 L 277,2603 L 272,2594 L 270,2591 L 266,2582 L 264,2579 L 259,2571 L 258,2568 L 254,2561 L 252,2558 L 247,2550 L 246,2547 L 242,2540 L 240,2537 L 235,2529 L 234,2526 L 229,2517 L 228,2515 L 227,2505 z " style="fill-opacity:1.000000;fill:rgb(246,158,125);stroke:rgb(0,0,0);stroke-width:2"/></g>
<g fill-rule="evenodd"><path d="M 227,2284 L 227,2271 L 228,2265 L 231,2259 L 233,2254 L 237,2248 L 240,2243 L 243,2237 L 245,2232 L 248,2226 L 251,2221 L 254,2215 L 256,2211 L 260,2205 L 263,2200 L 266,2194 L 268,2189 L 272,2182 L 275,2177 L 279,2170 L 280,2168 L 294,2168 L 308,2168 L 320,2168 L 333,2168 L 343,2168 L 356,2168 L 367,2168 L 379,2168 L 392,2168 L 405,2168 L 422,2168 L 437,2168 L 458,2168 L 461,2169 L 474,2175 L 496,2186 L 508,2193 L 535,2211 L 548,2220 L 581,2247 L 594,2258 L 637,2302 L 649,2316 L 678,2350 L 707,2387 L 708,2388 L 669,2388 L 553,2388 L 528,2388 L 481,2388 L 463,2388 L 437,2388 L 422,2388 L 406,2388 L 392,2388 L 379,2388 L 367,2388 L 356,2388 L 343,2388 L 333,2388 L 320,2388 L 307,2388 L 294,2388 L 280,2388 L 279,2386 L 275,2379 L 272,2374 L 269,2368 L 266,2362 L 263,2356 L 260,2350 L 257,2345 L 254,2340 L 251,2335 L 248,2329 L 245,2324 L 243,2319 L 240,2314 L 236,2308 L 233,2303 L 230,2297 L 228,2292 L 227,2284 z " style="fill-opacity:1.000000;fill:rgb(73,220,173);stroke:rgb(0,0,0);stroke-width:2"/></g>
<g fill-rule="evenodd"><path d="M 402,0 L 402,2 L 403,6 L 406,42 L 406,46 L 410,77 L 410,82 L 412,107 L 413,112 L 416,139 L 416,146 L 418,165 L 418,171 L 421,196 L 422,205 L 423,222 L 424,231 L 426,253 L 427,265 L 428,283 L 429,295 L 431,317 L 433,332 L 434,355 L 436,374 L 438,393 L 439,415 L 440,426 L 423,434 L 392,448 L 353,462 L 322,473 L 288,482 L 257,488 L 226,493 L 223,494 L 209,495 L 206,496 L 195,498 L 178,501 L 175,502 L 165,503 L 147,507 L 144,508 L 134,511 L 113,517 L 110,518 L 99,521 L 92,523 L 65,531 L 18,542 L 0,545 L 0,0 L 402,0 z " style="fill-opacity:1.000000;fill:rgb(79,20,242);stroke:rgb(0,0,0);stroke-width:2"/></g>
<g fill-rule="evenodd"><path d="M 0,3534 L 0,3534 L 20,3534 L 33,3535 L 55,3536 L 84,3537 L 87,3537 L 97,3537 L 126,3538 L 134,3542 L 143,3546 L 155,3552 L 165,3556 L 196,3569 L 205,3573 L 208,3574 L 234,3585 L 245,3588 L 257,3593 L 271,3598 L 293,3606 L 300,3609 L 305,3610 L 339,3622 L 343,3623 L 356,3627 L 370,3632 L 399,3640 L 398,3653 L 397,3665 L 393,3702 L 392,3711 L 389,3746 L 388,3752 L 385,3787 L 384,3791 L 382,3814 L 382,3816 L 379,3850 L 378,3851 L 377,3868 L 377,3869 L 373,3901 L 373,3902 L 371,3916 L 371,3918 L 368,3947 L 368,3951 L 366,3962 L 366,3966 L 363,3994 L 362,4000 L 360,4012 L 360,4019 L 357,4046 L 356,4055 L 353,4071 L 352,4082 L 349,4109 L 348,4118 L 0,4118 L 0,3534 z " style="fill-opacity:1.000000;fill:rgb(68,64,102);stroke:rgb(0,0,0);stroke-width:2"/></g>
<g fill-rule="evenodd"><path d="M 1879,147 L 1879,143 L 1880,139 L 1880,133 L 1879,130 L 1879,122 L 1880,119 L 1880,111 L 1879,108 L 1879,99 L 1880,96 L 1880,94 L 1889,88 L 1897,84 L 1910,78 L 1916,76 L 1930,71 L 1934,70 L 1948,67 L 1952,66 L 1965,64 L 1968,64 L 1982,64 L 1985,64 L 1999,65 L 2002,65 L 2016,68 L 2020,69 L 2034,73 L 2039,74 L 2053,80 L 2059,83 L 2073,90 L 2080,94 L 2080,96 L 2079,99 L 2079,108 L 2080,111 L 2080,119 L 2079,122 L 2079,130 L 2080,133 L 2080,139 L 2079,143 L 2079,147 L 2080,170 L 2080,174 L 2079,178 L 2079,184 L 2080,188 L 2080,195 L 2079,198 L 2079,206 L 2080,209 L 2080,218 L 2079,221 L 2079,232 L 2080,234 L 2080,247 L 2079,249 L 2080,266 L 2080,266 L 2080,286 L 2080,286 L 2080,286 L 2080,395 L 2078,399 L 2073,411 L 2072,414 L 2074,430 L 2076,446 L 2078,459 L 2081,473 L 2084,482 L 2089,495 L 2091,502 L 2097,513 L 2099,518 L 2106,529 L 2108,532 L 2116,542 L 2119,545 L 2127,554 L 2130,557 L 2139,565 L 2142,567 L 2144,568 L 2154,570 L 2158,571 L 2170,572 L 2173,572 L 2186,572 L 2189,572 L 2201,571 L 2205,570 L 2215,568 L 2217,567 L 2220,565 L 2229,557 L 2232,554 L 2241,545 L 2243,542 L 2251,532 L 2253,529 L 2260,518 L 2262,513 L 2268,502 L 2270,495 L 2275,482 L 2278,473 L 2281,459 L 2283,446 L 2286,430 L 2287,414 L 2286,411 L 2281,399 L 2280,395 L 2280,286 L 2280,286 L 2280,286 L 2280,266 L 2280,266 L 2279,249 L 2280,247 L 2280,234 L 2279,232 L 2279,221 L 2280,218 L 2280,209 L 2279,206 L 2279,198 L 2280,195 L 2280,188 L 2279,184 L 2279,178 L 2280,174 L 2280,170 L 2279,147 L 2279,143 L 2280,139 L 2280,133 L 2279,130 L 2279,122 L 2280,119 L 2280,111 L 2279,108 L 2279,99 L 2280,96 L 2280,94 L 2289,88 L 2297,84 L 2310,78 L 2316,76 L 2330,71 L 2334,70 L 2348,67 L 2352,66 L 2365,64 L 2368,64 L 2382,64 L 2385,64 L 2399,65 L 2402,65 L 2416,68 L 2420,69 L 2434,73 L 2439,74 L 2453,80 L 2459,83 L 2473,90 L 2480,94 L 2489,88 L 2497,84 L 2510,78 L 2516,76 L 2530,71 L 2534,70 L 2548,67 L 2552,66 L 2565,64 L 2568,64 L 2582,64 L 2585,64 L 2599,65 L 2602,65 L 2616,68 L 2620,69 L 2634,73 L 2639,74 L 2653,80 L 2659,83 L 2673,90 L 2680,94 L 2680,96 L 2679,99 L 2679,108 L 2680,111 L 2680,119 L 2679,122 L 2679,130 L 2680,133 L 2680,139 L 2679,143 L 2679,147 L 2680,170 L 2680,174 L 2679,178 L 2679,184 L 2680,188 L 2680,195 L 2679,198 L 2679,206 L 2680,209 L 2680,218 L 2679,221 L 2679,232 L 2680,234 L 2680,247 L 2679,249 L 2679,266 L 2679,266 L 2680,286 L 2679,288 L 2679,311 L 2680,318 L 2680,344 L 2679,358 L 2679,390 L 2680,420 L 2680,459 L 2679,515 L 2698,548 L 2701,551 L 2711,569 L 2722,588 L 2726,594 L 2717,632 L 2716,634 L 2713,649 L 2712,651 L 2658,679 L 2655,680 L 2622,695 L 2410,783 L 2387,792 L 2384,793 L 2340,806 L 2337,807 L 2295,815 L 2292,816 L 2252,820 L 2249,820 L 2240,820 L 2228,831 L 2191,861 L 2179,870 L 2149,889 L 2137,896 L 2112,909 L 2099,915 L 2078,923 L 2065,927 L 2046,932 L 2033,935 L 2015,938 L 2003,939 L 1986,940 L 1973,940 L 1956,939 L 1944,938 L 1926,935 L 1913,932 L 1894,927 L 1881,923 L 1860,915 L 1847,909 L 1822,896 L 1810,889 L 1780,870 L 1768,861 L 1731,831 L 1719,820 L 1695,797 L 1672,772 L 1659,759 L 1640,736 L 1660,701 L 1666,690 L 1699,644 L 1703,637 L 1801,400 L 1825,373 L 1835,359 L 1852,335 L 1861,321 L 1872,301 L 1879,288 L 1880,286 L 1880,286 L 1880,266 L 1880,266 L 1880,249 L 1880,247 L 1880,234 L 1879,232 L 1879,221 L 1880,218 L 1880,209 L 1879,206 L 1879,198 L 1880,195 L 1880,188 L 1879,184 L 1879,178 L 1880,174 L 1880,170 L 1879,147 z " style="fill-opacity:1.000000;fill:rgb(208,107,196);stroke:rgb(0,0,0);stroke-width:2"/></g>
<g fill-rule="evenodd"><path d="M 227,2065 L 227,2052 L 228,2049 L 232,2039 L 233,2038 L 238,2028 L 239,2026 L 244,2017 L 244,2016 L 249,2007 L 250,2005 L 255,1996 L 255,1995 L 260,1986 L 261,1984 L 266,1975 L 267,1973 L 272,1962 L 273,1961 L 277,1953 L 281,1953 L 296,1953 L 310,1953 L 321,1953 L 334,1953 L 343,1953 L 356,1953 L 366,1953 L 378,1953 L 390,1953 L 403,1953 L 418,1953 L 434,1953 L 455,1953 L 456,1953 L 2984,1953 L 3001,1960 L 3013,1964 L 3029,1968 L 3042,1971 L 3051,1972 L 3057,1971 L 3071,1967 L 3083,1962 L 3096,1957 L 3105,1953 L 3117,1946 L 3124,1942 L 3135,1935 L 3141,1930 L 3150,1922 L 3156,1917 L 3164,1908 L 3169,1902 L 3177,1892 L 3182,1885 L 3188,1874 L 3193,1866 L 3198,1854 L 3203,1843 L 3208,1830 L 3212,1815 L 3215,1801 L 3219,1781 L 3221,1765 L 3223,1750 L 3230,1747 L 3240,1743 L 3242,1741 L 3260,1732 L 3262,1730 L 3277,1720 L 3280,1719 L 3293,1708 L 3295,1706 L 3301,1700 L 3544,1457 L 3550,1451 L 3553,1449 L 3566,1438 L 3568,1436 L 3583,1426 L 3586,1425 L 3589,1423 L 3590,1422 L 3604,1408 L 3614,1400 L 3630,1388 L 3640,1381 L 3659,1369 L 3671,1363 L 3693,1352 L 3706,1347 L 3734,1337 L 3747,1333 L 3783,1325 L 3798,1322 L 3847,1316 L 3863,1314 L 3895,1313 L 3930,1313 L 3948,1313 L 3991,1315 L 3987,1355 L 3985,1371 L 3980,1403 L 3973,1433 L 3970,1447 L 3956,1495 L 3951,1508 L 3935,1547 L 3930,1559 L 3912,1591 L 3905,1602 L 3887,1629 L 3879,1639 L 3858,1663 L 3850,1672 L 3827,1694 L 3818,1702 L 3792,1722 L 3782,1729 L 3752,1747 L 3741,1753 L 3706,1770 L 3693,1775 L 3664,1786 L 3634,1815 L 3624,1815 L 3606,1816 L 3562,1820 L 3545,1822 L 3513,1828 L 3498,1832 L 3473,1839 L 3459,1844 L 3445,1850 L 3438,1853 L 3426,1859 L 3413,1866 L 3399,1874 L 3388,1882 L 3376,1891 L 3366,1900 L 3355,1910 L 3346,1919 L 3336,1930 L 3328,1941 L 3319,1953 L 3311,1965 L 3303,1979 L 3297,1992 L 3289,2010 L 3287,2014 L 3259,2042 L 3253,2049 L 3251,2051 L 3239,2066 L 3237,2068 L 3226,2085 L 3224,2088 L 3214,2107 L 3212,2110 L 3208,2120 L 3190,2162 L 3184,2176 L 3183,2179 L 3168,2206 L 3167,2209 L 3143,2244 L 3140,2248 L 3116,2277 L 3089,2307 L 2800,2596 L 2765,2583 L 2762,2582 L 2714,2566 L 2665,2553 L 2662,2552 L 2616,2541 L 2570,2533 L 2567,2533 L 2523,2527 L 2478,2524 L 2475,2524 L 2431,2523 L 859,2523 L 825,2489 L 792,2458 L 780,2447 L 744,2416 L 708,2388 L 708,2388 L 707,2387 L 678,2350 L 649,2316 L 637,2302 L 594,2258 L 581,2247 L 548,2220 L 535,2211 L 508,2193 L 496,2186 L 474,2175 L 461,2169 L 458,2168 L 437,2168 L 422,2168 L 405,2168 L 392,2168 L 379,2168 L 367,2168 L 356,2168 L 343,2168 L 333,2168 L 320,2168 L 308,2168 L 294,2168 L 280,2168 L 279,2166 L 277,2163 L 272,2154 L 270,2151 L 266,2142 L 264,2139 L 259,2131 L 258,2128 L 254,2121 L 252,2118 L 247,2110 L 246,2107 L 242,2100 L 240,2097 L 235,2089 L 234,2086 L 229,2077 L 228,2075 L 227,2065 z " style="fill-opacity:1.000000;fill:rgb(48,183,50);stroke:rgb(0,0,0);stroke-width:2"/></g>
<g fill-rule="evenodd"><path d="M 227,1854 L 227,1841 L 228,1829 L 228,1829 L 234,1819 L 235,1817 L 240,1808 L 241,1806 L 246,1797 L 247,1796 L 252,1787 L 253,1785 L 258,1776 L 259,1775 L 264,1765 L 265,1764 L 271,1754 L 272,1752 L 278,1742 L 279,1740 L 280,1738 L 294,1738 L 308,1738 L 320,1738 L 333,1738 L 343,1738 L 356,1738 L 367,1738 L 379,1738 L 392,1738 L 405,1738 L 422,1738 L 437,1738 L 458,1738 L 459,1738 L 2982,1738 L 2998,1732 L 3010,1728 L 3027,1724 L 3040,1721 L 3056,1719 L 3068,1717 L 3083,1716 L 3096,1716 L 3111,1717 L 3123,1719 L 3139,1721 L 3152,1724 L 3169,1728 L 3181,1732 L 3201,1740 L 3213,1745 L 3223,1750 L 3221,1765 L 3219,1781 L 3215,1801 L 3212,1815 L 3208,1830 L 3203,1843 L 3198,1854 L 3193,1866 L 3188,1874 L 3182,1885 L 3177,1892 L 3169,1902 L 3164,1908 L 3156,1917 L 3150,1922 L 3141,1930 L 3135,1935 L 3124,1942 L 3117,1946 L 3105,1953 L 3096,1957 L 3083,1962 L 3071,1967 L 3057,1971 L 3051,1972 L 3042,1971 L 3029,1968 L 3013,1964 L 3001,1960 L 2984,1953 L 456,1953 L 455,1953 L 434,1953 L 418,1953 L 403,1953 L 390,1953 L 378,1953 L 366,1953 L 356,1953 L 343,1953 L 334,1953 L 321,1953 L 310,1953 L 296,1953 L 281,1953 L 277,1953 L 274,1947 L 272,1944 L 268,1935 L 266,1932 L 262,1924 L 260,1920 L 256,1913 L 254,1910 L 251,1903 L 248,1899 L 245,1892 L 243,1889 L 239,1882 L 237,1878 L 233,1870 L 231,1867 L 228,1859 L 227,1854 z " style="fill-opacity:1.000000;fill:rgb(59,161,34);stroke:rgb(0,0,0);stroke-width:2"/></g>
<g fill-rule="evenodd"><path d="M 223,1621 L 227,1614 L 230,1609 L 234,1602 L 236,1598 L 240,1591 L 241,1589 L 243,1587 L 254,1580 L 267,1573 L 274,1569 L 287,1563 L 293,1561 L 306,1557 L 310,1556 L 323,1553 L 327,1552 L 340,1551 L 343,1551 L 356,1551 L 360,1551 L 372,1552 L 376,1553 L 389,1556 L 394,1557 L 406,1561 L 412,1563 L 425,1569 L 433,1573 L 433,1573 L 2105,1573 L 2113,1577 L 2120,1580 L 2133,1584 L 2139,1585 L 2151,1588 L 2156,1589 L 2169,1590 L 2173,1590 L 2186,1590 L 2191,1590 L 2203,1589 L 2208,1588 L 2220,1585 L 2226,1584 L 2239,1580 L 2246,1577 L 2258,1571 L 2268,1567 L 2280,1559 L 2292,1552 L 2304,1543 L 2320,1530 L 2333,1518 L 2355,1496 L 2357,1493 L 3174,1493 L 3183,1489 L 3197,1489 L 3213,1487 L 3237,1484 L 3251,1482 L 3268,1478 L 3281,1474 L 3293,1470 L 3306,1464 L 3315,1460 L 3326,1454 L 3333,1450 L 3344,1442 L 3349,1438 L 3359,1430 L 3364,1425 L 3373,1416 L 3377,1411 L 3385,1401 L 3389,1394 L 3396,1383 L 3400,1375 L 3406,1364 L 3410,1353 L 3415,1340 L 3419,1327 L 3430,1322 L 3436,1320 L 3439,1319 L 3448,1313 L 3451,1312 L 3460,1306 L 3462,1304 L 3469,1298 L 3472,1296 L 3475,1293 L 3793,975 L 3797,963 L 3801,954 L 3807,943 L 3810,936 L 3817,925 L 3820,920 L 3828,910 L 3832,906 L 3840,897 L 3844,893 L 3854,885 L 3858,881 L 3869,874 L 3874,871 L 3886,865 L 3893,861 L 3906,856 L 3916,852 L 3929,848 L 3943,845 L 3958,842 L 3978,840 L 3994,838 L 4025,838 L 4042,838 L 4089,842 L 4109,845 L 4146,851 L 4186,859 L 4209,865 L 4274,882 L 4276,913 L 4277,925 L 4278,959 L 4277,992 L 4276,1003 L 4276,1004 L 4260,1035 L 4244,1064 L 4237,1075 L 4220,1101 L 4202,1126 L 4194,1136 L 4156,1181 L 4147,1190 L 4105,1230 L 4095,1239 L 4047,1275 L 4037,1282 L 4001,1305 L 3991,1315 L 3948,1313 L 3930,1313 L 3895,1313 L 3863,1314 L 3847,1316 L 3798,1322 L 3783,1325 L 3747,1333 L 3734,1337 L 3706,1347 L 3693,1352 L 3671,1363 L 3659,1369 L 3640,1381 L 3630,1388 L 3614,1400 L 3604,1408 L 3590,1422 L 3589,1423 L 3586,1425 L 3583,1426 L 3568,1436 L 3566,1438 L 3553,1449 L 3550,1451 L 3544,1457 L 3301,1700 L 3295,1706 L 3293,1708 L 3280,1719 L 3277,1720 L 3262,1730 L 3260,1732 L 3242,1741 L 3240,1743 L 3230,1747 L 3223,1750 L 3213,1745 L 3201,1740 L 3181,1732 L 3169,1728 L 3152,1724 L 3139,1721 L 3123,1719 L 3111,1717 L 3096,1716 L 3083,1716 L 3068,1717 L 3056,1719 L 3040,1721 L 3027,1724 L 3010,1728 L 2998,1732 L 2982,1738 L 459,1738 L 458,1738 L 437,1738 L 422,1738 L 405,1738 L 392,1738 L 379,1738 L 367,1738 L 356,1738 L 343,1738 L 333,1738 L 320,1738 L 308,1738 L 294,1738 L 280,1738 L 279,1736 L 274,1728 L 272,1724 L 268,1716 L 266,1712 L 262,1705 L 260,1701 L 256,1693 L 254,1690 L 251,1683 L 248,1679 L 245,1672 L 243,1669 L 239,1662 L 237,1658 L 233,1651 L 231,1647 L 227,1639 L 225,1635 L 220,1627 L 220,1626 L 220,1626 L 223,1621 z " style="fill-opacity:1.000000;fill:rgb(246,34,145);stroke:rgb(0,0,0);stroke-width:2"/></g>
<g fill-rule="evenodd"><path d="M 0,545 L 18,542 L 65,531 L 92,523 L 99,521 L 110,518 L 113,517 L 134,511 L 144,508 L 147,507 L 165,503 L 175,502 L 178,501 L 195,498 L 206,496 L 209,495 L 223,494 L 226,493 L 257,488 L 288,482 L 322,473 L 353,462 L 392,448 L 423,434 L 440,426 L 475,439 L 509,450 L 547,460 L 581,467 L 616,473 L 649,476 L 683,478 L 716,478 L 750,476 L 783,473 L 819,467 L 852,460 L 890,450 L 924,439 L 932,436 L 932,436 L 946,437 L 986,438 L 1000,438 L 1007,438 L 1038,422 L 1050,415 L 1079,396 L 1089,394 L 1105,391 L 1140,381 L 1155,377 L 1183,366 L 1196,360 L 1219,349 L 1231,342 L 1250,329 L 1261,321 L 1277,308 L 1279,307 L 1287,306 L 1305,304 L 1324,301 L 1340,297 L 1354,294 L 1368,289 L 1378,285 L 1392,279 L 1399,275 L 1412,268 L 1418,264 L 1429,256 L 1434,252 L 1444,243 L 1449,239 L 1458,229 L 1462,224 L 1470,213 L 1474,207 L 1479,199 L 1479,198 L 1480,195 L 1480,188 L 1479,184 L 1479,178 L 1480,174 L 1480,170 L 1479,147 L 1479,143 L 1480,139 L 1480,133 L 1479,130 L 1479,122 L 1480,119 L 1480,111 L 1479,108 L 1479,99 L 1480,96 L 1480,85 L 1480,83 L 1480,70 L 1480,69 L 1480,52 L 1480,51 L 1480,31 L 1480,29 L 1480,6 L 1479,0 L 4620,0 L 4699,78 L 4699,79 L 4699,976 L 4699,977 L 4700,978 L 4700,979 L 4701,980 L 4779,1058 L 4739,1090 L 4716,1111 L 4684,1142 L 4683,1144 L 4679,1148 L 4676,1150 L 4673,1154 L 4669,1158 L 4666,1160 L 4659,1166 L 4657,1168 L 4651,1172 L 4648,1174 L 4645,1175 L 4644,1176 L 4638,1180 L 4610,1199 L 4606,1202 L 4581,1224 L 4578,1226 L 4555,1251 L 4552,1254 L 4531,1281 L 4528,1285 L 4510,1315 L 4506,1321 L 4491,1353 L 4487,1364 L 4474,1399 L 4470,1416 L 4460,1454 L 4456,1480 L 4450,1522 L 4447,1563 L 4446,1609 L 4446,1642 L 4448,1677 L 4452,1728 L 4458,1782 L 4467,1840 L 4478,1898 L 4498,1993 L 4526,2095 L 4546,2162 L 4567,2232 L 4592,2305 L 4619,2380 L 4649,2458 L 4572,2494 L 4498,2532 L 4468,2549 L 4377,2601 L 4002,2601 L 3940,2606 L 3880,2608 L 3823,2609 L 3768,2606 L 3689,2564 L 3621,2523 L 3563,2481 L 3539,2460 L 3516,2439 L 3383,2305 L 3371,2290 L 3368,2283 L 3368,2275 L 3368,2142 L 3369,2133 L 3375,2127 L 3383,2123 L 3422,2107 L 3426,2107 L 3433,2108 L 3446,2108 L 3451,2108 L 3458,2108 L 3463,2108 L 3477,2107 L 3484,2106 L 3497,2103 L 3505,2101 L 3516,2097 L 3519,2096 L 3529,2094 L 3545,2090 L 3554,2089 L 3558,2084 L 3566,2073 L 3574,2062 L 3582,2050 L 3589,2037 L 3596,2024 L 3603,2007 L 3608,1994 L 3615,1973 L 3619,1957 L 3625,1930 L 3628,1913 L 3632,1875 L 3634,1857 L 3634,1815 L 3664,1786 L 3693,1775 L 3706,1770 L 3741,1753 L 3752,1747 L 3782,1729 L 3792,1722 L 3818,1702 L 3827,1694 L 3850,1672 L 3858,1663 L 3879,1639 L 3887,1629 L 3905,1602 L 3912,1591 L 3930,1559 L 3935,1547 L 3951,1508 L 3956,1495 L 3970,1447 L 3973,1433 L 3980,1403 L 3985,1371 L 3987,1355 L 3991,1315 L 4001,1305 L 4037,1282 L 4047,1275 L 4095,1239 L 4105,1230 L 4147,1190 L 4156,1181 L 4194,1136 L 4202,1126 L 4220,1101 L 4237,1075 L 4244,1064 L 4260,1035 L 4276,1004 L 4276,1003 L 4277,992 L 4278,959 L 4277,925 L 4276,913 L 4274,882 L 4312,791 L 4322,764 L 4324,761 L 4339,709 L 4340,706 L 4350,656 L 4350,653 L 4355,605 L 4355,602 L 4356,579 L 4356,475 L 4367,461 L 4378,447 L 4400,417 L 4401,415 L 4421,402 L 4462,370 L 4478,357 L 4501,335 L 4514,321 L 4527,306 L 4538,292 L 4546,281 L 4554,267 L 4559,259 L 4566,245 L 4568,239 L 4573,225 L 4575,220 L 4578,207 L 4579,203 L 4581,189 L 4582,186 L 4582,172 L 4582,170 L 4582,140 L 4582,137 L 4581,123 L 4580,119 L 4579,114 L 4574,107 L 4572,104 L 4563,94 L 4561,91 L 4552,82 L 4549,80 L 4538,71 L 4535,69 L 4532,67 L 4522,65 L 4519,65 L 4505,64 L 4502,64 L 4488,64 L 4485,64 L 4471,66 L 4468,67 L 4454,70 L 4450,71 L 4436,76 L 4430,78 L 4416,84 L 4409,88 L 4400,94 L 4393,90 L 4379,83 L 4372,80 L 4359,74 L 4354,73 L 4340,69 L 4336,68 L 4322,65 L 4319,65 L 4305,64 L 4302,64 L 4288,64 L 4285,64 L 4271,66 L 4268,67 L 4254,70 L 4250,71 L 4236,76 L 4230,78 L 4216,84 L 4209,88 L 4200,94 L 4193,90 L 4179,83 L 4172,80 L 4159,74 L 4154,73 L 4140,69 L 4136,68 L 4122,65 L 4119,65 L 4105,64 L 4102,64 L 4088,64 L 4085,64 L 4071,66 L 4068,67 L 4054,70 L 4050,71 L 4036,76 L 4030,78 L 4016,84 L 4009,88 L 4000,94 L 3993,90 L 3979,83 L 3972,80 L 3959,74 L 3954,73 L 3940,69 L 3936,68 L 3922,65 L 3919,65 L 3905,64 L 3902,64 L 3888,64 L 3885,64 L 3871,66 L 3868,67 L 3854,70 L 3850,71 L 3836,76 L 3830,78 L 3816,84 L 3809,88 L 3800,94 L 3793,90 L 3779,83 L 3772,80 L 3759,74 L 3754,73 L 3740,69 L 3736,68 L 3722,65 L 3719,65 L 3705,64 L 3702,64 L 3688,64 L 3685,64 L 3671,66 L 3668,67 L 3654,70 L 3650,71 L 3636,76 L 3630,78 L 3616,84 L 3609,88 L 3600,94 L 3593,90 L 3579,83 L 3572,80 L 3559,74 L 3554,73 L 3540,69 L 3536,68 L 3522,65 L 3519,65 L 3505,64 L 3502,64 L 3488,64 L 3485,64 L 3471,66 L 3468,67 L 3454,70 L 3450,71 L 3436,76 L 3430,78 L 3416,84 L 3409,88 L 3400,94 L 3393,90 L 3379,83 L 3372,80 L 3359,74 L 3354,73 L 3340,69 L 3336,68 L 3322,65 L 3319,65 L 3305,64 L 3302,64 L 3288,64 L 3285,64 L 3271,66 L 3268,67 L 3254,70 L 3250,71 L 3236,76 L 3230,78 L 3216,84 L 3209,88 L 3200,94 L 3193,90 L 3179,83 L 3173,80 L 3159,74 L 3154,73 L 3140,69 L 3136,68 L 3122,65 L 3119,65 L 3105,64 L 3102,64 L 3088,64 L 3085,64 L 3071,66 L 3068,67 L 3054,70 L 3050,71 L 3036,76 L 3030,78 L 3016,84 L 3009,88 L 2995,97 L 2985,103 L 2971,113 L 2957,125 L 2943,138 L 2939,141 L 2937,139 L 2921,124 L 2908,113 L 2896,104 L 2882,95 L 2873,90 L 2859,83 L 2853,80 L 2839,74 L 2834,73 L 2820,69 L 2816,68 L 2802,65 L 2799,65 L 2785,64 L 2782,64 L 2768,64 L 2765,64 L 2752,66 L 2748,67 L 2734,70 L 2730,71 L 2716,76 L 2710,78 L 2696,84 L 2689,88 L 2680,94 L 2673,90 L 2659,83 L 2653,80 L 2639,74 L 2634,73 L 2620,69 L 2616,68 L 2602,65 L 2599,65 L 2585,64 L 2582,64 L 2568,64 L 2565,64 L 2552,66 L 2548,67 L 2534,70 L 2530,71 L 2516,76 L 2510,78 L 2497,84 L 2489,88 L 2480,94 L 2473,90 L 2459,83 L 2453,80 L 2439,74 L 2434,73 L 2420,69 L 2416,68 L 2402,65 L 2399,65 L 2385,64 L 2382,64 L 2368,64 L 2365,64 L 2352,66 L 2348,67 L 2334,70 L 2330,71 L 2316,76 L 2310,78 L 2297,84 L 2289,88 L 2280,94 L 2273,90 L 2259,83 L 2253,80 L 2239,74 L 2234,73 L 2220,69 L 2216,68 L 2202,65 L 2199,65 L 2185,64 L 2182,64 L 2168,64 L 2165,64 L 2152,66 L 2148,67 L 2134,70 L 2130,71 L 2116,76 L 2110,78 L 2097,84 L 2089,88 L 2080,94 L 2073,90 L 2059,83 L 2053,80 L 2039,74 L 2034,73 L 2020,69 L 2016,68 L 2002,65 L 1999,65 L 1985,64 L 1982,64 L 1968,64 L 1965,64 L 1952,66 L 1948,67 L 1934,70 L 1930,71 L 1916,76 L 1910,78 L 1897,84 L 1889,88 L 1880,94 L 1873,90 L 1859,83 L 1853,80 L 1839,74 L 1834,73 L 1820,69 L 1816,68 L 1802,65 L 1799,65 L 1785,64 L 1782,64 L 1768,64 L 1765,64 L 1752,66 L 1748,67 L 1734,70 L 1730,71 L 1716,76 L 1711,78 L 1710,78 L 1701,88 L 1697,93 L 1689,104 L 1685,110 L 1680,119 L 1680,119 L 1679,122 L 1679,130 L 1680,133 L 1680,139 L 1679,143 L 1679,147 L 1680,170 L 1680,174 L 1679,178 L 1679,184 L 1680,188 L 1680,195 L 1679,198 L 1679,199 L 1674,207 L 1670,213 L 1662,224 L 1658,229 L 1649,239 L 1644,243 L 1634,252 L 1629,256 L 1618,264 L 1612,268 L 1599,275 L 1592,279 L 1578,285 L 1568,289 L 1558,292 L 1163,687 L 1140,697 L 1136,698 L 1133,700 L 1125,702 L 1122,703 L 1114,704 L 1111,705 L 1103,706 L 1101,706 L 1097,706 L 447,706 L 439,698 L 424,687 L 417,684 L 409,683 L 290,683 L 282,684 L 275,687 L 260,698 L 247,711 L 221,774 L 220,775 L 203,777 L 188,779 L 177,782 L 164,786 L 156,789 L 143,794 L 138,797 L 126,803 L 122,805 L 112,813 L 109,815 L 99,823 L 97,826 L 88,835 L 86,838 L 79,846 L 79,848 L 78,852 L 76,864 L 75,868 L 75,880 L 75,883 L 75,896 L 76,899 L 78,912 L 79,916 L 82,928 L 84,933 L 88,945 L 91,952 L 98,964 L 102,973 L 108,982 L 102,991 L 98,999 L 91,1012 L 88,1018 L 84,1031 L 82,1036 L 79,1048 L 78,1052 L 76,1064 L 75,1068 L 75,1080 L 75,1083 L 75,1096 L 76,1099 L 78,1112 L 79,1116 L 82,1128 L 84,1133 L 88,1145 L 91,1152 L 98,1164 L 102,1173 L 111,1185 L 115,1192 L 111,1199 L 102,1212 L 98,1220 L 91,1232 L 88,1239 L 84,1251 L 82,1256 L 79,1268 L 78,1272 L 76,1285 L 75,1288 L 75,1301 L 75,1304 L 75,1316 L 76,1320 L 78,1332 L 79,1336 L 82,1349 L 84,1353 L 88,1366 L 91,1372 L 98,1385 L 102,1393 L 111,1405 L 114,1410 L 111,1415 L 102,1427 L 98,1436 L 91,1448 L 88,1454 L 84,1467 L 82,1472 L 79,1484 L 78,1488 L 76,1501 L 75,1504 L 75,1516 L 75,1520 L 75,1532 L 76,1535 L 78,1548 L 79,1552 L 82,1564 L 84,1569 L 88,1582 L 91,1588 L 98,1600 L 101,1606 L 103,1608 L 113,1615 L 122,1620 L 133,1626 L 133,1626 L 143,1626 L 156,1626 L 166,1626 L 179,1626 L 191,1626 L 205,1626 L 220,1626 L 220,1627 L 225,1635 L 227,1639 L 231,1647 L 233,1651 L 237,1658 L 239,1662 L 243,1669 L 245,1672 L 248,1679 L 251,1683 L 254,1690 L 256,1693 L 260,1701 L 262,1705 L 266,1712 L 268,1716 L 272,1724 L 274,1728 L 279,1736 L 280,1738 L 279,1740 L 278,1742 L 272,1752 L 271,1754 L 265,1764 L 264,1765 L 259,1775 L 258,1776 L 253,1785 L 252,1787 L 247,1796 L 246,1797 L 241,1806 L 240,1808 L 235,1817 L 234,1819 L 228,1829 L 228,1829 L 227,1841 L 227,1854 L 228,1859 L 231,1867 L 233,1870 L 237,1878 L 239,1882 L 243,1889 L 245,1892 L 248,1899 L 251,1903 L 254,1910 L 256,1913 L 260,1920 L 262,1924 L 266,1932 L 268,1935 L 272,1944 L 274,1947 L 277,1953 L 273,1961 L 272,1962 L 267,1973 L 266,1975 L 261,1984 L 260,1986 L 255,1995 L 255,1996 L 250,2005 L 249,2007 L 244,2016 L 244,2017 L 239,2026 L 238,2028 L 233,2038 L 232,2039 L 228,2049 L 227,2052 L 227,2065 L 228,2075 L 229,2077 L 234,2086 L 235,2089 L 240,2097 L 242,2100 L 246,2107 L 247,2110 L 252,2118 L 254,2121 L 258,2128 L 259,2131 L 264,2139 L 266,2142 L 270,2151 L 272,2154 L 277,2163 L 279,2166 L 280,2168 L 279,2170 L 275,2177 L 272,2182 L 268,2189 L 266,2194 L 263,2200 L 260,2205 L 256,2211 L 254,2215 L 251,2221 L 248,2226 L 245,2232 L 243,2237 L 240,2243 L 237,2248 L 233,2254 L 231,2259 L 228,2265 L 227,2271 L 227,2284 L 228,2292 L 230,2297 L 233,2303 L 236,2308 L 240,2314 L 243,2319 L 245,2324 L 248,2329 L 251,2335 L 254,2340 L 257,2345 L 260,2350 L 263,2356 L 266,2362 L 269,2368 L 272,2374 L 275,2379 L 279,2386 L 280,2388 L 279,2390 L 277,2394 L 272,2402 L 270,2405 L 266,2414 L 264,2417 L 259,2425 L 258,2428 L 254,2436 L 252,2438 L 247,2446 L 246,2449 L 242,2457 L 240,2459 L 235,2468 L 234,2471 L 229,2479 L 228,2481 L 227,2492 L 227,2505 L 228,2515 L 229,2517 L 234,2526 L 235,2529 L 240,2537 L 242,2540 L 246,2547 L 247,2550 L 252,2558 L 254,2561 L 258,2568 L 259,2571 L 264,2579 L 266,2582 L 270,2591 L 272,2594 L 277,2603 L 279,2606 L 280,2608 L 279,2610 L 275,2617 L 272,2622 L 268,2629 L 266,2634 L 263,2640 L 260,2645 L 256,2651 L 254,2656 L 251,2661 L 248,2667 L 245,2672 L 243,2677 L 240,2683 L 237,2688 L 233,2694 L 231,2699 L 228,2705 L 227,2711 L 227,2724 L 228,2727 L 232,2737 L 233,2738 L 238,2748 L 239,2750 L 244,2759 L 244,2760 L 249,2769 L 250,2771 L 255,2780 L 255,2781 L 260,2790 L 261,2792 L 266,2802 L 267,2803 L 272,2814 L 273,2815 L 277,2823 L 274,2829 L 272,2832 L 268,2841 L 266,2844 L 262,2852 L 260,2856 L 256,2863 L 254,2866 L 251,2873 L 248,2877 L 245,2884 L 243,2887 L 239,2894 L 237,2898 L 233,2906 L 231,2909 L 228,2917 L 227,2922 L 227,2935 L 228,2944 L 230,2947 L 234,2954 L 236,2959 L 240,2965 L 242,2970 L 245,2976 L 248,2980 L 252,2987 L 254,2991 L 257,2997 L 259,3001 L 263,3008 L 266,3012 L 270,3019 L 272,3024 L 276,3031 L 279,3036 L 280,3038 L 279,3040 L 276,3045 L 272,3052 L 269,3057 L 266,3064 L 263,3069 L 259,3075 L 257,3080 L 254,3085 L 251,3090 L 248,3096 L 245,3101 L 242,3106 L 240,3111 L 236,3118 L 234,3122 L 230,3129 L 228,3133 L 227,3141 L 227,3154 L 228,3163 L 230,3167 L 234,3174 L 236,3178 L 240,3185 L 241,3187 L 243,3189 L 254,3196 L 267,3203 L 274,3207 L 287,3213 L 293,3215 L 306,3219 L 310,3220 L 323,3223 L 327,3224 L 340,3225 L 343,3225 L 356,3225 L 360,3225 L 372,3224 L 376,3223 L 389,3220 L 394,3219 L 406,3215 L 412,3213 L 425,3207 L 432,3203 L 1897,3203 L 1905,3207 L 1917,3213 L 1924,3215 L 1936,3219 L 1941,3220 L 1953,3223 L 1957,3224 L 1970,3225 L 1973,3225 L 1986,3225 L 1989,3225 L 2002,3224 L 2006,3223 L 2011,3222 L 2013,3221 L 2016,3221 L 2018,3221 L 2021,3220 L 2024,3220 L 2024,3220 L 2030,3219 L 2034,3219 L 2038,3219 L 2041,3219 L 2045,3219 L 2048,3219 L 2051,3218 L 2066,3218 L 2085,3216 L 2105,3214 L 2140,3207 L 2163,3202 L 2218,3186 L 2330,3232 L 2753,3654 L 2792,3677 L 2799,3682 L 2825,3688 L 2841,3692 L 2880,3705 L 2894,3710 L 2926,3725 L 2939,3731 L 2966,3746 L 2978,3754 L 2999,3769 L 2999,3773 L 2999,3799 L 3000,3806 L 3000,3829 L 2999,3831 L 2999,3851 L 2999,3851 L 2999,3868 L 2999,3870 L 2999,3883 L 3000,3885 L 3000,3896 L 2999,3899 L 2999,3908 L 3000,3911 L 3000,3919 L 2999,3922 L 2999,3929 L 3000,3933 L 3000,3939 L 2999,3943 L 2999,3947 L 3000,3970 L 3000,3974 L 2999,3978 L 2999,3984 L 3000,3987 L 3000,3995 L 2999,3998 L 2999,4006 L 3000,4009 L 3000,4018 L 2999,4021 L 2999,4032 L 3000,4034 L 2999,4047 L 2999,4048 L 2999,4065 L 2999,4066 L 3000,4086 L 2999,4088 L 2999,4111 L 3000,4118 L 2600,4118 L 2599,4111 L 2599,4088 L 2600,4086 L 2599,4066 L 2599,4065 L 2599,4048 L 2600,4047 L 2600,4034 L 2599,4032 L 2599,4021 L 2600,4018 L 2600,4009 L 2599,4006 L 2599,3998 L 2600,3995 L 2600,3987 L 2599,3984 L 2599,3978 L 2600,3974 L 2600,3970 L 2599,3947 L 2599,3943 L 2600,3939 L 2600,3933 L 2599,3929 L 2599,3922 L 2600,3919 L 2600,3919 L 2596,3913 L 2588,3901 L 2584,3896 L 2575,3885 L 2571,3881 L 2561,3871 L 2557,3867 L 2546,3859 L 2541,3855 L 2529,3847 L 2522,3843 L 2509,3837 L 2501,3833 L 2487,3828 L 2475,3824 L 2460,3820 L 2443,3816 L 2427,3813 L 2403,3811 L 2400,3811 L 2395,3806 L 2384,3798 L 2366,3785 L 2355,3778 L 2334,3766 L 2321,3760 L 2296,3749 L 2282,3743 L 2251,3733 L 2236,3729 L 2200,3721 L 2192,3716 L 2180,3708 L 2146,3689 L 2133,3682 L 2092,3664 L 2078,3659 L 2028,3642 L 2013,3638 L 1999,3635 L 1958,3611 L 1945,3605 L 1888,3579 L 1879,3576 L 1874,3576 L 1812,3581 L 1800,3583 L 1763,3579 L 1749,3578 L 1688,3576 L 1674,3576 L 1612,3581 L 1598,3583 L 1566,3588 L 1534,3594 L 1521,3597 L 1487,3606 L 1453,3617 L 1439,3622 L 1403,3635 L 1366,3651 L 1352,3657 L 1311,3677 L 1270,3700 L 1256,3708 L 1196,3747 L 1150,3715 L 1104,3687 L 1070,3667 L 1031,3646 L 992,3627 L 959,3612 L 925,3598 L 891,3586 L 857,3575 L 827,3566 L 796,3559 L 762,3552 L 705,3543 L 672,3539 L 625,3536 L 624,3534 L 611,3512 L 590,3477 L 569,3446 L 556,3429 L 528,3393 L 515,3379 L 495,3359 L 483,3348 L 468,3336 L 456,3327 L 445,3320 L 433,3313 L 425,3309 L 412,3303 L 406,3301 L 394,3297 L 389,3296 L 376,3293 L 372,3292 L 360,3291 L 356,3291 L 343,3291 L 340,3291 L 327,3292 L 323,3293 L 310,3296 L 306,3297 L 293,3301 L 287,3303 L 274,3309 L 267,3313 L 254,3320 L 243,3327 L 241,3329 L 240,3331 L 236,3338 L 234,3342 L 230,3349 L 227,3354 L 223,3361 L 220,3366 L 215,3376 L 212,3382 L 207,3389 L 204,3396 L 195,3412 L 191,3420 L 186,3428 L 181,3437 L 165,3468 L 156,3483 L 152,3489 L 143,3506 L 126,3538 L 97,3537 L 87,3537 L 84,3537 L 55,3536 L 33,3535 L 20,3534 L 0,3534 L 0,3534 L 0,545 z " style="fill-opacity:1.000000;fill:rgb(157,225,139);stroke:rgb(0,0,0);stroke-width:2"/></g>
<g fill-rule="evenodd"><path d="M 220,1410 L 225,1402 L 227,1398 L 231,1390 L 233,1386 L 237,1379 L 239,1375 L 243,1367 L 245,1364 L 248,1357 L 251,1353 L 254,1346 L 256,1343 L 260,1336 L 262,1332 L 266,1325 L 268,1321 L 272,1313 L 274,1309 L 279,1301 L 280,1298 L 294,1298 L 307,1298 L 320,1298 L 333,1298 L 343,1298 L 356,1298 L 366,1298 L 366,1298 L 367,1299 L 369,1300 L 378,1304 L 378,1304 L 381,1305 L 388,1307 L 390,1308 L 392,1309 L 400,1312 L 402,1312 L 405,1313 L 409,1315 L 410,1315 L 423,1319 L 423,1319 L 438,1313 L 443,1311 L 446,1310 L 455,1307 L 458,1306 L 466,1305 L 469,1304 L 477,1303 L 480,1303 L 484,1303 L 3217,1303 L 3225,1299 L 3237,1294 L 3243,1292 L 3255,1288 L 3260,1286 L 3273,1284 L 3277,1283 L 3289,1282 L 3293,1281 L 3306,1281 L 3309,1282 L 3322,1283 L 3326,1284 L 3338,1286 L 3343,1288 L 3356,1292 L 3362,1294 L 3374,1299 L 3382,1304 L 3395,1311 L 3405,1318 L 3418,1327 L 3419,1327 L 3415,1340 L 3410,1353 L 3406,1364 L 3400,1375 L 3396,1383 L 3389,1394 L 3385,1401 L 3377,1411 L 3373,1416 L 3364,1425 L 3359,1430 L 3349,1438 L 3344,1442 L 3333,1450 L 3326,1454 L 3315,1460 L 3306,1464 L 3293,1470 L 3281,1474 L 3268,1478 L 3251,1482 L 3237,1484 L 3213,1487 L 3197,1489 L 3183,1489 L 3174,1493 L 2357,1493 L 2348,1485 L 2326,1467 L 2314,1458 L 2298,1448 L 2285,1440 L 2272,1434 L 2260,1428 L 2249,1424 L 2236,1420 L 2227,1417 L 2215,1415 L 2206,1413 L 2194,1412 L 2186,1412 L 2173,1412 L 2165,1412 L 2153,1413 L 2145,1415 L 2132,1417 L 2123,1420 L 2110,1424 L 2099,1428 L 2087,1434 L 2078,1438 L 517,1438 L 480,1454 L 475,1456 L 472,1457 L 463,1459 L 460,1460 L 452,1462 L 449,1462 L 441,1463 L 438,1463 L 434,1463 L 433,1463 L 432,1463 L 424,1467 L 412,1473 L 406,1475 L 393,1479 L 389,1481 L 376,1483 L 372,1484 L 360,1485 L 356,1486 L 343,1486 L 340,1485 L 327,1484 L 323,1483 L 311,1481 L 306,1479 L 293,1475 L 287,1473 L 275,1467 L 267,1463 L 254,1456 L 244,1449 L 241,1447 L 240,1445 L 236,1439 L 234,1434 L 230,1427 L 227,1422 L 223,1416 L 220,1410 z " style="fill-opacity:1.000000;fill:rgb(31,218,176);stroke:rgb(0,0,0);stroke-width:2"/></g>
<g fill-rule="evenodd"><path d="M 227,3154 L 227,3141 L 228,3133 L 230,3129 L 234,3122 L 236,3118 L 240,3111 L 242,3106 L 245,3101 L 248,3096 L 251,3090 L 254,3085 L 257,3080 L 259,3075 L 263,3069 L 266,3064 L 269,3057 L 272,3052 L 276,3045 L 279,3040 L 280,3038 L 294,3038 L 308,3038 L 320,3038 L 333,3038 L 343,3038 L 356,3038 L 366,3038 L 366,3038 L 367,3038 L 369,3039 L 378,3043 L 378,3043 L 381,3044 L 388,3047 L 390,3048 L 393,3049 L 399,3051 L 402,3052 L 405,3053 L 409,3054 L 410,3054 L 422,3058 L 434,3063 L 446,3068 L 1885,3068 L 1895,3064 L 1907,3059 L 1919,3055 L 1930,3052 L 1942,3050 L 1952,3048 L 1964,3047 L 1973,3046 L 1986,3046 L 1995,3047 L 2007,3048 L 2017,3050 L 2029,3052 L 2040,3055 L 2052,3059 L 2064,3064 L 2077,3069 L 2091,3077 L 2104,3084 L 2122,3096 L 2134,3105 L 2157,3124 L 2170,3135 L 2200,3165 L 2212,3179 L 2218,3186 L 2163,3202 L 2140,3207 L 2105,3214 L 2085,3216 L 2066,3218 L 2051,3218 L 2048,3219 L 2045,3219 L 2041,3219 L 2038,3219 L 2034,3219 L 2030,3219 L 2024,3220 L 2024,3220 L 2021,3220 L 2018,3221 L 2016,3221 L 2013,3221 L 2011,3222 L 2006,3223 L 2002,3224 L 1989,3225 L 1986,3225 L 1973,3225 L 1970,3225 L 1957,3224 L 1953,3223 L 1941,3220 L 1936,3219 L 1924,3215 L 1917,3213 L 1905,3207 L 1897,3203 L 432,3203 L 425,3207 L 412,3213 L 406,3215 L 394,3219 L 389,3220 L 376,3223 L 372,3224 L 360,3225 L 356,3225 L 343,3225 L 340,3225 L 327,3224 L 323,3223 L 310,3220 L 306,3219 L 293,3215 L 287,3213 L 274,3207 L 267,3203 L 254,3196 L 243,3189 L 241,3187 L 240,3185 L 236,3178 L 234,3174 L 230,3167 L 228,3163 L 227,3154 z " style="fill-opacity:1.000000;fill:rgb(202,153,2);stroke:rgb(0,0,0);stroke-width:2"/></g>
<g fill-rule="evenodd"><path d="M 3295,4118 L 3291,4095 L 3291,4091 L 3289,4084 L 3287,4072 L 3287,4066 L 3281,4034 L 3277,4019 L 3269,3995 L 3264,3980 L 3260,3969 L 3247,3939 L 3240,3924 L 3234,3912 L 3226,3899 L 3218,3888 L 3210,3877 L 3202,3867 L 3193,3858 L 3183,3848 L 3174,3840 L 3163,3831 L 3152,3824 L 3140,3816 L 3128,3809 L 3115,3802 L 3099,3795 L 3085,3790 L 3064,3783 L 3049,3779 L 3022,3773 L 3005,3770 L 2999,3769 L 2978,3754 L 2966,3746 L 2939,3731 L 2926,3725 L 2894,3710 L 2880,3705 L 2841,3692 L 2825,3688 L 2799,3682 L 2792,3677 L 2753,3654 L 2330,3232 L 2218,3186 L 2212,3179 L 2200,3165 L 2170,3135 L 2157,3124 L 2134,3105 L 2122,3096 L 2104,3084 L 2091,3077 L 2077,3069 L 2064,3064 L 2052,3059 L 2040,3055 L 2029,3052 L 2017,3050 L 2007,3048 L 1995,3047 L 1986,3046 L 1973,3046 L 1964,3047 L 1952,3048 L 1942,3050 L 1930,3052 L 1919,3055 L 1907,3059 L 1895,3064 L 1885,3068 L 446,3068 L 434,3063 L 422,3058 L 410,3054 L 409,3054 L 405,3053 L 402,3052 L 399,3051 L 393,3049 L 390,3048 L 388,3047 L 381,3044 L 378,3043 L 378,3043 L 369,3039 L 367,3038 L 366,3038 L 366,3038 L 356,3038 L 343,3038 L 333,3038 L 320,3038 L 308,3038 L 294,3038 L 280,3038 L 279,3036 L 276,3031 L 272,3024 L 270,3019 L 266,3012 L 263,3008 L 259,3001 L 257,2997 L 254,2991 L 252,2987 L 248,2980 L 245,2976 L 242,2970 L 240,2965 L 236,2959 L 234,2954 L 230,2947 L 228,2944 L 227,2935 L 227,2922 L 228,2917 L 231,2909 L 233,2906 L 237,2898 L 239,2894 L 243,2887 L 245,2884 L 248,2877 L 251,2873 L 254,2866 L 256,2863 L 260,2856 L 262,2852 L 266,2844 L 268,2841 L 272,2832 L 274,2829 L 277,2823 L 281,2823 L 296,2823 L 310,2823 L 321,2823 L 334,2823 L 343,2823 L 356,2823 L 366,2823 L 378,2823 L 390,2823 L 403,2823 L 418,2823 L 434,2823 L 457,2823 L 476,2823 L 519,2823 L 531,2823 L 537,2819 L 572,2797 L 584,2788 L 627,2753 L 639,2742 L 666,2717 L 693,2688 L 705,2674 L 733,2643 L 760,2608 L 792,2582 L 824,2554 L 837,2543 L 859,2523 L 2431,2523 L 2475,2524 L 2478,2524 L 2523,2527 L 2567,2533 L 2570,2533 L 2616,2541 L 2662,2552 L 2665,2553 L 2714,2566 L 2762,2582 L 2765,2583 L 2800,2596 L 2807,2612 L 2878,2785 L 2896,2826 L 2898,2829 L 2917,2867 L 2938,2904 L 2939,2907 L 2960,2940 L 2983,2972 L 2985,2975 L 3008,3004 L 3032,3033 L 3034,3035 L 3060,3062 L 3499,3501 L 3557,3527 L 3570,3534 L 3600,3550 L 3600,3589 L 3599,3658 L 3599,3697 L 3600,3727 L 3600,3759 L 3599,3773 L 3599,3799 L 3600,3806 L 3599,3829 L 3599,3831 L 3599,3851 L 3599,3851 L 3599,3868 L 3599,3870 L 3599,3883 L 3599,3885 L 3599,3896 L 3599,3899 L 3599,3908 L 3600,3911 L 3600,3919 L 3599,3922 L 3599,3929 L 3600,3933 L 3600,3939 L 3599,3943 L 3599,3947 L 3600,3970 L 3600,3974 L 3599,3978 L 3599,3984 L 3600,3987 L 3600,3995 L 3599,3998 L 3599,4006 L 3600,4009 L 3600,4018 L 3599,4021 L 3599,4032 L 3599,4034 L 3599,4047 L 3599,4048 L 3599,4065 L 3599,4066 L 3599,4086 L 3599,4088 L 3599,4111 L 3600,4118 L 3295,4118 z " style="fill-opacity:1.000000;fill:rgb(185,114,157);stroke:rgb(0,0,0);stroke-width:2"/></g>
<g fill-rule="evenodd"><path d="M 75,1520 L 75,1516 L 75,1504 L 76,1501 L 78,1488 L 79,1484 L 82,1472 L 84,1467 L 88,1454 L 91,1448 L 98,1436 L 102,1427 L 111,1415 L 114,1410 L 120,1410 L 133,1410 L 143,1410 L 156,1410 L 166,1410 L 179,1410 L 191,1410 L 205,1410 L 220,1410 L 220,1410 L 223,1416 L 227,1422 L 230,1427 L 234,1434 L 236,1439 L 240,1445 L 241,1447 L 244,1449 L 254,1456 L 267,1463 L 275,1467 L 287,1473 L 293,1475 L 306,1479 L 311,1481 L 323,1483 L 327,1484 L 340,1485 L 343,1486 L 356,1486 L 360,1485 L 372,1484 L 376,1483 L 389,1481 L 393,1479 L 406,1475 L 412,1473 L 424,1467 L 432,1463 L 433,1463 L 434,1463 L 438,1463 L 441,1463 L 449,1462 L 452,1462 L 460,1460 L 463,1459 L 472,1457 L 475,1456 L 480,1454 L 517,1438 L 2078,1438 L 2087,1434 L 2099,1428 L 2110,1424 L 2123,1420 L 2132,1417 L 2145,1415 L 2153,1413 L 2165,1412 L 2173,1412 L 2186,1412 L 2194,1412 L 2206,1413 L 2215,1415 L 2227,1417 L 2236,1420 L 2249,1424 L 2260,1428 L 2272,1434 L 2285,1440 L 2298,1448 L 2314,1458 L 2326,1467 L 2348,1485 L 2357,1493 L 2355,1496 L 2333,1518 L 2320,1530 L 2304,1543 L 2292,1552 L 2280,1559 L 2268,1567 L 2258,1571 L 2246,1577 L 2239,1580 L 2226,1584 L 2220,1585 L 2208,1588 L 2203,1589 L 2191,1590 L 2186,1590 L 2173,1590 L 2169,1590 L 2156,1589 L 2151,1588 L 2139,1585 L 2133,1584 L 2120,1580 L 2113,1577 L 2105,1573 L 433,1573 L 433,1573 L 425,1569 L 412,1563 L 406,1561 L 394,1557 L 389,1556 L 376,1553 L 372,1552 L 360,1551 L 356,1551 L 343,1551 L 340,1551 L 327,1552 L 323,1553 L 310,1556 L 306,1557 L 293,1561 L 287,1563 L 274,1569 L 267,1573 L 254,1580 L 243,1587 L 241,1589 L 240,1591 L 236,1598 L 234,1602 L 230,1609 L 227,1614 L 223,1621 L 220,1626 L 220,1626 L 205,1626 L 191,1626 L 179,1626 L 166,1626 L 156,1626 L 143,1626 L 133,1626 L 133,1626 L 122,1620 L 113,1615 L 103,1608 L 101,1606 L 98,1600 L 91,1588 L 88,1582 L 84,1569 L 82,1564 L 79,1552 L 78,1548 L 76,1535 L 75,1532 L 75,1520 z " style="fill-opacity:1.000000;fill:rgb(73,44,128);stroke:rgb(0,0,0);stroke-width:2"/></g>
<g fill-rule="evenodd"><path d="M 285,878 L 274,880 L 270,875 L 262,864 L 255,854 L 249,843 L 245,834 L 241,822 L 239,818 L 237,811 L 232,799 L 227,786 L 221,774 L 247,711 L 260,698 L 275,687 L 282,684 L 290,683 L 409,683 L 417,684 L 424,687 L 439,698 L 447,706 L 1097,706 L 1101,706 L 1103,706 L 1111,705 L 1114,704 L 1122,703 L 1125,702 L 1133,700 L 1136,698 L 1140,697 L 1163,687 L 1558,292 L 1568,289 L 1578,285 L 1592,279 L 1599,275 L 1612,268 L 1618,264 L 1629,256 L 1634,252 L 1644,243 L 1649,239 L 1658,229 L 1662,224 L 1670,213 L 1674,207 L 1679,199 L 1679,198 L 1680,195 L 1680,188 L 1679,184 L 1679,178 L 1680,174 L 1680,170 L 1679,147 L 1679,143 L 1680,139 L 1680,133 L 1679,130 L 1679,122 L 1680,119 L 1680,119 L 1685,110 L 1689,104 L 1697,93 L 1701,88 L 1710,78 L 1711,78 L 1716,76 L 1730,71 L 1734,70 L 1748,67 L 1752,66 L 1765,64 L 1768,64 L 1782,64 L 1785,64 L 1799,65 L 1802,65 L 1816,68 L 1820,69 L 1834,73 L 1839,74 L 1853,80 L 1859,83 L 1873,90 L 1880,94 L 1880,96 L 1879,99 L 1879,108 L 1880,111 L 1880,119 L 1879,122 L 1879,130 L 1880,133 L 1880,139 L 1879,143 L 1879,147 L 1880,170 L 1880,174 L 1879,178 L 1879,184 L 1880,188 L 1880,195 L 1879,198 L 1879,206 L 1880,209 L 1880,218 L 1879,221 L 1879,232 L 1880,234 L 1880,247 L 1880,249 L 1880,266 L 1880,266 L 1880,286 L 1880,286 L 1879,288 L 1872,301 L 1861,321 L 1852,335 L 1835,359 L 1825,373 L 1801,400 L 1703,637 L 1699,644 L 1666,690 L 1660,701 L 1640,736 L 1308,874 L 1293,879 L 1290,881 L 1263,889 L 1261,889 L 1235,895 L 1232,895 L 1207,897 L 1204,898 L 1192,898 L 516,898 L 508,893 L 501,889 L 492,888 L 461,886 L 445,884 L 428,881 L 415,878 L 409,876 L 402,874 L 390,872 L 379,870 L 366,869 L 356,868 L 343,868 L 333,869 L 320,870 L 309,872 L 297,874 L 290,876 L 285,878 z " style="fill-opacity:1.000000;fill:rgb(126,197,153);stroke:rgb(0,0,0);stroke-width:2"/></g>
<g fill-rule="evenodd"><path d="M 225,982 L 227,977 L 230,972 L 233,965 L 235,960 L 238,953 L 241,949 L 243,943 L 246,938 L 249,932 L 251,928 L 253,922 L 256,917 L 259,911 L 261,906 L 264,900 L 266,895 L 270,888 L 273,882 L 274,880 L 285,878 L 290,876 L 297,874 L 309,872 L 320,870 L 333,869 L 343,868 L 356,868 L 366,869 L 379,870 L 390,872 L 402,874 L 409,876 L 415,878 L 428,881 L 445,884 L 461,886 L 492,888 L 501,889 L 508,893 L 516,898 L 1192,898 L 1204,898 L 1207,897 L 1232,895 L 1235,895 L 1261,889 L 1263,889 L 1290,881 L 1293,879 L 1308,874 L 1640,736 L 1659,759 L 1672,772 L 1695,797 L 1719,820 L 1731,831 L 1768,861 L 1780,870 L 1810,889 L 1822,896 L 1847,909 L 1860,915 L 1881,923 L 1894,927 L 1913,932 L 1926,935 L 1944,938 L 1956,939 L 1973,940 L 1986,940 L 2003,939 L 2015,938 L 2033,935 L 2046,932 L 2065,927 L 2078,923 L 2099,915 L 2112,909 L 2137,896 L 2149,889 L 2179,870 L 2191,861 L 2228,831 L 2240,820 L 2249,820 L 2252,820 L 2292,816 L 2295,815 L 2337,807 L 2340,806 L 2384,793 L 2387,792 L 2410,783 L 2622,695 L 2655,680 L 2658,679 L 2712,651 L 2759,721 L 2771,738 L 2797,773 L 2824,803 L 2836,817 L 2875,856 L 2887,867 L 2917,891 L 2929,900 L 2953,916 L 2965,923 L 2985,933 L 2998,939 L 3014,945 L 3027,949 L 3042,953 L 3054,956 L 3068,958 L 3080,959 L 3093,960 L 3106,960 L 3119,959 L 3131,958 L 3145,956 L 3157,953 L 3172,949 L 3185,945 L 3201,939 L 3204,937 L 3211,940 L 3223,944 L 3240,948 L 3252,951 L 3267,953 L 3279,954 L 3293,955 L 3306,955 L 3320,954 L 3332,953 L 3347,951 L 3359,948 L 3375,944 L 3388,940 L 3398,936 L 3401,928 L 3406,916 L 3411,900 L 3414,888 L 3417,873 L 3419,861 L 3421,848 L 3421,835 L 3421,822 L 3421,810 L 3419,796 L 3417,784 L 3414,769 L 3411,757 L 3406,741 L 3401,729 L 3399,725 L 3399,286 L 3399,286 L 3399,286 L 3399,266 L 3399,266 L 3399,249 L 3399,247 L 3399,234 L 3399,232 L 3399,221 L 3400,218 L 3400,209 L 3399,206 L 3399,198 L 3400,195 L 3400,188 L 3399,184 L 3399,178 L 3400,174 L 3400,170 L 3399,147 L 3399,143 L 3400,139 L 3400,133 L 3399,130 L 3399,122 L 3400,119 L 3400,111 L 3399,108 L 3399,99 L 3400,96 L 3400,94 L 3409,88 L 3416,84 L 3430,78 L 3436,76 L 3450,71 L 3454,70 L 3468,67 L 3471,66 L 3485,64 L 3488,64 L 3502,64 L 3505,64 L 3519,65 L 3522,65 L 3536,68 L 3540,69 L 3554,73 L 3559,74 L 3572,80 L 3579,83 L 3593,90 L 3600,94 L 3599,96 L 3599,99 L 3599,108 L 3600,111 L 3600,119 L 3599,122 L 3599,130 L 3600,133 L 3600,139 L 3599,143 L 3599,147 L 3600,170 L 3600,174 L 3599,178 L 3599,184 L 3600,188 L 3600,195 L 3599,198 L 3599,206 L 3600,209 L 3600,218 L 3599,221 L 3599,232 L 3599,234 L 3599,247 L 3599,249 L 3599,266 L 3599,266 L 3599,286 L 3599,286 L 3599,286 L 3599,675 L 3598,679 L 3593,691 L 3588,707 L 3585,719 L 3582,734 L 3580,746 L 3578,760 L 3578,772 L 3578,785 L 3578,798 L 3580,811 L 3582,823 L 3585,838 L 3588,850 L 3593,866 L 3598,878 L 3606,897 L 3612,908 L 3578,989 L 3575,995 L 3574,997 L 3569,1008 L 3567,1011 L 3561,1020 L 3559,1022 L 3552,1030 L 3550,1032 L 3547,1036 L 3498,1085 L 3494,1089 L 3492,1091 L 3484,1097 L 3481,1099 L 3472,1105 L 3470,1107 L 3459,1112 L 3456,1114 L 3450,1116 L 3387,1143 L 492,1143 L 485,1138 L 468,1127 L 456,1120 L 443,1113 L 430,1107 L 419,1103 L 409,1100 L 407,1099 L 405,1098 L 402,1097 L 398,1096 L 394,1094 L 391,1093 L 386,1091 L 383,1090 L 380,1089 L 377,1088 L 372,1085 L 369,1084 L 367,1083 L 366,1083 L 356,1083 L 343,1083 L 334,1083 L 321,1083 L 310,1083 L 296,1083 L 281,1083 L 277,1083 L 273,1075 L 272,1074 L 267,1063 L 266,1061 L 261,1052 L 260,1050 L 255,1041 L 255,1040 L 250,1031 L 249,1029 L 244,1020 L 244,1019 L 239,1010 L 238,1008 L 233,998 L 232,996 L 227,986 L 226,985 L 225,982 z " style="fill-opacity:1.000000;fill:rgb(213,233,128);stroke:rgb(0,0,0);stroke-width:2"/></g>
<g fill-rule="evenodd"><path d="M 220,1194 L 219,1192 L 220,1190 L 225,1181 L 227,1178 L 231,1169 L 233,1166 L 237,1158 L 239,1154 L 243,1147 L 245,1144 L 248,1137 L 251,1133 L 254,1126 L 256,1123 L 260,1116 L 262,1112 L 266,1104 L 268,1101 L 272,1092 L 274,1089 L 277,1083 L 281,1083 L 296,1083 L 310,1083 L 321,1083 L 334,1083 L 343,1083 L 356,1083 L 366,1083 L 367,1083 L 369,1084 L 372,1085 L 377,1088 L 380,1089 L 383,1090 L 386,1091 L 391,1093 L 394,1094 L 398,1096 L 402,1097 L 405,1098 L 407,1099 L 409,1100 L 419,1103 L 430,1107 L 443,1113 L 456,1120 L 468,1127 L 485,1138 L 492,1143 L 3387,1143 L 3450,1116 L 3456,1114 L 3459,1112 L 3470,1107 L 3472,1105 L 3481,1099 L 3484,1097 L 3492,1091 L 3494,1089 L 3498,1085 L 3547,1036 L 3550,1032 L 3552,1030 L 3559,1022 L 3561,1020 L 3567,1011 L 3569,1008 L 3574,997 L 3575,995 L 3578,989 L 3612,908 L 3613,907 L 3637,904 L 3651,902 L 3668,898 L 3681,894 L 3693,890 L 3706,884 L 3715,880 L 3726,874 L 3733,870 L 3744,862 L 3749,858 L 3759,850 L 3764,845 L 3773,836 L 3777,831 L 3785,821 L 3789,814 L 3796,803 L 3800,795 L 3806,784 L 3810,773 L 3815,760 L 3819,746 L 3822,732 L 3826,713 L 3828,697 L 3830,669 L 3830,663 L 3842,636 L 3856,632 L 3870,628 L 3893,619 L 3906,614 L 3924,605 L 3936,599 L 3951,590 L 3961,583 L 3975,573 L 3984,564 L 3996,553 L 4004,545 L 4008,541 L 4011,530 L 4014,518 L 4017,503 L 4019,491 L 4021,478 L 4021,465 L 4021,452 L 4021,440 L 4019,426 L 4017,414 L 4014,399 L 4011,387 L 4006,371 L 4001,359 L 3999,355 L 3999,286 L 3999,286 L 3999,286 L 3999,266 L 3999,266 L 3999,249 L 3999,247 L 3999,234 L 3999,232 L 3999,221 L 3999,218 L 3999,209 L 3999,206 L 3999,198 L 3999,195 L 3999,188 L 3999,184 L 3999,178 L 3999,174 L 4000,170 L 3999,147 L 3999,143 L 4000,139 L 3999,133 L 3999,130 L 3999,122 L 3999,119 L 3999,111 L 3999,108 L 3999,99 L 3999,96 L 4000,94 L 4009,88 L 4016,84 L 4030,78 L 4036,76 L 4050,71 L 4054,70 L 4068,67 L 4071,66 L 4085,64 L 4088,64 L 4102,64 L 4105,64 L 4119,65 L 4122,65 L 4136,68 L 4140,69 L 4154,73 L 4159,74 L 4172,80 L 4179,83 L 4193,90 L 4200,94 L 4199,96 L 4199,99 L 4199,108 L 4199,111 L 4199,119 L 4199,122 L 4199,130 L 4199,133 L 4200,139 L 4199,143 L 4199,147 L 4200,170 L 4199,174 L 4199,178 L 4199,184 L 4199,188 L 4199,195 L 4199,198 L 4199,206 L 4199,209 L 4199,218 L 4199,221 L 4199,232 L 4199,234 L 4199,247 L 4199,249 L 4199,266 L 4199,266 L 4199,286 L 4199,286 L 4208,304 L 4216,318 L 4229,340 L 4239,353 L 4260,381 L 4272,394 L 4306,430 L 4320,443 L 4356,475 L 4356,579 L 4355,602 L 4355,605 L 4350,653 L 4350,656 L 4340,706 L 4339,709 L 4324,761 L 4322,764 L 4312,791 L 4274,882 L 4209,865 L 4186,859 L 4146,851 L 4109,845 L 4089,842 L 4042,838 L 4025,838 L 3994,838 L 3978,840 L 3958,842 L 3943,845 L 3929,848 L 3916,852 L 3906,856 L 3893,861 L 3886,865 L 3874,871 L 3869,874 L 3858,881 L 3854,885 L 3844,893 L 3840,897 L 3832,906 L 3828,910 L 3820,920 L 3817,925 L 3810,936 L 3807,943 L 3801,954 L 3797,963 L 3793,975 L 3475,1293 L 3472,1296 L 3469,1298 L 3462,1304 L 3460,1306 L 3451,1312 L 3448,1313 L 3439,1319 L 3436,1320 L 3430,1322 L 3419,1327 L 3418,1327 L 3405,1318 L 3395,1311 L 3382,1304 L 3374,1299 L 3362,1294 L 3356,1292 L 3343,1288 L 3338,1286 L 3326,1284 L 3322,1283 L 3309,1282 L 3306,1281 L 3293,1281 L 3289,1282 L 3277,1283 L 3273,1284 L 3260,1286 L 3255,1288 L 3243,1292 L 3237,1294 L 3225,1299 L 3217,1303 L 484,1303 L 480,1303 L 477,1303 L 469,1304 L 466,1305 L 458,1306 L 455,1307 L 446,1310 L 443,1311 L 438,1313 L 423,1319 L 423,1319 L 410,1315 L 409,1315 L 405,1313 L 402,1312 L 400,1312 L 392,1309 L 390,1308 L 388,1307 L 381,1305 L 378,1304 L 378,1304 L 369,1300 L 367,1299 L 366,1298 L 366,1298 L 356,1298 L 343,1298 L 333,1298 L 320,1298 L 307,1298 L 294,1298 L 280,1298 L 279,1296 L 278,1295 L 272,1284 L 271,1283 L 265,1272 L 265,1271 L 259,1261 L 258,1260 L 253,1251 L 252,1250 L 247,1240 L 246,1239 L 241,1230 L 240,1229 L 235,1219 L 234,1218 L 228,1207 L 227,1206 L 221,1195 L 220,1194 z " style="fill-opacity:1.000000;fill:rgb(178,234,201);stroke:rgb(0,0,0);stroke-width:2"/></g>
<g fill-rule="evenodd"><path d="M 2079,147 L 2079,143 L 2080,139 L 2080,133 L 2079,130 L 2079,122 L 2080,119 L 2080,111 L 2079,108 L 2079,99 L 2080,96 L 2080,94 L 2089,88 L 2097,84 L 2110,78 L 2116,76 L 2130,71 L 2134,70 L 2148,67 L 2152,66 L 2165,64 L 2168,64 L 2182,64 L 2185,64 L 2199,65 L 2202,65 L 2216,68 L 2220,69 L 2234,73 L 2239,74 L 2253,80 L 2259,83 L 2273,90 L 2280,94 L 2280,96 L 2279,99 L 2279,108 L 2280,111 L 2280,119 L 2279,122 L 2279,130 L 2280,133 L 2280,139 L 2279,143 L 2279,147 L 2280,170 L 2280,174 L 2279,178 L 2279,184 L 2280,188 L 2280,195 L 2279,198 L 2279,206 L 2280,209 L 2280,218 L 2279,221 L 2279,232 L 2280,234 L 2280,247 L 2279,249 L 2280,266 L 2280,266 L 2280,286 L 2280,286 L 2280,286 L 2280,395 L 2281,399 L 2286,411 L 2287,414 L 2286,430 L 2283,446 L 2281,459 L 2278,473 L 2275,482 L 2270,495 L 2268,502 L 2262,513 L 2260,518 L 2253,529 L 2251,532 L 2243,542 L 2241,545 L 2232,554 L 2229,557 L 2220,565 L 2217,567 L 2215,568 L 2205,570 L 2201,571 L 2189,572 L 2186,572 L 2173,572 L 2170,572 L 2158,571 L 2154,570 L 2144,568 L 2142,567 L 2139,565 L 2130,557 L 2127,554 L 2119,545 L 2116,542 L 2108,532 L 2106,529 L 2099,518 L 2097,513 L 2091,502 L 2089,495 L 2084,482 L 2081,473 L 2078,459 L 2076,446 L 2074,430 L 2072,414 L 2073,411 L 2078,399 L 2080,395 L 2080,286 L 2080,286 L 2080,286 L 2080,266 L 2080,266 L 2079,249 L 2080,247 L 2080,234 L 2079,232 L 2079,221 L 2080,218 L 2080,209 L 2079,206 L 2079,198 L 2080,195 L 2080,188 L 2079,184 L 2079,178 L 2080,174 L 2080,170 L 2079,147 z " style="fill-opacity:1.000000;fill:rgb(204,83,191);stroke:rgb(0,0,0);stroke-width:2"/></g>
<g fill-rule="evenodd"><path d="M 4699,4118 L 4399,4118 L 4399,4111 L 4399,4088 L 4399,4086 L 4399,4066 L 4399,4065 L 4399,4048 L 4399,4047 L 4399,4034 L 4399,4032 L 4399,4021 L 4399,4018 L 4399,4009 L 4399,4006 L 4399,3998 L 4399,3995 L 4399,3987 L 4399,3984 L 4399,3978 L 4399,3974 L 4400,3970 L 4399,3947 L 4399,3943 L 4399,3939 L 4399,3933 L 4399,3929 L 4399,3922 L 4399,3919 L 4399,3919 L 4396,3913 L 4388,3901 L 4384,3896 L 4375,3885 L 4371,3881 L 4361,3871 L 4357,3867 L 4346,3859 L 4341,3855 L 4329,3847 L 4322,3843 L 4309,3837 L 4301,3833 L 4286,3828 L 4275,3824 L 4259,3820 L 4243,3816 L 4226,3813 L 4203,3811 L 4200,3811 L 4195,3806 L 4184,3798 L 4166,3785 L 4155,3778 L 4134,3766 L 4121,3760 L 4096,3749 L 4082,3743 L 4051,3733 L 4036,3729 L 4000,3721 L 3992,3716 L 3980,3708 L 3946,3689 L 3933,3682 L 3892,3664 L 3878,3659 L 3828,3642 L 3812,3638 L 3799,3635 L 3758,3611 L 3745,3605 L 3688,3579 L 3674,3574 L 3640,3562 L 3604,3551 L 3600,3550 L 3570,3534 L 3557,3527 L 3499,3501 L 3060,3062 L 3034,3035 L 3032,3033 L 3008,3004 L 2985,2975 L 2983,2972 L 2960,2940 L 2939,2907 L 2938,2904 L 2917,2867 L 2898,2829 L 2896,2826 L 2878,2785 L 2807,2612 L 2800,2596 L 3089,2307 L 3116,2277 L 3140,2248 L 3143,2244 L 3167,2209 L 3168,2206 L 3183,2179 L 3184,2176 L 3190,2162 L 3208,2120 L 3212,2110 L 3214,2107 L 3224,2088 L 3226,2085 L 3237,2068 L 3239,2066 L 3251,2051 L 3253,2049 L 3259,2042 L 3287,2014 L 3289,2010 L 3297,1992 L 3303,1979 L 3311,1965 L 3319,1953 L 3328,1941 L 3336,1930 L 3346,1919 L 3355,1910 L 3366,1900 L 3376,1891 L 3388,1882 L 3399,1874 L 3413,1866 L 3426,1859 L 3438,1853 L 3445,1850 L 3459,1844 L 3473,1839 L 3498,1832 L 3513,1828 L 3545,1822 L 3562,1820 L 3606,1816 L 3624,1815 L 3634,1815 L 3634,1857 L 3632,1875 L 3628,1913 L 3625,1930 L 3619,1957 L 3615,1973 L 3608,1994 L 3603,2007 L 3596,2024 L 3589,2037 L 3582,2050 L 3574,2062 L 3566,2073 L 3558,2084 L 3554,2089 L 3545,2090 L 3529,2094 L 3519,2096 L 3516,2097 L 3505,2101 L 3497,2103 L 3484,2106 L 3477,2107 L 3463,2108 L 3458,2108 L 3451,2108 L 3446,2108 L 3433,2108 L 3426,2107 L 3422,2107 L 3383,2123 L 3375,2127 L 3369,2133 L 3368,2142 L 3368,2275 L 3368,2283 L 3371,2290 L 3383,2305 L 3516,2439 L 3539,2460 L 3563,2481 L 3621,2523 L 3689,2564 L 3768,2606 L 3823,2609 L 3880,2608 L 3940,2606 L 4002,2601 L 4377,2601 L 4350,2732 L 4339,2790 L 4322,2896 L 4311,2996 L 4307,3047 L 4304,3115 L 4303,3179 L 4305,3225 L 4307,3271 L 4311,3315 L 4317,3357 L 4322,3389 L 4329,3420 L 4338,3458 L 4351,3505 L 4364,3540 L 4378,3575 L 4394,3607 L 4409,3635 L 4427,3665 L 4442,3687 L 4463,3714 L 4480,3734 L 4503,3758 L 4503,3758 L 4520,3766 L 4526,3768 L 4533,3771 L 4553,3781 L 4557,3783 L 4566,3787 L 4577,3792 L 4585,3796 L 4597,3803 L 4606,3808 L 4616,3814 L 4627,3820 L 4628,3821 L 4650,3833 L 4657,3838 L 4662,3842 L 4683,3855 L 4688,3858 L 4702,3867 L 4716,3877 L 4735,3891 L 4751,3902 L 4754,3904 L 4701,3957 L 4700,3958 L 4700,3959 L 4699,3960 L 4699,3961 L 4699,4118 z " style="fill-opacity:1.000000;fill:rgb(103,214,191);stroke:rgb(0,0,0);stroke-width:2"/></g>
<g fill-rule="evenodd"><path d="M 3599,147 L 3599,143 L 3600,139 L 3600,133 L 3599,130 L 3599,122 L 3600,119 L 3600,111 L 3599,108 L 3599,99 L 3599,96 L 3600,94 L 3609,88 L 3616,84 L 3630,78 L 3636,76 L 3650,71 L 3654,70 L 3668,67 L 3671,66 L 3685,64 L 3688,64 L 3702,64 L 3705,64 L 3719,65 L 3722,65 L 3736,68 L 3740,69 L 3754,73 L 3759,74 L 3772,80 L 3779,83 L 3793,90 L 3800,94 L 3799,96 L 3799,99 L 3799,108 L 3799,111 L 3800,119 L 3799,122 L 3799,130 L 3800,133 L 3800,139 L 3799,143 L 3799,147 L 3800,170 L 3799,174 L 3799,178 L 3799,184 L 3800,188 L 3800,195 L 3799,198 L 3799,206 L 3799,209 L 3799,218 L 3799,221 L 3799,232 L 3799,234 L 3799,247 L 3799,249 L 3799,266 L 3799,266 L 3799,286 L 3799,286 L 3799,286 L 3799,355 L 3798,359 L 3793,371 L 3788,387 L 3785,399 L 3782,414 L 3780,426 L 3778,440 L 3778,452 L 3778,465 L 3778,478 L 3780,491 L 3782,503 L 3785,518 L 3788,530 L 3793,546 L 3798,558 L 3806,577 L 3812,589 L 3825,611 L 3833,623 L 3842,636 L 3830,663 L 3830,669 L 3828,697 L 3826,713 L 3822,732 L 3819,746 L 3815,760 L 3810,773 L 3806,784 L 3800,795 L 3796,803 L 3789,814 L 3785,821 L 3777,831 L 3773,836 L 3764,845 L 3759,850 L 3749,858 L 3744,862 L 3733,870 L 3726,874 L 3715,880 L 3706,884 L 3693,890 L 3681,894 L 3668,898 L 3651,902 L 3637,904 L 3613,907 L 3612,908 L 3606,897 L 3598,878 L 3593,866 L 3588,850 L 3585,838 L 3582,823 L 3580,811 L 3578,798 L 3578,785 L 3578,772 L 3578,760 L 3580,746 L 3582,734 L 3585,719 L 3588,707 L 3593,691 L 3598,679 L 3599,675 L 3599,286 L 3599,286 L 3599,286 L 3599,266 L 3599,266 L 3599,249 L 3599,247 L 3599,234 L 3599,232 L 3599,221 L 3600,218 L 3600,209 L 3599,206 L 3599,198 L 3600,195 L 3600,188 L 3599,184 L 3599,178 L 3600,174 L 3600,170 L 3599,147 z " style="fill-opacity:1.000000;fill:rgb(20,214,126);stroke:rgb(0,0,0);stroke-width:2"/></g>
<g fill-rule="evenodd"><path d="M 2943,138 L 2957,125 L 2971,113 L 2985,103 L 2995,97 L 3009,88 L 3016,84 L 3030,78 L 3036,76 L 3050,71 L 3054,70 L 3068,67 L 3071,66 L 3085,64 L 3088,64 L 3102,64 L 3105,64 L 3119,65 L 3122,65 L 3136,68 L 3140,69 L 3154,73 L 3159,74 L 3173,80 L 3179,83 L 3193,90 L 3200,94 L 3200,96 L 3199,99 L 3199,108 L 3200,111 L 3200,119 L 3199,122 L 3199,130 L 3200,133 L 3200,139 L 3199,143 L 3199,147 L 3200,170 L 3200,174 L 3199,178 L 3199,184 L 3200,188 L 3200,195 L 3199,198 L 3199,206 L 3200,209 L 3200,218 L 3199,221 L 3199,232 L 3200,234 L 3199,247 L 3199,249 L 3199,266 L 3199,266 L 3200,286 L 3199,286 L 3199,286 L 3199,725 L 3198,729 L 3195,737 L 3195,743 L 3195,744 L 3196,760 L 3196,762 L 3197,775 L 3197,776 L 3197,789 L 3197,789 L 3198,800 L 3198,802 L 3198,812 L 3198,813 L 3199,822 L 3199,824 L 3199,833 L 3200,834 L 3200,843 L 3200,845 L 3200,854 L 3201,855 L 3201,865 L 3201,867 L 3202,878 L 3202,878 L 3202,891 L 3202,892 L 3203,905 L 3203,907 L 3204,923 L 3204,924 L 3204,937 L 3201,939 L 3185,945 L 3172,949 L 3157,953 L 3145,956 L 3131,958 L 3119,959 L 3106,960 L 3093,960 L 3080,959 L 3068,958 L 3054,956 L 3042,953 L 3027,949 L 3014,945 L 2998,939 L 2985,933 L 2965,923 L 2953,916 L 2929,900 L 2917,891 L 2887,867 L 2875,856 L 2836,817 L 2824,803 L 2797,773 L 2771,738 L 2759,721 L 2712,651 L 2713,649 L 2716,634 L 2717,632 L 2726,594 L 2760,563 L 2791,532 L 2804,518 L 2828,492 L 2849,466 L 2859,452 L 2889,410 L 2898,396 L 2918,360 L 2924,347 L 2938,316 L 2939,311 L 2939,299 L 2940,290 L 2940,274 L 2939,267 L 2939,252 L 2940,247 L 2940,232 L 2939,228 L 2939,214 L 2940,211 L 2940,196 L 2939,194 L 2939,180 L 2939,179 L 2940,170 L 2939,148 L 2939,141 L 2943,138 z " style="fill-opacity:1.000000;fill:rgb(45,220,142);stroke:rgb(0,0,0);stroke-width:2"/></g>
<g fill-rule="evenodd"><path d="M 3199,147 L 3199,143 L 3200,139 L 3200,133 L 3199,130 L 3199,122 L 3200,119 L 3200,111 L 3199,108 L 3199,99 L 3200,96 L 3200,94 L 3209,88 L 3216,84 L 3230,78 L 3236,76 L 3250,71 L 3254,70 L 3268,67 L 3271,66 L 3285,64 L 3288,64 L 3302,64 L 3305,64 L 3319,65 L 3322,65 L 3336,68 L 3340,69 L 3354,73 L 3359,74 L 3372,80 L 3379,83 L 3393,90 L 3400,94 L 3400,96 L 3399,99 L 3399,108 L 3400,111 L 3400,119 L 3399,122 L 3399,130 L 3400,133 L 3400,139 L 3399,143 L 3399,147 L 3400,170 L 3400,174 L 3399,178 L 3399,184 L 3400,188 L 3400,195 L 3399,198 L 3399,206 L 3400,209 L 3400,218 L 3399,221 L 3399,232 L 3399,234 L 3399,247 L 3399,249 L 3399,266 L 3399,266 L 3399,286 L 3399,286 L 3399,286 L 3399,725 L 3401,729 L 3406,741 L 3411,757 L 3414,769 L 3417,784 L 3419,796 L 3421,810 L 3421,822 L 3421,835 L 3421,848 L 3419,861 L 3417,873 L 3414,888 L 3411,900 L 3406,916 L 3401,928 L 3398,936 L 3388,940 L 3375,944 L 3359,948 L 3347,951 L 3332,953 L 3320,954 L 3306,955 L 3293,955 L 3279,954 L 3267,953 L 3252,951 L 3240,948 L 3223,944 L 3211,940 L 3204,937 L 3204,924 L 3204,923 L 3203,907 L 3203,905 L 3202,892 L 3202,891 L 3202,878 L 3202,878 L 3201,867 L 3201,865 L 3201,855 L 3200,854 L 3200,845 L 3200,843 L 3200,834 L 3199,833 L 3199,824 L 3199,822 L 3198,813 L 3198,812 L 3198,802 L 3198,800 L 3197,789 L 3197,789 L 3197,776 L 3197,775 L 3196,762 L 3196,760 L 3195,744 L 3195,743 L 3195,737 L 3198,729 L 3199,725 L 3199,286 L 3199,286 L 3200,286 L 3199,266 L 3199,266 L 3199,249 L 3199,247 L 3200,234 L 3199,232 L 3199,221 L 3200,218 L 3200,209 L 3199,206 L 3199,198 L 3200,195 L 3200,188 L 3199,184 L 3199,178 L 3200,174 L 3200,170 L 3199,147 z " style="fill-opacity:1.000000;fill:rgb(102,131,239);stroke:rgb(0,0,0);stroke-width:2"/></g>
<g fill-rule="evenodd"><path d="M 3799,147 L 3799,143 L 3800,139 L 3800,133 L 3799,130 L 3799,122 L 3800,119 L 3799,111 L 3799,108 L 3799,99 L 3799,96 L 3800,94 L 3809,88 L 3816,84 L 3830,78 L 3836,76 L 3850,71 L 3854,70 L 3868,67 L 3871,66 L 3885,64 L 3888,64 L 3902,64 L 3905,64 L 3919,65 L 3922,65 L 3936,68 L 3940,69 L 3954,73 L 3959,74 L 3972,80 L 3979,83 L 3993,90 L 4000,94 L 3999,96 L 3999,99 L 3999,108 L 3999,111 L 3999,119 L 3999,122 L 3999,130 L 3999,133 L 4000,139 L 3999,143 L 3999,147 L 4000,170 L 3999,174 L 3999,178 L 3999,184 L 3999,188 L 3999,195 L 3999,198 L 3999,206 L 3999,209 L 3999,218 L 3999,221 L 3999,232 L 3999,234 L 3999,247 L 3999,249 L 3999,266 L 3999,266 L 3999,286 L 3999,286 L 3999,286 L 3999,355 L 4001,359 L 4006,371 L 4011,387 L 4014,399 L 4017,414 L 4019,426 L 4021,440 L 4021,452 L 4021,465 L 4021,478 L 4019,491 L 4017,503 L 4014,518 L 4011,530 L 4008,541 L 4004,545 L 3996,553 L 3984,564 L 3975,573 L 3961,583 L 3951,590 L 3936,599 L 3924,605 L 3906,614 L 3893,619 L 3870,628 L 3856,632 L 3842,636 L 3833,623 L 3825,611 L 3812,589 L 3806,577 L 3798,558 L 3793,546 L 3788,530 L 3785,518 L 3782,503 L 3780,491 L 3778,478 L 3778,465 L 3778,452 L 3778,440 L 3780,426 L 3782,414 L 3785,399 L 3788,387 L 3793,371 L 3798,359 L 3799,355 L 3799,286 L 3799,286 L 3799,286 L 3799,266 L 3799,266 L 3799,249 L 3799,247 L 3799,234 L 3799,232 L 3799,221 L 3799,218 L 3799,209 L 3799,206 L 3799,198 L 3800,195 L 3800,188 L 3799,184 L 3799,178 L 3799,174 L 3800,170 L 3799,147 z " style="fill-opacity:1.000000;fill:rgb(87,73,97);stroke:rgb(0,0,0);stroke-width:2"/></g>
</svg>
