<?xml version="1.0" standalone="no"?>
<!DOCTYPE svg PUBLIC "-//W3C//DTD SVG 1.1//EN"
"http://www.w3.org/Graphics/SVG/1.1/DTD/svg11.dtd">
<svg width="4860" height="4118" viewBox="0 0 4860 4118" version="1.1"
xmlns="http://www.w3.org/2000/svg"
xmlns:xlink="http://www.w3.org/1999/xlink">
<g fill-rule="evenodd"><path d="M 1768.04,3970.89 L 1766.65,3984.57 L 1762.53,3997.7 L 1755.85,4009.73 L 1746.89,4020.17 L 1736.01,4028.59 L 1723.66,4034.65 L 1710.34,4038.1 L 1696.6,4038.8 L 1683,4036.71 L 1670.1,4031.93 L 1658.42,4024.66 L 1648.45,4015.18 L 1640.59,4003.89 L 1635.17,3991.24 L 1632.4,3977.77 L 1632.05,3946.89 L 1633.44,3933.2 L 1637.56,3920.07 L 1644.24,3908.05 L 1653.2,3897.61 L 1664.08,3889.19 L 1676.43,3883.13 L 1689.75,3879.68 L 1703.49,3878.98 L 1717.09,3881.07 L 1729.99,3885.84 L 1741.66,3893.12 L 1751.63,3902.6 L 1759.49,3913.89 L 1764.92,3926.53 L 1767.69,3940.01 L 1768.04,3970.89 z " style="fill-opacity:1.000000;fill:rgb(103,198,105);stroke:rgb(0,0,0);stroke-width:2"/></g>
<g fill-rule="evenodd"><path d="M 1968.03,3970.89 L 1966.64,3984.57 L 1962.52,3997.7 L 1955.84,4009.73 L 1946.88,4020.17 L 1936,4028.59 L 1923.65,4034.65 L 1910.33,4038.1 L 1896.59,4038.8 L 1882.99,4036.71 L 1870.09,4031.93 L 1858.41,4024.66 L 1848.44,4015.18 L 1840.58,4003.89 L 1835.16,3991.24 L 1832.39,3977.77 L 1832.04,3946.89 L 1833.43,3933.2 L 1837.55,3920.07 L 1844.22,3908.05 L 1853.19,3897.61 L 1864.07,3889.19 L 1876.42,3883.13 L 1889.74,3879.68 L 1903.48,3878.98 L 1917.07,3881.07 L 1929.98,3885.84 L 1941.65,3893.12 L 1951.62,3902.6 L 1959.48,3913.89 L 1964.91,3926.53 L 1967.68,3940.01 L 1968.03,3970.89 z " style="fill-opacity:1.000000;fill:rgb(115,81,255);stroke:rgb(0,0,0);stroke-width:2"/></g>
<g fill-rule="evenodd"><path d="M 2168.02,3970.89 L 2166.62,3984.57 L 2162.5,3997.7 L 2155.83,4009.73 L 2146.86,4020.17 L 2135.99,4028.59 L 2123.63,4034.65 L 2110.32,4038.1 L 2096.58,4038.8 L 2082.98,4036.71 L 2070.08,4031.93 L 2058.4,4024.66 L 2048.43,4015.18 L 2040.57,4003.89 L 2035.14,3991.24 L 2032.37,3977.77 L 2032.02,3946.89 L 2033.42,3933.2 L 2037.54,3920.07 L 2044.21,3908.05 L 2053.17,3897.61 L 2064.05,3889.19 L 2076.41,3883.13 L 2089.72,3879.68 L 2103.46,3878.98 L 2117.06,3881.07 L 2129.96,3885.84 L 2141.64,3893.12 L 2151.61,3902.6 L 2159.47,3913.89 L 2164.9,3926.53 L 2167.67,3940.01 L 2168.02,3970.89 z " style="fill-opacity:1.000000;fill:rgb(74,236,41);stroke:rgb(0,0,0);stroke-width:2"/></g>
<g fill-rule="evenodd"><path d="M 2368,3970.89 L 2366.61,3984.57 L 2362.49,3997.7 L 2355.81,4009.73 L 2346.85,4020.17 L 2335.97,4028.59 L 2323.62,4034.65 L 2310.3,4038.1 L 2296.56,4038.8 L 2282.96,4036.71 L 2270.06,4031.93 L 2258.39,4024.66 L 2248.42,4015.18 L 2240.56,4003.89 L 2235.13,3991.24 L 2232.36,3977.77 L 2232.01,3946.89 L 2233.4,3933.2 L 2237.52,3920.07 L 2244.2,3908.05 L 2253.16,3897.61 L 2264.04,3889.19 L 2276.39,3883.13 L 2289.71,3879.68 L 2303.45,3878.98 L 2317.05,3881.07 L 2329.95,3885.84 L 2341.63,3893.12 L 2351.6,3902.6 L 2359.46,3913.89 L 2364.88,3926.53 L 2367.65,3940.01 L 2368,3970.89 z " style="fill-opacity:1.000000;fill:rgb(205,186,171);stroke:rgb(0,0,0);stroke-width:2"/></g>
<g fill-rule="evenodd"><path d="M 2567.99,3970.89 L 2566.6,3984.57 L 2562.48,3997.7 L 2555.8,4009.73 L 2546.84,4020.17 L 2535.96,4028.59 L 2523.61,4034.65 L 2510.29,4038.1 L 2496.55,4038.8 L 2482.95,4036.71 L 2470.05,4031.93 L 2458.38,4024.66 L 2448.4,4015.18 L 2440.55,4003.89 L 2435.12,3991.24 L 2432.35,3977.77 L 2432,3946.89 L 2433.39,3933.2 L 2437.51,3920.07 L 2444.19,3908.05 L 2453.15,3897.61 L 2464.03,3889.19 L 2476.38,3883.13 L 2489.7,3879.68 L 2503.44,3878.98 L 2517.04,3881.07 L 2529.94,3885.84 L 2541.62,3893.12 L 2551.59,3902.6 L 2559.45,3913.89 L 2564.87,3926.53 L 2567.64,3940.01 L 2567.99,3970.89 z " style="fill-opacity:1.000000;fill:rgb(242,251,227);stroke:rgb(0,0,0);stroke-width:2"/></g>
<g fill-rule="evenodd"><path d="M 3167.96,3970.89 L 3166.56,3984.57 L 3162.44,3997.7 L 3155.77,4009.73 L 3146.81,4020.17 L 3135.93,4028.59 L 3123.57,4034.65 L 3110.26,4038.1 L 3096.52,4038.8 L 3082.92,4036.71 L 3070.02,4031.93 L 3058.34,4024.66 L 3048.37,4015.18 L 3040.51,4003.89 L 3035.08,3991.24 L 3032.31,3977.77 L 3031.96,3946.89 L 3033.36,3933.2 L 3037.48,3920.07 L 3044.15,3908.05 L 3053.11,3897.61 L 3063.99,3889.19 L 3076.35,3883.13 L 3089.66,3879.68 L 3103.4,3878.98 L 3117,3881.07 L 3129.9,3885.84 L 3141.58,3893.12 L 3151.55,3902.6 L 3159.41,3913.89 L 3164.84,3926.53 L 3167.61,3940.01 L 3167.96,3970.89 z " style="fill-opacity:1.000000;fill:rgb(70,124,194);stroke:rgb(0,0,0);stroke-width:2"/></g>
<g fill-rule="evenodd"><path d="M 3767.92,3970.89 L 3766.53,3984.57 L 3762.41,3997.7 L 3755.73,4009.73 L 3746.77,4020.17 L 3735.89,4028.59 L 3723.54,4034.65 L 3710.22,4038.1 L 3696.48,4038.8 L 3682.88,4036.71 L 3669.98,4031.93 L 3658.3,4024.66 L 3648.33,4015.18 L 3640.47,4003.89 L 3635.05,3991.24 L 3632.28,3977.77 L 3631.93,3946.89 L 3633.32,3933.2 L 3637.44,3920.07 L 3644.12,3908.05 L 3653.08,3897.61 L 3663.96,3889.19 L 3676.31,3883.13 L 3689.63,3879.68 L 3703.37,3878.98 L 3716.97,3881.07 L 3729.87,3885.84 L 3741.54,3893.12 L 3751.52,3902.6 L 3759.37,3913.89 L 3764.8,3926.53 L 3767.57,3940.01 L 3767.92,3970.89 z " style="fill-opacity:1.000000;fill:rgb(84,248,27);stroke:rgb(0,0,0);stroke-width:2"/></g>
<g fill-rule="evenodd"><path d="M 3967.91,3970.89 L 3966.52,3984.57 L 3962.4,3997.7 L 3955.72,4009.73 L 3946.76,4020.17 L 3935.88,4028.59 L 3923.53,4034.65 L 3910.21,4038.1 L 3896.47,4038.8 L 3882.87,4036.71 L 3869.97,4031.93 L 3858.29,4024.66 L 3848.32,4015.18 L 3840.46,4003.89 L 3835.04,3991.24 L 3832.27,3977.77 L 3831.92,3946.89 L 3833.31,3933.2 L 3837.43,3920.07 L 3844.11,3908.05 L 3853.07,3897.61 L 3863.95,3889.19 L 3876.3,3883.13 L 3889.62,3879.68 L 3903.36,3878.98 L 3916.96,3881.07 L 3929.86,3885.84 L 3941.53,3893.12 L 3951.5,3902.6 L 3959.36,3913.89 L 3964.79,3926.53 L 3967.56,3940.01 L 3967.91,3970.89 z " style="fill-opacity:1.000000;fill:rgb(232,231,141);stroke:rgb(0,0,0);stroke-width:2"/></g>
<g fill-rule="evenodd"><path d="M 4167.9,3970.89 L 4166.5,3984.57 L 4162.38,3997.7 L 4155.71,4009.73 L 4146.75,4020.17 L 4135.87,4028.59 L 4123.51,4034.65 L 4110.2,4038.1 L 4096.46,4038.8 L 4082.86,4036.71 L 4069.96,4031.93 L 4058.28,4024.66 L 4048.31,4015.18 L 4040.45,4003.89 L 4035.02,3991.24 L 4032.25,3977.77 L 4031.9,3946.89 L 4033.3,3933.2 L 4037.42,3920.07 L 4044.09,3908.05 L 4053.06,3897.61 L 4063.93,3889.19 L 4076.29,3883.13 L 4089.6,3879.68 L 4103.34,3878.98 L 4116.94,3881.07 L 4129.84,3885.84 L 4141.52,3893.12 L 4151.49,3902.6 L 4159.35,3913.89 L 4164.78,3926.53 L 4167.55,3940.01 L 4167.9,3970.89 z " style="fill-opacity:1.000000;fill:rgb(118,90,46);stroke:rgb(0,0,0);stroke-width:2"/></g>
<g fill-rule="evenodd"><path d="M 4367.88,3970.89 L 4366.49,3984.57 L 4362.37,3997.7 L 4355.69,4009.73 L 4346.73,4020.17 L 4335.85,4028.59 L 4323.5,4034.65 L 4310.18,4038.1 L 4296.44,4038.8 L 4282.85,4036.71 L 4269.94,4031.93 L 4258.27,4024.66 L 4248.3,4015.18 L 4240.44,4003.89 L 4235.01,3991.24 L 4232.24,3977.77 L 4231.89,3946.89 L 4233.28,3933.2 L 4237.4,3920.07 L 4244.08,3908.05 L 4253.04,3897.61 L 4263.92,3889.19 L 4276.27,3883.13 L 4289.59,3879.68 L 4303.33,3878.98 L 4316.93,3881.07 L 4329.83,3885.84 L 4341.51,3893.12 L 4351.48,3902.6 L 4359.34,3913.89 L 4364.76,3926.53 L 4367.53,3940.01 L 4367.88,3970.89 z " style="fill-opacity:1.000000;fill:rgb(99,51,159);stroke:rgb(0,0,0);stroke-width:2"/></g>
<g fill-rule="evenodd"><path d="M 1048.08,171.113 L 1046.69,184.8 L 1042.57,197.927 L 1035.89,209.956 L 1026.93,220.394 L 1016.05,228.815 L 1003.7,234.875 L 990.382,238.323 L 976.643,239.021 L 963.044,236.937 L 950.142,232.159 L 938.467,224.882 L 928.496,215.402 L 920.636,204.111 L 915.21,191.468 L 912.441,177.99 L 912.091,147.114 L 913.483,133.427 L 917.602,120.3 L 924.28,108.271 L 933.241,97.8332 L 944.121,89.4117 L 956.472,83.352 L 969.791,79.9042 L 983.53,79.2063 L 997.13,81.2901 L 1010.03,86.0679 L 1021.71,93.3454 L 1031.68,102.825 L 1039.54,114.116 L 1044.96,126.759 L 1047.73,140.237 L 1048.08,171.113 z " style="fill-opacity:1.000000;fill:rgb(201,154,102);stroke:rgb(0,0,0);stroke-width:2"/></g>
<g fill-rule="evenodd"><path d="M 1248.07,171.113 L 1246.68,184.8 L 1242.56,197.927 L 1235.88,209.956 L 1226.92,220.394 L 1216.04,228.815 L 1203.69,234.875 L 1190.37,238.323 L 1176.63,239.021 L 1163.03,236.937 L 1150.13,232.159 L 1138.46,224.882 L 1128.48,215.402 L 1120.62,204.111 L 1115.2,191.468 L 1112.43,177.99 L 1112.08,147.114 L 1113.47,133.427 L 1117.59,120.3 L 1124.27,108.271 L 1133.23,97.8332 L 1144.11,89.4117 L 1156.46,83.352 L 1169.78,79.9042 L 1183.52,79.2063 L 1197.12,81.2901 L 1210.02,86.0679 L 1221.69,93.3454 L 1231.67,102.825 L 1239.53,114.116 L 1244.95,126.759 L 1247.72,140.237 L 1248.07,171.113 z " style="fill-opacity:1.000000;fill:rgb(50,13,183);stroke:rgb(0,0,0);stroke-width:2"/></g>
<g fill-rule="evenodd"><path d="M 1448.06,171.113 L 1446.67,184.8 L 1442.55,197.927 L 1435.87,209.956 L 1426.91,220.394 L 1416.03,228.815 L 1403.68,234.875 L 1390.36,238.323 L 1376.62,239.021 L 1363.02,236.937 L 1350.12,232.159 L 1338.44,224.882 L 1328.47,215.402 L 1320.61,204.111 L 1315.19,191.468 L 1312.42,177.99 L 1312.07,147.114 L 1313.46,133.427 L 1317.58,120.3 L 1324.26,108.271 L 1333.22,97.8332 L 1344.1,89.4117 L 1356.45,83.352 L 1369.77,79.9042 L 1383.51,79.2063 L 1397.11,81.2901 L 1410.01,86.0679 L 1421.68,93.3454 L 1431.65,102.825 L 1439.51,114.116 L 1444.94,126.759 L 1447.71,140.237 L 1448.06,171.113 z " style="fill-opacity:1.000000;fill:rgb(49,88,163);stroke:rgb(0,0,0);stroke-width:2"/></g>
<g fill-rule="evenodd"><path d="M 2847.98,171.113 L 2846.58,184.8 L 2842.46,197.927 L 2835.79,209.956 L 2826.82,220.394 L 2815.94,228.815 L 2803.59,234.875 L 2790.27,238.323 L 2776.54,239.021 L 2762.94,236.937 L 2750.03,232.159 L 2738.36,224.882 L 2728.39,215.402 L 2720.53,204.111 L 2715.1,191.468 L 2712.33,177.99 L 2711.98,147.114 L 2713.38,133.427 L 2717.49,120.3 L 2724.17,108.271 L 2733.13,97.8332 L 2744.01,89.4117 L 2756.36,83.352 L 2769.68,79.9042 L 2783.42,79.2063 L 2797.02,81.2901 L 2809.92,86.0679 L 2821.6,93.3454 L 2831.57,102.825 L 2839.43,114.116 L 2844.86,126.759 L 2847.63,140.237 L 2847.98,171.113 z " style="fill-opacity:1.000000;fill:rgb(90,37,93);stroke:rgb(0,0,0);stroke-width:2"/></g>
<g fill-rule="evenodd"><path d="M 4367.88,171.113 L 4366.49,184.8 L 4362.37,197.927 L 4355.69,209.956 L 4346.73,220.394 L 4335.85,228.815 L 4323.5,234.875 L 4310.18,238.323 L 4296.44,239.021 L 4282.85,236.937 L 4269.94,232.159 L 4258.27,224.882 L 4248.3,215.402 L 4240.44,204.111 L 4235.01,191.468 L 4232.24,177.99 L 4231.89,147.114 L 4233.28,133.427 L 4237.4,120.3 L 4244.08,108.271 L 4253.04,97.8332 L 4263.92,89.4117 L 4276.27,83.352 L 4289.59,79.9042 L 4303.33,79.2063 L 4316.93,81.2901 L 4329.83,86.0679 L 4341.51,93.3454 L 4351.48,102.825 L 4359.34,114.116 L 4364.76,126.759 L 4367.53,140.237 L 4367.88,171.113 z " style="fill-opacity:1.000000;fill:rgb(5,23,88);stroke:rgb(0,0,0);stroke-width:2"/></g>
<g fill-rule="evenodd"><path d="M 4567.87,171.113 L 4566.48,184.8 L 4562.36,197.927 L 4555.68,209.956 L 4546.72,220.394 L 4535.84,228.815 L 4523.49,234.875 L 4510.17,238.323 L 4496.43,239.021 L 4482.83,236.937 L 4469.93,232.159 L 4458.25,224.882 L 4448.28,215.402 L 4440.42,204.111 L 4435,191.468 L 4432.23,177.99 L 4431.88,147.114 L 4433.27,133.427 L 4437.39,120.3 L 4444.07,108.271 L 4453.03,97.8332 L 4463.91,89.4117 L 4476.26,83.352 L 4489.58,79.9042 L 4503.32,79.2063 L 4516.92,81.2901 L 4529.82,86.0679 L 4541.49,93.3454 L 4551.47,102.825 L 4559.32,114.116 L 4564.75,126.759 L 4567.52,140.237 L 4567.87,171.113 z " style="fill-opacity:1.000000;fill:rgb(233,94,212);stroke:rgb(0,0,0);stroke-width:2"/></g>
<g fill-rule="evenodd"><path d="M 616.832,4118 L 583.386,4118 L 550.67,4111.05 L 520.116,4097.44 L 493.056,4077.78 L 470.675,4052.93 L 453.952,4023.96 L 443.617,3992.15 L 440.119,3958.89 L 443.617,3925.63 L 453.952,3893.82 L 470.675,3864.85 L 493.056,3839.99 L 520.114,3820.33 L 550.67,3806.73 L 583.386,3799.78 L 616.832,3799.78 L 649.548,3806.73 L 680.103,3820.33 L 707.163,3839.99 L 729.544,3864.85 L 746.267,3893.82 L 756.602,3925.63 L 760.1,3958.89 L 756.602,3992.15 L 746.267,4023.96 L 729.544,4052.93 L 707.163,4077.78 L 680.105,4097.44 L 649.548,4111.05 L 616.832,4118 z " style="fill-opacity:1.000000;fill:rgb(171,178,205);stroke:rgb(0,0,0);stroke-width:2"/></g>
<g fill-rule="evenodd"><path d="M 4859.85,3558.91 L 4856.36,3592.17 L 4846.02,3623.98 L 4829.3,3652.95 L 4806.92,3677.81 L 4779.86,3697.47 L 4749.3,3711.07 L 4716.59,3718.02 L 4683.14,3718.02 L 4650.43,3711.07 L 4619.87,3697.47 L 4592.81,3677.81 L 4570.43,3652.95 L 4553.71,3623.98 L 4543.37,3592.17 L 4539.87,3558.91 L 4543.37,3525.65 L 4553.71,3493.84 L 4570.43,3464.87 L 4592.81,3440.02 L 4619.87,3420.36 L 4650.43,3406.75 L 4683.14,3399.8 L 4716.59,3399.8 L 4749.3,3406.75 L 4779.86,3420.36 L 4806.92,3440.02 L 4829.3,3464.87 L 4846.02,3493.84 L 4856.36,3525.65 L 4859.85,3558.91 z " style="fill-opacity:1.000000;fill:rgb(198,155,180);stroke:rgb(0,0,0);stroke-width:2"/></g>
<g fill-rule="evenodd"><path d="M 683.38,0.00099994 L 716.826,0.00099994 L 749.542,6.95458 L 780.097,20.5578 L 807.157,40.2186 L 829.538,65.0751 L 846.261,94.0414 L 856.596,125.851 L 860.094,159.113 L 856.596,192.376 L 846.261,224.186 L 829.538,253.152 L 807.157,278.008 L 780.099,297.669 L 749.542,311.272 L 716.826,318.226 L 683.38,318.226 L 650.664,311.272 L 620.11,297.669 L 593.05,278.008 L 570.669,253.152 L 553.946,224.186 L 543.611,192.376 L 540.113,159.113 L 543.611,125.851 L 553.946,94.0414 L 570.669,65.0751 L 593.05,40.2186 L 620.108,20.5578 L 650.664,6.95458 L 683.38,0.00099994 z " style="fill-opacity:1.000000;fill:rgb(84,17,14);stroke:rgb(0,0,0);stroke-width:2"/></g>
<g fill-rule="evenodd"><path d="M 4859.85,1359.04 L 4856.36,1392.31 L 4846.02,1424.12 L 4829.3,1453.08 L 4806.92,1477.94 L 4779.86,1497.6 L 4749.3,1511.2 L 4716.59,1518.16 L 4683.14,1518.16 L 4650.43,1511.2 L 4619.87,1497.6 L 4592.81,1477.94 L 4570.43,1453.08 L 4553.71,1424.12 L 4543.37,1392.31 L 4539.87,1359.04 L 4543.37,1325.78 L 4553.71,1293.97 L 4570.43,1265.01 L 4592.81,1240.15 L 4619.87,1220.49 L 4650.43,1206.88 L 4683.14,1199.93 L 4716.59,1199.93 L 4749.3,1206.88 L 4779.86,1220.49 L 4806.92,1240.15 L 4829.3,1265.01 L 4846.02,1293.97 L 4856.36,1325.78 L 4859.85,1359.04 z " style="fill-opacity:1.000000;fill:rgb(130,116,65);stroke:rgb(0,0,0);stroke-width:2"/></g>
<g fill-rule="evenodd"><path d="M 209.975,1302.75 L 208.667,1315.19 L 204.801,1327.08 L 198.545,1337.92 L 190.176,1347.21 L 180.054,1354.57 L 168.627,1359.66 L 156.39,1362.26 L 143.883,1362.26 L 131.645,1359.66 L 120.218,1354.57 L 110.097,1347.21 L 101.727,1337.92 L 95.4715,1327.08 L 91.6057,1315.19 L 90.2978,1302.75 L 91.6057,1290.31 L 95.4715,1278.41 L 101.727,1267.58 L 110.097,1258.28 L 120.218,1250.93 L 131.645,1245.84 L 143.883,1243.24 L 156.39,1243.24 L 168.627,1245.84 L 180.054,1250.93 L 190.176,1258.28 L 198.545,1267.58 L 204.801,1278.41 L 208.667,1290.31 L 209.975,1302.75 z " style="fill-opacity:1.000000;fill:rgb(33,61,220);stroke:rgb(0,0,0);stroke-width:2"/></g>
<g fill-rule="evenodd"><path d="M 209.975,1082.29 L 208.667,1094.73 L 204.801,1106.62 L 198.545,1117.46 L 190.176,1126.76 L 180.054,1134.11 L 168.627,1139.2 L 156.39,1141.8 L 143.883,1141.8 L 131.645,1139.2 L 120.218,1134.11 L 110.097,1126.76 L 101.727,1117.46 L 95.4715,1106.62 L 91.6057,1094.73 L 90.2978,1082.29 L 91.6057,1069.85 L 95.4715,1057.95 L 101.727,1047.12 L 110.097,1037.82 L 120.218,1030.47 L 131.645,1025.38 L 143.883,1022.78 L 156.39,1022.78 L 168.627,1025.38 L 180.054,1030.47 L 190.176,1037.82 L 198.545,1047.12 L 204.801,1057.95 L 208.667,1069.85 L 209.975,1082.29 z " style="fill-opacity:1.000000;fill:rgb(135,112,233);stroke:rgb(0,0,0);stroke-width:2"/></g>
<g fill-rule="evenodd"><path d="M 209.975,882.3 L 208.667,894.74 L 204.801,906.637 L 198.545,917.472 L 190.176,926.768 L 180.054,934.121 L 168.627,939.209 L 156.39,941.811 L 143.883,941.811 L 131.645,939.209 L 120.218,934.121 L 110.097,926.768 L 101.727,917.472 L 95.4715,906.637 L 91.6057,894.74 L 90.2978,882.3 L 91.6057,869.861 L 95.4715,857.964 L 101.727,847.128 L 110.097,837.833 L 120.218,830.479 L 131.645,825.392 L 143.883,822.79 L 156.39,822.79 L 168.627,825.392 L 180.054,830.479 L 190.176,837.833 L 198.545,847.128 L 204.801,857.964 L 208.667,869.861 L 209.975,882.3 z " style="fill-opacity:1.000000;fill:rgb(62,161,65);stroke:rgb(0,0,0);stroke-width:2"/></g>
<g fill-rule="evenodd"><path d="M 409.963,3368.77 L 408.655,3381.21 L 404.789,3393.1 L 398.533,3403.94 L 390.164,3413.23 L 380.042,3420.59 L 368.615,3425.67 L 356.378,3428.28 L 343.871,3428.28 L 331.633,3425.67 L 320.206,3420.59 L 310.085,3413.23 L 301.715,3403.94 L 295.46,3393.1 L 291.594,3381.21 L 290.286,3368.77 L 291.594,3356.33 L 295.46,3344.43 L 301.715,3333.59 L 310.085,3324.3 L 320.206,3316.94 L 331.633,3311.86 L 343.871,3309.26 L 356.378,3309.26 L 368.615,3311.86 L 380.042,3316.94 L 390.164,3324.3 L 398.533,3333.59 L 404.789,3344.43 L 408.655,3356.33 L 409.963,3368.77 z " style="fill-opacity:1.000000;fill:rgb(225,252,103);stroke:rgb(0,0,0);stroke-width:2"/></g>
<g fill-rule="evenodd"><path d="M 409.963,2718.41 L 408.655,2730.85 L 404.789,2742.75 L 398.533,2753.58 L 390.164,2762.88 L 380.042,2770.23 L 368.615,2775.32 L 356.378,2777.92 L 343.871,2777.92 L 331.633,2775.32 L 320.206,2770.23 L 310.085,2762.88 L 301.715,2753.58 L 295.46,2742.75 L 291.594,2730.85 L 290.286,2718.41 L 291.594,2705.97 L 295.46,2694.07 L 301.715,2683.24 L 310.085,2673.94 L 320.206,2666.59 L 331.633,2661.5 L 343.871,2658.9 L 356.378,2658.9 L 368.615,2661.5 L 380.042,2666.59 L 390.164,2673.94 L 398.533,2683.24 L 404.789,2694.07 L 408.655,2705.97 L 409.963,2718.41 z " style="fill-opacity:1.000000;fill:rgb(62,1,126);stroke:rgb(0,0,0);stroke-width:2"/></g>
<g fill-rule="evenodd"><path d="M 409.963,2498.74 L 408.655,2511.18 L 404.789,2523.07 L 398.533,2533.91 L 390.164,2543.21 L 380.042,2550.56 L 368.615,2555.65 L 356.378,2558.25 L 343.871,2558.25 L 331.633,2555.65 L 320.206,2550.56 L 310.085,2543.21 L 301.715,2533.91 L 295.46,2523.07 L 291.594,2511.18 L 290.286,2498.74 L 291.594,2486.3 L 295.46,2474.4 L 301.715,2463.57 L 310.085,2454.27 L 320.206,2446.92 L 331.633,2441.83 L 343.871,2439.23 L 356.378,2439.23 L 368.615,2441.83 L 380.042,2446.92 L 390.164,2454.27 L 398.533,2463.57 L 404.789,2474.4 L 408.655,2486.3 L 409.963,2498.74 z " style="fill-opacity:1.000000;fill:rgb(151,234,220);stroke:rgb(0,0,0);stroke-width:2"/></g>
<g fill-rule="evenodd"><path d="M 409.963,2278.28 L 408.655,2290.72 L 404.789,2302.62 L 398.533,2313.45 L 390.164,2322.75 L 380.042,2330.1 L 368.615,2335.19 L 356.378,2337.79 L 343.871,2337.79 L 331.633,2335.19 L 320.206,2330.1 L 310.085,2322.75 L 301.715,2313.45 L 295.46,2302.62 L 291.594,2290.72 L 290.286,2278.28 L 291.594,2265.84 L 295.46,2253.94 L 301.715,2243.11 L 310.085,2233.81 L 320.206,2226.46 L 331.633,2221.37 L 343.871,2218.77 L 356.378,2218.77 L 368.615,2221.37 L 380.042,2226.46 L 390.164,2233.81 L 398.533,2243.11 L 404.789,2253.94 L 408.655,2265.84 L 409.963,2278.28 z " style="fill-opacity:1.000000;fill:rgb(107,150,143);stroke:rgb(0,0,0);stroke-width:2"/></g>
<g fill-rule="evenodd"><path d="M 0.145154,209.113 L 3.42296,177.928 L 13.1144,148.106 L 28.7914,120.952 L 49.7742,97.6492 L 75.1407,79.2183 L 103.787,66.463 L 134.459,59.9434 L 165.813,59.9434 L 196.485,66.463 L 225.13,79.2183 L 250.498,97.6492 L 271.481,120.952 L 287.158,148.106 L 296.849,177.928 L 300.127,209.113 L 296.849,240.297 L 287.158,270.119 L 271.481,297.273 L 250.498,320.576 L 225.132,339.007 L 196.485,351.762 L 165.813,358.282 L 134.459,358.282 L 103.787,351.762 L 75.1427,339.007 L 49.7742,320.576 L 28.7914,297.273 L 13.1144,270.119 L 3.42296,240.297 L 0.145154,209.113 z " style="fill-opacity:1.000000;fill:rgb(56,92,42);stroke:rgb(0,0,0);stroke-width:2"/></g>
<g fill-rule="evenodd"><path d="M 0.145154,3908.89 L 3.42296,3877.71 L 13.1144,3847.89 L 28.7914,3820.73 L 49.7742,3797.43 L 75.1407,3779 L 103.787,3766.24 L 134.459,3759.72 L 165.813,3759.72 L 196.485,3766.24 L 225.13,3779 L 250.498,3797.43 L 271.481,3820.73 L 287.158,3847.89 L 296.849,3877.71 L 300.127,3908.89 L 296.849,3940.08 L 287.158,3969.9 L 271.481,3997.05 L 250.498,4020.35 L 225.132,4038.79 L 196.485,4051.54 L 165.813,4058.06 L 134.459,4058.06 L 103.787,4051.54 L 75.1427,4038.79 L 49.7742,4020.35 L 28.7914,3997.05 L 13.1144,3969.9 L 3.42296,3940.08 L 0.145154,3908.89 z " style="fill-opacity:1.000000;fill:rgb(236,176,59);stroke:rgb(0,0,0);stroke-width:2"/></g>
<g fill-rule="evenodd"><path d="M 2447.69,144.114 L 2512.3,144.114 L 2513.39,133.427 L 2517.51,120.3 L 2524.18,108.271 L 2533.15,97.8332 L 2544.03,89.4117 L 2556.38,83.352 L 2569.7,79.9042 L 2583.43,79.2063 L 2597.03,81.2901 L 2609.94,86.0679 L 2621.61,93.3454 L 2631.58,102.825 L 2639.44,114.116 L 2644.87,126.759 L 2647.64,140.237 L 2647.99,171.113 L 2646.6,184.8 L 2642.48,197.927 L 2635.8,209.956 L 2626.84,220.394 L 2615.96,228.815 L 2603.61,234.875 L 2590.29,238.323 L 2576.55,239.021 L 2562.95,236.937 L 2550.05,232.159 L 2538.37,224.882 L 2528.4,215.402 L 2520.54,204.111 L 2515.11,191.468 L 2512.35,177.99 L 2512.3,174.113 L 2447.69,174.113 L 2446.61,184.8 L 2442.49,197.927 L 2435.81,209.956 L 2426.85,220.394 L 2415.97,228.815 L 2403.62,234.875 L 2395,237.105 L 2395,453.098 L 2394.71,456.024 L 2393.86,458.838 L 2392.47,461.429 L 2390.61,463.703 L 2240.56,613.748 L 2238.29,615.614 L 2235.7,617 L 2232.88,617.852 L 2229.96,618.142 L 2130.07,618.142 L 2127.14,617.852 L 2124.33,616.998 L 2121.73,615.612 L 2119.46,613.748 L 1995.03,489.312 L 1995.03,742.225 L 1998.27,742.917 L 2009.55,747.938 L 2019.54,755.194 L 2027.8,764.369 L 2033.97,775.061 L 2037.79,786.8 L 2039.08,799.077 L 2037.79,811.355 L 2033.97,823.094 L 2027.8,833.785 L 2019.54,842.961 L 2009.55,850.216 L 1998.27,855.238 L 1986.2,857.804 L 1973.86,857.804 L 1961.78,855.238 L 1950.5,850.216 L 1940.52,842.961 L 1932.25,833.785 L 1926.08,823.094 L 1922.27,811.355 L 1920.98,799.077 L 1922.27,786.8 L 1926.08,775.061 L 1932.25,764.369 L 1940.52,755.194 L 1950.5,747.938 L 1961.78,742.917 L 1965.03,742.227 L 1965.03,237.251 L 1962.98,236.937 L 1950.08,232.159 L 1938.41,224.882 L 1928.44,215.402 L 1920.58,204.111 L 1915.15,191.468 L 1912.38,177.99 L 1912.03,147.114 L 1913.42,133.427 L 1917.54,120.3 L 1924.22,108.271 L 1933.18,97.8332 L 1944.06,89.4117 L 1956.41,83.352 L 1969.73,79.9042 L 1983.47,79.2063 L 1997.07,81.2901 L 2009.97,86.0679 L 2021.65,93.3454 L 2031.62,102.825 L 2039.48,114.116 L 2044.9,126.759 L 2047.67,140.237 L 2048.02,171.113 L 2046.63,184.8 L 2042.51,197.927 L 2035.83,209.956 L 2026.87,220.394 L 2015.99,228.815 L 2003.64,234.875 L 1995.03,237.105 L 1995.03,446.884 L 2136.28,588.144 L 2223.74,588.144 L 2365,446.882 L 2365,237.251 L 2362.96,236.937 L 2350.06,232.159 L 2338.38,224.882 L 2328.41,215.402 L 2320.55,204.111 L 2315.13,191.468 L 2312.36,177.99 L 2312.01,147.114 L 2313.4,133.427 L 2317.52,120.3 L 2324.2,108.271 L 2333.16,97.8332 L 2344.04,89.4117 L 2356.39,83.352 L 2369.71,79.9042 L 2383.45,79.2063 L 2397.05,81.2901 L 2409.95,86.0679 L 2421.62,93.3454 L 2431.59,102.825 L 2439.45,114.116 L 2444.88,126.759 L 2447.65,140.237 L 2447.69,144.114 z " style="fill-opacity:1.000000;fill:rgb(251,50,175);stroke:rgb(0,0,0);stroke-width:2"/></g>
<g fill-rule="evenodd"><path d="M 407.825,2073.61 L 404.789,2082.94 L 398.533,2093.78 L 390.164,2103.08 L 380.042,2110.43 L 368.615,2115.52 L 356.378,2118.12 L 343.871,2118.12 L 331.633,2115.52 L 320.206,2110.43 L 310.085,2103.08 L 301.715,2093.78 L 295.46,2082.94 L 291.594,2071.05 L 290.286,2058.61 L 291.594,2046.17 L 295.46,2034.27 L 301.715,2023.44 L 310.085,2014.14 L 320.206,2006.79 L 331.633,2001.7 L 343.871,1999.1 L 356.378,1999.1 L 368.615,2001.7 L 380.042,2006.79 L 390.164,2014.14 L 398.533,2023.44 L 404.789,2034.27 L 407.823,2043.61 L 3080.62,2043.61 L 3605.8,1518.43 L 3608.08,1516.56 L 3610.67,1515.17 L 3613.48,1514.32 L 3616.41,1514.03 L 3643.05,1514.03 L 3645.98,1505.02 L 3652.15,1494.33 L 3660.41,1485.15 L 3670.4,1477.89 L 3681.68,1472.87 L 3693.75,1470.31 L 3706.1,1470.31 L 3718.17,1472.87 L 3729.45,1477.89 L 3739.44,1485.15 L 3747.7,1494.33 L 3753.87,1505.02 L 3757.68,1516.76 L 3758.97,1529.03 L 3757.68,1541.31 L 3753.87,1553.05 L 3747.7,1563.74 L 3739.44,1572.92 L 3729.45,1580.17 L 3718.17,1585.19 L 3706.1,1587.76 L 3693.75,1587.76 L 3681.68,1585.19 L 3670.4,1580.17 L 3660.41,1572.92 L 3652.15,1563.74 L 3645.98,1553.05 L 3643.05,1544.03 L 3622.62,1544.03 L 3097.44,2069.21 L 3095.17,2071.08 L 3092.58,2072.47 L 3089.76,2073.32 L 3086.84,2073.61 L 407.825,2073.61 z " style="fill-opacity:1.000000;fill:rgb(60,84,236);stroke:rgb(0,0,0);stroke-width:2"/></g>
<g fill-rule="evenodd"><path d="M 408.027,1834.02 L 3033.08,1834.02 L 3036.02,1825 L 3042.19,1814.31 L 3050.45,1805.13 L 3060.44,1797.88 L 3071.71,1792.85 L 3083.79,1790.29 L 3096.13,1790.29 L 3108.21,1792.85 L 3119.48,1797.88 L 3129.47,1805.13 L 3137.73,1814.31 L 3143.91,1825 L 3147.72,1836.74 L 3149.01,1849.01 L 3147.72,1861.29 L 3143.91,1873.03 L 3137.73,1883.72 L 3129.47,1892.9 L 3119.48,1900.15 L 3108.21,1905.18 L 3096.13,1907.74 L 3083.79,1907.74 L 3071.71,1905.18 L 3060.44,1900.15 L 3050.45,1892.9 L 3042.19,1883.72 L 3036.02,1873.03 L 3033.09,1864.01 L 407.619,1864.01 L 404.789,1872.72 L 398.533,1883.56 L 390.164,1892.85 L 380.042,1900.21 L 368.615,1905.29 L 356.378,1907.9 L 343.871,1907.9 L 331.633,1905.29 L 320.206,1900.21 L 310.085,1892.85 L 301.715,1883.56 L 295.46,1872.72 L 291.594,1860.82 L 290.286,1848.38 L 291.594,1835.95 L 295.46,1824.05 L 301.715,1813.21 L 310.085,1803.92 L 320.206,1796.56 L 331.633,1791.48 L 343.871,1788.87 L 356.378,1788.87 L 368.615,1791.48 L 380.042,1796.56 L 390.164,1803.92 L 398.533,1813.21 L 404.789,1824.05 L 408.027,1834.02 z " style="fill-opacity:1.000000;fill:rgb(24,219,92);stroke:rgb(0,0,0);stroke-width:2"/></g>
<g fill-rule="evenodd"><path d="M 407.825,1643.71 L 404.789,1653.05 L 398.533,1663.88 L 390.164,1673.18 L 380.042,1680.53 L 368.615,1685.62 L 356.378,1688.22 L 343.871,1688.22 L 331.633,1685.62 L 320.206,1680.53 L 310.085,1673.18 L 301.715,1663.88 L 295.46,1653.05 L 291.594,1641.15 L 290.286,1628.71 L 291.594,1616.27 L 295.46,1604.38 L 301.715,1593.54 L 310.085,1584.24 L 320.206,1576.89 L 331.633,1571.8 L 343.871,1569.2 L 356.378,1569.2 L 368.615,1571.8 L 380.042,1576.89 L 390.164,1584.24 L 398.533,1593.54 L 404.789,1604.38 L 407.823,1613.71 L 3224.05,1613.71 L 3849.16,988.61 L 3845.97,983.084 L 3842.15,971.345 L 3840.86,959.068 L 3842.15,946.79 L 3845.97,935.051 L 3852.14,924.36 L 3860.4,915.184 L 3870.39,907.929 L 3881.67,902.907 L 3893.74,900.341 L 3906.08,900.341 L 3918.16,902.907 L 3929.44,907.929 L 3939.42,915.184 L 3947.69,924.36 L 3953.86,935.051 L 3957.67,946.79 L 3958.96,959.068 L 3957.67,971.345 L 3953.86,983.084 L 3947.69,993.776 L 3939.42,1002.95 L 3929.44,1010.21 L 3918.16,1015.23 L 3906.08,1017.79 L 3893.74,1017.79 L 3881.67,1015.23 L 3870.15,1010.04 L 3240.87,1639.32 L 3238.6,1641.18 L 3236.01,1642.57 L 3233.19,1643.42 L 3230.27,1643.71 L 407.825,1643.71 z " style="fill-opacity:1.000000;fill:rgb(2,26,254);stroke:rgb(0,0,0);stroke-width:2"/></g>
<g fill-rule="evenodd"><path d="M 2663.72,3889.42 L 2676.37,3883.13 L 2689.69,3879.68 L 2703.43,3878.98 L 2717.03,3881.07 L 2729.93,3885.84 L 2741.6,3893.12 L 2751.57,3902.6 L 2759.43,3913.89 L 2764.86,3926.53 L 2767.63,3940.01 L 2767.67,3943.89 L 2832.28,3943.89 L 2833.37,3933.2 L 2837.49,3920.07 L 2844.17,3908.05 L 2853.13,3897.61 L 2864.01,3889.19 L 2876.36,3883.13 L 2889.68,3879.68 L 2903.42,3878.98 L 2917.01,3881.07 L 2929.92,3885.84 L 2941.59,3893.12 L 2951.56,3902.6 L 2959.42,3913.89 L 2964.85,3926.53 L 2967.62,3940.01 L 2967.97,3970.89 L 2966.58,3984.57 L 2962.46,3997.7 L 2955.78,4009.73 L 2946.82,4020.17 L 2935.94,4028.59 L 2923.59,4034.65 L 2910.27,4038.1 L 2896.53,4038.8 L 2882.93,4036.71 L 2870.03,4031.93 L 2858.35,4024.66 L 2848.38,4015.18 L 2840.52,4003.89 L 2835.1,3991.24 L 2832.33,3977.77 L 2832.28,3973.89 L 2767.68,3973.89 L 2766.59,3984.57 L 2762.47,3997.7 L 2755.79,4009.73 L 2746.83,4020.17 L 2735.95,4028.59 L 2723.6,4034.65 L 2710.28,4038.1 L 2696.54,4038.8 L 2682.94,4036.71 L 2670.04,4031.93 L 2658.36,4024.66 L 2648.39,4015.18 L 2640.53,4003.89 L 2635.11,3991.24 L 2632.34,3977.77 L 2631.99,3946.89 L 2633.38,3933.2 L 2637.5,3920.07 L 2642.66,3910.78 L 2005.42,3273.54 L 207.837,3273.54 L 204.801,3282.87 L 198.545,3293.71 L 190.176,3303 L 180.054,3310.36 L 168.627,3315.44 L 156.39,3318.05 L 143.883,3318.05 L 131.645,3315.44 L 120.218,3310.36 L 110.097,3303 L 101.727,3293.71 L 95.4715,3282.87 L 91.6057,3270.98 L 90.2978,3258.54 L 91.6057,3246.1 L 95.4715,3234.2 L 101.727,3223.36 L 110.097,3214.07 L 120.218,3206.72 L 131.645,3201.63 L 135.137,3200.89 L 135.137,3096.52 L 131.645,3095.77 L 120.218,3090.68 L 110.097,3083.33 L 101.727,3074.04 L 95.4715,3063.2 L 91.6057,3051.3 L 90.2978,3038.86 L 91.6057,3026.42 L 95.4715,3014.53 L 101.727,3003.69 L 110.097,2994.4 L 120.218,2987.04 L 131.645,2981.95 L 135.137,2981.21 L 135.137,2879.99 L 131.645,2879.25 L 120.218,2874.16 L 110.097,2866.81 L 101.727,2857.51 L 95.4715,2846.68 L 91.6057,2834.78 L 90.2978,2822.34 L 91.6057,2809.9 L 95.4715,2798 L 101.727,2787.17 L 110.097,2777.87 L 120.218,2770.52 L 131.645,2765.43 L 135.137,2764.69 L 135.137,2668.2 L 131.645,2667.45 L 120.218,2662.36 L 110.097,2655.01 L 101.727,2645.71 L 95.4715,2634.88 L 91.6057,2622.98 L 90.2978,2610.54 L 91.6057,2598.1 L 95.4715,2586.21 L 101.727,2575.37 L 110.097,2566.08 L 120.218,2558.72 L 131.645,2553.63 L 135.137,2552.89 L 135.137,2444.59 L 131.645,2443.84 L 120.218,2438.76 L 110.097,2431.4 L 101.727,2422.11 L 95.4715,2411.27 L 91.6057,2399.37 L 90.2978,2386.93 L 91.6057,2374.5 L 95.4715,2362.6 L 101.727,2351.76 L 110.097,2342.47 L 120.218,2335.11 L 131.645,2330.03 L 135.137,2329.28 L 135.137,2228.06 L 131.645,2227.32 L 120.218,2222.23 L 110.097,2214.88 L 101.727,2205.58 L 95.4715,2194.75 L 91.6057,2182.85 L 90.2978,2170.41 L 91.6057,2157.97 L 95.4715,2146.07 L 101.727,2135.24 L 110.097,2125.94 L 120.218,2118.59 L 131.645,2113.5 L 135.137,2112.76 L 135.137,2012.33 L 131.645,2011.58 L 120.218,2006.5 L 110.097,1999.14 L 101.727,1989.85 L 95.4715,1979.01 L 91.6057,1967.12 L 90.2978,1954.68 L 91.6057,1942.24 L 95.4715,1930.34 L 101.727,1919.5 L 110.097,1910.21 L 120.218,1902.86 L 131.645,1897.77 L 135.137,1897.03 L 135.137,1792.66 L 131.645,1791.91 L 120.218,1786.83 L 110.097,1779.47 L 101.727,1770.18 L 95.4715,1759.34 L 91.6057,1747.44 L 90.2978,1735.01 L 91.6057,1722.57 L 95.4715,1710.67 L 98.8073,1704.89 L 34.6911,1640.77 L 32.8252,1638.5 L 31.4393,1635.91 L 30.5873,1633.09 L 30.2994,1630.17 L 30.2994,831.977 L 30.5873,829.049 L 31.4393,826.236 L 32.8252,823.644 L 34.6911,821.37 L 212.82,643.241 L 215.094,641.375 L 217.686,639.989 L 220.5,639.137 L 223.428,638.849 L 1091.1,638.849 L 1522.75,207.201 L 1520.6,204.111 L 1515.17,191.468 L 1512.4,177.99 L 1512.05,147.114 L 1513.45,133.427 L 1517.57,120.3 L 1524.24,108.271 L 1533.21,97.8332 L 1544.08,89.4117 L 1556.44,83.352 L 1569.76,79.9042 L 1583.49,79.2063 L 1597.09,81.2901 L 1609.99,86.0679 L 1616.08,89.8636 L 1682.44,23.5136 L 1684.71,21.6477 L 1687.3,20.2618 L 1690.12,19.4098 L 1693.04,19.1219 L 4546.68,19.1219 L 4549.61,19.4098 L 4552.42,20.2618 L 4555.01,21.6477 L 4557.28,23.5136 L 4623.47,89.7036 L 4625.34,91.9755 L 4626.72,94.5694 L 4627.58,97.3832 L 4627.87,100.311 L 4627.87,1142.98 L 4627.58,1145.91 L 4626.73,1148.72 L 4625.34,1151.32 L 4623.47,1153.59 L 3557.47,2219.6 L 3555.19,2221.46 L 3552.6,2222.85 L 3549.79,2223.7 L 3546.86,2223.99 L 3516.86,2223.99 L 3516.86,2275.92 L 3383.02,2275.92 L 3383.02,2142.07 L 3516.86,2142.07 L 3516.86,2193.99 L 3540.65,2193.99 L 4597.87,1136.77 L 4597.87,106.525 L 4540.47,49.1201 L 1699.26,49.1201 L 1637.35,111.024 L 1639.5,114.116 L 1644.93,126.759 L 1647.7,140.237 L 1648.05,171.113 L 1646.65,184.8 L 1642.54,197.927 L 1635.86,209.956 L 1626.9,220.394 L 1616.02,228.815 L 1603.67,234.875 L 1590.35,238.323 L 1576.61,239.021 L 1563.01,236.937 L 1550.11,232.159 L 1544.01,228.361 L 1107.92,664.453 L 1105.65,666.319 L 1103.06,667.705 L 1100.24,668.557 L 1097.32,668.847 L 229.639,668.847 L 60.2976,838.189 L 60.2976,1623.95 L 119.818,1683.48 L 131.645,1678.1 L 143.883,1675.49 L 156.39,1675.49 L 168.627,1678.1 L 180.054,1683.18 L 190.176,1690.54 L 198.545,1699.83 L 204.801,1710.67 L 208.667,1722.57 L 209.975,1735.01 L 208.667,1747.44 L 204.801,1759.34 L 198.545,1770.18 L 190.176,1779.47 L 180.054,1786.83 L 168.627,1791.91 L 165.135,1792.66 L 165.135,1897.02 L 168.627,1897.77 L 180.054,1902.86 L 190.176,1910.21 L 198.545,1919.5 L 204.801,1930.34 L 208.667,1942.24 L 209.975,1954.68 L 208.667,1967.12 L 204.801,1979.01 L 198.545,1989.85 L 190.176,1999.14 L 180.054,2006.5 L 168.627,2011.58 L 165.135,2012.33 L 165.135,2112.76 L 168.627,2113.5 L 180.054,2118.59 L 190.176,2125.94 L 198.545,2135.24 L 204.801,2146.07 L 208.667,2157.97 L 209.975,2170.41 L 208.667,2182.85 L 204.801,2194.75 L 198.545,2205.58 L 190.176,2214.88 L 180.054,2222.23 L 168.627,2227.32 L 165.135,2228.06 L 165.135,2329.28 L 168.627,2330.03 L 180.054,2335.11 L 190.176,2342.47 L 198.545,2351.76 L 204.801,2362.6 L 208.667,2374.5 L 209.975,2386.93 L 208.667,2399.37 L 204.801,2411.27 L 198.545,2422.11 L 190.176,2431.4 L 180.054,2438.76 L 168.627,2443.84 L 165.135,2444.58 L 165.135,2552.89 L 168.627,2553.63 L 180.054,2558.72 L 190.176,2566.08 L 198.545,2575.37 L 204.801,2586.21 L 208.667,2598.1 L 209.975,2610.54 L 208.667,2622.98 L 204.801,2634.88 L 198.545,2645.71 L 190.176,2655.01 L 180.054,2662.36 L 168.627,2667.45 L 165.135,2668.19 L 165.135,2764.69 L 168.627,2765.43 L 180.054,2770.52 L 190.176,2777.87 L 198.545,2787.17 L 204.801,2798 L 208.667,2809.9 L 209.975,2822.34 L 208.667,2834.78 L 204.801,2846.68 L 198.545,2857.51 L 190.176,2866.81 L 180.054,2874.16 L 168.627,2879.25 L 165.135,2879.99 L 165.135,2981.21 L 168.627,2981.95 L 180.054,2987.04 L 190.176,2994.4 L 198.545,3003.69 L 204.801,3014.53 L 208.667,3026.42 L 209.975,3038.86 L 208.667,3051.3 L 204.801,3063.2 L 198.545,3074.04 L 190.176,3083.33 L 180.054,3090.68 L 168.627,3095.77 L 165.135,3096.51 L 165.135,3200.88 L 168.627,3201.63 L 180.054,3206.72 L 190.176,3214.07 L 198.545,3223.36 L 204.801,3234.2 L 207.835,3243.54 L 2011.63,3243.54 L 2014.56,3243.83 L 2017.37,3244.68 L 2019.96,3246.06 L 2022.24,3247.93 L 2663.72,3889.42 z " style="fill-opacity:1.000000;fill:rgb(67,251,250);stroke:rgb(0,0,0);stroke-width:2"/></g>
<g fill-rule="evenodd"><path d="M 3243.07,1344.04 L 3246,1335.03 L 3252.17,1324.34 L 3260.44,1315.16 L 3270.42,1307.9 L 3281.7,1302.88 L 3293.78,1300.32 L 3306.12,1300.32 L 3318.19,1302.88 L 3329.47,1307.9 L 3339.46,1315.16 L 3347.72,1324.34 L 3353.89,1335.03 L 3357.71,1346.77 L 3359,1359.04 L 3357.71,1371.32 L 3353.89,1383.06 L 3347.72,1393.75 L 3339.46,1402.93 L 3329.47,1410.18 L 3318.19,1415.2 L 3306.12,1417.77 L 3293.78,1417.77 L 3281.7,1415.2 L 3270.42,1410.18 L 3260.44,1402.93 L 3252.17,1393.75 L 3246,1383.06 L 3243.07,1374.04 L 490.958,1374.04 L 445.355,1419.65 L 443.081,1421.51 L 440.489,1422.9 L 437.675,1423.75 L 434.749,1424.04 L 407.825,1424.04 L 404.789,1433.38 L 398.533,1444.21 L 390.164,1453.51 L 380.042,1460.86 L 368.615,1465.95 L 356.378,1468.55 L 343.871,1468.55 L 331.633,1465.95 L 320.206,1460.86 L 310.085,1453.51 L 301.715,1444.21 L 295.46,1433.38 L 291.594,1421.48 L 290.286,1409.04 L 291.594,1396.6 L 295.46,1384.7 L 301.715,1373.87 L 310.085,1364.57 L 320.206,1357.22 L 331.633,1352.13 L 343.871,1349.53 L 356.378,1349.53 L 368.615,1352.13 L 380.042,1357.22 L 390.164,1364.57 L 398.533,1373.87 L 404.789,1384.7 L 407.823,1394.04 L 428.534,1394.04 L 474.139,1348.44 L 476.413,1346.57 L 479.005,1345.18 L 481.818,1344.33 L 484.746,1344.04 L 3243.07,1344.04 z " style="fill-opacity:1.000000;fill:rgb(170,58,251);stroke:rgb(0,0,0);stroke-width:2"/></g>
<g fill-rule="evenodd"><path d="M 408.027,3133.94 L 1923.15,3133.94 L 1926.08,3124.92 L 1932.25,3114.23 L 1940.52,3105.05 L 1950.5,3097.8 L 1961.78,3092.78 L 1973.86,3090.21 L 1986.2,3090.21 L 1998.27,3092.78 L 2009.55,3097.8 L 2019.54,3105.05 L 2027.8,3114.23 L 2033.97,3124.92 L 2037.79,3136.66 L 2039.08,3148.94 L 2037.79,3161.21 L 2033.97,3172.95 L 2027.8,3183.64 L 2019.54,3192.82 L 2009.55,3200.08 L 1998.27,3205.1 L 1986.2,3207.66 L 1973.86,3207.66 L 1961.78,3205.1 L 1950.5,3200.08 L 1940.52,3192.82 L 1932.25,3183.64 L 1926.08,3172.95 L 1923.15,3163.94 L 407.619,3163.94 L 404.789,3172.64 L 398.533,3183.48 L 390.164,3192.77 L 380.042,3200.13 L 368.615,3205.22 L 356.378,3207.82 L 343.871,3207.82 L 331.633,3205.22 L 320.206,3200.13 L 310.085,3192.77 L 301.715,3183.48 L 295.46,3172.64 L 291.594,3160.75 L 290.286,3148.31 L 291.594,3135.87 L 295.46,3123.97 L 301.715,3113.14 L 310.085,3103.84 L 320.206,3096.49 L 331.633,3091.4 L 343.871,3088.8 L 356.378,3088.8 L 368.615,3091.4 L 380.042,3096.49 L 390.164,3103.84 L 398.533,3113.14 L 404.789,3123.97 L 408.027,3133.94 z " style="fill-opacity:1.000000;fill:rgb(41,209,230);stroke:rgb(0,0,0);stroke-width:2"/></g>
<g fill-rule="evenodd"><path d="M 380.442,2980.16 L 368.615,2985.54 L 356.378,2988.14 L 343.871,2988.14 L 331.633,2985.54 L 320.206,2980.45 L 310.085,2973.1 L 301.715,2963.81 L 295.46,2952.97 L 291.594,2941.07 L 290.286,2928.63 L 291.594,2916.19 L 295.46,2904.3 L 301.715,2893.46 L 310.085,2884.17 L 320.206,2876.81 L 331.633,2871.73 L 343.871,2869.12 L 356.378,2869.12 L 368.615,2871.73 L 380.042,2876.81 L 390.164,2884.17 L 398.533,2893.46 L 404.789,2904.3 L 408.655,2916.19 L 409.963,2928.63 L 408.655,2941.07 L 404.789,2952.97 L 401.453,2958.75 L 416.176,2973.47 L 2431.53,2973.47 L 2434.45,2973.76 L 2437.26,2974.61 L 2439.86,2976 L 2442.13,2977.87 L 3408.16,3943.89 L 3432.24,3943.89 L 3433.33,3933.2 L 3437.45,3920.07 L 3444.13,3908.05 L 3453.09,3897.61 L 3463.97,3889.19 L 3476.32,3883.13 L 3489.64,3879.68 L 3503.38,3878.98 L 3516.98,3881.07 L 3529.88,3885.84 L 3541.56,3893.12 L 3551.53,3902.6 L 3559.39,3913.89 L 3564.81,3926.53 L 3567.58,3940.01 L 3567.93,3970.89 L 3566.54,3984.57 L 3562.42,3997.7 L 3555.74,4009.73 L 3546.78,4020.17 L 3535.9,4028.59 L 3523.55,4034.65 L 3510.23,4038.1 L 3496.49,4038.8 L 3482.89,4036.71 L 3469.99,4031.93 L 3458.32,4024.66 L 3448.35,4015.18 L 3440.49,4003.89 L 3435.06,3991.24 L 3432.29,3977.77 L 3432.25,3973.89 L 3401.94,3973.89 L 3399.01,3973.6 L 3396.2,3972.74 L 3393.61,3971.36 L 3391.33,3969.49 L 2425.31,3003.47 L 409.963,3003.47 L 407.035,3003.18 L 404.221,3002.33 L 401.627,3000.94 L 399.355,2999.08 L 380.442,2980.16 z " style="fill-opacity:1.000000;fill:rgb(5,60,124);stroke:rgb(0,0,0);stroke-width:2"/></g>
<g fill-rule="evenodd"><path d="M 207.837,1533.48 L 204.801,1542.82 L 198.545,1553.65 L 190.176,1562.95 L 180.054,1570.3 L 168.627,1575.39 L 156.39,1577.99 L 143.883,1577.99 L 131.645,1575.39 L 120.218,1570.3 L 110.097,1562.95 L 101.727,1553.65 L 95.4715,1542.82 L 91.6057,1530.92 L 90.2978,1518.48 L 91.6057,1506.04 L 95.4715,1494.15 L 101.727,1483.31 L 110.097,1474.01 L 120.218,1466.66 L 131.645,1461.57 L 143.883,1458.97 L 156.39,1458.97 L 168.627,1461.57 L 180.054,1466.66 L 190.176,1474.01 L 198.545,1483.31 L 204.801,1494.15 L 207.835,1503.48 L 2121.55,1503.48 L 2122.25,1496.76 L 2126.07,1485.02 L 2132.24,1474.33 L 2140.5,1465.15 L 2150.49,1457.9 L 2161.77,1452.87 L 2173.84,1450.31 L 2186.19,1450.31 L 2198.26,1452.87 L 2209.54,1457.9 L 2219.53,1465.15 L 2227.79,1474.33 L 2233.96,1485.02 L 2237.78,1496.76 L 2239.07,1509.03 L 2237.78,1521.31 L 2233.96,1533.05 L 2227.79,1543.74 L 2219.53,1552.92 L 2209.54,1560.17 L 2198.26,1565.2 L 2186.19,1567.76 L 2173.84,1567.76 L 2161.77,1565.2 L 2150.49,1560.17 L 2140.5,1552.92 L 2132.24,1543.74 L 2126.32,1533.48 L 207.837,1533.48 z " style="fill-opacity:1.000000;fill:rgb(148,117,216);stroke:rgb(0,0,0);stroke-width:2"/></g>
<g fill-rule="evenodd"><path d="M 1722.74,207.201 L 1720.59,204.111 L 1715.16,191.468 L 1712.39,177.99 L 1712.04,147.114 L 1713.43,133.427 L 1717.55,120.3 L 1724.23,108.271 L 1733.19,97.8332 L 1744.07,89.4117 L 1756.42,83.352 L 1769.74,79.9042 L 1783.48,79.2063 L 1797.08,81.2901 L 1809.98,86.0679 L 1821.66,93.3454 L 1831.63,102.825 L 1839.49,114.116 L 1844.91,126.759 L 1847.68,140.237 L 1848.03,171.113 L 1846.64,184.8 L 1842.52,197.927 L 1835.85,209.956 L 1826.88,220.394 L 1816,228.815 L 1803.65,234.875 L 1790.33,238.323 L 1776.6,239.021 L 1763,236.937 L 1750.09,232.159 L 1744,228.361 L 1203.07,769.291 L 1200.8,771.157 L 1198.21,772.543 L 1195.39,773.395 L 1192.47,773.685 L 409.963,773.685 L 409.963,818.524 L 290.286,818.524 L 290.286,698.847 L 409.963,698.847 L 409.963,743.687 L 1186.25,743.687 L 1722.74,207.201 z " style="fill-opacity:1.000000;fill:rgb(190,97,137);stroke:rgb(0,0,0);stroke-width:2"/></g>
<g fill-rule="evenodd"><path d="M 380.442,1029.89 L 368.615,1035.27 L 356.378,1037.87 L 343.871,1037.87 L 331.633,1035.27 L 320.206,1030.18 L 310.085,1022.82 L 301.715,1013.53 L 295.46,1002.69 L 291.594,990.796 L 290.286,978.357 L 291.594,965.917 L 295.46,954.02 L 301.715,943.185 L 310.085,933.889 L 320.206,926.536 L 331.633,921.448 L 343.871,918.846 L 356.378,918.846 L 368.615,921.448 L 380.042,926.536 L 390.164,933.889 L 398.533,943.185 L 404.789,954.02 L 408.655,965.917 L 409.963,978.357 L 408.655,990.796 L 404.789,1002.69 L 401.453,1008.47 L 416.176,1023.2 L 3444.59,1023.2 L 3484.94,982.85 L 3484.94,237.251 L 3482.89,236.937 L 3469.99,232.159 L 3458.32,224.882 L 3448.35,215.402 L 3440.49,204.111 L 3435.06,191.468 L 3432.29,177.99 L 3431.94,147.114 L 3433.33,133.427 L 3437.45,120.3 L 3444.13,108.271 L 3453.09,97.8332 L 3463.97,89.4117 L 3476.32,83.352 L 3489.64,79.9042 L 3503.38,79.2063 L 3516.98,81.2901 L 3529.88,86.0679 L 3541.56,93.3454 L 3551.53,102.825 L 3559.39,114.116 L 3564.81,126.759 L 3567.58,140.237 L 3567.93,171.113 L 3566.54,184.8 L 3562.42,197.927 L 3555.74,209.956 L 3546.78,220.394 L 3535.9,228.815 L 3523.55,234.875 L 3514.94,237.105 L 3514.94,989.066 L 3514.65,991.992 L 3513.79,994.806 L 3512.41,997.397 L 3510.54,999.671 L 3461.41,1048.8 L 3459.14,1050.67 L 3456.54,1052.05 L 3453.73,1052.9 L 3450.81,1053.19 L 409.963,1053.19 L 407.035,1052.9 L 404.221,1052.05 L 401.627,1050.66 L 399.355,1048.8 L 380.442,1029.89 z " style="fill-opacity:1.000000;fill:rgb(249,92,187);stroke:rgb(0,0,0);stroke-width:2"/></g>
<g fill-rule="evenodd"><path d="M 380.442,1240.11 L 368.615,1245.49 L 356.378,1248.09 L 343.871,1248.09 L 331.633,1245.49 L 320.206,1240.4 L 310.085,1233.05 L 301.715,1223.75 L 295.46,1212.92 L 291.594,1201.02 L 290.286,1188.58 L 291.594,1176.14 L 295.46,1164.24 L 301.715,1153.41 L 310.085,1144.11 L 320.206,1136.76 L 331.633,1131.67 L 343.871,1129.07 L 356.378,1129.07 L 368.615,1131.67 L 380.042,1136.76 L 390.164,1144.11 L 398.533,1153.41 L 404.789,1164.24 L 408.655,1176.14 L 409.963,1188.58 L 408.655,1201.02 L 404.789,1212.92 L 401.453,1218.7 L 416.176,1233.42 L 3424.35,1233.42 L 4084.9,572.875 L 4084.9,237.251 L 4082.86,236.937 L 4069.96,232.159 L 4058.28,224.882 L 4048.31,215.402 L 4040.45,204.111 L 4035.02,191.468 L 4032.25,177.99 L 4031.9,147.114 L 4033.3,133.427 L 4037.42,120.3 L 4044.09,108.271 L 4053.06,97.8332 L 4063.93,89.4117 L 4076.29,83.352 L 4089.6,79.9042 L 4103.34,79.2063 L 4116.94,81.2901 L 4129.84,86.0679 L 4141.52,93.3454 L 4151.49,102.825 L 4159.35,114.116 L 4164.78,126.759 L 4167.55,140.237 L 4167.9,171.113 L 4166.5,184.8 L 4162.38,197.927 L 4155.71,209.956 L 4146.75,220.394 L 4135.87,228.815 L 4123.51,234.875 L 4114.9,237.105 L 4114.9,579.09 L 4114.61,582.016 L 4113.76,584.83 L 4112.37,587.422 L 4110.51,589.696 L 3441.18,1259.03 L 3438.9,1260.89 L 3436.31,1262.28 L 3433.5,1263.13 L 3430.57,1263.42 L 409.963,1263.42 L 407.035,1263.13 L 404.221,1262.28 L 401.627,1260.89 L 399.355,1259.03 L 380.442,1240.11 z " style="fill-opacity:1.000000;fill:rgb(168,153,15);stroke:rgb(0,0,0);stroke-width:2"/></g>
<g fill-rule="evenodd"><path d="M 2165.02,237.251 L 2162.97,236.937 L 2150.07,232.159 L 2138.4,224.882 L 2128.42,215.402 L 2120.56,204.111 L 2115.14,191.468 L 2112.37,177.99 L 2112.02,147.114 L 2113.41,133.427 L 2117.53,120.3 L 2124.21,108.271 L 2133.17,97.8332 L 2144.05,89.4117 L 2156.4,83.352 L 2169.72,79.9042 L 2183.46,79.2063 L 2197.06,81.2901 L 2209.96,86.0679 L 2221.63,93.3454 L 2231.61,102.825 L 2239.47,114.116 L 2244.89,126.759 L 2247.66,140.237 L 2248.01,171.113 L 2246.62,184.8 L 2242.5,197.927 L 2235.82,209.956 L 2226.86,220.394 L 2215.98,228.815 L 2203.63,234.875 L 2195.01,237.105 L 2195.01,442.243 L 2198.26,442.935 L 2209.54,447.956 L 2219.53,455.212 L 2227.79,464.387 L 2233.96,475.079 L 2237.78,486.818 L 2239.07,499.095 L 2237.78,511.372 L 2233.96,523.112 L 2227.79,533.803 L 2219.53,542.979 L 2209.54,550.234 L 2198.26,555.256 L 2186.19,557.822 L 2173.84,557.822 L 2161.77,555.256 L 2150.49,550.234 L 2140.5,542.979 L 2132.24,533.803 L 2126.07,523.112 L 2122.25,511.372 L 2120.96,499.095 L 2122.25,486.818 L 2126.07,475.079 L 2132.24,464.387 L 2140.5,455.212 L 2150.49,447.956 L 2161.77,442.935 L 2165.02,442.245 L 2165.02,237.251 z " style="fill-opacity:1.000000;fill:rgb(149,177,235);stroke:rgb(0,0,0);stroke-width:2"/></g>
<g fill-rule="evenodd"><path d="M 3393.22,2044.51 L 3387.18,2032.25 L 3383.79,2019.14 L 3383.1,2005.62 L 3385.15,1992.23 L 3389.85,1979.53 L 3397.02,1968.04 L 3406.35,1958.23 L 3417.46,1950.49 L 3429.91,1945.15 L 3443.17,1942.42 L 3449.94,1942.08 L 3463.41,1943.45 L 3476.33,1947.5 L 3488.17,1954.08 L 3498.44,1962.9 L 3506.73,1973.61 L 3512.7,1985.76 L 3516.09,1998.87 L 3516.78,2012.39 L 3514.73,2025.78 L 3510.02,2038.48 L 3502.86,2049.97 L 3493.53,2059.78 L 3482.42,2067.52 L 3469.97,2072.86 L 3456.71,2075.59 L 3449.94,2075.93 L 3436.47,2074.56 L 3423.55,2070.51 L 3414.61,2065.55 L 3353.01,2127.14 L 3353.01,2778.81 L 4463.61,3889.42 L 4476.26,3883.13 L 4489.58,3879.68 L 4503.32,3878.98 L 4516.92,3881.07 L 4529.82,3885.84 L 4541.49,3893.12 L 4551.47,3902.6 L 4559.32,3913.89 L 4564.75,3926.53 L 4567.52,3940.01 L 4567.87,3970.89 L 4566.48,3984.57 L 4562.36,3997.7 L 4555.68,4009.73 L 4546.72,4020.17 L 4535.84,4028.59 L 4523.49,4034.65 L 4510.17,4038.1 L 4496.43,4038.8 L 4482.83,4036.71 L 4469.93,4031.93 L 4458.25,4024.66 L 4448.28,4015.18 L 4440.42,4003.89 L 4435,3991.24 L 4432.23,3977.77 L 4431.88,3946.89 L 4433.27,3933.2 L 4437.39,3920.07 L 4442.55,3910.78 L 3327.41,2795.63 L 3325.54,2793.36 L 3324.16,2790.77 L 3323.3,2787.95 L 3323.02,2785.03 L 3323.02,2120.93 L 3323.3,2118 L 3324.16,2115.18 L 3325.54,2112.59 L 3327.41,2110.32 L 3393.22,2044.51 z " style="fill-opacity:1.000000;fill:rgb(241,179,5);stroke:rgb(0,0,0);stroke-width:2"/></g>
<g fill-rule="evenodd"><path d="M 3684.93,237.251 L 3682.88,236.937 L 3669.98,232.159 L 3658.3,224.882 L 3648.33,215.402 L 3640.47,204.111 L 3635.05,191.468 L 3632.28,177.99 L 3631.93,147.114 L 3633.32,133.427 L 3637.44,120.3 L 3644.12,108.271 L 3653.08,97.8332 L 3663.96,89.4117 L 3676.31,83.352 L 3689.63,79.9042 L 3703.37,79.2063 L 3716.97,81.2901 L 3729.87,86.0679 L 3741.54,93.3454 L 3751.52,102.825 L 3759.37,114.116 L 3764.8,126.759 L 3767.57,140.237 L 3767.92,171.113 L 3766.53,184.8 L 3762.41,197.927 L 3755.73,209.956 L 3746.77,220.394 L 3735.89,228.815 L 3723.54,234.875 L 3714.92,237.105 L 3714.92,722.226 L 3718.17,722.918 L 3729.45,727.94 L 3739.44,735.195 L 3747.7,744.371 L 3753.87,755.062 L 3757.68,766.801 L 3758.97,779.078 L 3757.68,791.356 L 3753.87,803.095 L 3747.7,813.786 L 3739.44,822.962 L 3729.45,830.217 L 3718.17,835.239 L 3706.1,837.805 L 3693.75,837.805 L 3681.68,835.239 L 3670.4,830.217 L 3660.41,822.962 L 3652.15,813.786 L 3645.98,803.095 L 3642.16,791.356 L 3640.87,779.078 L 3642.16,766.801 L 3645.98,755.062 L 3652.15,744.371 L 3660.41,735.195 L 3670.4,727.94 L 3681.68,722.918 L 3684.93,722.228 L 3684.93,237.251 z " style="fill-opacity:1.000000;fill:rgb(239,247,0);stroke:rgb(0,0,0);stroke-width:2"/></g>
<g fill-rule="evenodd"><path d="M 3084.96,237.251 L 3082.92,236.937 L 3070.02,232.159 L 3058.34,224.882 L 3048.37,215.402 L 3040.51,204.111 L 3035.08,191.468 L 3032.31,177.99 L 3031.96,147.114 L 3033.36,133.427 L 3037.48,120.3 L 3044.15,108.271 L 3053.11,97.8332 L 3063.99,89.4117 L 3076.35,83.352 L 3089.66,79.9042 L 3103.4,79.2063 L 3117,81.2901 L 3129.9,86.0679 L 3141.58,93.3454 L 3151.55,102.825 L 3159.41,114.116 L 3164.84,126.759 L 3167.61,140.237 L 3167.96,171.113 L 3166.56,184.8 L 3162.44,197.927 L 3155.77,209.956 L 3146.81,220.394 L 3135.93,228.815 L 3123.57,234.875 L 3114.96,237.105 L 3114.96,782.222 L 3118.21,782.914 L 3129.48,787.936 L 3139.47,795.191 L 3147.73,804.367 L 3153.9,815.058 L 3157.72,826.798 L 3159.01,839.075 L 3157.72,851.352 L 3153.9,863.091 L 3147.73,873.783 L 3139.47,882.958 L 3129.48,890.214 L 3118.21,895.236 L 3106.13,897.801 L 3093.79,897.801 L 3081.71,895.236 L 3070.44,890.214 L 3060.45,882.958 L 3052.19,873.783 L 3046.02,863.091 L 3042.2,851.352 L 3040.91,839.075 L 3042.2,826.798 L 3046.02,815.058 L 3052.19,804.367 L 3060.45,795.191 L 3070.44,787.936 L 3081.71,782.914 L 3084.96,782.224 L 3084.96,237.251 z " style="fill-opacity:1.000000;fill:rgb(233,161,58);stroke:rgb(0,0,0);stroke-width:2"/></g>
<g fill-rule="evenodd"><path d="M 3314.95,772.223 L 3318.19,772.915 L 3329.47,777.937 L 3339.46,785.192 L 3347.72,794.368 L 3353.89,805.059 L 3357.71,816.798 L 3359,829.075 L 3357.71,841.353 L 3353.89,853.092 L 3347.72,863.783 L 3339.46,872.959 L 3329.47,880.214 L 3318.19,885.236 L 3306.12,887.802 L 3293.78,887.802 L 3281.7,885.236 L 3270.42,880.214 L 3260.44,872.959 L 3252.17,863.783 L 3246,853.092 L 3242.19,841.353 L 3240.9,829.075 L 3242.19,816.798 L 3246,805.059 L 3252.17,794.368 L 3260.44,785.192 L 3270.42,777.937 L 3281.7,772.915 L 3284.95,772.225 L 3284.95,237.251 L 3282.91,236.937 L 3270,232.159 L 3258.33,224.882 L 3248.36,215.402 L 3240.5,204.111 L 3235.07,191.468 L 3232.3,177.99 L 3231.95,147.114 L 3233.34,133.427 L 3237.46,120.3 L 3244.14,108.271 L 3253.1,97.8332 L 3263.98,89.4117 L 3276.33,83.352 L 3289.65,79.9042 L 3303.39,79.2063 L 3316.99,81.2901 L 3329.89,86.0679 L 3341.57,93.3454 L 3351.54,102.825 L 3359.4,114.116 L 3364.82,126.759 L 3367.59,140.237 L 3367.94,171.113 L 3366.55,184.8 L 3362.43,197.927 L 3355.75,209.956 L 3346.79,220.394 L 3335.91,228.815 L 3323.56,234.875 L 3314.95,237.105 L 3314.95,772.223 z " style="fill-opacity:1.000000;fill:rgb(229,202,11);stroke:rgb(0,0,0);stroke-width:2"/></g>
<g fill-rule="evenodd"><path d="M 3884.91,237.251 L 3882.87,236.937 L 3869.97,232.159 L 3858.29,224.882 L 3848.32,215.402 L 3840.46,204.111 L 3835.04,191.468 L 3832.27,177.99 L 3831.92,147.114 L 3833.31,133.427 L 3837.43,120.3 L 3844.11,108.271 L 3853.07,97.8332 L 3863.95,89.4117 L 3876.3,83.352 L 3889.62,79.9042 L 3903.36,79.2063 L 3916.96,81.2901 L 3929.86,86.0679 L 3941.53,93.3454 L 3951.5,102.825 L 3959.36,114.116 L 3964.79,126.759 L 3967.56,140.237 L 3967.91,171.113 L 3966.52,184.8 L 3962.4,197.927 L 3955.72,209.956 L 3946.76,220.394 L 3935.88,228.815 L 3923.53,234.875 L 3914.91,237.105 L 3914.91,402.245 L 3918.16,402.937 L 3929.44,407.959 L 3939.42,415.214 L 3947.69,424.39 L 3953.86,435.081 L 3957.67,446.82 L 3958.96,459.098 L 3957.67,471.375 L 3953.86,483.114 L 3947.69,493.806 L 3939.42,502.981 L 3929.44,510.237 L 3918.16,515.258 L 3906.08,517.824 L 3893.74,517.824 L 3881.67,515.258 L 3870.39,510.237 L 3860.4,502.981 L 3852.14,493.806 L 3845.97,483.114 L 3842.15,471.375 L 3840.86,459.098 L 3842.15,446.82 L 3845.97,435.081 L 3852.14,424.39 L 3860.4,415.214 L 3870.39,407.959 L 3881.67,402.937 L 3884.91,402.247 L 3884.91,237.251 z " style="fill-opacity:1.000000;fill:rgb(203,208,72);stroke:rgb(0,0,0);stroke-width:2"/></g>
</svg>
