<?xml version="1.0" standalone="no"?>
<!DOCTYPE svg PUBLIC "-//W3C//DTD SVG 1.1//EN"
"http://www.w3.org/Graphics/SVG/1.1/DTD/svg11.dtd">
<svg width="5411" height="4211" viewBox="0 0 5411 4211" version="1.1"
xmlns="http://www.w3.org/2000/svg"
xmlns:xlink="http://www.w3.org/1999/xlink">
<g fill-rule="evenodd"><path d="M 6,5 L 5084,5 L 5085,6 L 5204,125 L 5204,125 L 5205,1023 L 5205,1024 L 5205,1025 L 5206,1026 L 5206,1027 L 5404,1225 L 5404,1225 L 5404,1226 L 5404,3804 L 5404,3805 L 5404,3805 L 5206,4003 L 5206,4004 L 5205,4005 L 5205,4006 L 5205,4007 L 5205,4204 L 5204,4204 L 5204,4205 L 6,4205 L 6,4204 L 6,4204 L 6,6 L 6,5 L 6,5 z " style="fill-opacity:1.000000;fill:rgb(41,35,190);stroke:rgb(0,0,0);stroke-width:2"/></g>
</svg>
