<?xml version="1.0" standalone="no"?>
<!DOCTYPE svg PUBLIC "-//W3C//DTD SVG 1.1//EN"
"http://www.w3.org/Graphics/SVG/1.1/DTD/svg11.dtd">
<svg width="5490" height="4290" viewBox="0 0 5490 4290" version="1.1"
xmlns="http://www.w3.org/2000/svg"
xmlns:xlink="http://www.w3.org/1999/xlink">
<g fill-rule="evenodd"><path d="M 5284,4061 L 5284,4244 L 5283,4251 L 5283,4252 L 5280,4259 L 5277,4266 L 5272,4272 L 5266,4277 L 5259,4281 L 5252,4283 L 5251,4283 L 5244,4284 L 45,4284 L 38,4283 L 37,4283 L 30,4280 L 23,4277 L 17,4272 L 12,4266 L 9,4259 L 6,4252 L 6,4251 L 5,4244 L 5,45 L 6,37 L 9,30 L 9,30 L 12,23 L 17,17 L 23,12 L 30,8 L 37,6 L 38,6 L 45,5 L 5124,5 L 5131,6 L 5131,6 L 5139,8 L 5146,12 L 5152,17 L 5272,136 L 5276,142 L 5277,143 L 5280,150 L 5283,157 L 5283,165 L 5284,1048 L 5472,1236 L 5476,1242 L 5477,1243 L 5480,1250 L 5483,1257 L 5483,1258 L 5484,1265 L 5484,3844 L 5483,3851 L 5483,3852 L 5480,3859 L 5477,3866 L 5476,3867 L 5472,3873 L 5284,4061 z " style="fill-opacity:1.000000;fill:rgb(41,35,190);stroke:rgb(0,0,0);stroke-width:2"/></g>
</svg>
