<?xml version="1.0" standalone="no"?>
<!DOCTYPE svg PUBLIC "-//W3C//DTD SVG 1.1//EN"
"http://www.w3.org/Graphics/SVG/1.1/DTD/svg11.dtd">
<svg width="5478" height="4278" viewBox="0 0 5478 4278" version="1.1"
xmlns="http://www.w3.org/2000/svg"
xmlns:xlink="http://www.w3.org/1999/xlink">
<g fill-rule="evenodd"><path d="M 0.103769,4278 L 0.103769,0 L 5477.9,0 L 5477.9,4278 L 0.103769,4278 z " style="fill-opacity:0.300000;fill:rgb(103,198,105);"/></g>
<g fill-rule="evenodd"><path d="M 5477.9,1259.15 L 5477.9,3838.71 L 5477.14,3846.38 L 5474.9,3853.77 L 5471.26,3860.57 L 5466.37,3866.54 L 5277.93,4054.97 L 5277.93,4238.64 L 5277.17,4246.32 L 5274.93,4253.7 L 5271.3,4260.51 L 5266.4,4266.47 L 5260.44,4271.37 L 5253.63,4275 L 5246.25,4277.24 L 5238.57,4278 L 39.467,4278 L 31.7863,4277.24 L 24.4016,4275 L 17.5967,4271.37 L 11.6318,4266.47 L 6.73662,4260.51 L 3.09925,4253.7 L 0.859638,4246.32 L 0.103769,4238.64 L 0.103769,39.3632 L 0.859638,31.6825 L 3.09925,24.2978 L 6.73662,17.493 L 11.6318,11.528 L 17.5967,6.63285 L 24.4016,2.99548 L 31.7863,0.755869 L 39.467,0 L 5118.59,0 L 5126.27,0.755869 L 5133.65,2.99548 L 5140.45,6.63285 L 5146.42,11.528 L 5266.4,131.507 L 5271.3,137.472 L 5274.93,144.277 L 5277.17,151.662 L 5277.93,159.342 L 5277.93,1042.88 L 5466.37,1231.32 L 5471.26,1237.28 L 5474.9,1244.09 L 5477.14,1251.47 L 5477.9,1259.15 z " style="fill-opacity:0.600000;fill:rgb(103,198,105);stroke:rgb(0,0,0);stroke-width:2"/></g>
<g fill-rule="evenodd"><path d="M 5118.59,39.3632 L 5238.57,159.342 L 5238.57,1059.19 L 5438.53,1259.15 L 5438.53,3838.71 L 5238.57,4038.67 L 5238.57,4238.64 L 39.467,4238.64 L 39.467,39.3632 L 5118.59,39.3632 z " style="fill-opacity:1.000000;fill:rgb(103,198,105);stroke:rgb(0,0,0);stroke-width:2"/></g>
</svg>
